%TF.GenerationSoftware,KiCad,Pcbnew,10.0.3*%
%TF.CreationDate,2026-07-22T00:39:48+08:00*%
%TF.ProjectId,riskybirdv3_connector,7269736b-7962-4697-9264-76335f636f6e,rev?*%
%TF.SameCoordinates,Original*%
%TF.FileFunction,Copper,L1,Top*%
%TF.FilePolarity,Positive*%
%FSLAX46Y46*%
G04 Gerber Fmt 4.6, Leading zero omitted, Abs format (unit mm)*
G04 Created by KiCad (PCBNEW 10.0.3) date 2026-07-22 00:39:48*
%MOMM*%
%LPD*%
G01*
G04 APERTURE LIST*
G04 Aperture macros list*
%AMRoundRect*
0 Rectangle with rounded corners*
0 $1 Rounding radius*
0 $2 $3 $4 $5 $6 $7 $8 $9 X,Y pos of 4 corners*
0 Add a 4 corners polygon primitive as box body*
4,1,4,$2,$3,$4,$5,$6,$7,$8,$9,$2,$3,0*
0 Add four circle primitives for the rounded corners*
1,1,$1+$1,$2,$3*
1,1,$1+$1,$4,$5*
1,1,$1+$1,$6,$7*
1,1,$1+$1,$8,$9*
0 Add four rect primitives between the rounded corners*
20,1,$1+$1,$2,$3,$4,$5,0*
20,1,$1+$1,$4,$5,$6,$7,0*
20,1,$1+$1,$6,$7,$8,$9,0*
20,1,$1+$1,$8,$9,$2,$3,0*%
G04 Aperture macros list end*
%TA.AperFunction,SMDPad,CuDef*%
%ADD10C,1.000000*%
%TD*%
%TA.AperFunction,SMDPad,CuDef*%
%ADD11RoundRect,0.147500X0.172500X-0.147500X0.172500X0.147500X-0.172500X0.147500X-0.172500X-0.147500X0*%
%TD*%
%TA.AperFunction,SMDPad,CuDef*%
%ADD12RoundRect,0.100000X-0.100000X0.130000X-0.100000X-0.130000X0.100000X-0.130000X0.100000X0.130000X0*%
%TD*%
%TA.AperFunction,SMDPad,CuDef*%
%ADD13RoundRect,0.100000X0.100000X-0.130000X0.100000X0.130000X-0.100000X0.130000X-0.100000X-0.130000X0*%
%TD*%
%TA.AperFunction,SMDPad,CuDef*%
%ADD14RoundRect,0.100000X0.130000X0.100000X-0.130000X0.100000X-0.130000X-0.100000X0.130000X-0.100000X0*%
%TD*%
%TA.AperFunction,SMDPad,CuDef*%
%ADD15RoundRect,0.100000X-0.130000X-0.100000X0.130000X-0.100000X0.130000X0.100000X-0.130000X0.100000X0*%
%TD*%
%TA.AperFunction,SMDPad,CuDef*%
%ADD16R,1.900000X0.400000*%
%TD*%
%TA.AperFunction,SMDPad,CuDef*%
%ADD17RoundRect,0.150000X-0.425000X0.150000X-0.425000X-0.150000X0.425000X-0.150000X0.425000X0.150000X0*%
%TD*%
%TA.AperFunction,SMDPad,CuDef*%
%ADD18RoundRect,0.075000X-0.500000X0.075000X-0.500000X-0.075000X0.500000X-0.075000X0.500000X0.075000X0*%
%TD*%
%TA.AperFunction,ComponentPad*%
%ADD19O,2.100000X1.000000*%
%TD*%
%TA.AperFunction,ComponentPad*%
%ADD20O,1.800000X1.000000*%
%TD*%
%TA.AperFunction,SMDPad,CuDef*%
%ADD21RoundRect,0.147500X-0.172500X0.147500X-0.172500X-0.147500X0.172500X-0.147500X0.172500X0.147500X0*%
%TD*%
%TA.AperFunction,SMDPad,CuDef*%
%ADD22RoundRect,0.150000X-0.512500X-0.150000X0.512500X-0.150000X0.512500X0.150000X-0.512500X0.150000X0*%
%TD*%
%TA.AperFunction,SMDPad,CuDef*%
%ADD23RoundRect,0.075000X-0.700000X-0.075000X0.700000X-0.075000X0.700000X0.075000X-0.700000X0.075000X0*%
%TD*%
%TA.AperFunction,SMDPad,CuDef*%
%ADD24RoundRect,0.075000X-0.075000X-0.700000X0.075000X-0.700000X0.075000X0.700000X-0.075000X0.700000X0*%
%TD*%
%TA.AperFunction,SMDPad,CuDef*%
%ADD25RoundRect,0.250000X-0.375000X-1.075000X0.375000X-1.075000X0.375000X1.075000X-0.375000X1.075000X0*%
%TD*%
%TA.AperFunction,ViaPad*%
%ADD26C,0.600000*%
%TD*%
%TA.AperFunction,Conductor*%
%ADD27C,0.152400*%
%TD*%
G04 APERTURE END LIST*
D10*
%TO.P,TP23,1,1_1*%
%TO.N,/TXD_2*%
X32700000Y-83800000D03*
%TD*%
D11*
%TO.P,TX1,1,K_1*%
%TO.N,/TX_LED1*%
X37100000Y-82385000D03*
%TO.P,TX1,2,A_2*%
%TO.N,Net-(D18-A)*%
X37100000Y-81415000D03*
%TD*%
D12*
%TO.P,C55,1*%
%TO.N,/FTDI_3v3_1*%
X43975000Y-71525000D03*
%TO.P,C55,2*%
%TO.N,GND*%
X43975000Y-72165000D03*
%TD*%
D13*
%TO.P,R43,1*%
%TO.N,/FTDI_3v3_2*%
X41000000Y-87720000D03*
%TO.P,R43,2*%
%TO.N,Net-(D16-A)*%
X41000000Y-87080000D03*
%TD*%
D10*
%TO.P,TP22,1,1_1*%
%TO.N,/FTDI_3v3_1*%
X39600000Y-77100000D03*
%TD*%
%TO.P,TP20,1,1_1*%
%TO.N,/TDO_1*%
X60900000Y-76600000D03*
%TD*%
D14*
%TO.P,C71,1*%
%TO.N,/FTDI_3v3_2*%
X43775000Y-95545000D03*
%TO.P,C71,2*%
%TO.N,GND*%
X43135000Y-95545000D03*
%TD*%
D15*
%TO.P,R5,1*%
%TO.N,Net-(J1-D--PadA7)*%
X43335000Y-73700000D03*
%TO.P,R5,2*%
%TO.N,/USB_DM_1*%
X43975000Y-73700000D03*
%TD*%
D10*
%TO.P,TP13,1,1_1*%
%TO.N,/TCK_1*%
X37625000Y-78325000D03*
%TD*%
D12*
%TO.P,C81,1*%
%TO.N,/VTREF_2*%
X54800000Y-99560000D03*
%TO.P,C81,2*%
%TO.N,GND*%
X54800000Y-100200000D03*
%TD*%
D10*
%TO.P,TP32,1,1_1*%
%TO.N,/FTDI_3v3_2*%
X35100000Y-87200000D03*
%TD*%
%TO.P,TP28,1,1_1*%
%TO.N,/RXD_2*%
X58600000Y-97800000D03*
%TD*%
D13*
%TO.P,R42,1*%
%TO.N,/FTDI_3v3_2*%
X37200000Y-87665000D03*
%TO.P,R42,2*%
%TO.N,Net-(D15-A)*%
X37200000Y-87025000D03*
%TD*%
D10*
%TO.P,TP14,1,1_1*%
%TO.N,/TDI_1*%
X42300000Y-100300000D03*
%TD*%
%TO.P,TP25,1,1_1*%
%TO.N,/TDI_2*%
X60900000Y-97500000D03*
%TD*%
D15*
%TO.P,R6,1*%
%TO.N,Net-(J2-D--PadA7)*%
X43135000Y-92445000D03*
%TO.P,R6,2*%
%TO.N,/USB_DM_2*%
X43775000Y-92445000D03*
%TD*%
D10*
%TO.P,TP16,1,1_1*%
%TO.N,/VTREF_1*%
X60900000Y-72000000D03*
%TD*%
D13*
%TO.P,C66,1*%
%TO.N,/FTDI_3v3_1*%
X48675000Y-67120000D03*
%TO.P,C66,2*%
%TO.N,GND*%
X48675000Y-66480000D03*
%TD*%
D11*
%TO.P,RX1,1,K_1*%
%TO.N,/RX_LED1*%
X39100000Y-82385000D03*
%TO.P,RX1,2,A_2*%
%TO.N,Net-(D17-A)*%
X39100000Y-81415000D03*
%TD*%
D14*
%TO.P,R65,1*%
%TO.N,Net-(U15-REF)*%
X43775000Y-91645000D03*
%TO.P,R65,2*%
%TO.N,GND*%
X43135000Y-91645000D03*
%TD*%
D12*
%TO.P,C67,1*%
%TO.N,/FTDI_3v3_1*%
X43220000Y-71525000D03*
%TO.P,C67,2*%
%TO.N,GND*%
X43220000Y-72165000D03*
%TD*%
D13*
%TO.P,C75,1*%
%TO.N,/FTDI_3v3_1*%
X49475000Y-67120000D03*
%TO.P,C75,2*%
%TO.N,GND*%
X49475000Y-66480000D03*
%TD*%
%TO.P,C50,1*%
%TO.N,Net-(U15-VREGOUT)*%
X55600000Y-85265000D03*
%TO.P,C50,2*%
%TO.N,GND*%
X55600000Y-84625000D03*
%TD*%
D12*
%TO.P,C78,1*%
%TO.N,/FTDI_3v3_2*%
X43900000Y-90125000D03*
%TO.P,C78,2*%
%TO.N,GND*%
X43900000Y-90765000D03*
%TD*%
%TO.P,R49,1*%
%TO.N,/FTDI_3v3_1*%
X37100000Y-79880000D03*
%TO.P,R49,2*%
%TO.N,Net-(D18-A)*%
X37100000Y-80520000D03*
%TD*%
D15*
%TO.P,R8,1*%
%TO.N,Net-(J1-D+-PadA6)*%
X43335000Y-74500000D03*
%TO.P,R8,2*%
%TO.N,/USB_DP_1*%
X43975000Y-74500000D03*
%TD*%
D16*
%TO.P,Y3,1*%
%TO.N,/FTDI_OSCI_1*%
X43375000Y-68000000D03*
%TO.P,Y3,2*%
%TO.N,GND*%
X43375000Y-69200000D03*
%TO.P,Y3,3*%
%TO.N,/FTDI_OSCO_1*%
X43375000Y-70400000D03*
%TD*%
D17*
%TO.P,J2,A1,GND_A1*%
%TO.N,GND*%
X35090000Y-90800000D03*
%TO.P,J2,A4,VBUS_A4*%
%TO.N,Net-(C2-Pad1)*%
X35090000Y-91600000D03*
D18*
%TO.P,J2,A5,CC1_A5*%
%TO.N,Net-(J2-CC1)*%
X35090000Y-92750000D03*
%TO.P,J2,A6,D+_A6*%
%TO.N,Net-(J2-D+-PadA6)*%
X35090000Y-93750000D03*
%TO.P,J2,A7,D-_A7*%
%TO.N,Net-(J2-D--PadA7)*%
X35090000Y-94250000D03*
%TO.P,J2,A8,SBU1_A8*%
%TO.N,unconnected-(J2-SBU1-PadA8)*%
X35090000Y-95250000D03*
D17*
%TO.P,J2,A9,VBUS_A9*%
%TO.N,Net-(C2-Pad1)*%
X35090000Y-96400000D03*
%TO.P,J2,A12,GND_A12*%
%TO.N,GND*%
X35090000Y-97200000D03*
%TO.P,J2,B1,GND_B1*%
X35090000Y-97200000D03*
%TO.P,J2,B4,VBUS_B4*%
%TO.N,Net-(C2-Pad1)*%
X35090000Y-96400000D03*
D18*
%TO.P,J2,B5,CC2_B5*%
%TO.N,Net-(J2-CC2)*%
X35090000Y-95750000D03*
%TO.P,J2,B6,D+_B6*%
%TO.N,Net-(J2-D+-PadA6)*%
X35090000Y-94750000D03*
%TO.P,J2,B7,D-_B7*%
%TO.N,Net-(J2-D--PadA7)*%
X35090000Y-93250000D03*
%TO.P,J2,B8,SBU2_B8*%
%TO.N,unconnected-(J2-SBU2-PadB8)*%
X35090000Y-92250000D03*
D17*
%TO.P,J2,B9,VBUS_B9*%
%TO.N,Net-(C2-Pad1)*%
X35090000Y-91600000D03*
%TO.P,J2,B12,GND_B12*%
%TO.N,GND*%
X35090000Y-90800000D03*
D19*
%TO.P,J2,SH,SHIELD_SH*%
X34515000Y-89680000D03*
D20*
X30335000Y-89680000D03*
D19*
X34515000Y-98320000D03*
D20*
X30335000Y-98320000D03*
%TD*%
D13*
%TO.P,C72,1*%
%TO.N,/FTDI_3v3_2*%
X49600000Y-85220000D03*
%TO.P,C72,2*%
%TO.N,GND*%
X49600000Y-84580000D03*
%TD*%
D17*
%TO.P,J1,A1,GND_A1*%
%TO.N,GND*%
X35090000Y-69800000D03*
%TO.P,J1,A4,VBUS_A4*%
%TO.N,Net-(C1-Pad1)*%
X35090000Y-70600000D03*
D18*
%TO.P,J1,A5,CC1_A5*%
%TO.N,Net-(J1-CC1)*%
X35090000Y-71750000D03*
%TO.P,J1,A6,D+_A6*%
%TO.N,Net-(J1-D+-PadA6)*%
X35090000Y-72750000D03*
%TO.P,J1,A7,D-_A7*%
%TO.N,Net-(J1-D--PadA7)*%
X35090000Y-73250000D03*
%TO.P,J1,A8,SBU1_A8*%
%TO.N,unconnected-(J1-SBU1-PadA8)*%
X35090000Y-74250000D03*
D17*
%TO.P,J1,A9,VBUS_A9*%
%TO.N,Net-(C1-Pad1)*%
X35090000Y-75400000D03*
%TO.P,J1,A12,GND_A12*%
%TO.N,GND*%
X35090000Y-76200000D03*
%TO.P,J1,B1,GND_B1*%
X35090000Y-76200000D03*
%TO.P,J1,B4,VBUS_B4*%
%TO.N,Net-(C1-Pad1)*%
X35090000Y-75400000D03*
D18*
%TO.P,J1,B5,CC2_B5*%
%TO.N,Net-(J1-CC2)*%
X35090000Y-74750000D03*
%TO.P,J1,B6,D+_B6*%
%TO.N,Net-(J1-D+-PadA6)*%
X35090000Y-73750000D03*
%TO.P,J1,B7,D-_B7*%
%TO.N,Net-(J1-D--PadA7)*%
X35090000Y-72250000D03*
%TO.P,J1,B8,SBU2_B8*%
%TO.N,unconnected-(J1-SBU2-PadB8)*%
X35090000Y-71250000D03*
D17*
%TO.P,J1,B9,VBUS_B9*%
%TO.N,Net-(C1-Pad1)*%
X35090000Y-70600000D03*
%TO.P,J1,B12,GND_B12*%
%TO.N,GND*%
X35090000Y-69800000D03*
D19*
%TO.P,J1,SH,SHIELD_SH*%
X34515000Y-68680000D03*
D20*
X30335000Y-68680000D03*
D19*
X34515000Y-77320000D03*
D20*
X30335000Y-77320000D03*
%TD*%
D13*
%TO.P,C73,1*%
%TO.N,/FTDI_3v3_2*%
X48900000Y-85220000D03*
%TO.P,C73,2*%
%TO.N,GND*%
X48900000Y-84580000D03*
%TD*%
D12*
%TO.P,C88,1*%
%TO.N,/VTREF_1*%
X54475000Y-81435000D03*
%TO.P,C88,2*%
%TO.N,GND*%
X54475000Y-82075000D03*
%TD*%
D13*
%TO.P,C77,1*%
%TO.N,/FTDI_3v3_1*%
X54575000Y-67120000D03*
%TO.P,C77,2*%
%TO.N,GND*%
X54575000Y-66480000D03*
%TD*%
D10*
%TO.P,TP27,1,1_1*%
%TO.N,/VTREF_2*%
X46000000Y-100200000D03*
%TD*%
D15*
%TO.P,R2,1*%
%TO.N,Net-(J2-CC1)*%
X36590000Y-92800000D03*
%TO.P,R2,2*%
%TO.N,GND*%
X37230000Y-92800000D03*
%TD*%
D21*
%TO.P,JTAG2,1,K_1*%
%TO.N,/JTAG_LED2*%
X41000000Y-85115000D03*
%TO.P,JTAG2,2,A_2*%
%TO.N,Net-(D16-A)*%
X41000000Y-86085000D03*
%TD*%
D22*
%TO.P,U2,1,VIN_1*%
%TO.N,/5V_2*%
X38772500Y-92750000D03*
%TO.P,U2,2,GND_2*%
%TO.N,GND*%
X38772500Y-93700000D03*
%TO.P,U2,3,EN_3*%
%TO.N,/5V_2*%
X38772500Y-94650000D03*
%TO.P,U2,4,NC_4*%
%TO.N,unconnected-(U2-NC-Pad4)*%
X41047500Y-94650000D03*
%TO.P,U2,5,VOUT_5*%
%TO.N,/FTDI_3v3_2*%
X41047500Y-92750000D03*
%TD*%
D15*
%TO.P,R1,1*%
%TO.N,Net-(J1-CC1)*%
X36590000Y-71800000D03*
%TO.P,R1,2*%
%TO.N,GND*%
X37230000Y-71800000D03*
%TD*%
D10*
%TO.P,TP29,1,1_1*%
%TO.N,/TMS_2*%
X37400000Y-100500000D03*
%TD*%
D15*
%TO.P,C82,1*%
%TO.N,/VTREF_2*%
X58660000Y-91700000D03*
%TO.P,C82,2*%
%TO.N,GND*%
X59300000Y-91700000D03*
%TD*%
D23*
%TO.P,U15,1,GND_1*%
%TO.N,GND*%
X45825000Y-88650000D03*
%TO.P,U15,2,OSCI_2*%
%TO.N,/FTDI_OSCI_2*%
X45825000Y-89150000D03*
%TO.P,U15,3,OSCO_3*%
%TO.N,/FTDI_OSCO_2*%
X45825000Y-89650000D03*
%TO.P,U15,4,VPHY_4*%
%TO.N,/FTDI_3v3_2*%
X45825000Y-90150000D03*
%TO.P,U15,5,GND_5*%
%TO.N,GND*%
X45825000Y-90650000D03*
%TO.P,U15,6,REF_6*%
%TO.N,Net-(U15-REF)*%
X45825000Y-91150000D03*
%TO.P,U15,7,DM_7*%
%TO.N,/USB_DM_2*%
X45825000Y-91650000D03*
%TO.P,U15,8,DP_8*%
%TO.N,/USB_DP_2*%
X45825000Y-92150000D03*
%TO.P,U15,9,VPLL_9*%
%TO.N,Net-(U15-VPLL)*%
X45825000Y-92650000D03*
%TO.P,U15,10,AGND_10*%
%TO.N,GND*%
X45825000Y-93150000D03*
%TO.P,U15,11,GND_11*%
X45825000Y-93650000D03*
%TO.P,U15,12,VCORE_12*%
%TO.N,Net-(U15-VREGOUT)*%
X45825000Y-94150000D03*
%TO.P,U15,13,TEST_13*%
%TO.N,GND*%
X45825000Y-94650000D03*
%TO.P,U15,14,RESET_14*%
%TO.N,/FTDI_3v3_2*%
X45825000Y-95150000D03*
%TO.P,U15,15,GND_15*%
%TO.N,GND*%
X45825000Y-95650000D03*
%TO.P,U15,16,ADBUS0_16*%
%TO.N,/TCK_2*%
X45825000Y-96150000D03*
D24*
%TO.P,U15,17,ADBUS1_17*%
%TO.N,/TDI_2*%
X47750000Y-98075000D03*
%TO.P,U15,18,ADBUS2_18*%
%TO.N,/TDO_2*%
X48250000Y-98075000D03*
%TO.P,U15,19,ADBUS3_19*%
%TO.N,/TMS_2*%
X48750000Y-98075000D03*
%TO.P,U15,20,VCCIO_20*%
%TO.N,/VTREF_2*%
X49250000Y-98075000D03*
%TO.P,U15,21,ADBUS4_21*%
%TO.N,unconnected-(U15-ADBUS4-Pad21)*%
X49750000Y-98075000D03*
%TO.P,U15,22,ADBUS5_22*%
%TO.N,unconnected-(U15-ADBUS5-Pad22)*%
X50250000Y-98075000D03*
%TO.P,U15,23,ADBUS6_23*%
%TO.N,unconnected-(U15-ADBUS6-Pad23)*%
X50750000Y-98075000D03*
%TO.P,U15,24,ADBUS7_24*%
%TO.N,unconnected-(U15-ADBUS7-Pad24)*%
X51250000Y-98075000D03*
%TO.P,U15,25,GND_25*%
%TO.N,GND*%
X51750000Y-98075000D03*
%TO.P,U15,26,ACBUS0_26*%
%TO.N,unconnected-(U15-ACBUS0-Pad26)*%
X52250000Y-98075000D03*
%TO.P,U15,27,ACBUS1_27*%
%TO.N,/NSRST_2*%
X52750000Y-98075000D03*
%TO.P,U15,28,ACBUS2_28*%
%TO.N,unconnected-(U15-ACBUS2-Pad28)*%
X53250000Y-98075000D03*
%TO.P,U15,29,ACBUS3_29*%
%TO.N,/JTAG_LED2*%
X53750000Y-98075000D03*
%TO.P,U15,30,ACBUS4_30*%
%TO.N,unconnected-(U15-ACBUS4-Pad30)*%
X54250000Y-98075000D03*
%TO.P,U15,31,VCCIO_31*%
%TO.N,/VTREF_2*%
X54750000Y-98075000D03*
%TO.P,U15,32,ACBUS5_32*%
%TO.N,unconnected-(U15-ACBUS5-Pad32)*%
X55250000Y-98075000D03*
D23*
%TO.P,U15,33,ACBUS6_33*%
%TO.N,unconnected-(U15-ACBUS6-Pad33)*%
X57175000Y-96150000D03*
%TO.P,U15,34,ACBUS7_34*%
%TO.N,unconnected-(U15-ACBUS7-Pad34)*%
X57175000Y-95650000D03*
%TO.P,U15,35,GND_35*%
%TO.N,GND*%
X57175000Y-95150000D03*
%TO.P,U15,36,SUSPEND_36*%
%TO.N,unconnected-(U15-SUSPEND-Pad36)*%
X57175000Y-94650000D03*
%TO.P,U15,37,VCORE_37*%
%TO.N,Net-(U15-VREGOUT)*%
X57175000Y-94150000D03*
%TO.P,U15,38,BDBUS0_38*%
%TO.N,/TXD_2*%
X57175000Y-93650000D03*
%TO.P,U15,39,BDBUS1_39*%
%TO.N,/RXD_2*%
X57175000Y-93150000D03*
%TO.P,U15,40,BDBUS2_40*%
%TO.N,unconnected-(U15-BDBUS2-Pad40)*%
X57175000Y-92650000D03*
%TO.P,U15,41,BDBUS3_41*%
%TO.N,unconnected-(U15-BDBUS3-Pad41)*%
X57175000Y-92150000D03*
%TO.P,U15,42,VCCIO_42*%
%TO.N,/VTREF_2*%
X57175000Y-91650000D03*
%TO.P,U15,43,BDBUS4_43*%
%TO.N,unconnected-(U15-BDBUS4-Pad43)*%
X57175000Y-91150000D03*
%TO.P,U15,44,BDBUS5_44*%
%TO.N,unconnected-(U15-BDBUS5-Pad44)*%
X57175000Y-90650000D03*
%TO.P,U15,45,BDBUS6_45*%
%TO.N,unconnected-(U15-BDBUS6-Pad45)*%
X57175000Y-90150000D03*
%TO.P,U15,46,BDBUS7_46*%
%TO.N,unconnected-(U15-BDBUS7-Pad46)*%
X57175000Y-89650000D03*
%TO.P,U15,47,GND_47*%
%TO.N,GND*%
X57175000Y-89150000D03*
%TO.P,U15,48,BCBUS0_48*%
%TO.N,unconnected-(U15-BCBUS0-Pad48)*%
X57175000Y-88650000D03*
D24*
%TO.P,U15,49,VREGOUT_49*%
%TO.N,Net-(U15-VREGOUT)*%
X55250000Y-86725000D03*
%TO.P,U15,50,VREGIN_50*%
%TO.N,/FTDI_3v3_2*%
X54750000Y-86725000D03*
%TO.P,U15,51,GND_51*%
%TO.N,GND*%
X54250000Y-86725000D03*
%TO.P,U15,52,BCBUS1_52*%
%TO.N,unconnected-(U15-BCBUS1-Pad52)*%
X53750000Y-86725000D03*
%TO.P,U15,53,BCBUS2_53*%
%TO.N,unconnected-(U15-BCBUS2-Pad53)*%
X53250000Y-86725000D03*
%TO.P,U15,54,BCBUS3_54*%
%TO.N,/RX_LED2*%
X52750000Y-86725000D03*
%TO.P,U15,55,BCBUS4_55*%
%TO.N,/TX_LED2*%
X52250000Y-86725000D03*
%TO.P,U15,56,VCCIO_56*%
%TO.N,/VTREF_2*%
X51750000Y-86725000D03*
%TO.P,U15,57,BCBUS5_57*%
%TO.N,unconnected-(U15-BCBUS5-Pad57)*%
X51250000Y-86725000D03*
%TO.P,U15,58,BCBUS6_58*%
%TO.N,unconnected-(U15-BCBUS6-Pad58)*%
X50750000Y-86725000D03*
%TO.P,U15,59,BCBUS7_59*%
%TO.N,unconnected-(U15-BCBUS7-Pad59)*%
X50250000Y-86725000D03*
%TO.P,U15,60,PWREN_60*%
%TO.N,unconnected-(U15-PWREN-Pad60)*%
X49750000Y-86725000D03*
%TO.P,U15,61,EEDATA_61*%
%TO.N,/FTDI_3v3_2*%
X49250000Y-86725000D03*
%TO.P,U15,62,EECLK_62*%
X48750000Y-86725000D03*
%TO.P,U15,63,EECS_63*%
X48250000Y-86725000D03*
%TO.P,U15,64,VCORE_64*%
%TO.N,Net-(U15-VREGOUT)*%
X47750000Y-86725000D03*
%TD*%
D15*
%TO.P,C5,1*%
%TO.N,/5V_2*%
X38352500Y-91500000D03*
%TO.P,C5,2*%
%TO.N,GND*%
X38992500Y-91500000D03*
%TD*%
D10*
%TO.P,TP30,1,1_1*%
%TO.N,/TDO_2*%
X60800000Y-100000000D03*
%TD*%
D14*
%TO.P,C68,1*%
%TO.N,/FTDI_3v3_1*%
X43465000Y-76800000D03*
%TO.P,C68,2*%
%TO.N,GND*%
X42825000Y-76800000D03*
%TD*%
D12*
%TO.P,C80,1*%
%TO.N,/VTREF_2*%
X49200000Y-99560000D03*
%TO.P,C80,2*%
%TO.N,GND*%
X49200000Y-100200000D03*
%TD*%
D14*
%TO.P,R64,1*%
%TO.N,Net-(U9-REF)*%
X43975000Y-73000000D03*
%TO.P,R64,2*%
%TO.N,GND*%
X43335000Y-73000000D03*
%TD*%
D10*
%TO.P,TP18,1,1_1*%
%TO.N,/RXD_1*%
X60900000Y-69400000D03*
%TD*%
D13*
%TO.P,C83,1*%
%TO.N,/VTREF_2*%
X51800000Y-85220000D03*
%TO.P,C83,2*%
%TO.N,GND*%
X51800000Y-84580000D03*
%TD*%
D21*
%TO.P,RX2,1,K_1*%
%TO.N,/RX_LED2*%
X39100000Y-85115000D03*
%TO.P,RX2,2,A_2*%
%TO.N,Net-(D14-A)*%
X39100000Y-86085000D03*
%TD*%
D15*
%TO.P,C54,1*%
%TO.N,Net-(U9-VREGOUT)*%
X58455000Y-76100000D03*
%TO.P,C54,2*%
%TO.N,GND*%
X59095000Y-76100000D03*
%TD*%
%TO.P,R67,1*%
%TO.N,/FTDI_3v3_2*%
X43135000Y-93945000D03*
%TO.P,R67,2*%
%TO.N,Net-(U15-VPLL)*%
X43775000Y-93945000D03*
%TD*%
D13*
%TO.P,C39,1*%
%TO.N,Net-(U15-VREGOUT)*%
X47500000Y-85220000D03*
%TO.P,C39,2*%
%TO.N,GND*%
X47500000Y-84580000D03*
%TD*%
D15*
%TO.P,R9,1*%
%TO.N,Net-(J2-D+-PadA6)*%
X43135000Y-93145000D03*
%TO.P,R9,2*%
%TO.N,/USB_DP_2*%
X43775000Y-93145000D03*
%TD*%
D10*
%TO.P,TP17,1,1_1*%
%TO.N,GND*%
X32700000Y-87200000D03*
%TD*%
D14*
%TO.P,C49,1*%
%TO.N,Net-(U15-VREGOUT)*%
X43775000Y-94745000D03*
%TO.P,C49,2*%
%TO.N,GND*%
X43135000Y-94745000D03*
%TD*%
D10*
%TO.P,TP19,1,1_1*%
%TO.N,/TMS_1*%
X60800000Y-67000000D03*
%TD*%
D13*
%TO.P,C69,1*%
%TO.N,/FTDI_3v3_1*%
X47975000Y-67120000D03*
%TO.P,C69,2*%
%TO.N,GND*%
X47975000Y-66480000D03*
%TD*%
D12*
%TO.P,C86,1*%
%TO.N,/VTREF_1*%
X49075000Y-81425000D03*
%TO.P,C86,2*%
%TO.N,GND*%
X49075000Y-82065000D03*
%TD*%
D14*
%TO.P,C52,1*%
%TO.N,Net-(U9-VREGOUT)*%
X43465000Y-76100000D03*
%TO.P,C52,2*%
%TO.N,GND*%
X42825000Y-76100000D03*
%TD*%
D13*
%TO.P,C87,1*%
%TO.N,/VTREF_1*%
X51575000Y-67165000D03*
%TO.P,C87,2*%
%TO.N,GND*%
X51575000Y-66525000D03*
%TD*%
%TO.P,C74,1*%
%TO.N,/FTDI_3v3_2*%
X54800000Y-85265000D03*
%TO.P,C74,2*%
%TO.N,GND*%
X54800000Y-84625000D03*
%TD*%
D10*
%TO.P,TP24,1,1_1*%
%TO.N,/TCK_2*%
X42500000Y-97700000D03*
%TD*%
D13*
%TO.P,C51,1*%
%TO.N,Net-(U9-VREGOUT)*%
X55375000Y-67120000D03*
%TO.P,C51,2*%
%TO.N,GND*%
X55375000Y-66480000D03*
%TD*%
D15*
%TO.P,R3,1*%
%TO.N,Net-(J1-CC2)*%
X36590000Y-74800000D03*
%TO.P,R3,2*%
%TO.N,GND*%
X37230000Y-74800000D03*
%TD*%
D23*
%TO.P,U9,1,GND_1*%
%TO.N,GND*%
X45625000Y-70550000D03*
%TO.P,U9,2,OSCI_2*%
%TO.N,/FTDI_OSCI_1*%
X45625000Y-71050000D03*
%TO.P,U9,3,OSCO_3*%
%TO.N,/FTDI_OSCO_1*%
X45625000Y-71550000D03*
%TO.P,U9,4,VPHY_4*%
%TO.N,/FTDI_3v3_1*%
X45625000Y-72050000D03*
%TO.P,U9,5,GND_5*%
%TO.N,GND*%
X45625000Y-72550000D03*
%TO.P,U9,6,REF_6*%
%TO.N,Net-(U9-REF)*%
X45625000Y-73050000D03*
%TO.P,U9,7,DM_7*%
%TO.N,/USB_DM_1*%
X45625000Y-73550000D03*
%TO.P,U9,8,DP_8*%
%TO.N,/USB_DP_1*%
X45625000Y-74050000D03*
%TO.P,U9,9,VPLL_9*%
%TO.N,Net-(U9-VPLL)*%
X45625000Y-74550000D03*
%TO.P,U9,10,AGND_10*%
%TO.N,GND*%
X45625000Y-75050000D03*
%TO.P,U9,11,GND_11*%
X45625000Y-75550000D03*
%TO.P,U9,12,VCORE_12*%
%TO.N,Net-(U9-VREGOUT)*%
X45625000Y-76050000D03*
%TO.P,U9,13,TEST_13*%
%TO.N,GND*%
X45625000Y-76550000D03*
%TO.P,U9,14,RESET_14*%
%TO.N,/FTDI_3v3_1*%
X45625000Y-77050000D03*
%TO.P,U9,15,GND_15*%
%TO.N,GND*%
X45625000Y-77550000D03*
%TO.P,U9,16,ADBUS0_16*%
%TO.N,/TCK_1*%
X45625000Y-78050000D03*
D24*
%TO.P,U9,17,ADBUS1_17*%
%TO.N,/TDI_1*%
X47550000Y-79975000D03*
%TO.P,U9,18,ADBUS2_18*%
%TO.N,/TDO_1*%
X48050000Y-79975000D03*
%TO.P,U9,19,ADBUS3_19*%
%TO.N,/TMS_1*%
X48550000Y-79975000D03*
%TO.P,U9,20,VCCIO_20*%
%TO.N,/VTREF_1*%
X49050000Y-79975000D03*
%TO.P,U9,21,ADBUS4_21*%
%TO.N,unconnected-(U9-ADBUS4-Pad21)*%
X49550000Y-79975000D03*
%TO.P,U9,22,ADBUS5_22*%
%TO.N,unconnected-(U9-ADBUS5-Pad22)*%
X50050000Y-79975000D03*
%TO.P,U9,23,ADBUS6_23*%
%TO.N,unconnected-(U9-ADBUS6-Pad23)*%
X50550000Y-79975000D03*
%TO.P,U9,24,ADBUS7_24*%
%TO.N,unconnected-(U9-ADBUS7-Pad24)*%
X51050000Y-79975000D03*
%TO.P,U9,25,GND_25*%
%TO.N,GND*%
X51550000Y-79975000D03*
%TO.P,U9,26,ACBUS0_26*%
%TO.N,/NTRST_1*%
X52050000Y-79975000D03*
%TO.P,U9,27,ACBUS1_27*%
%TO.N,unconnected-(U9-ACBUS1-Pad27)*%
X52550000Y-79975000D03*
%TO.P,U9,28,ACBUS2_28*%
%TO.N,unconnected-(U9-ACBUS2-Pad28)*%
X53050000Y-79975000D03*
%TO.P,U9,29,ACBUS3_29*%
%TO.N,/JTAG_LED1*%
X53550000Y-79975000D03*
%TO.P,U9,30,ACBUS4_30*%
%TO.N,unconnected-(U9-ACBUS4-Pad30)*%
X54050000Y-79975000D03*
%TO.P,U9,31,VCCIO_31*%
%TO.N,/VTREF_1*%
X54550000Y-79975000D03*
%TO.P,U9,32,ACBUS5_32*%
%TO.N,unconnected-(U9-ACBUS5-Pad32)*%
X55050000Y-79975000D03*
D23*
%TO.P,U9,33,ACBUS6_33*%
%TO.N,unconnected-(U9-ACBUS6-Pad33)*%
X56975000Y-78050000D03*
%TO.P,U9,34,ACBUS7_34*%
%TO.N,unconnected-(U9-ACBUS7-Pad34)*%
X56975000Y-77550000D03*
%TO.P,U9,35,GND_35*%
%TO.N,GND*%
X56975000Y-77050000D03*
%TO.P,U9,36,SUSPEND_36*%
%TO.N,unconnected-(U9-SUSPEND-Pad36)*%
X56975000Y-76550000D03*
%TO.P,U9,37,VCORE_37*%
%TO.N,Net-(U9-VREGOUT)*%
X56975000Y-76050000D03*
%TO.P,U9,38,BDBUS0_38*%
%TO.N,/TXD_1*%
X56975000Y-75550000D03*
%TO.P,U9,39,BDBUS1_39*%
%TO.N,/RXD_1*%
X56975000Y-75050000D03*
%TO.P,U9,40,BDBUS2_40*%
%TO.N,unconnected-(U9-BDBUS2-Pad40)*%
X56975000Y-74550000D03*
%TO.P,U9,41,BDBUS3_41*%
%TO.N,unconnected-(U9-BDBUS3-Pad41)*%
X56975000Y-74050000D03*
%TO.P,U9,42,VCCIO_42*%
%TO.N,/VTREF_1*%
X56975000Y-73550000D03*
%TO.P,U9,43,BDBUS4_43*%
%TO.N,unconnected-(U9-BDBUS4-Pad43)*%
X56975000Y-73050000D03*
%TO.P,U9,44,BDBUS5_44*%
%TO.N,unconnected-(U9-BDBUS5-Pad44)*%
X56975000Y-72550000D03*
%TO.P,U9,45,BDBUS6_45*%
%TO.N,unconnected-(U9-BDBUS6-Pad45)*%
X56975000Y-72050000D03*
%TO.P,U9,46,BDBUS7_46*%
%TO.N,unconnected-(U9-BDBUS7-Pad46)*%
X56975000Y-71550000D03*
%TO.P,U9,47,GND_47*%
%TO.N,GND*%
X56975000Y-71050000D03*
%TO.P,U9,48,BCBUS0_48*%
%TO.N,unconnected-(U9-BCBUS0-Pad48)*%
X56975000Y-70550000D03*
D24*
%TO.P,U9,49,VREGOUT_49*%
%TO.N,Net-(U9-VREGOUT)*%
X55050000Y-68625000D03*
%TO.P,U9,50,VREGIN_50*%
%TO.N,/FTDI_3v3_1*%
X54550000Y-68625000D03*
%TO.P,U9,51,GND_51*%
%TO.N,GND*%
X54050000Y-68625000D03*
%TO.P,U9,52,BCBUS1_52*%
%TO.N,unconnected-(U9-BCBUS1-Pad52)*%
X53550000Y-68625000D03*
%TO.P,U9,53,BCBUS2_53*%
%TO.N,unconnected-(U9-BCBUS2-Pad53)*%
X53050000Y-68625000D03*
%TO.P,U9,54,BCBUS3_54*%
%TO.N,/RX_LED1*%
X52550000Y-68625000D03*
%TO.P,U9,55,BCBUS4_55*%
%TO.N,/TX_LED1*%
X52050000Y-68625000D03*
%TO.P,U9,56,VCCIO_56*%
%TO.N,/VTREF_1*%
X51550000Y-68625000D03*
%TO.P,U9,57,BCBUS5_57*%
%TO.N,unconnected-(U9-BCBUS5-Pad57)*%
X51050000Y-68625000D03*
%TO.P,U9,58,BCBUS6_58*%
%TO.N,unconnected-(U9-BCBUS6-Pad58)*%
X50550000Y-68625000D03*
%TO.P,U9,59,BCBUS7_59*%
%TO.N,unconnected-(U9-BCBUS7-Pad59)*%
X50050000Y-68625000D03*
%TO.P,U9,60,PWREN_60*%
%TO.N,unconnected-(U9-PWREN-Pad60)*%
X49550000Y-68625000D03*
%TO.P,U9,61,EEDATA_61*%
%TO.N,/FTDI_3v3_1*%
X49050000Y-68625000D03*
%TO.P,U9,62,EECLK_62*%
X48550000Y-68625000D03*
%TO.P,U9,63,EECS_63*%
X48050000Y-68625000D03*
%TO.P,U9,64,VCORE_64*%
%TO.N,Net-(U9-VREGOUT)*%
X47550000Y-68625000D03*
%TD*%
D15*
%TO.P,C85,1*%
%TO.N,/VTREF_1*%
X58435000Y-73600000D03*
%TO.P,C85,2*%
%TO.N,GND*%
X59075000Y-73600000D03*
%TD*%
%TO.P,C70,1*%
%TO.N,/FTDI_3v3_2*%
X40990000Y-91500000D03*
%TO.P,C70,2*%
%TO.N,GND*%
X41630000Y-91500000D03*
%TD*%
D10*
%TO.P,TP12,1,1_1*%
%TO.N,/TXD_1*%
X60900000Y-74500000D03*
%TD*%
D15*
%TO.P,R66,1*%
%TO.N,/FTDI_3v3_1*%
X42780000Y-75300000D03*
%TO.P,R66,2*%
%TO.N,Net-(U9-VPLL)*%
X43420000Y-75300000D03*
%TD*%
D22*
%TO.P,U1,1,VIN_1*%
%TO.N,/5V_1*%
X38772500Y-72450000D03*
%TO.P,U1,2,GND_2*%
%TO.N,GND*%
X38772500Y-73400000D03*
%TO.P,U1,3,EN_3*%
%TO.N,/5V_1*%
X38772500Y-74350000D03*
%TO.P,U1,4,NC_4*%
%TO.N,unconnected-(U1-NC-Pad4)*%
X41047500Y-74350000D03*
%TO.P,U1,5,VOUT_5*%
%TO.N,/FTDI_3v3_1*%
X41047500Y-72450000D03*
%TD*%
D13*
%TO.P,C53,1*%
%TO.N,Net-(U9-VREGOUT)*%
X47275000Y-67120000D03*
%TO.P,C53,2*%
%TO.N,GND*%
X47275000Y-66480000D03*
%TD*%
D12*
%TO.P,R63,1*%
%TO.N,/FTDI_3v3_1*%
X41000000Y-79845000D03*
%TO.P,R63,2*%
%TO.N,Net-(D19-A)*%
X41000000Y-80485000D03*
%TD*%
D15*
%TO.P,C4,1*%
%TO.N,/FTDI_3v3_1*%
X41080000Y-76100000D03*
%TO.P,C4,2*%
%TO.N,GND*%
X41720000Y-76100000D03*
%TD*%
D25*
%TO.P,F1,1*%
%TO.N,Net-(C1-Pad1)*%
X37110000Y-69300000D03*
%TO.P,F1,2*%
%TO.N,/5V_1*%
X39910000Y-69300000D03*
%TD*%
D15*
%TO.P,C1,1*%
%TO.N,Net-(C1-Pad1)*%
X36590000Y-75500000D03*
%TO.P,C1,2*%
%TO.N,GND*%
X37230000Y-75500000D03*
%TD*%
%TO.P,R4,1*%
%TO.N,Net-(J2-CC2)*%
X36590000Y-95800000D03*
%TO.P,R4,2*%
%TO.N,GND*%
X37230000Y-95800000D03*
%TD*%
%TO.P,C38,1*%
%TO.N,Net-(U15-VREGOUT)*%
X58680000Y-94100000D03*
%TO.P,C38,2*%
%TO.N,GND*%
X59320000Y-94100000D03*
%TD*%
D25*
%TO.P,F2,1*%
%TO.N,Net-(C2-Pad1)*%
X37110000Y-97800000D03*
%TO.P,F2,2*%
%TO.N,/5V_2*%
X39910000Y-97800000D03*
%TD*%
D15*
%TO.P,C2,1*%
%TO.N,Net-(C2-Pad1)*%
X36635000Y-91700000D03*
%TO.P,C2,2*%
%TO.N,GND*%
X37275000Y-91700000D03*
%TD*%
D12*
%TO.P,R44,1*%
%TO.N,/FTDI_3v3_1*%
X39100000Y-79880000D03*
%TO.P,R44,2*%
%TO.N,Net-(D17-A)*%
X39100000Y-80520000D03*
%TD*%
D13*
%TO.P,R41,1*%
%TO.N,/FTDI_3v3_2*%
X39100000Y-87635000D03*
%TO.P,R41,2*%
%TO.N,Net-(D14-A)*%
X39100000Y-86995000D03*
%TD*%
D15*
%TO.P,C3,1*%
%TO.N,/5V_1*%
X38290000Y-75500000D03*
%TO.P,C3,2*%
%TO.N,GND*%
X38930000Y-75500000D03*
%TD*%
D13*
%TO.P,C76,1*%
%TO.N,/FTDI_3v3_2*%
X48200000Y-85220000D03*
%TO.P,C76,2*%
%TO.N,GND*%
X48200000Y-84580000D03*
%TD*%
D21*
%TO.P,TX2,1,K_1*%
%TO.N,/TX_LED2*%
X37200000Y-85115000D03*
%TO.P,TX2,2,A_2*%
%TO.N,Net-(D15-A)*%
X37200000Y-86085000D03*
%TD*%
D12*
%TO.P,C6,1*%
%TO.N,/FTDI_3v3_2*%
X43200000Y-90125000D03*
%TO.P,C6,2*%
%TO.N,GND*%
X43200000Y-90765000D03*
%TD*%
D11*
%TO.P,JTAG1,1,K_1*%
%TO.N,/JTAG_LED1*%
X41000000Y-82370000D03*
%TO.P,JTAG1,2,A_2*%
%TO.N,Net-(D19-A)*%
X41000000Y-81400000D03*
%TD*%
D16*
%TO.P,Y2,1*%
%TO.N,/FTDI_OSCI_2*%
X43500000Y-86572500D03*
%TO.P,Y2,2*%
%TO.N,GND*%
X43500000Y-87772500D03*
%TO.P,Y2,3*%
%TO.N,/FTDI_OSCO_2*%
X43500000Y-88972500D03*
%TD*%
D26*
%TO.N,/TXD_2*%
X34100000Y-84300000D03*
X59000000Y-93100000D03*
X44800000Y-83900000D03*
%TO.N,/FTDI_3v3_1*%
X48700000Y-70000000D03*
X53600000Y-70000000D03*
%TO.N,GND*%
X58400000Y-71100000D03*
X41800000Y-87800000D03*
X47200000Y-93400000D03*
X49900000Y-100200000D03*
X50800000Y-85200000D03*
X60000000Y-94100000D03*
X41900000Y-76900000D03*
X46400000Y-66500000D03*
X47200000Y-95700000D03*
X60700000Y-84400000D03*
X42300000Y-90900000D03*
X41600000Y-69200000D03*
X42400000Y-95600000D03*
X52600000Y-77300000D03*
X55500000Y-100200000D03*
X60700000Y-78100000D03*
X37400000Y-94600000D03*
X51823777Y-82376223D03*
X47100000Y-76700000D03*
X60000000Y-91700000D03*
X47100000Y-72300000D03*
X59900000Y-73600000D03*
%TO.N,/FTDI_3v3_2*%
X50100000Y-88200000D03*
X52700000Y-88500000D03*
%TO.N,/TDO_1*%
X61300000Y-79100000D03*
X46500000Y-83200000D03*
X61000000Y-83200000D03*
%TO.N,Net-(J1-D--PadA7)*%
X36600000Y-72600000D03*
X42300000Y-73400000D03*
%TO.N,/TCK_1*%
X43500000Y-78000000D03*
X39100000Y-78800000D03*
%TO.N,/VTREF_2*%
X52800000Y-78500000D03*
X52600000Y-85200000D03*
%TO.N,/RXD_2*%
X55700000Y-93100000D03*
%TO.N,/TDI_1*%
X44200000Y-100000000D03*
X46400000Y-81800000D03*
X60800000Y-85800000D03*
%TO.N,/TDI_2*%
X56800000Y-82000000D03*
%TO.N,Net-(J2-D--PadA7)*%
X36300000Y-94600000D03*
X42300000Y-92400000D03*
%TO.N,/VTREF_1*%
X52400000Y-83300000D03*
X50100000Y-81400000D03*
%TO.N,Net-(U15-VREGOUT)*%
X55700000Y-94500000D03*
X52800000Y-90100000D03*
X46800000Y-86300000D03*
X48500000Y-94100000D03*
%TO.N,Net-(J1-D+-PadA6)*%
X36800000Y-73600000D03*
X42400000Y-74500000D03*
%TO.N,Net-(J2-D+-PadA6)*%
X42400000Y-93600000D03*
X33700000Y-92900000D03*
%TO.N,/JTAG_LED2*%
X45300000Y-85300000D03*
X53800000Y-96700000D03*
%TO.N,/TMS_2*%
X56700000Y-80100000D03*
X39200000Y-100600000D03*
X48700000Y-96600000D03*
%TO.N,/TCK_2*%
X44400000Y-97300000D03*
%TO.N,/TDO_2*%
X48000000Y-100100000D03*
X58900000Y-100400000D03*
%TO.N,/NSRST_2*%
X52500000Y-99900000D03*
%TO.N,/RX_LED2*%
X50500000Y-92400000D03*
X38600000Y-83800000D03*
%TO.N,/TX_LED2*%
X49600000Y-91300000D03*
X35800000Y-84900000D03*
%TO.N,/RXD_1*%
X50300000Y-76600000D03*
X58400000Y-74300000D03*
X59500000Y-70900000D03*
%TO.N,Net-(U9-VREGOUT)*%
X47000000Y-75800000D03*
X46500000Y-68400000D03*
X55000000Y-70200000D03*
X55600000Y-76100000D03*
%TO.N,/TMS_1*%
X52400000Y-72900000D03*
X48100000Y-83100000D03*
X58700000Y-67100000D03*
%TO.N,/NTRST_1*%
X57100000Y-86400000D03*
X52700000Y-81500000D03*
%TO.N,/JTAG_LED1*%
X53600000Y-75800000D03*
X50800000Y-75000000D03*
%TO.N,/TXD_1*%
X59200000Y-75300000D03*
X44800000Y-80300000D03*
%TO.N,Net-(J3-Pin_18)*%
X43400000Y-79400000D03*
X54800000Y-91300000D03*
%TO.N,Net-(J3-Pin_15)*%
X57136366Y-87791736D03*
X48600000Y-76200000D03*
%TD*%
%TO.N,/TXD_2*%
D27*
X58450000Y-93650000D02*
X59000000Y-93100000D01*
X33600000Y-83800000D02*
X34100000Y-84300000D01*
X57175000Y-93650000D02*
X58450000Y-93650000D01*
X32700000Y-83800000D02*
X33600000Y-83800000D01*
%TO.N,/TX_LED1*%
X51718882Y-65971400D02*
X52050000Y-66302518D01*
X35643204Y-65971400D02*
X51718882Y-65971400D01*
X33236400Y-68378204D02*
X35643204Y-65971400D01*
X37100000Y-82385000D02*
X33236400Y-78521400D01*
X52050000Y-66302518D02*
X52050000Y-68625000D01*
X33236400Y-78521400D02*
X33236400Y-68378204D01*
%TO.N,Net-(D18-A)*%
X37100000Y-81415000D02*
X37100000Y-80520000D01*
%TO.N,/FTDI_3v3_1*%
X43465000Y-76857482D02*
X43465000Y-76800000D01*
X39100000Y-79880000D02*
X37100000Y-79880000D01*
X48675000Y-67120000D02*
X49475000Y-67120000D01*
X45625000Y-72050000D02*
X46399999Y-72050000D01*
X49050000Y-68625000D02*
X48550000Y-68625000D01*
X43715000Y-77050000D02*
X45625000Y-77050000D01*
X41047500Y-72450000D02*
X42237518Y-72450000D01*
X48550000Y-68625000D02*
X48550000Y-69850000D01*
X41000000Y-79845000D02*
X39135000Y-79845000D01*
X41290001Y-75690001D02*
X41680001Y-75300000D01*
X41080000Y-76100000D02*
X41080000Y-75900001D01*
X54550000Y-69399999D02*
X53949999Y-70000000D01*
X40600000Y-76100000D02*
X39600000Y-77100000D01*
X39700000Y-76900000D02*
X39500000Y-77100000D01*
X41680001Y-75300000D02*
X42780000Y-75300000D01*
X43465000Y-76800000D02*
X43715000Y-77050000D01*
X41047500Y-72450000D02*
X40156400Y-73341100D01*
X44918566Y-72050000D02*
X45625000Y-72050000D01*
X41080000Y-75900001D02*
X41290001Y-75690001D01*
X48050000Y-67195000D02*
X47975000Y-67120000D01*
X40156400Y-74660978D02*
X41185423Y-75690001D01*
X41071400Y-77428600D02*
X42893882Y-77428600D01*
X40156400Y-73341100D02*
X40156400Y-74660978D01*
X49050000Y-67545000D02*
X49050000Y-68625000D01*
X43220000Y-71525000D02*
X43975000Y-71525000D01*
X41100000Y-77457200D02*
X41071400Y-77428600D01*
X53949999Y-70000000D02*
X53600000Y-70000000D01*
X48050000Y-68625000D02*
X48050000Y-67195000D01*
X41000000Y-79845000D02*
X41100000Y-79745000D01*
X48675000Y-68500000D02*
X48550000Y-68625000D01*
X42893882Y-77428600D02*
X43465000Y-76857482D01*
X48675000Y-67120000D02*
X48675000Y-68500000D01*
X41080000Y-76827554D02*
X41080000Y-76100000D01*
X44393566Y-71525000D02*
X44918566Y-72050000D01*
X43975000Y-71525000D02*
X44393566Y-71525000D01*
X48550000Y-68625000D02*
X48050000Y-68625000D01*
X43162518Y-71525000D02*
X43220000Y-71525000D01*
X54550000Y-68625000D02*
X54550000Y-69399999D01*
X42237518Y-72450000D02*
X43162518Y-71525000D01*
X54575000Y-68600000D02*
X54550000Y-68625000D01*
X41071400Y-77428600D02*
X41071400Y-76836154D01*
X47975000Y-67120000D02*
X48675000Y-67120000D01*
X48550000Y-69850000D02*
X48700000Y-70000000D01*
X41071400Y-76836154D02*
X41080000Y-76827554D01*
X39135000Y-79845000D02*
X39100000Y-79880000D01*
X54575000Y-67120000D02*
X54575000Y-68600000D01*
X41080000Y-76100000D02*
X40600000Y-76100000D01*
X46399999Y-72050000D02*
X48050000Y-70399999D01*
X41100000Y-79745000D02*
X41100000Y-77457200D01*
X41185423Y-75690001D02*
X41290001Y-75690001D01*
X49475000Y-67120000D02*
X49050000Y-67545000D01*
X48050000Y-70399999D02*
X48050000Y-68625000D01*
%TO.N,GND*%
X32700000Y-87200000D02*
X34515000Y-89015000D01*
X48675000Y-66480000D02*
X47975000Y-66480000D01*
X58344999Y-77050000D02*
X56975000Y-77050000D01*
X48200000Y-84580000D02*
X48900000Y-84580000D01*
X46350000Y-77550000D02*
X47100000Y-76800000D01*
X38772500Y-73400000D02*
X38110001Y-73400000D01*
X54250000Y-84975001D02*
X53854999Y-84580000D01*
X36432482Y-90800000D02*
X35090000Y-90800000D01*
X43220000Y-72165000D02*
X43975000Y-72165000D01*
X55375000Y-66480000D02*
X54575000Y-66480000D01*
X38130000Y-93700000D02*
X37230000Y-92800000D01*
X35090000Y-97200000D02*
X35090000Y-97745000D01*
X54800000Y-82400000D02*
X54475000Y-82075000D01*
X45625000Y-70550000D02*
X44275000Y-69200000D01*
X37230000Y-72519999D02*
X37230000Y-71800000D01*
X50399999Y-100200000D02*
X49900000Y-100200000D01*
X59075000Y-73600000D02*
X59900000Y-73600000D01*
X55375000Y-66480000D02*
X55480000Y-66480000D01*
X54050000Y-68625000D02*
X54050000Y-66530000D01*
X37903600Y-91071400D02*
X38763899Y-91071400D01*
X46331434Y-72550000D02*
X46628600Y-72847166D01*
X59095000Y-76495000D02*
X60700000Y-78100000D01*
X43975000Y-72165000D02*
X44360000Y-72550000D01*
X35090000Y-69800000D02*
X35090000Y-69255000D01*
X45825000Y-94650000D02*
X46599999Y-94650000D01*
X59320000Y-94299999D02*
X59320000Y-94100000D01*
X54800000Y-84625000D02*
X54800000Y-82400000D01*
X42825000Y-76100000D02*
X42825000Y-76800000D01*
X54800000Y-100200000D02*
X55500000Y-100200000D01*
X38430001Y-73400000D02*
X38772500Y-73400000D01*
X51750000Y-98075000D02*
X51750000Y-98849999D01*
X44947500Y-87772500D02*
X43500000Y-87772500D01*
X38772500Y-93700000D02*
X38300000Y-93700000D01*
X51700000Y-80900000D02*
X51700000Y-81900000D01*
X45825000Y-93650000D02*
X46950000Y-93650000D01*
X46628600Y-72847166D02*
X46628600Y-72771400D01*
X47150000Y-95650000D02*
X47200000Y-95700000D01*
X42990000Y-91500000D02*
X43135000Y-91645000D01*
X51700000Y-81900000D02*
X51700000Y-82252446D01*
X43135000Y-95545000D02*
X43135000Y-94745000D01*
X43335000Y-73000000D02*
X43335000Y-72280000D01*
X38772500Y-93700000D02*
X38130000Y-93700000D01*
X35090000Y-69255000D02*
X34515000Y-68680000D01*
X55600000Y-84625000D02*
X54800000Y-84625000D01*
X42300000Y-91500000D02*
X42990000Y-91500000D01*
X42300000Y-91500000D02*
X42300000Y-90900000D01*
X47275000Y-66480000D02*
X46420000Y-66480000D01*
X37275000Y-92755000D02*
X37230000Y-92800000D01*
X49475000Y-66480000D02*
X48675000Y-66480000D01*
X46420000Y-66480000D02*
X46400000Y-66500000D01*
X41720000Y-76100000D02*
X42825000Y-76100000D01*
X41630000Y-91500000D02*
X42300000Y-91500000D01*
X50399999Y-81900000D02*
X50234999Y-82065000D01*
X45625000Y-76550000D02*
X46950000Y-76550000D01*
X57175000Y-95150000D02*
X58469999Y-95150000D01*
X35090000Y-90255000D02*
X34515000Y-89680000D01*
X46628600Y-74821399D02*
X46399999Y-75050000D01*
X44275000Y-69200000D02*
X43375000Y-69200000D01*
X60000000Y-91200001D02*
X60000000Y-91700000D01*
X55480000Y-66480000D02*
X58400000Y-69400000D01*
X45625000Y-72550000D02*
X46331434Y-72550000D01*
X58400000Y-69400000D02*
X58400000Y-71100000D01*
X37230000Y-74800000D02*
X37230000Y-74600001D01*
X50800000Y-84580000D02*
X50800000Y-85200000D01*
X59095000Y-76299999D02*
X58344999Y-77050000D01*
X51575000Y-66525000D02*
X49520000Y-66525000D01*
X47200000Y-95250001D02*
X47200000Y-95700000D01*
X54250000Y-84975001D02*
X54600001Y-84625000D01*
X38930000Y-75500000D02*
X38930000Y-75557482D01*
X51700000Y-82252446D02*
X51823777Y-82376223D01*
X35090000Y-76200000D02*
X36729999Y-76200000D01*
X43375000Y-69200000D02*
X41600000Y-69200000D01*
X51800000Y-84580000D02*
X50800000Y-84580000D01*
X50800000Y-84580000D02*
X49600000Y-84580000D01*
X38763899Y-91071400D02*
X38992500Y-91300001D01*
X37230000Y-74600001D02*
X38430001Y-73400000D01*
X43135000Y-90830000D02*
X43200000Y-90765000D01*
X38930000Y-75557482D02*
X38558882Y-75928600D01*
X47100000Y-76800000D02*
X47100000Y-76700000D01*
X53854999Y-84580000D02*
X51800000Y-84580000D01*
X47975000Y-66480000D02*
X47275000Y-66480000D01*
X54600001Y-84625000D02*
X54800000Y-84625000D01*
X53175000Y-82075000D02*
X54475000Y-82075000D01*
X51549999Y-80749999D02*
X51700000Y-80900000D01*
X54050000Y-66530000D02*
X54100000Y-66480000D01*
X59300000Y-91700000D02*
X60000000Y-91700000D01*
X45825000Y-93650000D02*
X45825000Y-93150000D01*
X37275000Y-91700000D02*
X37275000Y-92755000D01*
X43200000Y-90765000D02*
X43900000Y-90765000D01*
X49200000Y-100200000D02*
X49900000Y-100200000D01*
X35090000Y-76745000D02*
X34515000Y-77320000D01*
X38300000Y-93700000D02*
X37400000Y-94600000D01*
X38992500Y-91300001D02*
X38992500Y-91500000D01*
X59095000Y-76100000D02*
X59095000Y-76495000D01*
X54575000Y-66480000D02*
X54100000Y-66480000D01*
X41720000Y-76100000D02*
X41720000Y-76720000D01*
X45825000Y-90650000D02*
X44015000Y-90650000D01*
X51550000Y-79975000D02*
X51550000Y-80749999D01*
X36729999Y-76200000D02*
X37230000Y-75699999D01*
X46628600Y-72847166D02*
X46628600Y-74821399D01*
X46599999Y-94650000D02*
X47200000Y-95250001D01*
X42455000Y-95545000D02*
X42400000Y-95600000D01*
X37230000Y-75699999D02*
X37230000Y-75500000D01*
X46399999Y-75050000D02*
X45625000Y-75050000D01*
X35090000Y-97745000D02*
X34515000Y-98320000D01*
X46950000Y-93650000D02*
X47200000Y-93400000D01*
X37230000Y-75500000D02*
X37230000Y-74800000D01*
X35090000Y-76200000D02*
X35090000Y-76745000D01*
X50234999Y-82065000D02*
X49075000Y-82065000D01*
X44015000Y-90650000D02*
X43900000Y-90765000D01*
X51550000Y-80749999D02*
X51549999Y-80749999D01*
X52873777Y-82376223D02*
X53175000Y-82075000D01*
X37230000Y-95800000D02*
X37230000Y-94770000D01*
X37275000Y-91700000D02*
X37903600Y-91071400D01*
X51750000Y-98849999D02*
X50399999Y-100200000D01*
X43335000Y-72280000D02*
X43220000Y-72165000D01*
X38558882Y-75928600D02*
X37658600Y-75928600D01*
X46628600Y-72771400D02*
X47100000Y-72300000D01*
X58350000Y-71050000D02*
X58400000Y-71100000D01*
X56975000Y-71050000D02*
X58350000Y-71050000D01*
X43135000Y-95545000D02*
X42455000Y-95545000D01*
X45825000Y-95650000D02*
X47150000Y-95650000D01*
X34515000Y-89015000D02*
X34515000Y-89680000D01*
X43135000Y-91645000D02*
X43135000Y-90830000D01*
X54250000Y-86725000D02*
X54250000Y-84975001D01*
X37658600Y-75928600D02*
X37230000Y-75500000D01*
X37275000Y-91700000D02*
X37275000Y-91642518D01*
X45825000Y-88650000D02*
X44947500Y-87772500D01*
X37275000Y-91642518D02*
X36432482Y-90800000D01*
X57175000Y-89150000D02*
X57949999Y-89150000D01*
X41827500Y-87772500D02*
X41800000Y-87800000D01*
X41720000Y-76720000D02*
X41900000Y-76900000D01*
X59320000Y-94100000D02*
X60000000Y-94100000D01*
X37230000Y-94770000D02*
X37400000Y-94600000D01*
X57949999Y-89150000D02*
X60000000Y-91200001D01*
X48900000Y-84580000D02*
X49600000Y-84580000D01*
X43500000Y-87772500D02*
X41827500Y-87772500D01*
X51823777Y-82376223D02*
X52873777Y-82376223D01*
X47500000Y-84580000D02*
X48200000Y-84580000D01*
X45625000Y-75050000D02*
X45625000Y-75550000D01*
X45625000Y-77550000D02*
X46350000Y-77550000D01*
X38110001Y-73400000D02*
X37230000Y-72519999D01*
X49520000Y-66525000D02*
X49475000Y-66480000D01*
X51700000Y-81900000D02*
X50399999Y-81900000D01*
X35090000Y-90800000D02*
X35090000Y-90255000D01*
X44360000Y-72550000D02*
X45625000Y-72550000D01*
X46950000Y-76550000D02*
X47100000Y-76700000D01*
X58469999Y-95150000D02*
X59320000Y-94299999D01*
X59095000Y-76100000D02*
X59095000Y-76299999D01*
%TO.N,/FTDI_3v3_2*%
X53681434Y-88500000D02*
X52700000Y-88500000D01*
X54750000Y-86725000D02*
X54750000Y-87431434D01*
X49600000Y-85220000D02*
X48900000Y-85220000D01*
X45825000Y-90150000D02*
X43925000Y-90150000D01*
X36370000Y-87200000D02*
X35100000Y-87200000D01*
X48200000Y-85220000D02*
X48200000Y-86675000D01*
X48900000Y-85220000D02*
X48200000Y-85220000D01*
X49250000Y-85570000D02*
X49250000Y-86725000D01*
X41000000Y-88959999D02*
X42165001Y-90125000D01*
X40990000Y-91300001D02*
X42165001Y-90125000D01*
X37200000Y-87665000D02*
X36835000Y-87665000D01*
X43900000Y-90125000D02*
X43200000Y-90125000D01*
X46599999Y-90150000D02*
X48250000Y-88499999D01*
X48900000Y-85220000D02*
X48899999Y-86575001D01*
X48899999Y-86575001D02*
X48750000Y-86725000D01*
X41871400Y-96100000D02*
X41900000Y-96128600D01*
X40915000Y-87635000D02*
X41000000Y-87720000D01*
X48200000Y-86675000D02*
X48250000Y-86725000D01*
X54750000Y-87431434D02*
X53681434Y-88500000D01*
X43775000Y-95545000D02*
X43775000Y-95744999D01*
X42165001Y-90125000D02*
X43200000Y-90125000D01*
X48250000Y-88499999D02*
X48250000Y-86725000D01*
X41324022Y-96128600D02*
X40156400Y-94960978D01*
X43925000Y-90150000D02*
X43900000Y-90125000D01*
X49250000Y-86725000D02*
X49250000Y-87499999D01*
X36835000Y-87665000D02*
X36370000Y-87200000D01*
X49250000Y-87499999D02*
X49950001Y-88200000D01*
X39170000Y-87705000D02*
X39100000Y-87635000D01*
X37230000Y-87635000D02*
X37200000Y-87665000D01*
X39100000Y-87635000D02*
X40915000Y-87635000D01*
X48750000Y-86725000D02*
X49250000Y-86725000D01*
X40990000Y-91500000D02*
X40990000Y-92692500D01*
X40156400Y-93641100D02*
X41047500Y-92750000D01*
X54750000Y-85315000D02*
X54800000Y-85265000D01*
X41871400Y-95208600D02*
X41871400Y-96100000D01*
X40156400Y-94960978D02*
X40156400Y-93641100D01*
X49950001Y-88200000D02*
X50100000Y-88200000D01*
X45825000Y-90150000D02*
X46599999Y-90150000D01*
X40990000Y-92692500D02*
X41047500Y-92750000D01*
X37200000Y-87665000D02*
X39070000Y-87665000D01*
X43135000Y-93945000D02*
X41871400Y-95208600D01*
X43775000Y-95744999D02*
X43391399Y-96128600D01*
X54750000Y-86725000D02*
X54750000Y-85315000D01*
X41900000Y-96128600D02*
X41324022Y-96128600D01*
X44170000Y-95150000D02*
X43775000Y-95545000D01*
X40990000Y-91500000D02*
X40990000Y-91300001D01*
X41000000Y-87720000D02*
X41000000Y-88959999D01*
X39070000Y-87665000D02*
X39100000Y-87635000D01*
X48250000Y-86725000D02*
X48750000Y-86725000D01*
X45825000Y-95150000D02*
X44170000Y-95150000D01*
X49600000Y-85220000D02*
X49250000Y-85570000D01*
X43391399Y-96128600D02*
X41900000Y-96128600D01*
%TO.N,Net-(D16-A)*%
X41000000Y-87080000D02*
X41000000Y-86085000D01*
%TO.N,/TDO_1*%
X48050000Y-81650000D02*
X46500000Y-83200000D01*
X48050000Y-79975000D02*
X48050000Y-81650000D01*
X60900000Y-76600000D02*
X61300000Y-77000000D01*
X61300000Y-77000000D02*
X61300000Y-79100000D01*
%TO.N,Net-(J1-D--PadA7)*%
X35893600Y-73021399D02*
X35664999Y-73250000D01*
X43335000Y-73700000D02*
X42600000Y-73700000D01*
X35893600Y-72547166D02*
X35893600Y-72800000D01*
X35596434Y-72250000D02*
X35893600Y-72547166D01*
X35893600Y-72800000D02*
X35893600Y-73021399D01*
X42600000Y-73700000D02*
X42300000Y-73400000D01*
X35664999Y-73250000D02*
X35090000Y-73250000D01*
X36400000Y-72800000D02*
X36600000Y-72600000D01*
X35090000Y-72250000D02*
X35596434Y-72250000D01*
X35893600Y-72800000D02*
X36400000Y-72800000D01*
%TO.N,/USB_DM_1*%
X43975000Y-73700000D02*
X44125000Y-73550000D01*
X44125000Y-73550000D02*
X45625000Y-73550000D01*
%TO.N,/TCK_1*%
X43550000Y-78050000D02*
X43500000Y-78000000D01*
X38625000Y-78325000D02*
X39100000Y-78800000D01*
X45625000Y-78050000D02*
X43550000Y-78050000D01*
X37625000Y-78325000D02*
X38625000Y-78325000D01*
%TO.N,/VTREF_2*%
X53850000Y-93450000D02*
X55650000Y-91650000D01*
X48500000Y-95100000D02*
X48500000Y-95147554D01*
X49200000Y-99560000D02*
X49200000Y-98125000D01*
X53100000Y-94900000D02*
X52800000Y-94600000D01*
X52800000Y-94600000D02*
X50800000Y-94600000D01*
X57225000Y-91700000D02*
X57175000Y-91650000D01*
X54800000Y-98125000D02*
X54750000Y-98075000D01*
X47900000Y-91400000D02*
X50800000Y-94300000D01*
X48500000Y-95147554D02*
X46000000Y-97647554D01*
X52580000Y-85220000D02*
X52600000Y-85200000D01*
X50800000Y-94300000D02*
X50800000Y-94600000D01*
X53850000Y-94150000D02*
X53850000Y-93450000D01*
X54750000Y-98075000D02*
X54750000Y-96550000D01*
X54750000Y-96550000D02*
X53100000Y-94900000D01*
X49750000Y-95650000D02*
X49200000Y-95100000D01*
X50800000Y-94600000D02*
X49750000Y-95650000D01*
X53100000Y-94900000D02*
X53850000Y-94150000D01*
X51750000Y-86725000D02*
X51750000Y-87550000D01*
X49750000Y-95650000D02*
X49250000Y-96150000D01*
X58660000Y-91700000D02*
X57225000Y-91700000D01*
X54800000Y-99560000D02*
X54800000Y-98125000D01*
X51800000Y-85220000D02*
X51800000Y-86675000D01*
X51750000Y-87550000D02*
X47900000Y-91400000D01*
X46000000Y-97647554D02*
X46000000Y-100200000D01*
X55650000Y-91650000D02*
X57175000Y-91650000D01*
X49200000Y-98125000D02*
X49250000Y-98075000D01*
X49250000Y-96150000D02*
X49250000Y-98075000D01*
X51800000Y-85220000D02*
X52580000Y-85220000D01*
X51800000Y-86675000D02*
X51750000Y-86725000D01*
X49200000Y-95100000D02*
X48500000Y-95100000D01*
%TO.N,/RXD_2*%
X60950000Y-95350000D02*
X59400000Y-96900000D01*
X55750000Y-93150000D02*
X55700000Y-93100000D01*
X58528600Y-92571400D02*
X59471400Y-92571400D01*
X57175000Y-93150000D02*
X57950000Y-93150000D01*
X59400000Y-96900000D02*
X59400000Y-97000000D01*
X60950000Y-94050000D02*
X60950000Y-95350000D01*
X57950000Y-93150000D02*
X58528600Y-92571400D01*
X57175000Y-93150000D02*
X55750000Y-93150000D01*
X59471400Y-92571400D02*
X60950000Y-94050000D01*
X59400000Y-97000000D02*
X58600000Y-97800000D01*
X60950000Y-94050000D02*
X61100000Y-94200000D01*
%TO.N,Net-(D15-A)*%
X37200000Y-87025000D02*
X37200000Y-86085000D01*
%TO.N,/TDI_1*%
X46400000Y-81125000D02*
X46400000Y-81800000D01*
X42300000Y-100300000D02*
X43900000Y-100300000D01*
X47550000Y-79975000D02*
X46400000Y-81125000D01*
X43900000Y-100300000D02*
X44200000Y-100000000D01*
%TO.N,/TDI_2*%
X57600000Y-100800000D02*
X55790354Y-100800000D01*
X56800000Y-82000000D02*
X56800000Y-83600000D01*
X56800000Y-83600000D02*
X61700000Y-88500000D01*
X47471400Y-100318954D02*
X47471400Y-98353600D01*
X47881046Y-100728600D02*
X47471400Y-100318954D01*
X55790354Y-100800000D02*
X55718954Y-100728600D01*
X47471400Y-98353600D02*
X47750000Y-98075000D01*
X60900000Y-97500000D02*
X57600000Y-100800000D01*
X61399999Y-97000001D02*
X60900000Y-97500000D01*
X55718954Y-100728600D02*
X47881046Y-100728600D01*
X61700000Y-88500000D02*
X61700000Y-97000000D01*
X61700000Y-97000000D02*
X61399999Y-97000001D01*
%TO.N,Net-(J2-D--PadA7)*%
X42345000Y-92445000D02*
X42300000Y-92400000D01*
X35893600Y-93547166D02*
X35893600Y-93952834D01*
X43135000Y-92445000D02*
X42345000Y-92445000D01*
X35596434Y-93250000D02*
X35893600Y-93547166D01*
X35090000Y-93250000D02*
X35596434Y-93250000D01*
X35950000Y-94250000D02*
X36300000Y-94600000D01*
X35596434Y-94250000D02*
X35090000Y-94250000D01*
X35090000Y-94250000D02*
X35950000Y-94250000D01*
X35893600Y-93952834D02*
X35596434Y-94250000D01*
%TO.N,/USB_DM_2*%
X44570000Y-91650000D02*
X45825000Y-91650000D01*
X43775000Y-92445000D02*
X44570000Y-91650000D01*
%TO.N,/VTREF_1*%
X51575000Y-67165000D02*
X51575000Y-68600000D01*
X49050000Y-79200001D02*
X53150001Y-75100000D01*
X51575000Y-68600000D02*
X51550000Y-68625000D01*
X50075000Y-81425000D02*
X50100000Y-81400000D01*
X55325001Y-73174999D02*
X55700001Y-73550000D01*
X58435000Y-73465000D02*
X59900000Y-72000000D01*
X49075000Y-81425000D02*
X50075000Y-81425000D01*
X51550000Y-69399999D02*
X55325001Y-73174999D01*
X59900000Y-72000000D02*
X60900000Y-72000000D01*
X51550000Y-68625000D02*
X51550000Y-69399999D01*
X54550000Y-75100000D02*
X54550000Y-73950000D01*
X54550000Y-79975000D02*
X54550000Y-81360000D01*
X54550000Y-73950000D02*
X55325001Y-73174999D01*
X53150001Y-75100000D02*
X54550000Y-75100000D01*
X49075000Y-80000000D02*
X49050000Y-79975000D01*
X49050000Y-79975000D02*
X49050000Y-79200001D01*
X54550000Y-81360000D02*
X54475000Y-81435000D01*
X54550000Y-79975000D02*
X54550000Y-75100000D01*
X58435000Y-73600000D02*
X57025000Y-73600000D01*
X58435000Y-73600000D02*
X58435000Y-73465000D01*
X57025000Y-73600000D02*
X56975000Y-73550000D01*
X49075000Y-81425000D02*
X49075000Y-80000000D01*
X55700001Y-73550000D02*
X56975000Y-73550000D01*
%TO.N,/RX_LED1*%
X52550000Y-66371466D02*
X51845134Y-65666600D01*
X38576400Y-82908600D02*
X39100000Y-82385000D01*
X32931600Y-68251952D02*
X32931600Y-79072574D01*
X35516952Y-65666600D02*
X32931600Y-68251952D01*
X52550000Y-68625000D02*
X52550000Y-66371466D01*
X51845134Y-65666600D02*
X35516952Y-65666600D01*
X32931600Y-79072574D02*
X36767626Y-82908600D01*
X36767626Y-82908600D02*
X38576400Y-82908600D01*
%TO.N,Net-(D17-A)*%
X39100000Y-81415000D02*
X39100000Y-80520000D01*
%TO.N,Net-(U15-REF)*%
X43775000Y-91645000D02*
X44270000Y-91150000D01*
X44270000Y-91150000D02*
X45825000Y-91150000D01*
%TO.N,Net-(U15-VREGOUT)*%
X53549999Y-89350001D02*
X53549999Y-89200000D01*
X44370000Y-94150000D02*
X43775000Y-94745000D01*
X46750000Y-94150000D02*
X45825000Y-94150000D01*
X48500000Y-94100000D02*
X46800000Y-94100000D01*
X47500000Y-86200000D02*
X47500000Y-86475000D01*
X57175000Y-94150000D02*
X56050000Y-94150000D01*
X46800000Y-86300000D02*
X47400000Y-86300000D01*
X57225000Y-94100000D02*
X57175000Y-94150000D01*
X47400000Y-86300000D02*
X47500000Y-86200000D01*
X55600000Y-85265000D02*
X55600000Y-86375000D01*
X58680000Y-94100000D02*
X57225000Y-94100000D01*
X53549999Y-89200000D02*
X55250000Y-87499999D01*
X45825000Y-94150000D02*
X44370000Y-94150000D01*
X46800000Y-94100000D02*
X46750000Y-94150000D01*
X56050000Y-94150000D02*
X55700000Y-94500000D01*
X47500000Y-85220000D02*
X47500000Y-86200000D01*
X47500000Y-86475000D02*
X47750000Y-86725000D01*
X52800000Y-90100000D02*
X53549999Y-89350001D01*
X55250000Y-87499999D02*
X55250000Y-86725000D01*
X55600000Y-86375000D02*
X55250000Y-86725000D01*
%TO.N,Net-(J1-D+-PadA6)*%
X35090000Y-73750000D02*
X34515001Y-73750000D01*
X34583566Y-72750000D02*
X35090000Y-72750000D01*
X43335000Y-74500000D02*
X42400000Y-74500000D01*
X34286400Y-73047166D02*
X34583566Y-72750000D01*
X34515001Y-73750000D02*
X34286400Y-73521399D01*
X35090000Y-73750000D02*
X36650000Y-73750000D01*
X36650000Y-73750000D02*
X36800000Y-73600000D01*
X34286400Y-73521399D02*
X34286400Y-73047166D01*
%TO.N,/USB_DP_1*%
X44425000Y-74050000D02*
X45625000Y-74050000D01*
X43975000Y-74500000D02*
X44425000Y-74050000D01*
%TO.N,/FTDI_OSCI_1*%
X44600000Y-68000000D02*
X43375000Y-68000000D01*
X46628600Y-70752834D02*
X46628600Y-70028600D01*
X46628600Y-70028600D02*
X44600000Y-68000000D01*
X45625000Y-71050000D02*
X46331434Y-71050000D01*
X46331434Y-71050000D02*
X46628600Y-70752834D01*
%TO.N,/FTDI_OSCO_1*%
X45625000Y-71550000D02*
X44850001Y-71550000D01*
X43700001Y-70400000D02*
X43375000Y-70400000D01*
X44850001Y-71550000D02*
X43700001Y-70400000D01*
%TO.N,Net-(C2-Pad1)*%
X34690354Y-91600000D02*
X33918954Y-92371400D01*
X35710000Y-96400000D02*
X35090000Y-96400000D01*
X34515001Y-96400000D02*
X35090000Y-96400000D01*
X37110000Y-97800000D02*
X35710000Y-96400000D01*
X33918954Y-92371400D02*
X33481046Y-92371400D01*
X33171400Y-95056399D02*
X34515001Y-96400000D01*
X33481046Y-92371400D02*
X33171400Y-92681046D01*
X33171400Y-92681046D02*
X33171400Y-95056399D01*
X35090000Y-91600000D02*
X34690354Y-91600000D01*
X35190000Y-91700000D02*
X35090000Y-91600000D01*
X36635000Y-91700000D02*
X35190000Y-91700000D01*
%TO.N,Net-(J2-CC1)*%
X35140000Y-92800000D02*
X35090000Y-92750000D01*
X36590000Y-92800000D02*
X35140000Y-92800000D01*
%TO.N,Net-(J2-D+-PadA6)*%
X35090000Y-93750000D02*
X34583566Y-93750000D01*
X34515001Y-93750000D02*
X33700000Y-92934999D01*
X43135000Y-93145000D02*
X42855000Y-93145000D01*
X34515001Y-94750000D02*
X35090000Y-94750000D01*
X34286400Y-94047166D02*
X34286400Y-94521399D01*
X35090000Y-94750000D02*
X35011400Y-94828600D01*
X34286400Y-94521399D02*
X34515001Y-94750000D01*
X35090000Y-93750000D02*
X34515001Y-93750000D01*
X42855000Y-93145000D02*
X42400000Y-93600000D01*
X34583566Y-93750000D02*
X34286400Y-94047166D01*
X33700000Y-92934999D02*
X33700000Y-92900000D01*
%TO.N,Net-(J2-CC2)*%
X36590000Y-95800000D02*
X35140000Y-95800000D01*
X35140000Y-95800000D02*
X35090000Y-95750000D01*
%TO.N,Net-(C1-Pad1)*%
X34515001Y-70600000D02*
X33981600Y-71133401D01*
X35090000Y-70600000D02*
X34515001Y-70600000D01*
X35190000Y-75500000D02*
X35090000Y-75400000D01*
X35810000Y-70600000D02*
X37110000Y-69300000D01*
X35090000Y-70600000D02*
X35810000Y-70600000D01*
X33981600Y-74866599D02*
X34515001Y-75400000D01*
X34515001Y-75400000D02*
X35090000Y-75400000D01*
X36590000Y-75500000D02*
X35190000Y-75500000D01*
X33981600Y-71133401D02*
X33981600Y-74866599D01*
%TO.N,Net-(J1-CC1)*%
X36590000Y-71800000D02*
X35140000Y-71800000D01*
X35140000Y-71800000D02*
X35090000Y-71750000D01*
%TO.N,Net-(J1-CC2)*%
X36590000Y-74800000D02*
X35140000Y-74800000D01*
X35140000Y-74800000D02*
X35090000Y-74750000D01*
%TO.N,/JTAG_LED2*%
X41000000Y-85115000D02*
X44585000Y-85115000D01*
X44585000Y-85115000D02*
X44770000Y-85300000D01*
X53750000Y-98075000D02*
X53750000Y-96750000D01*
X53750000Y-96750000D02*
X53800000Y-96700000D01*
X44770000Y-85300000D02*
X45300000Y-85300000D01*
%TO.N,/5V_2*%
X38772500Y-94650000D02*
X39024578Y-94650000D01*
X38772500Y-92750000D02*
X38352500Y-92330000D01*
X38352500Y-92330000D02*
X38352500Y-91500000D01*
X39663600Y-94010978D02*
X39663600Y-92963600D01*
X39663600Y-92963600D02*
X39450000Y-92750000D01*
X39450000Y-92750000D02*
X38772500Y-92750000D01*
X39910000Y-97800000D02*
X39910000Y-95787500D01*
X39910000Y-95787500D02*
X38772500Y-94650000D01*
X39024578Y-94650000D02*
X39663600Y-94010978D01*
%TO.N,/TMS_2*%
X48750000Y-96650000D02*
X48700000Y-96600000D01*
X48750000Y-98075000D02*
X48750000Y-96650000D01*
X39100000Y-100500000D02*
X39200000Y-100600000D01*
X37400000Y-100500000D02*
X39100000Y-100500000D01*
%TO.N,/FTDI_OSCI_2*%
X46828600Y-88921399D02*
X46599999Y-89150000D01*
X46599999Y-89150000D02*
X45825000Y-89150000D01*
X44953934Y-86572500D02*
X46828600Y-88447166D01*
X43500000Y-86572500D02*
X44953934Y-86572500D01*
X46828600Y-88447166D02*
X46828600Y-88921399D01*
%TO.N,/FTDI_OSCO_2*%
X45825000Y-89650000D02*
X44177500Y-89650000D01*
X44177500Y-89650000D02*
X43500000Y-88972500D01*
%TO.N,/USB_DP_2*%
X44770000Y-92150000D02*
X45825000Y-92150000D01*
X43775000Y-93145000D02*
X44770000Y-92150000D01*
%TO.N,Net-(U15-VPLL)*%
X45825000Y-92650000D02*
X45050001Y-92650000D01*
X43775000Y-93925001D02*
X43775000Y-93945000D01*
X45050001Y-92650000D02*
X43775000Y-93925001D01*
%TO.N,/TCK_2*%
X44675000Y-97300000D02*
X44400000Y-97300000D01*
X42500000Y-97700000D02*
X44000000Y-97700000D01*
X45825000Y-96150000D02*
X44675000Y-97300000D01*
X44000000Y-97700000D02*
X44400000Y-97300000D01*
%TO.N,/TDO_2*%
X48250000Y-98075000D02*
X48250000Y-99850000D01*
X48250000Y-99850000D02*
X48000000Y-100100000D01*
X59300000Y-100000000D02*
X58900000Y-100400000D01*
X60800000Y-100000000D02*
X59300000Y-100000000D01*
%TO.N,/NSRST_2*%
X52750000Y-99650000D02*
X52500000Y-99900000D01*
X52750000Y-98075000D02*
X52750000Y-99650000D01*
%TO.N,/RX_LED2*%
X52750000Y-86725000D02*
X52750000Y-87702446D01*
X39100000Y-85115000D02*
X39100000Y-84300000D01*
X52750000Y-87702446D02*
X50500000Y-89952446D01*
X39100000Y-84300000D02*
X38600000Y-83800000D01*
X50500000Y-89952446D02*
X50500000Y-92400000D01*
%TO.N,/TX_LED2*%
X36015000Y-85115000D02*
X35800000Y-84900000D01*
X52250000Y-87499999D02*
X49600000Y-90149999D01*
X37200000Y-85115000D02*
X36015000Y-85115000D01*
X52250000Y-86725000D02*
X52250000Y-87499999D01*
X49600000Y-90149999D02*
X49600000Y-91300000D01*
%TO.N,Net-(U9-REF)*%
X45575000Y-73000000D02*
X45625000Y-73050000D01*
X43975000Y-73000000D02*
X45575000Y-73000000D01*
%TO.N,/RXD_1*%
X59500000Y-70900000D02*
X59700000Y-70900000D01*
X56975000Y-75050000D02*
X57749999Y-75050000D01*
X59500000Y-70800000D02*
X60900000Y-69400000D01*
X58400000Y-74399999D02*
X58400000Y-74300000D01*
X59500000Y-70900000D02*
X59500000Y-70800000D01*
X57749999Y-75050000D02*
X58400000Y-74399999D01*
%TO.N,Net-(D14-A)*%
X39100000Y-86995000D02*
X39100000Y-86085000D01*
%TO.N,Net-(U9-VREGOUT)*%
X56975000Y-76050000D02*
X55650000Y-76050000D01*
X46800000Y-68100000D02*
X46500000Y-68400000D01*
X47275000Y-68350000D02*
X47550000Y-68625000D01*
X58455000Y-76100000D02*
X57025000Y-76100000D01*
X47275000Y-67120000D02*
X47275000Y-68100000D01*
X55050000Y-70150000D02*
X55000000Y-70200000D01*
X45575000Y-76100000D02*
X45625000Y-76050000D01*
X47275000Y-68100000D02*
X47275000Y-68350000D01*
X45625000Y-76050000D02*
X46750000Y-76050000D01*
X55050000Y-68625000D02*
X55050000Y-70150000D01*
X43465000Y-76100000D02*
X45575000Y-76100000D01*
X47275000Y-68100000D02*
X46800000Y-68100000D01*
X46750000Y-76050000D02*
X47000000Y-75800000D01*
X55050000Y-68625000D02*
X55050000Y-67445000D01*
X55650000Y-76050000D02*
X55600000Y-76100000D01*
X57025000Y-76100000D02*
X56975000Y-76050000D01*
X55050000Y-67445000D02*
X55375000Y-67120000D01*
%TO.N,/TMS_1*%
X48550000Y-79975000D02*
X48550000Y-79097554D01*
X48550000Y-82650000D02*
X48100000Y-83100000D01*
X58700000Y-67100000D02*
X58800000Y-67100000D01*
X58800000Y-67100000D02*
X58900000Y-67000000D01*
X52400000Y-75247554D02*
X52400000Y-72900000D01*
X58900000Y-67000000D02*
X60800000Y-67000000D01*
X48550000Y-79097554D02*
X52400000Y-75247554D01*
X48550000Y-79975000D02*
X48550000Y-82650000D01*
%TO.N,Net-(U9-VPLL)*%
X44300000Y-75200000D02*
X44621400Y-74878600D01*
X44950000Y-74550000D02*
X45625000Y-74550000D01*
X43520000Y-75200000D02*
X44300000Y-75200000D01*
X44621400Y-74847166D02*
X44797166Y-74671400D01*
X43420000Y-75300000D02*
X43520000Y-75200000D01*
X44621400Y-74878600D02*
X44621400Y-74847166D01*
X44797166Y-74671400D02*
X44828600Y-74671400D01*
X44828600Y-74671400D02*
X44950000Y-74550000D01*
%TO.N,/NTRST_1*%
X52050000Y-79975000D02*
X52050000Y-80850000D01*
X52050000Y-80850000D02*
X52700000Y-81500000D01*
%TO.N,/JTAG_LED1*%
X53550000Y-79975000D02*
X53600000Y-79925000D01*
X41000000Y-82370000D02*
X43782446Y-82370000D01*
X50000000Y-75500000D02*
X50500000Y-75000000D01*
X50000000Y-76152446D02*
X50000000Y-75500000D01*
X50500000Y-75000000D02*
X50800000Y-75000000D01*
X43782446Y-82370000D02*
X50000000Y-76152446D01*
X53600000Y-79925000D02*
X53600000Y-75800000D01*
%TO.N,/TXD_1*%
X58950000Y-75550000D02*
X59200000Y-75300000D01*
X60000000Y-74500000D02*
X59200000Y-75300000D01*
X60900000Y-74500000D02*
X60000000Y-74500000D01*
X56975000Y-75550000D02*
X58950000Y-75550000D01*
%TO.N,/5V_1*%
X39663600Y-73089022D02*
X39024578Y-72450000D01*
X39434999Y-74350000D02*
X39663600Y-74121399D01*
X38772500Y-72450000D02*
X39910000Y-71312500D01*
X39024578Y-72450000D02*
X38772500Y-72450000D01*
X39910000Y-71312500D02*
X39910000Y-69300000D01*
X38772500Y-74350000D02*
X39434999Y-74350000D01*
X39663600Y-74121399D02*
X39663600Y-73089022D01*
X38290000Y-74832500D02*
X38772500Y-74350000D01*
X38290000Y-75500000D02*
X38290000Y-74832500D01*
%TO.N,Net-(D19-A)*%
X41000000Y-81400000D02*
X41000000Y-80485000D01*
%TD*%
M02*
