%TF.GenerationSoftware,KiCad,Pcbnew,10.0.3*%
%TF.CreationDate,2026-07-22T00:39:49+08:00*%
%TF.ProjectId,riskybirdv3_connector,7269736b-7962-4697-9264-76335f636f6e,rev?*%
%TF.SameCoordinates,Original*%
%TF.FileFunction,Copper,L4,Bot*%
%TF.FilePolarity,Positive*%
%FSLAX46Y46*%
G04 Gerber Fmt 4.6, Leading zero omitted, Abs format (unit mm)*
G04 Created by KiCad (PCBNEW 10.0.3) date 2026-07-22 00:39:49*
%MOMM*%
%LPD*%
G01*
G04 APERTURE LIST*
G04 Aperture macros list*
%AMRoundRect*
0 Rectangle with rounded corners*
0 $1 Rounding radius*
0 $2 $3 $4 $5 $6 $7 $8 $9 X,Y pos of 4 corners*
0 Add a 4 corners polygon primitive as box body*
4,1,4,$2,$3,$4,$5,$6,$7,$8,$9,$2,$3,0*
0 Add four circle primitives for the rounded corners*
1,1,$1+$1,$2,$3*
1,1,$1+$1,$4,$5*
1,1,$1+$1,$6,$7*
1,1,$1+$1,$8,$9*
0 Add four rect primitives between the rounded corners*
20,1,$1+$1,$2,$3,$4,$5,0*
20,1,$1+$1,$4,$5,$6,$7,0*
20,1,$1+$1,$6,$7,$8,$9,0*
20,1,$1+$1,$8,$9,$2,$3,0*%
G04 Aperture macros list end*
%TA.AperFunction,ComponentPad*%
%ADD10O,2.100000X1.000000*%
%TD*%
%TA.AperFunction,ComponentPad*%
%ADD11O,1.800000X1.000000*%
%TD*%
%TA.AperFunction,SMDPad,CuDef*%
%ADD12RoundRect,0.291666X0.408334X0.408334X-0.408334X0.408334X-0.408334X-0.408334X0.408334X-0.408334X0*%
%TD*%
%TA.AperFunction,SMDPad,CuDef*%
%ADD13RoundRect,0.100000X0.130000X0.100000X-0.130000X0.100000X-0.130000X-0.100000X0.130000X-0.100000X0*%
%TD*%
%TA.AperFunction,SMDPad,CuDef*%
%ADD14RoundRect,0.291666X-0.408334X0.408334X-0.408334X-0.408334X0.408334X-0.408334X0.408334X0.408334X0*%
%TD*%
%TA.AperFunction,SMDPad,CuDef*%
%ADD15R,2.790000X0.740000*%
%TD*%
%TA.AperFunction,ViaPad*%
%ADD16C,0.600000*%
%TD*%
%TA.AperFunction,Conductor*%
%ADD17C,0.152400*%
%TD*%
G04 APERTURE END LIST*
D10*
%TO.P,J2,SH,SHIELD_SH*%
%TO.N,GND*%
X34515000Y-89680000D03*
D11*
X30335000Y-89680000D03*
D10*
X34515000Y-98320000D03*
D11*
X30335000Y-98320000D03*
%TD*%
D10*
%TO.P,J1,SH,SHIELD_SH*%
%TO.N,GND*%
X34515000Y-68680000D03*
D11*
X30335000Y-68680000D03*
D10*
X34515000Y-77320000D03*
D11*
X30335000Y-77320000D03*
%TD*%
D12*
%TO.P,R10,1*%
%TO.N,Net-(J3-Pin_20)*%
X48695000Y-87515000D03*
%TO.P,R10,2*%
%TO.N,/RXD_2*%
X48695000Y-89625000D03*
%TO.P,R10,3*%
%TO.N,Net-(J3-Pin_17)*%
X46585000Y-89625000D03*
%TO.P,R10,4*%
%TO.N,/TXD_2*%
X46585000Y-87515000D03*
%TD*%
D13*
%TO.P,C84,1*%
%TO.N,/VTREF_1*%
X53000000Y-82600000D03*
%TO.P,C84,2*%
%TO.N,GND*%
X52360000Y-82600000D03*
%TD*%
D14*
%TO.P,R7,1*%
%TO.N,Net-(J3-Pin_18)*%
X46685000Y-78015000D03*
%TO.P,R7,2*%
%TO.N,/RXD_1*%
X48795000Y-78015000D03*
%TO.P,R7,3*%
%TO.N,Net-(J3-Pin_15)*%
X48795000Y-80125000D03*
%TO.P,R7,4*%
%TO.N,/TXD_1*%
X46685000Y-80125000D03*
%TD*%
D15*
%TO.P,J3,1,Pin_1_1*%
%TO.N,GND*%
X58980000Y-78050000D03*
%TO.P,J3,2,Pin_2_2*%
%TO.N,/VTREF_2*%
X54900000Y-78050000D03*
%TO.P,J3,3,Pin_3_3*%
%TO.N,GND*%
X58980000Y-79330000D03*
%TO.P,J3,4,Pin_4_4*%
%TO.N,/TCK_2*%
X54900000Y-79330000D03*
%TO.P,J3,5,Pin_5_5*%
%TO.N,/TDO_2*%
X58980000Y-80600000D03*
%TO.P,J3,6,Pin_6_6*%
%TO.N,/TMS_2*%
X54900000Y-80600000D03*
%TO.P,J3,7,Pin_7_7*%
%TO.N,/NSRST_2*%
X58980000Y-81870000D03*
%TO.P,J3,8,Pin_8_8*%
%TO.N,/TDI_2*%
X54900000Y-81870000D03*
%TO.P,J3,9,Pin_9_9*%
%TO.N,/TDO_1*%
X58980000Y-83140000D03*
%TO.P,J3,10,Pin_10_10*%
%TO.N,/VTREF_1*%
X54900000Y-83140000D03*
%TO.P,J3,11,Pin_11_11*%
%TO.N,GND*%
X58980000Y-84400000D03*
%TO.P,J3,12,Pin_12_12*%
%TO.N,/TCK_1*%
X54900000Y-84400000D03*
%TO.P,J3,13,Pin_13_13*%
%TO.N,/TDI_1*%
X58980000Y-85670000D03*
%TO.P,J3,14,Pin_14_14*%
%TO.N,/TMS_1*%
X54900000Y-85670000D03*
%TO.P,J3,15,Pin_15_15*%
%TO.N,Net-(J3-Pin_15)*%
X58980000Y-86950000D03*
%TO.P,J3,16,Pin_16_16*%
%TO.N,/NTRST_1*%
X54900000Y-86950000D03*
%TO.P,J3,17,Pin_17_17*%
%TO.N,Net-(J3-Pin_17)*%
X58980000Y-88220000D03*
%TO.P,J3,18,Pin_18_18*%
%TO.N,Net-(J3-Pin_18)*%
X54900000Y-88220000D03*
%TO.P,J3,19,Pin_19_19*%
%TO.N,GND*%
X58980000Y-89490000D03*
%TO.P,J3,20,Pin_20_20*%
%TO.N,Net-(J3-Pin_20)*%
X54900000Y-89490000D03*
%TD*%
D13*
%TO.P,C79,1*%
%TO.N,/VTREF_2*%
X54120000Y-77300000D03*
%TO.P,C79,2*%
%TO.N,GND*%
X53480000Y-77300000D03*
%TD*%
D16*
%TO.N,/TXD_2*%
X34100000Y-84300000D03*
X59000000Y-93100000D03*
X44800000Y-83900000D03*
%TO.N,/FTDI_3v3_1*%
X48700000Y-70000000D03*
X53600000Y-70000000D03*
%TO.N,GND*%
X58400000Y-71100000D03*
X41800000Y-87800000D03*
X47200000Y-93400000D03*
X49900000Y-100200000D03*
X50800000Y-85200000D03*
X60000000Y-94100000D03*
X41900000Y-76900000D03*
X46400000Y-66500000D03*
X47200000Y-95700000D03*
X60700000Y-84400000D03*
X42300000Y-90900000D03*
X41600000Y-69200000D03*
X42400000Y-95600000D03*
X52600000Y-77300000D03*
X55500000Y-100200000D03*
X60700000Y-78100000D03*
X37400000Y-94600000D03*
X51823777Y-82376223D03*
X47100000Y-76700000D03*
X60000000Y-91700000D03*
X47100000Y-72300000D03*
X59900000Y-73600000D03*
%TO.N,/FTDI_3v3_2*%
X50100000Y-88200000D03*
X52700000Y-88500000D03*
%TO.N,/TDO_1*%
X61300000Y-79100000D03*
X46500000Y-83200000D03*
X61000000Y-83200000D03*
%TO.N,Net-(J1-D--PadA7)*%
X36600000Y-72600000D03*
X42300000Y-73400000D03*
%TO.N,/TCK_1*%
X43500000Y-78000000D03*
X39100000Y-78800000D03*
%TO.N,/VTREF_2*%
X52800000Y-78500000D03*
X52600000Y-85200000D03*
%TO.N,/RXD_2*%
X55700000Y-93100000D03*
%TO.N,/TDI_1*%
X44200000Y-100000000D03*
X46400000Y-81800000D03*
X60800000Y-85800000D03*
%TO.N,/TDI_2*%
X56800000Y-82000000D03*
%TO.N,Net-(J2-D--PadA7)*%
X36300000Y-94600000D03*
X42300000Y-92400000D03*
%TO.N,/VTREF_1*%
X52400000Y-83300000D03*
X50100000Y-81400000D03*
%TO.N,Net-(U15-VREGOUT)*%
X55700000Y-94500000D03*
X52800000Y-90100000D03*
X46800000Y-86300000D03*
X48500000Y-94100000D03*
%TO.N,Net-(J1-D+-PadA6)*%
X36800000Y-73600000D03*
X42400000Y-74500000D03*
%TO.N,Net-(J2-D+-PadA6)*%
X42400000Y-93600000D03*
X33700000Y-92900000D03*
%TO.N,/JTAG_LED2*%
X45300000Y-85300000D03*
X53800000Y-96700000D03*
%TO.N,/TMS_2*%
X56700000Y-80100000D03*
X39200000Y-100600000D03*
X48700000Y-96600000D03*
%TO.N,/TCK_2*%
X44400000Y-97300000D03*
%TO.N,/TDO_2*%
X48000000Y-100100000D03*
X58900000Y-100400000D03*
%TO.N,/NSRST_2*%
X52500000Y-99900000D03*
%TO.N,/RX_LED2*%
X50500000Y-92400000D03*
X38600000Y-83800000D03*
%TO.N,/TX_LED2*%
X49600000Y-91300000D03*
X35800000Y-84900000D03*
%TO.N,/RXD_1*%
X50300000Y-76600000D03*
X58400000Y-74300000D03*
X59500000Y-70900000D03*
%TO.N,Net-(U9-VREGOUT)*%
X47000000Y-75800000D03*
X46500000Y-68400000D03*
X55000000Y-70200000D03*
X55600000Y-76100000D03*
%TO.N,/TMS_1*%
X52400000Y-72900000D03*
X48100000Y-83100000D03*
X58700000Y-67100000D03*
%TO.N,/NTRST_1*%
X57100000Y-86400000D03*
X52700000Y-81500000D03*
%TO.N,/JTAG_LED1*%
X53600000Y-75800000D03*
X50800000Y-75000000D03*
%TO.N,/TXD_1*%
X59200000Y-75300000D03*
X44800000Y-80300000D03*
%TO.N,Net-(J3-Pin_18)*%
X43400000Y-79400000D03*
X54800000Y-91300000D03*
%TO.N,Net-(J3-Pin_15)*%
X57136366Y-87791736D03*
X48600000Y-76200000D03*
%TD*%
%TO.N,/TXD_2*%
D17*
X49036164Y-93628600D02*
X58171400Y-93628600D01*
X58700000Y-93100000D02*
X59000000Y-93100000D01*
X45656400Y-90248836D02*
X49036164Y-93628600D01*
X45656400Y-88443600D02*
X45656400Y-90248836D01*
X45200000Y-83900000D02*
X44800000Y-83900000D01*
X46585000Y-87515000D02*
X45656400Y-88443600D01*
X58171400Y-93628600D02*
X58700000Y-93100000D01*
X46585000Y-87515000D02*
X45828600Y-86758600D01*
X45828600Y-86758600D02*
X45828600Y-84528600D01*
X45828600Y-84528600D02*
X45200000Y-83900000D01*
%TO.N,GND*%
X51823777Y-82376223D02*
X52196223Y-82376223D01*
X53480000Y-77300000D02*
X52600000Y-77300000D01*
X52360000Y-82540000D02*
X52360000Y-82600000D01*
X58980000Y-84400000D02*
X60700000Y-84400000D01*
X60650000Y-78050000D02*
X60700000Y-78100000D01*
X58980000Y-90680000D02*
X60000000Y-91700000D01*
X52196223Y-82376223D02*
X52360000Y-82540000D01*
X58980000Y-89490000D02*
X58980000Y-90680000D01*
X58980000Y-79330000D02*
X58980000Y-78050000D01*
X58980000Y-78050000D02*
X60650000Y-78050000D01*
%TO.N,/TDO_1*%
X57185000Y-84337200D02*
X56450800Y-85071400D01*
X57185000Y-83140000D02*
X57185000Y-84337200D01*
X50900000Y-82571400D02*
X47128600Y-82571400D01*
X58980000Y-83140000D02*
X57185000Y-83140000D01*
X56450800Y-85071400D02*
X53400000Y-85071400D01*
X53400000Y-85071400D02*
X50900000Y-82571400D01*
X58980000Y-83140000D02*
X60940000Y-83140000D01*
X60940000Y-83140000D02*
X61000000Y-83200000D01*
X47128600Y-82571400D02*
X46500000Y-83200000D01*
%TO.N,/TCK_1*%
X43600000Y-77500000D02*
X43600000Y-77900000D01*
X57328600Y-77081046D02*
X54718954Y-74471400D01*
X56581046Y-82966508D02*
X57328600Y-82218954D01*
X42700000Y-78800000D02*
X43500000Y-78000000D01*
X39100000Y-78800000D02*
X42700000Y-78800000D01*
X43600000Y-77900000D02*
X43500000Y-78000000D01*
X55862200Y-84400000D02*
X56581046Y-83681154D01*
X54718954Y-74471400D02*
X46628600Y-74471400D01*
X54900000Y-84400000D02*
X55862200Y-84400000D01*
X57328600Y-82218954D02*
X57328600Y-77081046D01*
X56581046Y-83681154D02*
X56581046Y-82966508D01*
X46628600Y-74471400D02*
X43600000Y-77500000D01*
%TO.N,/VTREF_2*%
X54870000Y-78050000D02*
X54120000Y-77300000D01*
X54900000Y-78050000D02*
X53250000Y-78050000D01*
X54900000Y-78050000D02*
X54870000Y-78050000D01*
X53250000Y-78050000D02*
X52800000Y-78500000D01*
%TO.N,/RXD_2*%
X53300000Y-93100000D02*
X55700000Y-93100000D01*
X49825000Y-89625000D02*
X53300000Y-93100000D01*
X48695000Y-89625000D02*
X49825000Y-89625000D01*
%TO.N,/TDI_1*%
X53276400Y-86268600D02*
X53276400Y-86033400D01*
X56853252Y-85100000D02*
X56577052Y-85376200D01*
X60670000Y-85670000D02*
X60800000Y-85800000D01*
X47200000Y-85100000D02*
X45700000Y-83600000D01*
X53978606Y-98900000D02*
X60908400Y-91970206D01*
X56523600Y-86268600D02*
X53276400Y-86268600D01*
X51018954Y-85728600D02*
X50581046Y-85728600D01*
X50581046Y-85728600D02*
X50271400Y-85418954D01*
X53276400Y-86033400D02*
X51949902Y-86033400D01*
X56577052Y-85376200D02*
X56523600Y-85376200D01*
X58980000Y-85670000D02*
X60670000Y-85670000D01*
X60908400Y-91970206D02*
X60908400Y-85908400D01*
X45700000Y-83600000D02*
X45700000Y-82500000D01*
X45700000Y-82500000D02*
X46400000Y-81800000D01*
X50271400Y-85100000D02*
X47200000Y-85100000D01*
X51328600Y-85418954D02*
X51018954Y-85728600D01*
X58410000Y-85100000D02*
X56853252Y-85100000D01*
X51949902Y-86033400D02*
X51328600Y-85412098D01*
X50271400Y-85418954D02*
X50271400Y-85100000D01*
X56523600Y-85376200D02*
X56523600Y-86268600D01*
X45300000Y-98900000D02*
X53978606Y-98900000D01*
X51328600Y-85412098D02*
X51328600Y-85418954D01*
X60908400Y-85908400D02*
X60800000Y-85800000D01*
X58980000Y-85670000D02*
X58410000Y-85100000D01*
X44200000Y-100000000D02*
X45300000Y-98900000D01*
%TO.N,/TDI_2*%
X54900000Y-81870000D02*
X56670000Y-81870000D01*
X56670000Y-81870000D02*
X56800000Y-82000000D01*
%TO.N,Net-(J2-D--PadA7)*%
X42181046Y-94128600D02*
X42618954Y-94128600D01*
X42928600Y-93028600D02*
X42300000Y-92400000D01*
X42618954Y-94128600D02*
X42928600Y-93818954D01*
X36300000Y-94600000D02*
X36828600Y-94071400D01*
X42928600Y-93818954D02*
X42928600Y-93028600D01*
X42123846Y-94071400D02*
X42181046Y-94128600D01*
X36828600Y-94071400D02*
X42123846Y-94071400D01*
%TO.N,/VTREF_1*%
X53000000Y-82600000D02*
X53000000Y-82700000D01*
X53000000Y-82700000D02*
X52400000Y-83300000D01*
X54360000Y-82600000D02*
X53000000Y-82600000D01*
X54900000Y-83140000D02*
X54360000Y-82600000D01*
%TO.N,Net-(J2-D+-PadA6)*%
X42400000Y-93600000D02*
X34400000Y-93600000D01*
X34400000Y-93600000D02*
X33700000Y-92900000D01*
%TO.N,/JTAG_LED2*%
X47971400Y-94318954D02*
X50352446Y-96700000D01*
X47971400Y-93261754D02*
X47971400Y-94318954D01*
X50352446Y-96700000D02*
X53800000Y-96700000D01*
X45300000Y-90590354D02*
X47971400Y-93261754D01*
X45300000Y-85300000D02*
X45300000Y-90590354D01*
%TO.N,/TMS_2*%
X56200000Y-80600000D02*
X56700000Y-80100000D01*
X39300000Y-100500000D02*
X39200000Y-100600000D01*
X46852446Y-96600000D02*
X42952446Y-100500000D01*
X54900000Y-80600000D02*
X56200000Y-80600000D01*
X42952446Y-100500000D02*
X39300000Y-100500000D01*
X48700000Y-96600000D02*
X46852446Y-96600000D01*
%TO.N,/TCK_2*%
X53875000Y-79330000D02*
X50938400Y-82266600D01*
X44300000Y-85000000D02*
X44300000Y-97200000D01*
X49100000Y-82266600D02*
X48104800Y-81271400D01*
X50938400Y-82266600D02*
X49100000Y-82266600D01*
X48104800Y-81271400D02*
X45428600Y-81271400D01*
X43600000Y-84300000D02*
X44300000Y-85000000D01*
X54900000Y-79330000D02*
X53875000Y-79330000D01*
X43600000Y-83100000D02*
X43600000Y-84300000D01*
X45428600Y-81271400D02*
X43600000Y-83100000D01*
X44300000Y-97200000D02*
X44400000Y-97300000D01*
%TO.N,/TDO_2*%
X48300000Y-101000000D02*
X48000000Y-100700000D01*
X53831052Y-101000000D02*
X48300000Y-101000000D01*
X60800000Y-80600000D02*
X61904800Y-81704800D01*
X48000000Y-100700000D02*
X48000000Y-100100000D01*
X61904800Y-81704800D02*
X61904800Y-93373806D01*
X61904800Y-93373806D02*
X59263080Y-96015526D01*
X56615526Y-98215526D02*
X53831052Y-101000000D01*
X58980000Y-80600000D02*
X60800000Y-80600000D01*
X59263080Y-96015526D02*
X58815526Y-96015526D01*
X56715526Y-98215526D02*
X56615526Y-98215526D01*
X58815526Y-96015526D02*
X56615526Y-98215526D01*
X58900000Y-100400000D02*
X56715526Y-98215526D01*
%TO.N,/NSRST_2*%
X60523777Y-93876223D02*
X61600000Y-92800000D01*
X60970000Y-81870000D02*
X58980000Y-81870000D01*
X60528600Y-94318954D02*
X60528600Y-93881046D01*
X52500000Y-99900000D02*
X54500000Y-99900000D01*
X59781046Y-94628600D02*
X60218954Y-94628600D01*
X59776223Y-94623777D02*
X59781046Y-94628600D01*
X54500000Y-99900000D02*
X59776223Y-94623777D01*
X61600000Y-82500000D02*
X60970000Y-81870000D01*
X61600000Y-92800000D02*
X61600000Y-82500000D01*
X60528600Y-93881046D02*
X60523777Y-93876223D01*
X60218954Y-94628600D02*
X60528600Y-94318954D01*
%TO.N,/RXD_1*%
X48885000Y-78015000D02*
X50300000Y-76600000D01*
X48795000Y-78015000D02*
X48885000Y-78015000D01*
%TO.N,/TMS_1*%
X54841400Y-85728600D02*
X52076154Y-85728600D01*
X58700000Y-67100000D02*
X58700000Y-67600000D01*
X54900000Y-85670000D02*
X54841400Y-85728600D01*
X52076154Y-85728600D02*
X49447554Y-83100000D01*
X53400000Y-72900000D02*
X52400000Y-72900000D01*
X49447554Y-83100000D02*
X48100000Y-83100000D01*
X58700000Y-67600000D02*
X53400000Y-72900000D01*
%TO.N,/NTRST_1*%
X57100000Y-86400000D02*
X56900000Y-86600000D01*
X56050000Y-86950000D02*
X54900000Y-86950000D01*
X56900000Y-86600000D02*
X56400000Y-86600000D01*
X56400000Y-86600000D02*
X56050000Y-86950000D01*
%TO.N,/TXD_1*%
X46685000Y-80125000D02*
X44975000Y-80125000D01*
X44975000Y-80125000D02*
X44800000Y-80300000D01*
%TO.N,Net-(J3-Pin_20)*%
X50590000Y-89490000D02*
X48695000Y-87595000D01*
X54900000Y-89490000D02*
X50590000Y-89490000D01*
X48695000Y-87595000D02*
X48695000Y-87515000D01*
%TO.N,Net-(J3-Pin_17)*%
X46585000Y-89625000D02*
X47513600Y-88696400D01*
X60603600Y-91843954D02*
X60218954Y-92228600D01*
X58980000Y-88220000D02*
X60005000Y-88220000D01*
X60603600Y-88818600D02*
X60603600Y-88891400D01*
X60218954Y-92228600D02*
X59781046Y-92228600D01*
X52897548Y-92228600D02*
X60000000Y-92228600D01*
X60005000Y-88220000D02*
X60603600Y-88818600D01*
X60603600Y-90088600D02*
X60603600Y-91843954D01*
X47513600Y-88696400D02*
X49365348Y-88696400D01*
X49365348Y-88696400D02*
X52897548Y-92228600D01*
X60603600Y-88891400D02*
X60603600Y-90088600D01*
X58980000Y-88220000D02*
X57955000Y-88220000D01*
%TO.N,Net-(J3-Pin_18)*%
X54900000Y-88220000D02*
X55852200Y-88220000D01*
X55852200Y-88220000D02*
X56523600Y-88891400D01*
X55312200Y-91300000D02*
X54800000Y-91300000D01*
X46685000Y-78015000D02*
X44785000Y-78015000D01*
X56523600Y-90088600D02*
X55312200Y-91300000D01*
X56523600Y-88891400D02*
X56523600Y-90088600D01*
X44785000Y-78015000D02*
X43400000Y-79400000D01*
%TO.N,Net-(J3-Pin_15)*%
X48795000Y-80125000D02*
X47866400Y-79196400D01*
X59402446Y-86950000D02*
X58980000Y-86950000D01*
X57136366Y-87791736D02*
X57356400Y-87791736D01*
X57356400Y-87791736D02*
X57356400Y-87621400D01*
X47866400Y-79196400D02*
X47866400Y-76933600D01*
X47866400Y-76933600D02*
X48600000Y-76200000D01*
X57356400Y-87621400D02*
X58308600Y-87621400D01*
X58308600Y-87621400D02*
X58980000Y-86950000D01*
X59452446Y-87000000D02*
X59402446Y-86950000D01*
%TD*%
%TA.AperFunction,Conductor*%
%TO.N,/TMS_2*%
G36*
X39743039Y-100019685D02*
G01*
X39788794Y-100072489D01*
X39800000Y-100124000D01*
X39800000Y-101076000D01*
X39780315Y-101143039D01*
X39727511Y-101188794D01*
X39676000Y-101200000D01*
X38724000Y-101200000D01*
X38656961Y-101180315D01*
X38611206Y-101127511D01*
X38600000Y-101076000D01*
X38600000Y-100124000D01*
X38619685Y-100056961D01*
X38672489Y-100011206D01*
X38724000Y-100000000D01*
X39676000Y-100000000D01*
X39743039Y-100019685D01*
G37*
%TD.AperFunction*%
%TD*%
%TA.AperFunction,Conductor*%
%TO.N,Net-(J2-D--PadA7)*%
G36*
X36580691Y-94219685D02*
G01*
X36626446Y-94272489D01*
X36636390Y-94341647D01*
X36631233Y-94360434D01*
X36632031Y-94360676D01*
X36630261Y-94366510D01*
X36599500Y-94521153D01*
X36599500Y-94678846D01*
X36630261Y-94833489D01*
X36632031Y-94839324D01*
X36629450Y-94840106D01*
X36635686Y-94897992D01*
X36604424Y-94960477D01*
X36544343Y-94996142D01*
X36513652Y-95000000D01*
X36224000Y-95000000D01*
X36156961Y-94980315D01*
X36111206Y-94927511D01*
X36100000Y-94876000D01*
X36100000Y-94324000D01*
X36119685Y-94256961D01*
X36172489Y-94211206D01*
X36224000Y-94200000D01*
X36513652Y-94200000D01*
X36580691Y-94219685D01*
G37*
%TD.AperFunction*%
%TD*%
%TA.AperFunction,Conductor*%
%TO.N,/TXD_2*%
G36*
X34643039Y-83819685D02*
G01*
X34688794Y-83872489D01*
X34700000Y-83924000D01*
X34700000Y-84576000D01*
X34680315Y-84643039D01*
X34627511Y-84688794D01*
X34576000Y-84700000D01*
X33824000Y-84700000D01*
X33756961Y-84680315D01*
X33711206Y-84627511D01*
X33700000Y-84576000D01*
X33700000Y-83924000D01*
X33719685Y-83856961D01*
X33772489Y-83811206D01*
X33824000Y-83800000D01*
X34576000Y-83800000D01*
X34643039Y-83819685D01*
G37*
%TD.AperFunction*%
%TD*%
%TA.AperFunction,Conductor*%
%TO.N,/TCK_2*%
G36*
X44743039Y-96819685D02*
G01*
X44788794Y-96872489D01*
X44800000Y-96924000D01*
X44800000Y-97676000D01*
X44780315Y-97743039D01*
X44727511Y-97788794D01*
X44676000Y-97800000D01*
X44037019Y-97800000D01*
X43969980Y-97780315D01*
X43924225Y-97727511D01*
X43913634Y-97663662D01*
X43988834Y-96911662D01*
X44015092Y-96846913D01*
X44072187Y-96806640D01*
X44112219Y-96800000D01*
X44676000Y-96800000D01*
X44743039Y-96819685D01*
G37*
%TD.AperFunction*%
%TD*%
%TA.AperFunction,Conductor*%
%TO.N,/TDO_2*%
G36*
X48343039Y-99619685D02*
G01*
X48388794Y-99672489D01*
X48400000Y-99724000D01*
X48400000Y-100376000D01*
X48380315Y-100443039D01*
X48327511Y-100488794D01*
X48276000Y-100500000D01*
X47624000Y-100500000D01*
X47556961Y-100480315D01*
X47511206Y-100427511D01*
X47500000Y-100376000D01*
X47500000Y-99724000D01*
X47519685Y-99656961D01*
X47572489Y-99611206D01*
X47624000Y-99600000D01*
X48276000Y-99600000D01*
X48343039Y-99619685D01*
G37*
%TD.AperFunction*%
%TD*%
%TA.AperFunction,Conductor*%
%TO.N,/TCK_1*%
G36*
X39733320Y-78325828D02*
G01*
X39783668Y-78374272D01*
X39800000Y-78435784D01*
X39800000Y-79176000D01*
X39780315Y-79243039D01*
X39727511Y-79288794D01*
X39676000Y-79300000D01*
X38824000Y-79300000D01*
X38756961Y-79280315D01*
X38711206Y-79227511D01*
X38700000Y-79176000D01*
X38700000Y-78513238D01*
X38719685Y-78446199D01*
X38772489Y-78400444D01*
X38812769Y-78389748D01*
X39664774Y-78312293D01*
X39733320Y-78325828D01*
G37*
%TD.AperFunction*%
%TD*%
%TA.AperFunction,Conductor*%
%TO.N,/TCK_1*%
G36*
X44043039Y-77719685D02*
G01*
X44088794Y-77772489D01*
X44100000Y-77824000D01*
X44100000Y-77833061D01*
X44080315Y-77900100D01*
X44063681Y-77920742D01*
X43520742Y-78463681D01*
X43493814Y-78478384D01*
X43467996Y-78494977D01*
X43461795Y-78495868D01*
X43459419Y-78497166D01*
X43433061Y-78500000D01*
X43324000Y-78500000D01*
X43256961Y-78480315D01*
X43211206Y-78427511D01*
X43200000Y-78376000D01*
X43200000Y-77824000D01*
X43219685Y-77756961D01*
X43272489Y-77711206D01*
X43324000Y-77700000D01*
X43976000Y-77700000D01*
X44043039Y-77719685D01*
G37*
%TD.AperFunction*%
%TD*%
%TA.AperFunction,Conductor*%
%TO.N,/JTAG_LED2*%
G36*
X45145006Y-84905023D02*
G01*
X45160004Y-84909427D01*
X45174994Y-84919057D01*
X45192075Y-84924067D01*
X45218755Y-84947172D01*
X45219942Y-84948541D01*
X45247418Y-85003402D01*
X45249063Y-85010960D01*
X45251900Y-85037331D01*
X45251900Y-85458170D01*
X45246875Y-85493114D01*
X45242470Y-85508112D01*
X45232839Y-85523101D01*
X45227832Y-85540175D01*
X45204727Y-85566855D01*
X45203358Y-85568042D01*
X45148497Y-85595518D01*
X45140939Y-85597163D01*
X45114568Y-85600000D01*
X45025952Y-85600000D01*
X45025837Y-85599983D01*
X45025261Y-85599983D01*
X44990211Y-85594926D01*
X44975327Y-85590540D01*
X44960359Y-85580911D01*
X44943344Y-85575916D01*
X44916669Y-85552805D01*
X44912524Y-85548022D01*
X44883495Y-85484468D01*
X44878566Y-85449963D01*
X44877634Y-85441243D01*
X44877010Y-85432456D01*
X44876700Y-85423689D01*
X44876700Y-85041829D01*
X44881723Y-85006893D01*
X44886127Y-84991895D01*
X44923872Y-84933144D01*
X44923900Y-84933119D01*
X44923899Y-84933119D01*
X44925241Y-84931956D01*
X44980120Y-84904477D01*
X44987679Y-84902833D01*
X45014032Y-84900000D01*
X45110070Y-84900000D01*
X45145006Y-84905023D01*
G37*
%TD.AperFunction*%
%TD*%
%TA.AperFunction,Conductor*%
%TO.N,Net-(J2-D+-PadA6)*%
G36*
X34143039Y-92519685D02*
G01*
X34188794Y-92572489D01*
X34200000Y-92624000D01*
X34200000Y-93276000D01*
X34180315Y-93343039D01*
X34127511Y-93388794D01*
X34076000Y-93400000D01*
X33324000Y-93400000D01*
X33256961Y-93380315D01*
X33211206Y-93327511D01*
X33200000Y-93276000D01*
X33200000Y-92624000D01*
X33219685Y-92556961D01*
X33272489Y-92511206D01*
X33324000Y-92500000D01*
X34076000Y-92500000D01*
X34143039Y-92519685D01*
G37*
%TD.AperFunction*%
%TD*%
%TA.AperFunction,Conductor*%
%TO.N,Net-(J2-D--PadA7)*%
G36*
X42643039Y-92119685D02*
G01*
X42688794Y-92172489D01*
X42700000Y-92224000D01*
X42700000Y-92576000D01*
X42680315Y-92643039D01*
X42627511Y-92688794D01*
X42576000Y-92700000D01*
X42024000Y-92700000D01*
X41956961Y-92680315D01*
X41911206Y-92627511D01*
X41900000Y-92576000D01*
X41900000Y-92224000D01*
X41919685Y-92156961D01*
X41972489Y-92111206D01*
X42024000Y-92100000D01*
X42576000Y-92100000D01*
X42643039Y-92119685D01*
G37*
%TD.AperFunction*%
%TD*%
%TA.AperFunction,Conductor*%
%TO.N,/JTAG_LED2*%
G36*
X54143039Y-96319685D02*
G01*
X54188794Y-96372489D01*
X54200000Y-96424000D01*
X54200000Y-96976000D01*
X54180315Y-97043039D01*
X54127511Y-97088794D01*
X54076000Y-97100000D01*
X53524000Y-97100000D01*
X53456961Y-97080315D01*
X53411206Y-97027511D01*
X53400000Y-96976000D01*
X53400000Y-96424000D01*
X53419685Y-96356961D01*
X53472489Y-96311206D01*
X53524000Y-96300000D01*
X54076000Y-96300000D01*
X54143039Y-96319685D01*
G37*
%TD.AperFunction*%
%TD*%
%TA.AperFunction,Conductor*%
%TO.N,/TDI_2*%
G36*
X56694939Y-81619685D02*
G01*
X56740694Y-81672489D01*
X56751900Y-81724000D01*
X56751900Y-81928714D01*
X56743255Y-81958154D01*
X56736732Y-81988141D01*
X56732977Y-81993156D01*
X56732215Y-81995753D01*
X56715581Y-82016395D01*
X56611681Y-82120295D01*
X56550358Y-82153780D01*
X56480666Y-82148796D01*
X56424733Y-82106924D01*
X56400316Y-82041460D01*
X56400000Y-82032614D01*
X56400000Y-81724000D01*
X56419685Y-81656961D01*
X56472489Y-81611206D01*
X56524000Y-81600000D01*
X56627900Y-81600000D01*
X56694939Y-81619685D01*
G37*
%TD.AperFunction*%
%TD*%
%TA.AperFunction,Conductor*%
%TO.N,/TDO_2*%
G36*
X59343039Y-99819685D02*
G01*
X59388794Y-99872489D01*
X59400000Y-99924000D01*
X59400000Y-100676000D01*
X59380315Y-100743039D01*
X59327511Y-100788794D01*
X59276000Y-100800000D01*
X58224000Y-100800000D01*
X58156961Y-100780315D01*
X58111206Y-100727511D01*
X58100000Y-100676000D01*
X58100000Y-99924000D01*
X58119685Y-99856961D01*
X58172489Y-99811206D01*
X58224000Y-99800000D01*
X59276000Y-99800000D01*
X59343039Y-99819685D01*
G37*
%TD.AperFunction*%
%TD*%
%TA.AperFunction,Conductor*%
%TO.N,/TMS_1*%
G36*
X59143039Y-66719685D02*
G01*
X59188794Y-66772489D01*
X59200000Y-66824000D01*
X59200000Y-67276000D01*
X59180315Y-67343039D01*
X59127511Y-67388794D01*
X59076000Y-67400000D01*
X58324000Y-67400000D01*
X58256961Y-67380315D01*
X58211206Y-67327511D01*
X58200000Y-67276000D01*
X58200000Y-66824000D01*
X58219685Y-66756961D01*
X58272489Y-66711206D01*
X58324000Y-66700000D01*
X59076000Y-66700000D01*
X59143039Y-66719685D01*
G37*
%TD.AperFunction*%
%TD*%
%TA.AperFunction,Conductor*%
%TO.N,/TXD_2*%
G36*
X45066339Y-83419685D02*
G01*
X45112094Y-83472489D01*
X45123300Y-83524000D01*
X45123300Y-83524076D01*
X45123300Y-83675924D01*
X45162384Y-83821789D01*
X45162602Y-83822600D01*
X45162602Y-83822601D01*
X45238522Y-83954098D01*
X45238527Y-83954104D01*
X45372742Y-84088319D01*
X45406227Y-84149642D01*
X45401243Y-84219334D01*
X45359371Y-84275267D01*
X45293907Y-84299684D01*
X45285061Y-84300000D01*
X44624000Y-84300000D01*
X44556961Y-84280315D01*
X44511206Y-84227511D01*
X44500000Y-84176000D01*
X44500000Y-83524000D01*
X44519685Y-83456961D01*
X44572489Y-83411206D01*
X44624000Y-83400000D01*
X44999300Y-83400000D01*
X45066339Y-83419685D01*
G37*
%TD.AperFunction*%
%TD*%
%TA.AperFunction,Conductor*%
%TO.N,/TMS_1*%
G36*
X52843039Y-72519685D02*
G01*
X52888794Y-72572489D01*
X52900000Y-72624000D01*
X52900000Y-73076000D01*
X52880315Y-73143039D01*
X52827511Y-73188794D01*
X52776000Y-73200000D01*
X52024000Y-73200000D01*
X51956961Y-73180315D01*
X51911206Y-73127511D01*
X51900000Y-73076000D01*
X51900000Y-72624000D01*
X51919685Y-72556961D01*
X51972489Y-72511206D01*
X52024000Y-72500000D01*
X52776000Y-72500000D01*
X52843039Y-72519685D01*
G37*
%TD.AperFunction*%
%TD*%
%TA.AperFunction,Conductor*%
%TO.N,/NSRST_2*%
G36*
X52943039Y-99519685D02*
G01*
X52988794Y-99572489D01*
X53000000Y-99624000D01*
X53000000Y-100176000D01*
X52980315Y-100243039D01*
X52927511Y-100288794D01*
X52876000Y-100300000D01*
X52224000Y-100300000D01*
X52156961Y-100280315D01*
X52111206Y-100227511D01*
X52100000Y-100176000D01*
X52100000Y-99624000D01*
X52119685Y-99556961D01*
X52172489Y-99511206D01*
X52224000Y-99500000D01*
X52876000Y-99500000D01*
X52943039Y-99519685D01*
G37*
%TD.AperFunction*%
%TD*%
%TA.AperFunction,Conductor*%
%TO.N,/TMS_1*%
G36*
X48443039Y-83167785D02*
G01*
X48488794Y-83220589D01*
X48500000Y-83272100D01*
X48500000Y-83476000D01*
X48480315Y-83543039D01*
X48427511Y-83588794D01*
X48376000Y-83600000D01*
X47724000Y-83600000D01*
X47715314Y-83597449D01*
X47706353Y-83598738D01*
X47682312Y-83587759D01*
X47656961Y-83580315D01*
X47651033Y-83573474D01*
X47642797Y-83569713D01*
X47628507Y-83547478D01*
X47611206Y-83527511D01*
X47608918Y-83516996D01*
X47605023Y-83510935D01*
X47600000Y-83476000D01*
X47600000Y-83272100D01*
X47619685Y-83205061D01*
X47672489Y-83159306D01*
X47724000Y-83148100D01*
X48376000Y-83148100D01*
X48443039Y-83167785D01*
G37*
%TD.AperFunction*%
%TD*%
%TA.AperFunction,Conductor*%
%TO.N,/TDO_1*%
G36*
X46893106Y-82605023D02*
G01*
X46908104Y-82609427D01*
X46923094Y-82619057D01*
X46940175Y-82624067D01*
X46966855Y-82647172D01*
X46968042Y-82648541D01*
X46995518Y-82703402D01*
X46997163Y-82710960D01*
X47000000Y-82737331D01*
X47000000Y-83458170D01*
X46994975Y-83493114D01*
X46990570Y-83508112D01*
X46980939Y-83523101D01*
X46975932Y-83540175D01*
X46952827Y-83566855D01*
X46951458Y-83568042D01*
X46896597Y-83595518D01*
X46889039Y-83597163D01*
X46862668Y-83600000D01*
X46584769Y-83600000D01*
X46549831Y-83594976D01*
X46537511Y-83591358D01*
X46537503Y-83591356D01*
X46535946Y-83591017D01*
X46534012Y-83590596D01*
X46472689Y-83557112D01*
X46325626Y-83410049D01*
X46325621Y-83410044D01*
X46304474Y-83381793D01*
X46291867Y-83358704D01*
X46276700Y-83299279D01*
X46276700Y-82808068D01*
X46281722Y-82773135D01*
X46289134Y-82747890D01*
X46320428Y-82695148D01*
X46366158Y-82649418D01*
X46394403Y-82628275D01*
X46417495Y-82615667D01*
X46476920Y-82600500D01*
X46479827Y-82600500D01*
X46479832Y-82600500D01*
X46484273Y-82600281D01*
X46486980Y-82600149D01*
X46493057Y-82600000D01*
X46858170Y-82600000D01*
X46893106Y-82605023D01*
G37*
%TD.AperFunction*%
%TD*%
%TA.AperFunction,Conductor*%
%TO.N,/TDI_1*%
G36*
X46465814Y-81855088D02*
G01*
X46490456Y-81857953D01*
X46498756Y-81864761D01*
X46509054Y-81867785D01*
X46525296Y-81886530D01*
X46544478Y-81902263D01*
X46547779Y-81912477D01*
X46554809Y-81920589D01*
X46558339Y-81945140D01*
X46565970Y-81968745D01*
X46563225Y-81979122D01*
X46564753Y-81989747D01*
X46554447Y-82012311D01*
X46548106Y-82036292D01*
X46540187Y-82043537D01*
X46535728Y-82053303D01*
X46514856Y-82066716D01*
X46496559Y-82083459D01*
X46480955Y-82088503D01*
X46476950Y-82091077D01*
X46468656Y-82092478D01*
X46462976Y-82094315D01*
X46455591Y-82095581D01*
X46454934Y-82095614D01*
X46454937Y-82095693D01*
X46412659Y-82102945D01*
X46407152Y-82103763D01*
X46351908Y-82110702D01*
X46351902Y-82110703D01*
X46292483Y-82125869D01*
X46236216Y-82148006D01*
X46175252Y-82171991D01*
X46175249Y-82171992D01*
X46175248Y-82171993D01*
X46152163Y-82184596D01*
X46091035Y-82223878D01*
X46082350Y-82226427D01*
X46075511Y-82232354D01*
X46049353Y-82236115D01*
X46023995Y-82243560D01*
X46015311Y-82241009D01*
X46006353Y-82242298D01*
X45982313Y-82231319D01*
X45956956Y-82223873D01*
X45951029Y-82217032D01*
X45942797Y-82213273D01*
X45928508Y-82191039D01*
X45911204Y-82171067D01*
X45908917Y-82160554D01*
X45905023Y-82154495D01*
X45900000Y-82119560D01*
X45900000Y-81989929D01*
X45905023Y-81954993D01*
X45909427Y-81939995D01*
X45919069Y-81924986D01*
X45919685Y-81922890D01*
X45921334Y-81921460D01*
X45947172Y-81881244D01*
X45948541Y-81880057D01*
X46003420Y-81852577D01*
X46010979Y-81850933D01*
X46037332Y-81848100D01*
X46442015Y-81848100D01*
X46465814Y-81855088D01*
G37*
%TD.AperFunction*%
%TD*%
M02*
