%TF.GenerationSoftware,KiCad,Pcbnew,10.0.3*%
%TF.CreationDate,2026-07-22T00:39:49+08:00*%
%TF.ProjectId,riskybirdv3_connector,7269736b-7962-4697-9264-76335f636f6e,rev?*%
%TF.SameCoordinates,Original*%
%TF.FileFunction,Legend,Bot*%
%TF.FilePolarity,Positive*%
%FSLAX46Y46*%
G04 Gerber Fmt 4.6, Leading zero omitted, Abs format (unit mm)*
G04 Created by KiCad (PCBNEW 10.0.3) date 2026-07-22 00:39:49*
%MOMM*%
%LPD*%
G01*
G04 APERTURE LIST*
%ADD10C,0.150000*%
%ADD11C,0.120000*%
%ADD12C,0.250000*%
%ADD13C,0.300000*%
%ADD14C,0.060000*%
G04 APERTURE END LIST*
D10*
X32691792Y-86732390D02*
X32767982Y-86694295D01*
X32767982Y-86694295D02*
X32882268Y-86694295D01*
X32882268Y-86694295D02*
X32996554Y-86732390D01*
X32996554Y-86732390D02*
X33072744Y-86808580D01*
X33072744Y-86808580D02*
X33110839Y-86884771D01*
X33110839Y-86884771D02*
X33148935Y-87037152D01*
X33148935Y-87037152D02*
X33148935Y-87151438D01*
X33148935Y-87151438D02*
X33110839Y-87303819D01*
X33110839Y-87303819D02*
X33072744Y-87380009D01*
X33072744Y-87380009D02*
X32996554Y-87456200D01*
X32996554Y-87456200D02*
X32882268Y-87494295D01*
X32882268Y-87494295D02*
X32806077Y-87494295D01*
X32806077Y-87494295D02*
X32691792Y-87456200D01*
X32691792Y-87456200D02*
X32653696Y-87418104D01*
X32653696Y-87418104D02*
X32653696Y-87151438D01*
X32653696Y-87151438D02*
X32806077Y-87151438D01*
X32310839Y-87494295D02*
X32310839Y-86694295D01*
X32310839Y-86694295D02*
X31853696Y-87494295D01*
X31853696Y-87494295D02*
X31853696Y-86694295D01*
X31472744Y-87494295D02*
X31472744Y-86694295D01*
X31472744Y-86694295D02*
X31282268Y-86694295D01*
X31282268Y-86694295D02*
X31167982Y-86732390D01*
X31167982Y-86732390D02*
X31091792Y-86808580D01*
X31091792Y-86808580D02*
X31053697Y-86884771D01*
X31053697Y-86884771D02*
X31015601Y-87037152D01*
X31015601Y-87037152D02*
X31015601Y-87151438D01*
X31015601Y-87151438D02*
X31053697Y-87303819D01*
X31053697Y-87303819D02*
X31091792Y-87380009D01*
X31091792Y-87380009D02*
X31167982Y-87456200D01*
X31167982Y-87456200D02*
X31282268Y-87494295D01*
X31282268Y-87494295D02*
X31472744Y-87494295D01*
X33525125Y-83394295D02*
X33067982Y-83394295D01*
X33296554Y-84194295D02*
X33296554Y-83394295D01*
X32877506Y-83394295D02*
X32344172Y-84194295D01*
X32344172Y-83394295D02*
X32877506Y-84194295D01*
X32039410Y-84194295D02*
X32039410Y-83394295D01*
X32039410Y-83394295D02*
X31848934Y-83394295D01*
X31848934Y-83394295D02*
X31734648Y-83432390D01*
X31734648Y-83432390D02*
X31658458Y-83508580D01*
X31658458Y-83508580D02*
X31620363Y-83584771D01*
X31620363Y-83584771D02*
X31582267Y-83737152D01*
X31582267Y-83737152D02*
X31582267Y-83851438D01*
X31582267Y-83851438D02*
X31620363Y-84003819D01*
X31620363Y-84003819D02*
X31658458Y-84080009D01*
X31658458Y-84080009D02*
X31734648Y-84156200D01*
X31734648Y-84156200D02*
X31848934Y-84194295D01*
X31848934Y-84194295D02*
X32039410Y-84194295D01*
X31277506Y-83470485D02*
X31239410Y-83432390D01*
X31239410Y-83432390D02*
X31163220Y-83394295D01*
X31163220Y-83394295D02*
X30972744Y-83394295D01*
X30972744Y-83394295D02*
X30896553Y-83432390D01*
X30896553Y-83432390D02*
X30858458Y-83470485D01*
X30858458Y-83470485D02*
X30820363Y-83546676D01*
X30820363Y-83546676D02*
X30820363Y-83622866D01*
X30820363Y-83622866D02*
X30858458Y-83737152D01*
X30858458Y-83737152D02*
X31315601Y-84194295D01*
X31315601Y-84194295D02*
X30820363Y-84194295D01*
X38525125Y-78094295D02*
X38067982Y-78094295D01*
X38296554Y-78894295D02*
X38296554Y-78094295D01*
X37344172Y-78818104D02*
X37382268Y-78856200D01*
X37382268Y-78856200D02*
X37496553Y-78894295D01*
X37496553Y-78894295D02*
X37572744Y-78894295D01*
X37572744Y-78894295D02*
X37687030Y-78856200D01*
X37687030Y-78856200D02*
X37763220Y-78780009D01*
X37763220Y-78780009D02*
X37801315Y-78703819D01*
X37801315Y-78703819D02*
X37839411Y-78551438D01*
X37839411Y-78551438D02*
X37839411Y-78437152D01*
X37839411Y-78437152D02*
X37801315Y-78284771D01*
X37801315Y-78284771D02*
X37763220Y-78208580D01*
X37763220Y-78208580D02*
X37687030Y-78132390D01*
X37687030Y-78132390D02*
X37572744Y-78094295D01*
X37572744Y-78094295D02*
X37496553Y-78094295D01*
X37496553Y-78094295D02*
X37382268Y-78132390D01*
X37382268Y-78132390D02*
X37344172Y-78170485D01*
X37001315Y-78894295D02*
X37001315Y-78094295D01*
X36544172Y-78894295D02*
X36887030Y-78437152D01*
X36544172Y-78094295D02*
X37001315Y-78551438D01*
X35782268Y-78894295D02*
X36239411Y-78894295D01*
X36010839Y-78894295D02*
X36010839Y-78094295D01*
X36010839Y-78094295D02*
X36087030Y-78208580D01*
X36087030Y-78208580D02*
X36163220Y-78284771D01*
X36163220Y-78284771D02*
X36239411Y-78322866D01*
X38525125Y-100094295D02*
X38067982Y-100094295D01*
X38296554Y-100894295D02*
X38296554Y-100094295D01*
X37801315Y-100894295D02*
X37801315Y-100094295D01*
X37801315Y-100094295D02*
X37534649Y-100665723D01*
X37534649Y-100665723D02*
X37267982Y-100094295D01*
X37267982Y-100094295D02*
X37267982Y-100894295D01*
X36925125Y-100856200D02*
X36810839Y-100894295D01*
X36810839Y-100894295D02*
X36620363Y-100894295D01*
X36620363Y-100894295D02*
X36544172Y-100856200D01*
X36544172Y-100856200D02*
X36506077Y-100818104D01*
X36506077Y-100818104D02*
X36467982Y-100741914D01*
X36467982Y-100741914D02*
X36467982Y-100665723D01*
X36467982Y-100665723D02*
X36506077Y-100589533D01*
X36506077Y-100589533D02*
X36544172Y-100551438D01*
X36544172Y-100551438D02*
X36620363Y-100513342D01*
X36620363Y-100513342D02*
X36772744Y-100475247D01*
X36772744Y-100475247D02*
X36848934Y-100437152D01*
X36848934Y-100437152D02*
X36887029Y-100399057D01*
X36887029Y-100399057D02*
X36925125Y-100322866D01*
X36925125Y-100322866D02*
X36925125Y-100246676D01*
X36925125Y-100246676D02*
X36887029Y-100170485D01*
X36887029Y-100170485D02*
X36848934Y-100132390D01*
X36848934Y-100132390D02*
X36772744Y-100094295D01*
X36772744Y-100094295D02*
X36582267Y-100094295D01*
X36582267Y-100094295D02*
X36467982Y-100132390D01*
X36163220Y-100170485D02*
X36125124Y-100132390D01*
X36125124Y-100132390D02*
X36048934Y-100094295D01*
X36048934Y-100094295D02*
X35858458Y-100094295D01*
X35858458Y-100094295D02*
X35782267Y-100132390D01*
X35782267Y-100132390D02*
X35744172Y-100170485D01*
X35744172Y-100170485D02*
X35706077Y-100246676D01*
X35706077Y-100246676D02*
X35706077Y-100322866D01*
X35706077Y-100322866D02*
X35744172Y-100437152D01*
X35744172Y-100437152D02*
X36201315Y-100894295D01*
X36201315Y-100894295D02*
X35706077Y-100894295D01*
X42744173Y-76975247D02*
X43010839Y-76975247D01*
X43010839Y-77394295D02*
X43010839Y-76594295D01*
X43010839Y-76594295D02*
X42629887Y-76594295D01*
X42439411Y-76594295D02*
X41982268Y-76594295D01*
X42210840Y-77394295D02*
X42210840Y-76594295D01*
X41715601Y-77394295D02*
X41715601Y-76594295D01*
X41715601Y-76594295D02*
X41525125Y-76594295D01*
X41525125Y-76594295D02*
X41410839Y-76632390D01*
X41410839Y-76632390D02*
X41334649Y-76708580D01*
X41334649Y-76708580D02*
X41296554Y-76784771D01*
X41296554Y-76784771D02*
X41258458Y-76937152D01*
X41258458Y-76937152D02*
X41258458Y-77051438D01*
X41258458Y-77051438D02*
X41296554Y-77203819D01*
X41296554Y-77203819D02*
X41334649Y-77280009D01*
X41334649Y-77280009D02*
X41410839Y-77356200D01*
X41410839Y-77356200D02*
X41525125Y-77394295D01*
X41525125Y-77394295D02*
X41715601Y-77394295D01*
X40915601Y-77394295D02*
X40915601Y-76594295D01*
X40725126Y-77470485D02*
X40115602Y-77470485D01*
X40001316Y-76594295D02*
X39506078Y-76594295D01*
X39506078Y-76594295D02*
X39772744Y-76899057D01*
X39772744Y-76899057D02*
X39658459Y-76899057D01*
X39658459Y-76899057D02*
X39582268Y-76937152D01*
X39582268Y-76937152D02*
X39544173Y-76975247D01*
X39544173Y-76975247D02*
X39506078Y-77051438D01*
X39506078Y-77051438D02*
X39506078Y-77241914D01*
X39506078Y-77241914D02*
X39544173Y-77318104D01*
X39544173Y-77318104D02*
X39582268Y-77356200D01*
X39582268Y-77356200D02*
X39658459Y-77394295D01*
X39658459Y-77394295D02*
X39887030Y-77394295D01*
X39887030Y-77394295D02*
X39963221Y-77356200D01*
X39963221Y-77356200D02*
X40001316Y-77318104D01*
X39277506Y-76594295D02*
X39010839Y-77394295D01*
X39010839Y-77394295D02*
X38744173Y-76594295D01*
X38553697Y-76594295D02*
X38058459Y-76594295D01*
X38058459Y-76594295D02*
X38325125Y-76899057D01*
X38325125Y-76899057D02*
X38210840Y-76899057D01*
X38210840Y-76899057D02*
X38134649Y-76937152D01*
X38134649Y-76937152D02*
X38096554Y-76975247D01*
X38096554Y-76975247D02*
X38058459Y-77051438D01*
X38058459Y-77051438D02*
X38058459Y-77241914D01*
X38058459Y-77241914D02*
X38096554Y-77318104D01*
X38096554Y-77318104D02*
X38134649Y-77356200D01*
X38134649Y-77356200D02*
X38210840Y-77394295D01*
X38210840Y-77394295D02*
X38439411Y-77394295D01*
X38439411Y-77394295D02*
X38515602Y-77356200D01*
X38515602Y-77356200D02*
X38553697Y-77318104D01*
X37906078Y-77470485D02*
X37296554Y-77470485D01*
X36687030Y-77394295D02*
X37144173Y-77394295D01*
X36915601Y-77394295D02*
X36915601Y-76594295D01*
X36915601Y-76594295D02*
X36991792Y-76708580D01*
X36991792Y-76708580D02*
X37067982Y-76784771D01*
X37067982Y-76784771D02*
X37144173Y-76822866D01*
X43325125Y-100094295D02*
X42867982Y-100094295D01*
X43096554Y-100894295D02*
X43096554Y-100094295D01*
X42601315Y-100894295D02*
X42601315Y-100094295D01*
X42601315Y-100094295D02*
X42410839Y-100094295D01*
X42410839Y-100094295D02*
X42296553Y-100132390D01*
X42296553Y-100132390D02*
X42220363Y-100208580D01*
X42220363Y-100208580D02*
X42182268Y-100284771D01*
X42182268Y-100284771D02*
X42144172Y-100437152D01*
X42144172Y-100437152D02*
X42144172Y-100551438D01*
X42144172Y-100551438D02*
X42182268Y-100703819D01*
X42182268Y-100703819D02*
X42220363Y-100780009D01*
X42220363Y-100780009D02*
X42296553Y-100856200D01*
X42296553Y-100856200D02*
X42410839Y-100894295D01*
X42410839Y-100894295D02*
X42601315Y-100894295D01*
X41801315Y-100894295D02*
X41801315Y-100094295D01*
X41001316Y-100894295D02*
X41458459Y-100894295D01*
X41229887Y-100894295D02*
X41229887Y-100094295D01*
X41229887Y-100094295D02*
X41306078Y-100208580D01*
X41306078Y-100208580D02*
X41382268Y-100284771D01*
X41382268Y-100284771D02*
X41458459Y-100322866D01*
X43725125Y-97394295D02*
X43267982Y-97394295D01*
X43496554Y-98194295D02*
X43496554Y-97394295D01*
X42544172Y-98118104D02*
X42582268Y-98156200D01*
X42582268Y-98156200D02*
X42696553Y-98194295D01*
X42696553Y-98194295D02*
X42772744Y-98194295D01*
X42772744Y-98194295D02*
X42887030Y-98156200D01*
X42887030Y-98156200D02*
X42963220Y-98080009D01*
X42963220Y-98080009D02*
X43001315Y-98003819D01*
X43001315Y-98003819D02*
X43039411Y-97851438D01*
X43039411Y-97851438D02*
X43039411Y-97737152D01*
X43039411Y-97737152D02*
X43001315Y-97584771D01*
X43001315Y-97584771D02*
X42963220Y-97508580D01*
X42963220Y-97508580D02*
X42887030Y-97432390D01*
X42887030Y-97432390D02*
X42772744Y-97394295D01*
X42772744Y-97394295D02*
X42696553Y-97394295D01*
X42696553Y-97394295D02*
X42582268Y-97432390D01*
X42582268Y-97432390D02*
X42544172Y-97470485D01*
X42201315Y-98194295D02*
X42201315Y-97394295D01*
X41744172Y-98194295D02*
X42087030Y-97737152D01*
X41744172Y-97394295D02*
X42201315Y-97851438D01*
X41439411Y-97470485D02*
X41401315Y-97432390D01*
X41401315Y-97432390D02*
X41325125Y-97394295D01*
X41325125Y-97394295D02*
X41134649Y-97394295D01*
X41134649Y-97394295D02*
X41058458Y-97432390D01*
X41058458Y-97432390D02*
X41020363Y-97470485D01*
X41020363Y-97470485D02*
X40982268Y-97546676D01*
X40982268Y-97546676D02*
X40982268Y-97622866D01*
X40982268Y-97622866D02*
X41020363Y-97737152D01*
X41020363Y-97737152D02*
X41477506Y-98194295D01*
X41477506Y-98194295D02*
X40982268Y-98194295D01*
X61525125Y-99794295D02*
X61067982Y-99794295D01*
X61296554Y-100594295D02*
X61296554Y-99794295D01*
X60801315Y-100594295D02*
X60801315Y-99794295D01*
X60801315Y-99794295D02*
X60610839Y-99794295D01*
X60610839Y-99794295D02*
X60496553Y-99832390D01*
X60496553Y-99832390D02*
X60420363Y-99908580D01*
X60420363Y-99908580D02*
X60382268Y-99984771D01*
X60382268Y-99984771D02*
X60344172Y-100137152D01*
X60344172Y-100137152D02*
X60344172Y-100251438D01*
X60344172Y-100251438D02*
X60382268Y-100403819D01*
X60382268Y-100403819D02*
X60420363Y-100480009D01*
X60420363Y-100480009D02*
X60496553Y-100556200D01*
X60496553Y-100556200D02*
X60610839Y-100594295D01*
X60610839Y-100594295D02*
X60801315Y-100594295D01*
X59848934Y-99794295D02*
X59696553Y-99794295D01*
X59696553Y-99794295D02*
X59620363Y-99832390D01*
X59620363Y-99832390D02*
X59544172Y-99908580D01*
X59544172Y-99908580D02*
X59506077Y-100060961D01*
X59506077Y-100060961D02*
X59506077Y-100327628D01*
X59506077Y-100327628D02*
X59544172Y-100480009D01*
X59544172Y-100480009D02*
X59620363Y-100556200D01*
X59620363Y-100556200D02*
X59696553Y-100594295D01*
X59696553Y-100594295D02*
X59848934Y-100594295D01*
X59848934Y-100594295D02*
X59925125Y-100556200D01*
X59925125Y-100556200D02*
X60001315Y-100480009D01*
X60001315Y-100480009D02*
X60039411Y-100327628D01*
X60039411Y-100327628D02*
X60039411Y-100060961D01*
X60039411Y-100060961D02*
X60001315Y-99908580D01*
X60001315Y-99908580D02*
X59925125Y-99832390D01*
X59925125Y-99832390D02*
X59848934Y-99794295D01*
X59201316Y-99870485D02*
X59163220Y-99832390D01*
X59163220Y-99832390D02*
X59087030Y-99794295D01*
X59087030Y-99794295D02*
X58896554Y-99794295D01*
X58896554Y-99794295D02*
X58820363Y-99832390D01*
X58820363Y-99832390D02*
X58782268Y-99870485D01*
X58782268Y-99870485D02*
X58744173Y-99946676D01*
X58744173Y-99946676D02*
X58744173Y-100022866D01*
X58744173Y-100022866D02*
X58782268Y-100137152D01*
X58782268Y-100137152D02*
X59239411Y-100594295D01*
X59239411Y-100594295D02*
X58744173Y-100594295D01*
X61253696Y-69794295D02*
X61520363Y-69413342D01*
X61710839Y-69794295D02*
X61710839Y-68994295D01*
X61710839Y-68994295D02*
X61406077Y-68994295D01*
X61406077Y-68994295D02*
X61329887Y-69032390D01*
X61329887Y-69032390D02*
X61291792Y-69070485D01*
X61291792Y-69070485D02*
X61253696Y-69146676D01*
X61253696Y-69146676D02*
X61253696Y-69260961D01*
X61253696Y-69260961D02*
X61291792Y-69337152D01*
X61291792Y-69337152D02*
X61329887Y-69375247D01*
X61329887Y-69375247D02*
X61406077Y-69413342D01*
X61406077Y-69413342D02*
X61710839Y-69413342D01*
X60987030Y-68994295D02*
X60453696Y-69794295D01*
X60453696Y-68994295D02*
X60987030Y-69794295D01*
X60148934Y-69794295D02*
X60148934Y-68994295D01*
X60148934Y-68994295D02*
X59958458Y-68994295D01*
X59958458Y-68994295D02*
X59844172Y-69032390D01*
X59844172Y-69032390D02*
X59767982Y-69108580D01*
X59767982Y-69108580D02*
X59729887Y-69184771D01*
X59729887Y-69184771D02*
X59691791Y-69337152D01*
X59691791Y-69337152D02*
X59691791Y-69451438D01*
X59691791Y-69451438D02*
X59729887Y-69603819D01*
X59729887Y-69603819D02*
X59767982Y-69680009D01*
X59767982Y-69680009D02*
X59844172Y-69756200D01*
X59844172Y-69756200D02*
X59958458Y-69794295D01*
X59958458Y-69794295D02*
X60148934Y-69794295D01*
X58929887Y-69794295D02*
X59387030Y-69794295D01*
X59158458Y-69794295D02*
X59158458Y-68994295D01*
X59158458Y-68994295D02*
X59234649Y-69108580D01*
X59234649Y-69108580D02*
X59310839Y-69184771D01*
X59310839Y-69184771D02*
X59387030Y-69222866D01*
X61925125Y-66594295D02*
X61467982Y-66594295D01*
X61696554Y-67394295D02*
X61696554Y-66594295D01*
X61201315Y-67394295D02*
X61201315Y-66594295D01*
X61201315Y-66594295D02*
X60934649Y-67165723D01*
X60934649Y-67165723D02*
X60667982Y-66594295D01*
X60667982Y-66594295D02*
X60667982Y-67394295D01*
X60325125Y-67356200D02*
X60210839Y-67394295D01*
X60210839Y-67394295D02*
X60020363Y-67394295D01*
X60020363Y-67394295D02*
X59944172Y-67356200D01*
X59944172Y-67356200D02*
X59906077Y-67318104D01*
X59906077Y-67318104D02*
X59867982Y-67241914D01*
X59867982Y-67241914D02*
X59867982Y-67165723D01*
X59867982Y-67165723D02*
X59906077Y-67089533D01*
X59906077Y-67089533D02*
X59944172Y-67051438D01*
X59944172Y-67051438D02*
X60020363Y-67013342D01*
X60020363Y-67013342D02*
X60172744Y-66975247D01*
X60172744Y-66975247D02*
X60248934Y-66937152D01*
X60248934Y-66937152D02*
X60287029Y-66899057D01*
X60287029Y-66899057D02*
X60325125Y-66822866D01*
X60325125Y-66822866D02*
X60325125Y-66746676D01*
X60325125Y-66746676D02*
X60287029Y-66670485D01*
X60287029Y-66670485D02*
X60248934Y-66632390D01*
X60248934Y-66632390D02*
X60172744Y-66594295D01*
X60172744Y-66594295D02*
X59982267Y-66594295D01*
X59982267Y-66594295D02*
X59867982Y-66632390D01*
X59106077Y-67394295D02*
X59563220Y-67394295D01*
X59334648Y-67394295D02*
X59334648Y-66594295D01*
X59334648Y-66594295D02*
X59410839Y-66708580D01*
X59410839Y-66708580D02*
X59487029Y-66784771D01*
X59487029Y-66784771D02*
X59563220Y-66822866D01*
X61925125Y-71694295D02*
X61658458Y-72494295D01*
X61658458Y-72494295D02*
X61391792Y-71694295D01*
X61239411Y-71694295D02*
X60782268Y-71694295D01*
X61010840Y-72494295D02*
X61010840Y-71694295D01*
X60058458Y-72494295D02*
X60325125Y-72113342D01*
X60515601Y-72494295D02*
X60515601Y-71694295D01*
X60515601Y-71694295D02*
X60210839Y-71694295D01*
X60210839Y-71694295D02*
X60134649Y-71732390D01*
X60134649Y-71732390D02*
X60096554Y-71770485D01*
X60096554Y-71770485D02*
X60058458Y-71846676D01*
X60058458Y-71846676D02*
X60058458Y-71960961D01*
X60058458Y-71960961D02*
X60096554Y-72037152D01*
X60096554Y-72037152D02*
X60134649Y-72075247D01*
X60134649Y-72075247D02*
X60210839Y-72113342D01*
X60210839Y-72113342D02*
X60515601Y-72113342D01*
X59715601Y-72075247D02*
X59448935Y-72075247D01*
X59334649Y-72494295D02*
X59715601Y-72494295D01*
X59715601Y-72494295D02*
X59715601Y-71694295D01*
X59715601Y-71694295D02*
X59334649Y-71694295D01*
X58725125Y-72075247D02*
X58991791Y-72075247D01*
X58991791Y-72494295D02*
X58991791Y-71694295D01*
X58991791Y-71694295D02*
X58610839Y-71694295D01*
X57887030Y-72494295D02*
X58344173Y-72494295D01*
X58115601Y-72494295D02*
X58115601Y-71694295D01*
X58115601Y-71694295D02*
X58191792Y-71808580D01*
X58191792Y-71808580D02*
X58267982Y-71884771D01*
X58267982Y-71884771D02*
X58344173Y-71922866D01*
X62125125Y-74094295D02*
X61667982Y-74094295D01*
X61896554Y-74894295D02*
X61896554Y-74094295D01*
X61477506Y-74094295D02*
X60944172Y-74894295D01*
X60944172Y-74094295D02*
X61477506Y-74894295D01*
X60639410Y-74894295D02*
X60639410Y-74094295D01*
X60639410Y-74094295D02*
X60448934Y-74094295D01*
X60448934Y-74094295D02*
X60334648Y-74132390D01*
X60334648Y-74132390D02*
X60258458Y-74208580D01*
X60258458Y-74208580D02*
X60220363Y-74284771D01*
X60220363Y-74284771D02*
X60182267Y-74437152D01*
X60182267Y-74437152D02*
X60182267Y-74551438D01*
X60182267Y-74551438D02*
X60220363Y-74703819D01*
X60220363Y-74703819D02*
X60258458Y-74780009D01*
X60258458Y-74780009D02*
X60334648Y-74856200D01*
X60334648Y-74856200D02*
X60448934Y-74894295D01*
X60448934Y-74894295D02*
X60639410Y-74894295D01*
X59420363Y-74894295D02*
X59877506Y-74894295D01*
X59648934Y-74894295D02*
X59648934Y-74094295D01*
X59648934Y-74094295D02*
X59725125Y-74208580D01*
X59725125Y-74208580D02*
X59801315Y-74284771D01*
X59801315Y-74284771D02*
X59877506Y-74322866D01*
X35075247Y-83155826D02*
X35075247Y-82889160D01*
X35494295Y-82889160D02*
X34694295Y-82889160D01*
X34694295Y-82889160D02*
X34694295Y-83270112D01*
X34694295Y-83460588D02*
X34694295Y-83917731D01*
X35494295Y-83689159D02*
X34694295Y-83689159D01*
X35494295Y-84184398D02*
X34694295Y-84184398D01*
X34694295Y-84184398D02*
X34694295Y-84374874D01*
X34694295Y-84374874D02*
X34732390Y-84489160D01*
X34732390Y-84489160D02*
X34808580Y-84565350D01*
X34808580Y-84565350D02*
X34884771Y-84603445D01*
X34884771Y-84603445D02*
X35037152Y-84641541D01*
X35037152Y-84641541D02*
X35151438Y-84641541D01*
X35151438Y-84641541D02*
X35303819Y-84603445D01*
X35303819Y-84603445D02*
X35380009Y-84565350D01*
X35380009Y-84565350D02*
X35456200Y-84489160D01*
X35456200Y-84489160D02*
X35494295Y-84374874D01*
X35494295Y-84374874D02*
X35494295Y-84184398D01*
X35494295Y-84984398D02*
X34694295Y-84984398D01*
X35570485Y-85174874D02*
X35570485Y-85784397D01*
X34694295Y-85898683D02*
X34694295Y-86393921D01*
X34694295Y-86393921D02*
X34999057Y-86127255D01*
X34999057Y-86127255D02*
X34999057Y-86241540D01*
X34999057Y-86241540D02*
X35037152Y-86317731D01*
X35037152Y-86317731D02*
X35075247Y-86355826D01*
X35075247Y-86355826D02*
X35151438Y-86393921D01*
X35151438Y-86393921D02*
X35341914Y-86393921D01*
X35341914Y-86393921D02*
X35418104Y-86355826D01*
X35418104Y-86355826D02*
X35456200Y-86317731D01*
X35456200Y-86317731D02*
X35494295Y-86241540D01*
X35494295Y-86241540D02*
X35494295Y-86012969D01*
X35494295Y-86012969D02*
X35456200Y-85936778D01*
X35456200Y-85936778D02*
X35418104Y-85898683D01*
X34694295Y-86622493D02*
X35494295Y-86889160D01*
X35494295Y-86889160D02*
X34694295Y-87155826D01*
X34694295Y-87346302D02*
X34694295Y-87841540D01*
X34694295Y-87841540D02*
X34999057Y-87574874D01*
X34999057Y-87574874D02*
X34999057Y-87689159D01*
X34999057Y-87689159D02*
X35037152Y-87765350D01*
X35037152Y-87765350D02*
X35075247Y-87803445D01*
X35075247Y-87803445D02*
X35151438Y-87841540D01*
X35151438Y-87841540D02*
X35341914Y-87841540D01*
X35341914Y-87841540D02*
X35418104Y-87803445D01*
X35418104Y-87803445D02*
X35456200Y-87765350D01*
X35456200Y-87765350D02*
X35494295Y-87689159D01*
X35494295Y-87689159D02*
X35494295Y-87460588D01*
X35494295Y-87460588D02*
X35456200Y-87384397D01*
X35456200Y-87384397D02*
X35418104Y-87346302D01*
X35570485Y-87993922D02*
X35570485Y-88603445D01*
X34770485Y-88755826D02*
X34732390Y-88793922D01*
X34732390Y-88793922D02*
X34694295Y-88870112D01*
X34694295Y-88870112D02*
X34694295Y-89060588D01*
X34694295Y-89060588D02*
X34732390Y-89136779D01*
X34732390Y-89136779D02*
X34770485Y-89174874D01*
X34770485Y-89174874D02*
X34846676Y-89212969D01*
X34846676Y-89212969D02*
X34922866Y-89212969D01*
X34922866Y-89212969D02*
X35037152Y-89174874D01*
X35037152Y-89174874D02*
X35494295Y-88717731D01*
X35494295Y-88717731D02*
X35494295Y-89212969D01*
X45594295Y-97574874D02*
X46394295Y-97841541D01*
X46394295Y-97841541D02*
X45594295Y-98108207D01*
X45594295Y-98260588D02*
X45594295Y-98717731D01*
X46394295Y-98489159D02*
X45594295Y-98489159D01*
X46394295Y-99441541D02*
X46013342Y-99174874D01*
X46394295Y-98984398D02*
X45594295Y-98984398D01*
X45594295Y-98984398D02*
X45594295Y-99289160D01*
X45594295Y-99289160D02*
X45632390Y-99365350D01*
X45632390Y-99365350D02*
X45670485Y-99403445D01*
X45670485Y-99403445D02*
X45746676Y-99441541D01*
X45746676Y-99441541D02*
X45860961Y-99441541D01*
X45860961Y-99441541D02*
X45937152Y-99403445D01*
X45937152Y-99403445D02*
X45975247Y-99365350D01*
X45975247Y-99365350D02*
X46013342Y-99289160D01*
X46013342Y-99289160D02*
X46013342Y-98984398D01*
X45975247Y-99784398D02*
X45975247Y-100051064D01*
X46394295Y-100165350D02*
X46394295Y-99784398D01*
X46394295Y-99784398D02*
X45594295Y-99784398D01*
X45594295Y-99784398D02*
X45594295Y-100165350D01*
X45975247Y-100774874D02*
X45975247Y-100508208D01*
X46394295Y-100508208D02*
X45594295Y-100508208D01*
X45594295Y-100508208D02*
X45594295Y-100889160D01*
X45670485Y-101155826D02*
X45632390Y-101193922D01*
X45632390Y-101193922D02*
X45594295Y-101270112D01*
X45594295Y-101270112D02*
X45594295Y-101460588D01*
X45594295Y-101460588D02*
X45632390Y-101536779D01*
X45632390Y-101536779D02*
X45670485Y-101574874D01*
X45670485Y-101574874D02*
X45746676Y-101612969D01*
X45746676Y-101612969D02*
X45822866Y-101612969D01*
X45822866Y-101612969D02*
X45937152Y-101574874D01*
X45937152Y-101574874D02*
X46394295Y-101117731D01*
X46394295Y-101117731D02*
X46394295Y-101612969D01*
X59094295Y-96846303D02*
X58713342Y-96579636D01*
X59094295Y-96389160D02*
X58294295Y-96389160D01*
X58294295Y-96389160D02*
X58294295Y-96693922D01*
X58294295Y-96693922D02*
X58332390Y-96770112D01*
X58332390Y-96770112D02*
X58370485Y-96808207D01*
X58370485Y-96808207D02*
X58446676Y-96846303D01*
X58446676Y-96846303D02*
X58560961Y-96846303D01*
X58560961Y-96846303D02*
X58637152Y-96808207D01*
X58637152Y-96808207D02*
X58675247Y-96770112D01*
X58675247Y-96770112D02*
X58713342Y-96693922D01*
X58713342Y-96693922D02*
X58713342Y-96389160D01*
X58294295Y-97112969D02*
X59094295Y-97646303D01*
X58294295Y-97646303D02*
X59094295Y-97112969D01*
X59094295Y-97951065D02*
X58294295Y-97951065D01*
X58294295Y-97951065D02*
X58294295Y-98141541D01*
X58294295Y-98141541D02*
X58332390Y-98255827D01*
X58332390Y-98255827D02*
X58408580Y-98332017D01*
X58408580Y-98332017D02*
X58484771Y-98370112D01*
X58484771Y-98370112D02*
X58637152Y-98408208D01*
X58637152Y-98408208D02*
X58751438Y-98408208D01*
X58751438Y-98408208D02*
X58903819Y-98370112D01*
X58903819Y-98370112D02*
X58980009Y-98332017D01*
X58980009Y-98332017D02*
X59056200Y-98255827D01*
X59056200Y-98255827D02*
X59094295Y-98141541D01*
X59094295Y-98141541D02*
X59094295Y-97951065D01*
X58370485Y-98712969D02*
X58332390Y-98751065D01*
X58332390Y-98751065D02*
X58294295Y-98827255D01*
X58294295Y-98827255D02*
X58294295Y-99017731D01*
X58294295Y-99017731D02*
X58332390Y-99093922D01*
X58332390Y-99093922D02*
X58370485Y-99132017D01*
X58370485Y-99132017D02*
X58446676Y-99170112D01*
X58446676Y-99170112D02*
X58522866Y-99170112D01*
X58522866Y-99170112D02*
X58637152Y-99132017D01*
X58637152Y-99132017D02*
X59094295Y-98674874D01*
X59094295Y-98674874D02*
X59094295Y-99170112D01*
X60794295Y-96274874D02*
X60794295Y-96732017D01*
X61594295Y-96503445D02*
X60794295Y-96503445D01*
X61594295Y-96998684D02*
X60794295Y-96998684D01*
X60794295Y-96998684D02*
X60794295Y-97189160D01*
X60794295Y-97189160D02*
X60832390Y-97303446D01*
X60832390Y-97303446D02*
X60908580Y-97379636D01*
X60908580Y-97379636D02*
X60984771Y-97417731D01*
X60984771Y-97417731D02*
X61137152Y-97455827D01*
X61137152Y-97455827D02*
X61251438Y-97455827D01*
X61251438Y-97455827D02*
X61403819Y-97417731D01*
X61403819Y-97417731D02*
X61480009Y-97379636D01*
X61480009Y-97379636D02*
X61556200Y-97303446D01*
X61556200Y-97303446D02*
X61594295Y-97189160D01*
X61594295Y-97189160D02*
X61594295Y-96998684D01*
X61594295Y-97798684D02*
X60794295Y-97798684D01*
X60870485Y-98141540D02*
X60832390Y-98179636D01*
X60832390Y-98179636D02*
X60794295Y-98255826D01*
X60794295Y-98255826D02*
X60794295Y-98446302D01*
X60794295Y-98446302D02*
X60832390Y-98522493D01*
X60832390Y-98522493D02*
X60870485Y-98560588D01*
X60870485Y-98560588D02*
X60946676Y-98598683D01*
X60946676Y-98598683D02*
X61022866Y-98598683D01*
X61022866Y-98598683D02*
X61137152Y-98560588D01*
X61137152Y-98560588D02*
X61594295Y-98103445D01*
X61594295Y-98103445D02*
X61594295Y-98598683D01*
X62205704Y-78325125D02*
X62205704Y-77867982D01*
X61405704Y-78096554D02*
X62205704Y-78096554D01*
X61405704Y-77601315D02*
X62205704Y-77601315D01*
X62205704Y-77601315D02*
X62205704Y-77410839D01*
X62205704Y-77410839D02*
X62167609Y-77296553D01*
X62167609Y-77296553D02*
X62091419Y-77220363D01*
X62091419Y-77220363D02*
X62015228Y-77182268D01*
X62015228Y-77182268D02*
X61862847Y-77144172D01*
X61862847Y-77144172D02*
X61748561Y-77144172D01*
X61748561Y-77144172D02*
X61596180Y-77182268D01*
X61596180Y-77182268D02*
X61519990Y-77220363D01*
X61519990Y-77220363D02*
X61443800Y-77296553D01*
X61443800Y-77296553D02*
X61405704Y-77410839D01*
X61405704Y-77410839D02*
X61405704Y-77601315D01*
X62205704Y-76648934D02*
X62205704Y-76496553D01*
X62205704Y-76496553D02*
X62167609Y-76420363D01*
X62167609Y-76420363D02*
X62091419Y-76344172D01*
X62091419Y-76344172D02*
X61939038Y-76306077D01*
X61939038Y-76306077D02*
X61672371Y-76306077D01*
X61672371Y-76306077D02*
X61519990Y-76344172D01*
X61519990Y-76344172D02*
X61443800Y-76420363D01*
X61443800Y-76420363D02*
X61405704Y-76496553D01*
X61405704Y-76496553D02*
X61405704Y-76648934D01*
X61405704Y-76648934D02*
X61443800Y-76725125D01*
X61443800Y-76725125D02*
X61519990Y-76801315D01*
X61519990Y-76801315D02*
X61672371Y-76839411D01*
X61672371Y-76839411D02*
X61939038Y-76839411D01*
X61939038Y-76839411D02*
X62091419Y-76801315D01*
X62091419Y-76801315D02*
X62167609Y-76725125D01*
X62167609Y-76725125D02*
X62205704Y-76648934D01*
X61405704Y-75544173D02*
X61405704Y-76001316D01*
X61405704Y-75772744D02*
X62205704Y-75772744D01*
X62205704Y-75772744D02*
X62091419Y-75848935D01*
X62091419Y-75848935D02*
X62015228Y-75925125D01*
X62015228Y-75925125D02*
X61977133Y-76001316D01*
%TO.C,R10*%
D11*
X45790000Y-88770000D02*
X45790000Y-88370000D01*
X47812064Y-90420000D02*
X47357936Y-90420000D01*
X47840000Y-86720000D02*
X47440000Y-86720000D01*
X49490000Y-88742064D02*
X49490000Y-88287936D01*
%TO.C,R7*%
X45890000Y-78870000D02*
X45890000Y-79270000D01*
X47912064Y-77220000D02*
X47457936Y-77220000D01*
X47940000Y-80920000D02*
X47540000Y-80920000D01*
X49590000Y-78897936D02*
X49590000Y-79352064D01*
%TO.C,J3*%
D12*
X54400000Y-82470000D02*
X54400000Y-82530000D01*
X54400000Y-82530000D02*
X54400000Y-82470000D01*
X54400000Y-83800000D02*
X54400000Y-83740000D01*
X54400000Y-85010000D02*
X54400000Y-85070000D01*
X54400000Y-85070000D02*
X54400000Y-85010000D01*
X54400000Y-86280000D02*
X54400000Y-86310000D01*
X54400000Y-86310000D02*
X55160000Y-86310000D01*
X55160000Y-77290000D02*
X58720000Y-77290000D01*
X55160000Y-77450000D02*
X55160000Y-77290000D01*
X55160000Y-77450000D02*
X55160000Y-77420000D01*
X55160000Y-78720000D02*
X55160000Y-78660000D01*
X55160000Y-79990000D02*
X55160000Y-79930000D01*
X55160000Y-81260000D02*
X54400000Y-81260000D01*
X55160000Y-81260000D02*
X55160000Y-81200000D01*
X55160000Y-82530000D02*
X55160000Y-82470000D01*
X55160000Y-83800000D02*
X55160000Y-83740000D01*
X55160000Y-85070000D02*
X55160000Y-85010000D01*
X55160000Y-85070000D02*
X55160000Y-85010000D01*
X55160000Y-86340000D02*
X55160000Y-86280000D01*
X55160000Y-86340000D02*
X55160000Y-86280000D01*
X55160000Y-87610000D02*
X55160000Y-87550000D01*
X55160000Y-88880000D02*
X55160000Y-88820000D01*
X55160000Y-90250000D02*
X55160000Y-90090000D01*
X58720000Y-77290000D02*
X58720000Y-77450000D01*
X58720000Y-78660000D02*
X58720000Y-78720000D01*
X58720000Y-79930000D02*
X58720000Y-79990000D01*
X58720000Y-81200000D02*
X58720000Y-81260000D01*
X58720000Y-81200000D02*
X59480000Y-81200000D01*
X58720000Y-82470000D02*
X58720000Y-82530000D01*
X58720000Y-83740000D02*
X58720000Y-83800000D01*
X58720000Y-85010000D02*
X58720000Y-85070000D01*
X58720000Y-86280000D02*
X58720000Y-86340000D01*
X58720000Y-87550000D02*
X58720000Y-87610000D01*
X58720000Y-88820000D02*
X58720000Y-88880000D01*
X58720000Y-90090000D02*
X58720000Y-90250000D01*
X58720000Y-90250000D02*
X55160000Y-90250000D01*
X59480000Y-81200000D02*
X59480000Y-81260000D01*
X59480000Y-82470000D02*
X58720000Y-82470000D01*
X59480000Y-82470000D02*
X59480000Y-82530000D01*
X59480000Y-85010000D02*
X58720000Y-85010000D01*
X59480000Y-85010000D02*
X59480000Y-85070000D01*
X59480000Y-86280000D02*
X59480000Y-86310000D01*
X59480000Y-86310000D02*
X58720000Y-86310000D01*
D13*
X59770000Y-76780000D02*
G75*
G02*
X59450000Y-76780000I-160000J0D01*
G01*
X59450000Y-76780000D02*
G75*
G02*
X59770000Y-76780000I160000J0D01*
G01*
D14*
X59890000Y-77420000D02*
G75*
G02*
X59830000Y-77420000I-30000J0D01*
G01*
X59830000Y-77420000D02*
G75*
G02*
X59890000Y-77420000I30000J0D01*
G01*
%TD*%
M02*
