M48
; DRILL file KiCad 10.0.3 date 2026-07-22T00:40:29
; FORMAT={-:-/ absolute / metric / decimal}
; #@! TF.CreationDate,2026-07-22T00:40:29+08:00
; #@! TF.GenerationSoftware,Kicad,Pcbnew,10.0.3
; #@! TF.FileFunction,Plated,1,4,PTH
FMAT,2
METRIC
; #@! TA.AperFunction,Plated,PTH,ViaDrill
T1C0.300
; #@! TA.AperFunction,Plated,PTH,ComponentDrill
T2C0.600
%
G90
G05
T1
X33.7Y-92.9
X34.1Y-84.3
X35.8Y-84.9
X36.3Y-94.6
X36.6Y-72.6
X36.8Y-73.6
X37.4Y-94.6
X38.6Y-83.8
X39.1Y-78.8
X39.2Y-100.6
X41.6Y-69.2
X41.8Y-87.8
X41.9Y-76.9
X42.3Y-73.4
X42.3Y-90.9
X42.3Y-92.4
X42.4Y-74.5
X42.4Y-93.6
X42.4Y-95.6
X43.4Y-79.4
X43.5Y-78.0
X44.2Y-100.0
X44.4Y-97.3
X44.8Y-80.3
X44.8Y-83.9
X45.3Y-85.3
X46.4Y-66.5
X46.4Y-81.8
X46.5Y-68.4
X46.5Y-83.2
X46.8Y-86.3
X47.0Y-75.8
X47.1Y-72.3
X47.1Y-76.7
X47.2Y-93.4
X47.2Y-95.7
X48.0Y-100.1
X48.1Y-83.1
X48.5Y-94.1
X48.6Y-76.2
X48.7Y-70.0
X48.7Y-96.6
X49.6Y-91.3
X49.9Y-100.2
X50.1Y-81.4
X50.1Y-88.2
X50.3Y-76.6
X50.5Y-92.4
X50.8Y-75.0
X50.8Y-85.2
X51.824Y-82.376
X52.4Y-72.9
X52.4Y-83.3
X52.5Y-99.9
X52.6Y-77.3
X52.6Y-85.2
X52.7Y-81.5
X52.7Y-88.5
X52.8Y-78.5
X52.8Y-90.1
X53.6Y-70.0
X53.6Y-75.8
X53.8Y-96.7
X54.8Y-91.3
X55.0Y-70.2
X55.5Y-100.2
X55.6Y-76.1
X55.7Y-93.1
X55.7Y-94.5
X56.7Y-80.1
X56.8Y-82.0
X57.1Y-86.4
X57.136Y-87.792
X58.4Y-71.1
X58.4Y-74.3
X58.7Y-67.1
X58.9Y-100.4
X59.0Y-93.1
X59.2Y-75.3
X59.5Y-70.9
X59.9Y-73.6
X60.0Y-91.7
X60.0Y-94.1
X60.7Y-78.1
X60.7Y-84.4
X60.8Y-85.8
X61.0Y-83.2
X61.3Y-79.1
T2
X30.735Y-68.68G85X29.935Y-68.68
G05
X30.735Y-77.32G85X29.935Y-77.32
G05
X30.735Y-89.68G85X29.935Y-89.68
G05
X30.735Y-98.32G85X29.935Y-98.32
G05
X35.065Y-68.68G85X33.965Y-68.68
G05
X35.065Y-77.32G85X33.965Y-77.32
G05
X35.065Y-89.68G85X33.965Y-89.68
G05
X35.065Y-98.32G85X33.965Y-98.32
G05
M30
