%TF.GenerationSoftware,KiCad,Pcbnew,10.0.3*%
%TF.CreationDate,2026-07-22T00:39:49+08:00*%
%TF.ProjectId,riskybirdv3_connector,7269736b-7962-4697-9264-76335f636f6e,rev?*%
%TF.SameCoordinates,Original*%
%TF.FileFunction,Soldermask,Top*%
%TF.FilePolarity,Negative*%
%FSLAX46Y46*%
G04 Gerber Fmt 4.6, Leading zero omitted, Abs format (unit mm)*
G04 Created by KiCad (PCBNEW 10.0.3) date 2026-07-22 00:39:49*
%MOMM*%
%LPD*%
G01*
G04 APERTURE LIST*
G04 Aperture macros list*
%AMRoundRect*
0 Rectangle with rounded corners*
0 $1 Rounding radius*
0 $2 $3 $4 $5 $6 $7 $8 $9 X,Y pos of 4 corners*
0 Add a 4 corners polygon primitive as box body*
4,1,4,$2,$3,$4,$5,$6,$7,$8,$9,$2,$3,0*
0 Add four circle primitives for the rounded corners*
1,1,$1+$1,$2,$3*
1,1,$1+$1,$4,$5*
1,1,$1+$1,$6,$7*
1,1,$1+$1,$8,$9*
0 Add four rect primitives between the rounded corners*
20,1,$1+$1,$2,$3,$4,$5,0*
20,1,$1+$1,$4,$5,$6,$7,0*
20,1,$1+$1,$6,$7,$8,$9,0*
20,1,$1+$1,$8,$9,$2,$3,0*%
G04 Aperture macros list end*
%ADD10C,1.000000*%
%ADD11RoundRect,0.147500X0.172500X-0.147500X0.172500X0.147500X-0.172500X0.147500X-0.172500X-0.147500X0*%
%ADD12RoundRect,0.100000X-0.100000X0.130000X-0.100000X-0.130000X0.100000X-0.130000X0.100000X0.130000X0*%
%ADD13RoundRect,0.100000X0.100000X-0.130000X0.100000X0.130000X-0.100000X0.130000X-0.100000X-0.130000X0*%
%ADD14RoundRect,0.100000X0.130000X0.100000X-0.130000X0.100000X-0.130000X-0.100000X0.130000X-0.100000X0*%
%ADD15RoundRect,0.100000X-0.130000X-0.100000X0.130000X-0.100000X0.130000X0.100000X-0.130000X0.100000X0*%
%ADD16RoundRect,0.102000X-0.950000X0.200000X-0.950000X-0.200000X0.950000X-0.200000X0.950000X0.200000X0*%
%ADD17C,0.650000*%
%ADD18RoundRect,0.150000X-0.425000X0.150000X-0.425000X-0.150000X0.425000X-0.150000X0.425000X0.150000X0*%
%ADD19RoundRect,0.075000X-0.500000X0.075000X-0.500000X-0.075000X0.500000X-0.075000X0.500000X0.075000X0*%
%ADD20O,2.100000X1.000000*%
%ADD21O,1.800000X1.000000*%
%ADD22RoundRect,0.147500X-0.172500X0.147500X-0.172500X-0.147500X0.172500X-0.147500X0.172500X0.147500X0*%
%ADD23RoundRect,0.150000X-0.512500X-0.150000X0.512500X-0.150000X0.512500X0.150000X-0.512500X0.150000X0*%
%ADD24RoundRect,0.075000X-0.700000X-0.075000X0.700000X-0.075000X0.700000X0.075000X-0.700000X0.075000X0*%
%ADD25RoundRect,0.075000X-0.075000X-0.700000X0.075000X-0.700000X0.075000X0.700000X-0.075000X0.700000X0*%
%ADD26RoundRect,0.250000X-0.375000X-1.075000X0.375000X-1.075000X0.375000X1.075000X-0.375000X1.075000X0*%
G04 APERTURE END LIST*
D10*
%TO.C,TP23*%
X32700000Y-83800000D03*
%TD*%
D11*
%TO.C,TX1*%
X37100000Y-82385000D03*
X37100000Y-81415000D03*
%TD*%
D12*
%TO.C,C55*%
X43975000Y-71525000D03*
X43975000Y-72165000D03*
%TD*%
D13*
%TO.C,R43*%
X41000000Y-87720000D03*
X41000000Y-87080000D03*
%TD*%
D10*
%TO.C,TP22*%
X39600000Y-77100000D03*
%TD*%
%TO.C,TP20*%
X60900000Y-76600000D03*
%TD*%
D14*
%TO.C,C71*%
X43775000Y-95545000D03*
X43135000Y-95545000D03*
%TD*%
D15*
%TO.C,R5*%
X43335000Y-73700000D03*
X43975000Y-73700000D03*
%TD*%
D10*
%TO.C,TP13*%
X37625000Y-78325000D03*
%TD*%
D12*
%TO.C,C81*%
X54800000Y-99560000D03*
X54800000Y-100200000D03*
%TD*%
D10*
%TO.C,TP32*%
X35100000Y-87200000D03*
%TD*%
%TO.C,TP28*%
X58600000Y-97800000D03*
%TD*%
D13*
%TO.C,R42*%
X37200000Y-87665000D03*
X37200000Y-87025000D03*
%TD*%
D10*
%TO.C,TP14*%
X42300000Y-100300000D03*
%TD*%
%TO.C,TP25*%
X60900000Y-97500000D03*
%TD*%
D15*
%TO.C,R6*%
X43135000Y-92445000D03*
X43775000Y-92445000D03*
%TD*%
D10*
%TO.C,TP16*%
X60900000Y-72000000D03*
%TD*%
D13*
%TO.C,C66*%
X48675000Y-67120000D03*
X48675000Y-66480000D03*
%TD*%
D11*
%TO.C,RX1*%
X39100000Y-82385000D03*
X39100000Y-81415000D03*
%TD*%
D14*
%TO.C,R65*%
X43775000Y-91645000D03*
X43135000Y-91645000D03*
%TD*%
D12*
%TO.C,C67*%
X43220000Y-71525000D03*
X43220000Y-72165000D03*
%TD*%
D13*
%TO.C,C75*%
X49475000Y-67120000D03*
X49475000Y-66480000D03*
%TD*%
%TO.C,C50*%
X55600000Y-85265000D03*
X55600000Y-84625000D03*
%TD*%
D12*
%TO.C,C78*%
X43900000Y-90125000D03*
X43900000Y-90765000D03*
%TD*%
%TO.C,R49*%
X37100000Y-79880000D03*
X37100000Y-80520000D03*
%TD*%
D15*
%TO.C,R8*%
X43335000Y-74500000D03*
X43975000Y-74500000D03*
%TD*%
D16*
%TO.C,Y3*%
X43375000Y-68000000D03*
X43375000Y-69200000D03*
X43375000Y-70400000D03*
%TD*%
D17*
%TO.C,J2*%
X34015000Y-91110000D03*
X34015000Y-96890000D03*
D18*
X35090000Y-90800000D03*
X35090000Y-91600000D03*
D19*
X35090000Y-92750000D03*
X35090000Y-93750000D03*
X35090000Y-94250000D03*
X35090000Y-95250000D03*
D18*
X35090000Y-96400000D03*
X35090000Y-97200000D03*
X35090000Y-97200000D03*
X35090000Y-96400000D03*
D19*
X35090000Y-95750000D03*
X35090000Y-94750000D03*
X35090000Y-93250000D03*
X35090000Y-92250000D03*
D18*
X35090000Y-91600000D03*
X35090000Y-90800000D03*
D20*
X34515000Y-89680000D03*
D21*
X30335000Y-89680000D03*
D20*
X34515000Y-98320000D03*
D21*
X30335000Y-98320000D03*
%TD*%
D13*
%TO.C,C72*%
X49600000Y-85220000D03*
X49600000Y-84580000D03*
%TD*%
D17*
%TO.C,J1*%
X34015000Y-70110000D03*
X34015000Y-75890000D03*
D18*
X35090000Y-69800000D03*
X35090000Y-70600000D03*
D19*
X35090000Y-71750000D03*
X35090000Y-72750000D03*
X35090000Y-73250000D03*
X35090000Y-74250000D03*
D18*
X35090000Y-75400000D03*
X35090000Y-76200000D03*
X35090000Y-76200000D03*
X35090000Y-75400000D03*
D19*
X35090000Y-74750000D03*
X35090000Y-73750000D03*
X35090000Y-72250000D03*
X35090000Y-71250000D03*
D18*
X35090000Y-70600000D03*
X35090000Y-69800000D03*
D20*
X34515000Y-68680000D03*
D21*
X30335000Y-68680000D03*
D20*
X34515000Y-77320000D03*
D21*
X30335000Y-77320000D03*
%TD*%
D13*
%TO.C,C73*%
X48900000Y-85220000D03*
X48900000Y-84580000D03*
%TD*%
D12*
%TO.C,C88*%
X54475000Y-81435000D03*
X54475000Y-82075000D03*
%TD*%
D13*
%TO.C,C77*%
X54575000Y-67120000D03*
X54575000Y-66480000D03*
%TD*%
D10*
%TO.C,TP27*%
X46000000Y-100200000D03*
%TD*%
D15*
%TO.C,R2*%
X36590000Y-92800000D03*
X37230000Y-92800000D03*
%TD*%
D22*
%TO.C,JTAG2*%
X41000000Y-85115000D03*
X41000000Y-86085000D03*
%TD*%
D23*
%TO.C,U2*%
X38772500Y-92750000D03*
X38772500Y-93700000D03*
X38772500Y-94650000D03*
X41047500Y-94650000D03*
X41047500Y-92750000D03*
%TD*%
D15*
%TO.C,R1*%
X36590000Y-71800000D03*
X37230000Y-71800000D03*
%TD*%
D10*
%TO.C,TP29*%
X37400000Y-100500000D03*
%TD*%
D15*
%TO.C,C82*%
X58660000Y-91700000D03*
X59300000Y-91700000D03*
%TD*%
D24*
%TO.C,U15*%
X45825000Y-88650000D03*
X45825000Y-89150000D03*
X45825000Y-89650000D03*
X45825000Y-90150000D03*
X45825000Y-90650000D03*
X45825000Y-91150000D03*
X45825000Y-91650000D03*
X45825000Y-92150000D03*
X45825000Y-92650000D03*
X45825000Y-93150000D03*
X45825000Y-93650000D03*
X45825000Y-94150000D03*
X45825000Y-94650000D03*
X45825000Y-95150000D03*
X45825000Y-95650000D03*
X45825000Y-96150000D03*
D25*
X47750000Y-98075000D03*
X48250000Y-98075000D03*
X48750000Y-98075000D03*
X49250000Y-98075000D03*
X49750000Y-98075000D03*
X50250000Y-98075000D03*
X50750000Y-98075000D03*
X51250000Y-98075000D03*
X51750000Y-98075000D03*
X52250000Y-98075000D03*
X52750000Y-98075000D03*
X53250000Y-98075000D03*
X53750000Y-98075000D03*
X54250000Y-98075000D03*
X54750000Y-98075000D03*
X55250000Y-98075000D03*
D24*
X57175000Y-96150000D03*
X57175000Y-95650000D03*
X57175000Y-95150000D03*
X57175000Y-94650000D03*
X57175000Y-94150000D03*
X57175000Y-93650000D03*
X57175000Y-93150000D03*
X57175000Y-92650000D03*
X57175000Y-92150000D03*
X57175000Y-91650000D03*
X57175000Y-91150000D03*
X57175000Y-90650000D03*
X57175000Y-90150000D03*
X57175000Y-89650000D03*
X57175000Y-89150000D03*
X57175000Y-88650000D03*
D25*
X55250000Y-86725000D03*
X54750000Y-86725000D03*
X54250000Y-86725000D03*
X53750000Y-86725000D03*
X53250000Y-86725000D03*
X52750000Y-86725000D03*
X52250000Y-86725000D03*
X51750000Y-86725000D03*
X51250000Y-86725000D03*
X50750000Y-86725000D03*
X50250000Y-86725000D03*
X49750000Y-86725000D03*
X49250000Y-86725000D03*
X48750000Y-86725000D03*
X48250000Y-86725000D03*
X47750000Y-86725000D03*
%TD*%
D15*
%TO.C,C5*%
X38352500Y-91500000D03*
X38992500Y-91500000D03*
%TD*%
D10*
%TO.C,TP30*%
X60800000Y-100000000D03*
%TD*%
D14*
%TO.C,C68*%
X43465000Y-76800000D03*
X42825000Y-76800000D03*
%TD*%
D12*
%TO.C,C80*%
X49200000Y-99560000D03*
X49200000Y-100200000D03*
%TD*%
D14*
%TO.C,R64*%
X43975000Y-73000000D03*
X43335000Y-73000000D03*
%TD*%
D10*
%TO.C,TP18*%
X60900000Y-69400000D03*
%TD*%
D13*
%TO.C,C83*%
X51800000Y-85220000D03*
X51800000Y-84580000D03*
%TD*%
D22*
%TO.C,RX2*%
X39100000Y-85115000D03*
X39100000Y-86085000D03*
%TD*%
D15*
%TO.C,C54*%
X58455000Y-76100000D03*
X59095000Y-76100000D03*
%TD*%
%TO.C,R67*%
X43135000Y-93945000D03*
X43775000Y-93945000D03*
%TD*%
D13*
%TO.C,C39*%
X47500000Y-85220000D03*
X47500000Y-84580000D03*
%TD*%
D15*
%TO.C,R9*%
X43135000Y-93145000D03*
X43775000Y-93145000D03*
%TD*%
D10*
%TO.C,TP17*%
X32700000Y-87200000D03*
%TD*%
D14*
%TO.C,C49*%
X43775000Y-94745000D03*
X43135000Y-94745000D03*
%TD*%
D10*
%TO.C,TP19*%
X60800000Y-67000000D03*
%TD*%
D13*
%TO.C,C69*%
X47975000Y-67120000D03*
X47975000Y-66480000D03*
%TD*%
D12*
%TO.C,C86*%
X49075000Y-81425000D03*
X49075000Y-82065000D03*
%TD*%
D14*
%TO.C,C52*%
X43465000Y-76100000D03*
X42825000Y-76100000D03*
%TD*%
D13*
%TO.C,C87*%
X51575000Y-67165000D03*
X51575000Y-66525000D03*
%TD*%
%TO.C,C74*%
X54800000Y-85265000D03*
X54800000Y-84625000D03*
%TD*%
D10*
%TO.C,TP24*%
X42500000Y-97700000D03*
%TD*%
D13*
%TO.C,C51*%
X55375000Y-67120000D03*
X55375000Y-66480000D03*
%TD*%
D15*
%TO.C,R3*%
X36590000Y-74800000D03*
X37230000Y-74800000D03*
%TD*%
D24*
%TO.C,U9*%
X45625000Y-70550000D03*
X45625000Y-71050000D03*
X45625000Y-71550000D03*
X45625000Y-72050000D03*
X45625000Y-72550000D03*
X45625000Y-73050000D03*
X45625000Y-73550000D03*
X45625000Y-74050000D03*
X45625000Y-74550000D03*
X45625000Y-75050000D03*
X45625000Y-75550000D03*
X45625000Y-76050000D03*
X45625000Y-76550000D03*
X45625000Y-77050000D03*
X45625000Y-77550000D03*
X45625000Y-78050000D03*
D25*
X47550000Y-79975000D03*
X48050000Y-79975000D03*
X48550000Y-79975000D03*
X49050000Y-79975000D03*
X49550000Y-79975000D03*
X50050000Y-79975000D03*
X50550000Y-79975000D03*
X51050000Y-79975000D03*
X51550000Y-79975000D03*
X52050000Y-79975000D03*
X52550000Y-79975000D03*
X53050000Y-79975000D03*
X53550000Y-79975000D03*
X54050000Y-79975000D03*
X54550000Y-79975000D03*
X55050000Y-79975000D03*
D24*
X56975000Y-78050000D03*
X56975000Y-77550000D03*
X56975000Y-77050000D03*
X56975000Y-76550000D03*
X56975000Y-76050000D03*
X56975000Y-75550000D03*
X56975000Y-75050000D03*
X56975000Y-74550000D03*
X56975000Y-74050000D03*
X56975000Y-73550000D03*
X56975000Y-73050000D03*
X56975000Y-72550000D03*
X56975000Y-72050000D03*
X56975000Y-71550000D03*
X56975000Y-71050000D03*
X56975000Y-70550000D03*
D25*
X55050000Y-68625000D03*
X54550000Y-68625000D03*
X54050000Y-68625000D03*
X53550000Y-68625000D03*
X53050000Y-68625000D03*
X52550000Y-68625000D03*
X52050000Y-68625000D03*
X51550000Y-68625000D03*
X51050000Y-68625000D03*
X50550000Y-68625000D03*
X50050000Y-68625000D03*
X49550000Y-68625000D03*
X49050000Y-68625000D03*
X48550000Y-68625000D03*
X48050000Y-68625000D03*
X47550000Y-68625000D03*
%TD*%
D15*
%TO.C,C85*%
X58435000Y-73600000D03*
X59075000Y-73600000D03*
%TD*%
%TO.C,C70*%
X40990000Y-91500000D03*
X41630000Y-91500000D03*
%TD*%
D10*
%TO.C,TP12*%
X60900000Y-74500000D03*
%TD*%
D15*
%TO.C,R66*%
X42780000Y-75300000D03*
X43420000Y-75300000D03*
%TD*%
D23*
%TO.C,U1*%
X38772500Y-72450000D03*
X38772500Y-73400000D03*
X38772500Y-74350000D03*
X41047500Y-74350000D03*
X41047500Y-72450000D03*
%TD*%
D13*
%TO.C,C53*%
X47275000Y-67120000D03*
X47275000Y-66480000D03*
%TD*%
D12*
%TO.C,R63*%
X41000000Y-79845000D03*
X41000000Y-80485000D03*
%TD*%
D15*
%TO.C,C4*%
X41080000Y-76100000D03*
X41720000Y-76100000D03*
%TD*%
D26*
%TO.C,F1*%
X37110000Y-69300000D03*
X39910000Y-69300000D03*
%TD*%
D15*
%TO.C,C1*%
X36590000Y-75500000D03*
X37230000Y-75500000D03*
%TD*%
%TO.C,R4*%
X36590000Y-95800000D03*
X37230000Y-95800000D03*
%TD*%
%TO.C,C38*%
X58680000Y-94100000D03*
X59320000Y-94100000D03*
%TD*%
D26*
%TO.C,F2*%
X37110000Y-97800000D03*
X39910000Y-97800000D03*
%TD*%
D15*
%TO.C,C2*%
X36635000Y-91700000D03*
X37275000Y-91700000D03*
%TD*%
D12*
%TO.C,R44*%
X39100000Y-79880000D03*
X39100000Y-80520000D03*
%TD*%
D13*
%TO.C,R41*%
X39100000Y-87635000D03*
X39100000Y-86995000D03*
%TD*%
D15*
%TO.C,C3*%
X38290000Y-75500000D03*
X38930000Y-75500000D03*
%TD*%
D13*
%TO.C,C76*%
X48200000Y-85220000D03*
X48200000Y-84580000D03*
%TD*%
D22*
%TO.C,TX2*%
X37200000Y-85115000D03*
X37200000Y-86085000D03*
%TD*%
D12*
%TO.C,C6*%
X43200000Y-90125000D03*
X43200000Y-90765000D03*
%TD*%
D11*
%TO.C,JTAG1*%
X41000000Y-82370000D03*
X41000000Y-81400000D03*
%TD*%
D16*
%TO.C,Y2*%
X43500000Y-86572500D03*
X43500000Y-87772500D03*
X43500000Y-88972500D03*
%TD*%
M02*
