#VRML V2.0 utf8
# 3D model generated by easyeda2kicad.py (https://github.com/uPesy/easyeda2kicad.py)

Shape{
    appearance Appearance {
        material  Material 	{
            diffuseColor 0.6470588235294118 0.6470588235294118 0.6470588235294118
            specularColor 0.5686274509803921 0.5686274509803921 0.5686274509803921
            ambientIntensity 0.6471
            transparency 0.0
            shininess 0.5
        }
    }
    geometry IndexedFaceSet {
        ccw TRUE
        solid FALSE
        coord DEF co Coordinate {
            point [
                2.6181 -2.2638 0.0197, 2.6114 -2.3147 0.0197, 2.5917 -2.3622 0.0197, -0.0718 -0.1188 0.0197, -0.0683 -0.1186 0.0197, -0.0431 -0.1188 0.0197, -0.0547 -0.1149 0.0197, -0.0547 -0.099 0.0197, -2.6181 2.2638 0.0197, -2.6114 2.3147 0.0197, -2.5917 2.3622 0.0197, -0.068 -0.1047 0.0197, -0.0823 -0.1066 0.0197, -0.0882 -0.1049 0.0197, -0.2131 -0.1181 0.0197, -1.752 -0.1188 0.0197, -0.2131 -0.0 0.0197, -1.752 0.9252 0.0197, -0.0547 -0.0191 0.0197, -0.0693 -0.0133 0.0197, -0.085 -0.0115 0.0197, -2.6181 0.9252 0.0197, -2.5984 0.9252 0.0197, -2.5197 2.4343 0.0197, -2.4722 2.4539 0.0197, -2.4213 2.4606 0.0197, -0.1526 -0.0 0.0197, -0.1147 -0.0925 0.0197, -0.1189 -0.0877 0.0197, -0.0982 -0.0146 0.0197, -0.122 -0.0814 0.0197, -0.1246 -0.0723 0.0197, -0.1267 -0.0578 0.0197, -0.1239 -0.0435 0.0197, -0.1065 -0.0177 0.0197, -2.5605 2.403 0.0197, -0.0547 -0.0061 0.0197, -0.0431 2.4606 0.0197, -0.0705 -0.0002 0.0197, -0.0872 0.0014 0.0197, -0.1076 -0.0975 0.0197, -0.1197 -0.0311 0.0197, -0.1157 -0.0247 0.0197, -0.1121 -0.0211 0.0197, -0.1526 -0.013 0.0197, -0.0963 -0.001 0.0197, -0.1188 -0.0091 0.0197, -0.1328 -0.0906 0.0197, -0.1269 -0.1006 0.0197, -0.1973 -0.1181 0.0197, -0.1209 -0.1066 0.0197, -0.1129 -0.1113 0.0197, -0.1273 -0.015 0.0197, -0.1325 -0.0207 0.0197, -0.1973 -0.013 0.0197, -0.1364 -0.0283 0.0197, -0.1397 -0.0393 0.0197, -0.1425 -0.0568 0.0197, -0.1411 -0.0636 0.0197, -0.1012 -0.1155 0.0197, -0.0858 -0.1188 0.0197, -2.6181 -2.2638 0.0197, -2.6181 -0.9252 0.0197, -2.5984 -0.9252 0.0197, -0.0825 -0.1196 0.0197, -0.0431 -2.4606 0.0197, -2.4722 -2.4539 0.0197, -2.5197 -2.4343 0.0197, -1.752 -0.9252 0.0197, -2.4213 -2.4606 0.0197, -2.6114 -2.3147 0.0197, -2.5917 -2.3622 0.0197, -2.5605 -2.403 0.0197, 2.5984 -0.9252 0.0197, 2.6181 -0.9252 0.0197, 2.5605 -2.403 0.0197, 2.5197 -2.4343 0.0197, 2.4722 -2.4539 0.0197, 2.4213 -2.4606 0.0197, 1.752 -0.9252 0.0197, 1.752 -0.1188 0.0197, 0.0964 -0.1164 0.0197, 0.1217 -0.109 0.0197, 0.2032 -0.1181 0.0197, -0.0316 -0.1181 0.0197, 0.0289 -0.1181 0.0197, 0.0289 -0.1051 0.0197, 0.0548 0.0 0.0197, 0.0548 -0.1181 0.0197, 0.0881 -0.1181 0.0197, 0.026 -0.0533 0.0197, -0.0158 -0.0533 0.0197, -0.0158 -0.013 0.0197, 0.1312 -0.1034 0.0197, 0.137 -0.0976 0.0197, 0.1417 -0.09 0.0197, -0.0158 -0.1051 0.0197, -0.0158 -0.0663 0.0197, 0.026 -0.0663 0.0197, 0.0318 -0.013 0.0197, 0.2478 0.0 0.0197, 0.2359 -0.0331 0.0197, 0.1871 -0.0331 0.0197, -0.0316 0.0 0.0197, 0.0318 0.0 0.0197, 2.4213 2.4606 0.0197, 2.4722 2.4539 0.0197, 0.219 -0.1181 0.0197, 0.1458 -0.0786 0.0197, 0.1499 -0.0605 0.0197, 0.1585 0.0 0.0197, 0.1481 -0.0535 0.0197, 0.1388 -0.0269 0.0197, 2.6181 2.2638 0.0197, 2.6181 0.9252 0.0197, 2.5984 0.9252 0.0197, 0.1758 0.0 0.0197, 0.1324 -0.0172 0.0197, 0.1262 -0.0115 0.0197, 0.118 -0.0071 0.0197, 1.752 0.9252 0.0197, 0.2651 0.0 0.0197, 0.0869 0.0 0.0197, 0.106 -0.0033 0.0197, 2.6114 2.3147 0.0197, 2.5917 2.3622 0.0197, 2.5605 2.403 0.0197, 2.5197 2.4343 0.0197
            ]
        }
        coordIndex [
            0,1,2,-1,3,4,5,-1,5,4,6,-1,5,6,7,-1,8,9,10,-1,11,12,13,-1,14,15,16,-1,16,15,17,-1,7,11,18,-1,18,11,13,-1,18,13,19,-1,19,13,20,-1,21,8,22,-1,22,8,10,-1,22,10,17,-1,23,24,16,-1,16,24,25,-1,16,25,26,-1,27,28,29,-1,29,28,30,-1,29,30,31,-1,31,32,29,-1,29,32,33,-1,29,33,34,-1,17,10,16,-1,16,10,35,-1,16,35,23,-1,7,18,5,-1,5,18,36,-1,5,36,37,-1,37,36,38,-1,37,38,39,-1,20,13,29,-1,29,13,40,-1,29,40,27,-1,41,42,33,-1,33,42,43,-1,33,43,34,-1,25,37,26,-1,26,37,39,-1,26,39,44,-1,44,39,45,-1,44,45,46,-1,47,48,49,-1,49,48,50,-1,49,50,51,-1,46,52,44,-1,44,52,53,-1,44,53,54,-1,54,53,55,-1,55,56,54,-1,54,56,57,-1,54,57,49,-1,49,57,58,-1,49,58,47,-1,51,59,49,-1,49,59,60,-1,49,60,14,-1,61,62,63,-1,60,64,65,-1,66,67,63,-1,14,60,15,-1,15,60,65,-1,15,65,68,-1,68,65,63,-1,63,65,69,-1,63,69,66,-1,70,61,71,-1,71,61,63,-1,71,63,72,-1,72,63,67,-1,73,74,0,-1,0,2,73,-1,73,2,75,-1,73,75,76,-1,76,77,73,-1,73,77,78,-1,73,78,79,-1,79,78,65,-1,79,65,80,-1,81,82,83,-1,5,84,85,-1,86,87,85,-1,85,87,88,-1,85,88,5,-1,5,88,89,-1,90,91,92,-1,82,93,83,-1,83,93,94,-1,83,94,95,-1,96,97,86,-1,86,97,98,-1,86,98,87,-1,87,98,90,-1,87,90,99,-1,99,90,92,-1,100,101,102,-1,84,5,103,-1,103,5,37,-1,103,37,104,-1,104,37,105,-1,104,105,106,-1,107,5,83,-1,83,5,89,-1,83,89,81,-1,95,108,83,-1,83,108,109,-1,83,109,110,-1,110,109,111,-1,110,111,112,-1,113,114,115,-1,106,116,110,-1,112,117,110,-1,110,117,118,-1,110,118,119,-1,64,3,65,-1,65,3,5,-1,65,5,80,-1,80,5,107,-1,80,107,120,-1,120,107,121,-1,120,121,106,-1,106,121,100,-1,106,100,116,-1,116,100,102,-1,99,104,87,-1,87,104,106,-1,87,106,122,-1,122,106,110,-1,122,110,123,-1,123,110,119,-1,124,113,125,-1,125,113,115,-1,125,115,126,-1,126,115,120,-1,126,120,127,-1,127,120,106,-1,
        ]
    }
}
Shape{
    appearance Appearance {
        material  Material 	{
            diffuseColor 0.7764705882352941 0.7568627450980392 0.7372549019607844
            specularColor 0.38823529411764707 0.3764705882352941 0.3686274509803922
            ambientIntensity 0.7605
            transparency 0.0
            shininess 0.5
        }
    }
    geometry IndexedFaceSet {
        ccw TRUE
        solid FALSE
        coord DEF co Coordinate {
            point [
                2.6575 0.9252 1.0039, 2.6181 0.9252 1.0039, 2.6575 0.1623 1.0039, 2.6181 0.1623 1.0039, 2.6181 -0.9252 1.0039, 2.6575 -0.9252 1.0039, 2.6181 -0.1623 1.0039, 2.6575 -0.1623 1.0039, 2.6575 -0.1623 0.8239, 2.6575 -0.9252 0.0591, 2.6575 0.1623 0.8239, 2.6575 0.9252 0.0591
            ]
        }
        coordIndex [
            0,1,2,-1,2,1,3,-1,4,5,6,-1,6,5,7,-1,7,5,8,-1,8,5,9,-1,8,9,10,-1,10,9,11,-1,10,11,2,-1,2,11,0,-1,
        ]
    }
}
Shape{
    appearance Appearance {
        material  Material 	{
            diffuseColor 0.6470588235294118 0.6470588235294118 0.6470588235294118
            specularColor 0.5686274509803921 0.5686274509803921 0.5686274509803921
            ambientIntensity 0.6471
            transparency 0.0
            shininess 0.5
        }
    }
    geometry IndexedFaceSet {
        ccw TRUE
        solid FALSE
        coord DEF co Coordinate {
            point [
                2.6181 -0.1623 1.0039, 2.6181 2.2638 2.2441, 2.6181 -0.9252 1.0039, 2.6181 -2.2638 2.2441, 2.6181 -0.9252 0.0591, 2.6181 -2.2638 0.0197, 2.6181 -0.9252 0.0197, 2.6181 -0.1623 0.8239, 2.6181 0.1623 0.8239, 2.6181 0.1623 1.0039, 2.6181 0.9252 1.0039, 2.6181 2.2638 0.0197, 2.6181 0.9252 0.0591, 2.6181 0.9252 0.0197
            ]
        }
        coordIndex [
            0,1,2,-1,2,1,3,-1,2,3,4,-1,4,3,5,-1,4,5,6,-1,7,8,0,-1,0,8,9,-1,0,9,1,-1,1,9,10,-1,1,10,11,-1,11,10,12,-1,11,12,13,-1,
        ]
    }
}
Shape{
    appearance Appearance {
        material  Material 	{
            diffuseColor 0.7764705882352941 0.7568627450980392 0.7372549019607844
            specularColor 0.38823529411764707 0.3764705882352941 0.3686274509803922
            ambientIntensity 0.7605
            transparency 0.0
            shininess 0.5
        }
    }
    geometry IndexedFaceSet {
        ccw TRUE
        solid FALSE
        coord DEF co Coordinate {
            point [
                -2.6575 -0.1623 1.0039, -2.6575 -0.9252 1.0039, -2.6181 -0.1623 1.0039, -2.6181 -0.9252 1.0039
            ]
        }
        coordIndex [
            0,1,2,-1,2,1,3,-1,
        ]
    }
}
Shape{
    appearance Appearance {
        material  Material 	{
            diffuseColor 0.6470588235294118 0.6470588235294118 0.6470588235294118
            specularColor 0.5686274509803921 0.5686274509803921 0.5686274509803921
            ambientIntensity 0.6471
            transparency 0.0
            shininess 0.5
        }
    }
    geometry IndexedFaceSet {
        ccw TRUE
        solid FALSE
        coord DEF co Coordinate {
            point [
                -2.6181 0.1623 1.0039, -2.6181 -2.2638 2.2441, -2.6181 0.9252 1.0039, -2.6181 2.2638 2.2441, -2.6181 0.9252 0.0591, -2.6181 2.2638 0.0197, -2.6181 0.9252 0.0197, -2.6181 0.1623 0.8239, -2.6181 -0.1623 0.8239, -2.6181 -0.1623 1.0039, -2.6181 -0.9252 1.0039, -2.6181 -2.2638 0.0197, -2.6181 -0.9252 0.0591, -2.6181 -0.9252 0.0197, 2.4213 2.4606 2.2441, 2.4213 2.4606 0.0197, -2.4213 2.4606 2.2441, -0.0431 2.4606 0.0197, -2.4213 2.4606 0.0197, 2.4213 -2.4606 0.0197, 2.4213 -2.4606 2.2441, -0.0431 -2.4606 0.0197, -2.4213 -2.4606 2.2441, -2.4213 -2.4606 0.0197, 2.4722 2.4539 2.2441, 2.6181 2.2638 2.2441, 2.6181 -2.2638 2.2441, 2.6114 2.3147 2.2441, 2.5917 2.3622 2.2441, 2.5605 2.403 2.2441, -2.5917 -2.3622 2.2441, -2.5605 -2.403 2.2441, -2.5197 -2.4343 2.2441, -2.6114 2.3147 2.2441, -2.4722 2.4539 2.2441, -2.5197 2.4343 2.2441, -2.5605 2.403 2.2441, -2.4722 -2.4539 2.2441, 2.5197 2.4343 2.2441, -2.6114 -2.3147 2.2441, 2.5197 -2.4343 2.2441, 2.5605 -2.403 2.2441, 2.5917 -2.3622 2.2441, -2.5917 2.3622 2.2441, 2.4722 -2.4539 2.2441, 2.6114 -2.3147 2.2441, 2.4722 -2.4539 0.0197, 2.5197 -2.4343 0.0197, 2.5605 -2.403 0.0197, 2.5917 -2.3622 0.0197, 2.6114 -2.3147 0.0197, 2.6181 -2.2638 0.0197, -2.6114 -2.3147 0.0197, -2.5917 -2.3622 0.0197, -2.5605 -2.403 0.0197, -2.5197 -2.4343 0.0197, -2.4722 -2.4539 0.0197, -2.4722 2.4539 0.0197, -2.5197 2.4343 0.0197, -2.5605 2.403 0.0197, -2.5917 2.3622 0.0197, -2.6114 2.3147 0.0197, 2.6181 2.2638 0.0197, 2.6114 2.3147 0.0197, 2.5917 2.3622 0.0197, 2.5605 2.403 0.0197, 2.5197 2.4343 0.0197, 2.4722 2.4539 0.0197
            ]
        }
        coordIndex [
            0,1,2,-1,2,1,3,-1,2,3,4,-1,4,3,5,-1,4,5,6,-1,7,8,0,-1,0,8,9,-1,0,9,1,-1,1,9,10,-1,1,10,11,-1,11,10,12,-1,11,12,13,-1,14,15,16,-1,16,15,17,-1,16,17,18,-1,19,20,21,-1,21,20,22,-1,21,22,23,-1,24,14,25,-1,25,3,26,-1,26,3,1,-1,27,28,29,-1,30,31,32,-1,25,14,3,-1,3,14,16,-1,3,16,33,-1,34,35,36,-1,20,26,22,-1,22,26,1,-1,22,1,37,-1,27,29,25,-1,25,29,38,-1,25,38,24,-1,37,1,32,-1,32,1,39,-1,32,39,30,-1,40,41,42,-1,34,36,16,-1,16,36,43,-1,16,43,33,-1,20,44,26,-1,26,44,40,-1,26,40,45,-1,45,40,42,-1,20,19,46,-1,20,46,44,-1,44,46,47,-1,44,47,40,-1,40,47,48,-1,40,48,41,-1,41,48,49,-1,41,49,42,-1,42,49,50,-1,42,50,45,-1,45,50,51,-1,45,51,26,-1,1,11,52,-1,1,52,39,-1,39,52,53,-1,39,53,30,-1,30,53,54,-1,30,54,31,-1,31,54,55,-1,31,55,32,-1,32,55,56,-1,32,56,37,-1,37,56,23,-1,37,23,22,-1,16,18,57,-1,16,57,34,-1,34,57,58,-1,34,58,35,-1,35,58,59,-1,35,59,36,-1,36,59,60,-1,36,60,43,-1,43,60,61,-1,43,61,33,-1,33,61,5,-1,33,5,3,-1,25,62,63,-1,25,63,27,-1,27,63,64,-1,27,64,28,-1,28,64,65,-1,28,65,29,-1,29,65,66,-1,29,66,38,-1,38,66,67,-1,38,67,24,-1,24,67,15,-1,24,15,14,-1,
        ]
    }
}
Shape{
    appearance Appearance {
        material  Material 	{
            diffuseColor 0.7764705882352941 0.7568627450980392 0.7372549019607844
            specularColor 0.38823529411764707 0.3764705882352941 0.3686274509803922
            ambientIntensity 0.7605
            transparency 0.0
            shininess 0.5
        }
    }
    geometry IndexedFaceSet {
        ccw TRUE
        solid FALSE
        coord DEF co Coordinate {
            point [
                -1.752 -0.9252 0.0197, -1.752 -0.9252 0.0, -1.752 -0.1188 0.0197, -1.752 0.9252 0.0, -1.752 0.9252 0.0197, -2.5984 -0.9252 0.0197, -2.5984 -0.9252 0.0, -2.5984 0.9252 0.0197, -2.5984 0.9252 0.0, -2.6181 -0.9252 0.0591, -2.6575 -0.9252 0.0591, -2.6555 -0.9252 0.0438, -2.6496 -0.9252 0.0295, -2.6402 -0.9252 0.0173, -2.6181 -0.9252 0.0197, -2.628 -0.9252 0.0079, -2.6137 -0.9252 0.002, -2.6555 0.9252 0.0438, -2.6575 0.9252 0.0591, -2.6181 0.9252 0.0591, -2.6496 0.9252 0.0295, -2.6137 0.9252 0.002, -2.6181 0.9252 0.0197, -2.628 0.9252 0.0079, -2.6402 0.9252 0.0173, -2.6181 0.1623 1.0039, -2.6181 0.9252 1.0039, -2.6575 0.1623 1.0039, -2.6575 0.9252 1.0039, -2.6181 -0.9252 1.0039, -2.6575 -0.9252 1.0039, -2.6575 0.1623 0.8239, -2.6575 -0.1623 0.8239, -2.6575 -0.1623 1.0039, -2.6181 -0.1623 1.0039, -2.6181 -0.1623 0.8239, -2.6181 0.1623 0.8239, 1.752 0.9252 0.0197, 1.752 0.9252 0.0, 1.752 -0.1188 0.0197, 1.752 -0.9252 0.0, 1.752 -0.9252 0.0197, 2.5984 -0.9252 0.0197, 2.5984 -0.9252 0.0, 2.5984 0.9252 0.0197, 2.5984 0.9252 0.0, 2.6555 -0.9252 0.0438, 2.6575 -0.9252 0.0591, 2.6181 -0.9252 0.0591, 2.6496 -0.9252 0.0295, 2.6137 -0.9252 0.002, 2.6181 -0.9252 0.0197, 2.628 -0.9252 0.0079, 2.6402 -0.9252 0.0173, 2.6181 0.9252 0.0591, 2.6575 0.9252 0.0591, 2.6555 0.9252 0.0438, 2.6496 0.9252 0.0295, 2.6402 0.9252 0.0173, 2.6181 0.9252 0.0197, 2.628 0.9252 0.0079, 2.6137 0.9252 0.002, 2.6575 -0.9252 1.0039, 2.6181 -0.9252 1.0039, 2.6575 0.9252 1.0039, 2.6181 0.9252 1.0039, 2.6181 0.1623 1.0039, 2.6181 0.1623 0.8239, 2.6575 0.1623 1.0039, 2.6575 0.1623 0.8239, 2.6181 -0.1623 0.8239, 2.6575 -0.1623 0.8239, 2.6181 -0.1623 1.0039, 2.6575 -0.1623 1.0039
            ]
        }
        coordIndex [
            0,1,2,-1,2,1,3,-1,2,3,4,-1,5,6,0,-1,0,6,1,-1,4,3,7,-1,7,3,8,-1,9,10,11,-1,11,12,9,-1,9,12,13,-1,9,13,14,-1,14,13,15,-1,14,15,5,-1,5,15,16,-1,5,16,6,-1,17,18,19,-1,17,19,20,-1,7,8,21,-1,7,21,22,-1,22,21,23,-1,22,23,19,-1,19,23,24,-1,19,24,20,-1,25,26,27,-1,27,26,28,-1,1,6,3,-1,3,6,8,-1,10,18,17,-1,10,17,11,-1,11,17,20,-1,11,20,12,-1,12,20,24,-1,12,24,13,-1,13,24,23,-1,13,23,15,-1,15,23,21,-1,15,21,16,-1,16,21,8,-1,16,8,6,-1,9,29,10,-1,10,29,30,-1,27,28,31,-1,31,28,18,-1,31,18,32,-1,32,18,10,-1,32,10,33,-1,33,10,30,-1,19,18,26,-1,26,18,28,-1,34,35,33,-1,33,35,32,-1,35,36,32,-1,32,36,31,-1,36,25,31,-1,31,25,27,-1,37,38,39,-1,39,38,40,-1,39,40,41,-1,41,40,42,-1,42,40,43,-1,44,45,37,-1,37,45,38,-1,46,47,48,-1,46,48,49,-1,42,43,50,-1,42,50,51,-1,51,50,52,-1,51,52,48,-1,48,52,53,-1,48,53,49,-1,54,55,56,-1,56,57,54,-1,54,57,58,-1,54,58,59,-1,59,58,60,-1,59,60,44,-1,44,60,61,-1,44,61,45,-1,38,45,40,-1,40,45,43,-1,55,47,46,-1,55,46,56,-1,56,46,49,-1,56,49,57,-1,57,49,53,-1,57,53,58,-1,58,53,52,-1,58,52,60,-1,60,52,50,-1,60,50,61,-1,61,50,43,-1,61,43,45,-1,47,62,48,-1,48,62,63,-1,55,54,64,-1,64,54,65,-1,66,67,68,-1,68,67,69,-1,67,70,69,-1,69,70,71,-1,70,72,71,-1,71,72,73,-1,
        ]
    }
}
Shape{
    appearance Appearance {
        material  Material 	{
            diffuseColor 1.0 1.0 1.0
            specularColor 0.8784313725490196 0.8784313725490196 0.8784313725490196
            ambientIntensity 1.0
            transparency 0.0
            shininess 0.5
        }
    }
    geometry IndexedFaceSet {
        ccw TRUE
        solid FALSE
        coord DEF co Coordinate {
            point [
                0.1871 -0.0331 0.0197, 0.1871 -0.0331 0.0236, 0.1758 0.0 0.0197, 0.1758 0.0 0.0236, 0.2359 -0.0331 0.0197, 0.2359 -0.0331 0.0236, 0.2478 0.0 0.0197, 0.2478 0.0 0.0236, 0.2651 0.0 0.0197, 0.2651 0.0 0.0236, 0.219 -0.1181 0.0197, 0.219 -0.1181 0.0236, 0.2032 -0.1181 0.0197, 0.2032 -0.1181 0.0236, 0.1585 0.0 0.0197, 0.1585 0.0 0.0236, 0.1911 -0.0461 0.0236, 0.2087 -0.0954 0.0236, 0.2098 -0.0995 0.0236, 0.2106 -0.1037 0.0236, 0.2117 -0.0996 0.0236, 0.2306 -0.0461 0.0236, 0.2128 -0.0954 0.0236, 0.1911 -0.0461 0.0197, 0.2087 -0.0954 0.0197, 0.2306 -0.0461 0.0197, 0.2128 -0.0954 0.0197, 0.2117 -0.0996 0.0197, 0.2106 -0.1037 0.0197, 0.2098 -0.0995 0.0197, 0.0548 0.0 0.0197, 0.0548 0.0 0.0236, 0.0548 -0.1181 0.0197, 0.0548 -0.1181 0.0236, 0.0869 0.0 0.0197, 0.0869 0.0 0.0236, 0.1499 -0.0605 0.0197, 0.1499 -0.0605 0.0236, 0.1481 -0.0535 0.0236, 0.1481 -0.0535 0.0197, 0.1388 -0.0269 0.0236, 0.1388 -0.0269 0.0197, 0.1324 -0.0172 0.0236, 0.1324 -0.0172 0.0197, 0.1262 -0.0115 0.0236, 0.1262 -0.0115 0.0197, 0.118 -0.0071 0.0236, 0.118 -0.0071 0.0197, 0.106 -0.0033 0.0236, 0.106 -0.0033 0.0197, 0.0881 -0.1181 0.0197, 0.0881 -0.1181 0.0236, 0.0964 -0.1164 0.0236, 0.0964 -0.1164 0.0197, 0.1217 -0.109 0.0236, 0.1217 -0.109 0.0197, 0.1312 -0.1034 0.0236, 0.1312 -0.1034 0.0197, 0.137 -0.0976 0.0236, 0.137 -0.0976 0.0197, 0.1417 -0.09 0.0236, 0.1417 -0.09 0.0197, 0.1458 -0.0786 0.0236, 0.1458 -0.0786 0.0197, 0.1107 -0.1006 0.0236, 0.1166 -0.0976 0.0236, 0.121 -0.0939 0.0236, 0.1253 -0.0879 0.0236, 0.1301 -0.0762 0.0236, 0.134 -0.0602 0.0236, 0.1318 -0.046 0.0236, 0.1293 -0.037 0.0236, 0.1262 -0.0308 0.0236, 0.1223 -0.0263 0.0236, 0.1161 -0.0219 0.0236, 0.104 -0.017 0.0236, 0.1019 -0.103 0.0236, 0.0881 -0.1051 0.0236, 0.0707 -0.1051 0.0236, 0.0707 -0.013 0.0236, 0.0874 -0.013 0.0236, 0.134 -0.0602 0.0197, 0.1301 -0.0762 0.0197, 0.1253 -0.0879 0.0197, 0.121 -0.0939 0.0197, 0.1166 -0.0976 0.0197, 0.1107 -0.1006 0.0197, 0.1019 -0.103 0.0197, 0.0881 -0.1051 0.0197, 0.0707 -0.1051 0.0197, 0.0707 -0.013 0.0197, 0.0874 -0.013 0.0197, 0.104 -0.017 0.0197, 0.1161 -0.0219 0.0197, 0.1223 -0.0263 0.0197, 0.1262 -0.0308 0.0197, 0.1293 -0.037 0.0197, 0.1318 -0.046 0.0197, 0.026 -0.0663 0.0197, 0.026 -0.0663 0.0236, 0.026 -0.0533 0.0197, 0.026 -0.0533 0.0236, -0.0158 -0.0663 0.0197, -0.0158 -0.0663 0.0236, -0.0158 -0.1051 0.0197, -0.0158 -0.1051 0.0236, 0.0289 -0.1051 0.0197, 0.0289 -0.1051 0.0236, 0.0289 -0.1181 0.0197, 0.0289 -0.1181 0.0236, -0.0316 -0.1181 0.0197, -0.0316 -0.1181 0.0236, -0.0316 0.0 0.0197, -0.0316 0.0 0.0236, 0.0318 0.0 0.0197, 0.0318 0.0 0.0236, 0.0318 -0.013 0.0197, 0.0318 -0.013 0.0236, -0.0158 -0.013 0.0197, -0.0158 -0.013 0.0236, -0.0158 -0.0533 0.0197, -0.0158 -0.0533 0.0236, -0.0547 -0.099 0.0197, -0.0547 -0.099 0.0236, -0.068 -0.1047 0.0236, -0.068 -0.1047 0.0197, -0.0823 -0.1066 0.0236, -0.0823 -0.1066 0.0197, -0.0547 -0.1149 0.0197, -0.0547 -0.1149 0.0236, -0.0825 -0.1196 0.0197, -0.0825 -0.1196 0.0236, -0.0718 -0.1188 0.0197, -0.0683 -0.1186 0.0236, -0.0683 -0.1186 0.0197, -0.1425 -0.0568 0.0197, -0.1425 -0.0568 0.0236, -0.1411 -0.0636 0.0236, -0.1411 -0.0636 0.0197, -0.1328 -0.0906 0.0236, -0.1328 -0.0906 0.0197, -0.1269 -0.1006 0.0236, -0.1269 -0.1006 0.0197, -0.1209 -0.1066 0.0236, -0.1209 -0.1066 0.0197, -0.1129 -0.1113 0.0236, -0.1129 -0.1113 0.0197, -0.1012 -0.1155 0.0236, -0.1012 -0.1155 0.0197, -0.0858 -0.1188 0.0197, -0.0872 0.0014 0.0197, -0.0872 0.0014 0.0236, -0.0963 -0.001 0.0236, -0.0963 -0.001 0.0197, -0.1188 -0.0091 0.0236, -0.1188 -0.0091 0.0197, -0.1273 -0.015 0.0236, -0.1273 -0.015 0.0197, -0.1325 -0.0207 0.0236, -0.1325 -0.0207 0.0197, -0.1364 -0.0283 0.0236, -0.1364 -0.0283 0.0197, -0.1397 -0.0393 0.0236, -0.1397 -0.0393 0.0197, -0.0547 -0.0061 0.0197, -0.0547 -0.0061 0.0236, -0.0705 -0.0002 0.0236, -0.0705 -0.0002 0.0197, -0.0547 -0.0191 0.0197, -0.0547 -0.0191 0.0236, -0.085 -0.0115 0.0197, -0.085 -0.0115 0.0236, -0.0693 -0.0133 0.0236, -0.0693 -0.0133 0.0197, -0.1267 -0.0578 0.0197, -0.1267 -0.0578 0.0236, -0.1239 -0.0435 0.0236, -0.1239 -0.0435 0.0197, -0.1197 -0.0311 0.0236, -0.1197 -0.0311 0.0197, -0.1157 -0.0247 0.0236, -0.1157 -0.0247 0.0197, -0.1121 -0.0211 0.0236, -0.1121 -0.0211 0.0197, -0.1065 -0.0177 0.0236, -0.1065 -0.0177 0.0197, -0.0982 -0.0146 0.0236, -0.0982 -0.0146 0.0197, -0.0882 -0.1049 0.0236, -0.0882 -0.1049 0.0197, -0.1076 -0.0975 0.0236, -0.1076 -0.0975 0.0197, -0.1147 -0.0925 0.0236, -0.1147 -0.0925 0.0197, -0.1189 -0.0877 0.0236, -0.1189 -0.0877 0.0197, -0.122 -0.0814 0.0236, -0.122 -0.0814 0.0197, -0.1246 -0.0723 0.0236, -0.1246 -0.0723 0.0197, -0.2131 -0.0 0.0197, -0.2131 -0.0 0.0236, -0.2131 -0.1181 0.0197, -0.2131 -0.1181 0.0236, -0.1526 -0.0 0.0197, -0.1526 -0.0 0.0236, -0.1526 -0.013 0.0197, -0.1526 -0.013 0.0236, -0.1973 -0.013 0.0197, -0.1973 -0.013 0.0236, -0.1973 -0.1181 0.0197, -0.1973 -0.1181 0.0236
            ]
        }
        coordIndex [
            0,1,2,-1,2,1,3,-1,4,5,0,-1,0,5,1,-1,6,7,4,-1,4,7,5,-1,8,9,6,-1,6,9,7,-1,10,11,8,-1,8,11,9,-1,12,13,10,-1,10,13,11,-1,14,15,12,-1,12,15,13,-1,14,2,15,-1,15,2,3,-1,16,17,13,-1,17,18,13,-1,13,18,19,-1,13,19,11,-1,11,19,20,-1,15,3,1,-1,13,15,16,-1,16,15,1,-1,16,1,21,-1,21,1,5,-1,20,22,11,-1,11,22,21,-1,11,21,9,-1,9,21,5,-1,9,5,7,-1,16,23,17,-1,17,23,24,-1,21,25,16,-1,16,25,23,-1,22,26,21,-1,21,26,25,-1,26,22,20,-1,26,20,27,-1,27,20,19,-1,27,19,28,-1,28,19,18,-1,28,18,29,-1,29,18,17,-1,29,17,24,-1,30,31,32,-1,32,31,33,-1,34,35,30,-1,30,35,31,-1,36,37,38,-1,36,38,39,-1,39,38,40,-1,39,40,41,-1,41,40,42,-1,41,42,43,-1,43,42,44,-1,43,44,45,-1,45,44,46,-1,45,46,47,-1,47,46,48,-1,47,48,49,-1,49,48,35,-1,49,35,34,-1,50,51,52,-1,50,52,53,-1,53,52,54,-1,53,54,55,-1,55,54,56,-1,55,56,57,-1,57,56,58,-1,57,58,59,-1,59,58,60,-1,59,60,61,-1,61,60,62,-1,61,62,63,-1,63,62,37,-1,63,37,36,-1,50,32,51,-1,51,32,33,-1,64,65,54,-1,54,65,56,-1,56,65,66,-1,56,66,58,-1,58,66,67,-1,58,67,60,-1,60,67,68,-1,60,68,62,-1,62,68,37,-1,37,68,69,-1,37,69,38,-1,38,69,70,-1,38,70,40,-1,70,71,40,-1,40,71,72,-1,40,72,42,-1,42,72,73,-1,42,73,44,-1,44,73,74,-1,44,74,46,-1,46,74,75,-1,64,54,76,-1,76,54,52,-1,76,52,77,-1,77,52,51,-1,77,51,78,-1,78,51,33,-1,78,33,79,-1,79,33,31,-1,79,31,80,-1,80,31,35,-1,80,35,75,-1,75,35,48,-1,75,48,46,-1,81,69,68,-1,81,68,82,-1,82,68,67,-1,82,67,83,-1,83,67,66,-1,83,66,84,-1,84,66,65,-1,84,65,85,-1,85,65,64,-1,85,64,86,-1,86,64,76,-1,86,76,87,-1,87,76,77,-1,87,77,88,-1,78,89,77,-1,77,89,88,-1,79,90,78,-1,78,90,89,-1,80,91,79,-1,79,91,90,-1,91,80,75,-1,91,75,92,-1,92,75,74,-1,92,74,93,-1,93,74,73,-1,93,73,94,-1,94,73,72,-1,94,72,95,-1,95,72,71,-1,95,71,96,-1,96,71,70,-1,96,70,97,-1,97,70,69,-1,97,69,81,-1,98,99,100,-1,100,99,101,-1,102,103,98,-1,98,103,99,-1,104,105,102,-1,102,105,103,-1,106,107,104,-1,104,107,105,-1,108,109,106,-1,106,109,107,-1,110,111,108,-1,108,111,109,-1,112,113,110,-1,110,113,111,-1,114,115,112,-1,112,115,113,-1,116,117,114,-1,114,117,115,-1,118,119,116,-1,116,119,117,-1,120,121,118,-1,118,121,119,-1,120,100,121,-1,121,100,101,-1,113,115,117,-1,117,119,113,-1,113,119,121,-1,113,121,111,-1,107,109,105,-1,105,109,111,-1,105,111,103,-1,103,111,121,-1,103,121,99,-1,99,121,101,-1,122,123,124,-1,122,124,125,-1,125,124,126,-1,125,126,127,-1,128,129,122,-1,122,129,123,-1,130,131,132,-1,132,131,133,-1,132,133,134,-1,134,133,129,-1,134,129,128,-1,135,136,137,-1,135,137,138,-1,138,137,139,-1,138,139,140,-1,140,139,141,-1,140,141,142,-1,142,141,143,-1,142,143,144,-1,144,143,145,-1,144,145,146,-1,146,145,147,-1,146,147,148,-1,148,147,149,-1,149,147,131,-1,149,131,130,-1,150,151,152,-1,150,152,153,-1,153,152,154,-1,153,154,155,-1,155,154,156,-1,155,156,157,-1,157,156,158,-1,157,158,159,-1,159,158,160,-1,159,160,161,-1,161,160,162,-1,161,162,163,-1,163,162,136,-1,163,136,135,-1,164,165,166,-1,164,166,167,-1,167,166,151,-1,167,151,150,-1,168,169,164,-1,164,169,165,-1,170,171,172,-1,170,172,173,-1,173,172,169,-1,173,169,168,-1,174,175,176,-1,174,176,177,-1,177,176,178,-1,177,178,179,-1,179,178,180,-1,179,180,181,-1,181,180,182,-1,181,182,183,-1,183,182,184,-1,183,184,185,-1,185,184,186,-1,185,186,187,-1,187,186,171,-1,187,171,170,-1,127,126,188,-1,127,188,189,-1,189,188,190,-1,189,190,191,-1,191,190,192,-1,191,192,193,-1,193,192,194,-1,193,194,195,-1,195,194,196,-1,195,196,197,-1,197,196,198,-1,197,198,199,-1,199,198,175,-1,199,175,174,-1,123,129,124,-1,124,129,133,-1,124,133,126,-1,126,133,131,-1,126,131,188,-1,188,131,147,-1,188,147,190,-1,176,160,178,-1,178,160,158,-1,178,158,180,-1,180,158,156,-1,180,156,182,-1,182,156,154,-1,147,145,190,-1,190,145,143,-1,190,143,192,-1,192,143,141,-1,192,141,194,-1,194,141,139,-1,194,139,196,-1,165,169,166,-1,166,169,172,-1,166,172,151,-1,151,172,171,-1,151,171,152,-1,152,171,186,-1,152,186,154,-1,154,186,184,-1,154,184,182,-1,196,139,198,-1,198,139,137,-1,198,137,175,-1,175,137,136,-1,175,136,176,-1,176,136,162,-1,176,162,160,-1,200,201,202,-1,202,201,203,-1,204,205,200,-1,200,205,201,-1,206,207,204,-1,204,207,205,-1,208,209,206,-1,206,209,207,-1,210,211,208,-1,208,211,209,-1,210,202,211,-1,211,202,203,-1,211,203,209,-1,209,203,201,-1,209,201,207,-1,207,201,205,-1,
        ]
    }
}
Shape{
    appearance Appearance {
        material  Material 	{
            diffuseColor 0.6470588235294118 0.6470588235294118 0.6470588235294118
            specularColor 0.5686274509803921 0.5686274509803921 0.5686274509803921
            ambientIntensity 0.6471
            transparency 0.0
            shininess 0.5
        }
    }
    geometry IndexedFaceSet {
        ccw TRUE
        solid FALSE
        coord DEF co Coordinate {
            point [
                0.1911 -0.0461 0.0197, 0.2306 -0.0461 0.0197, 0.2087 -0.0954 0.0197, 0.2128 -0.0954 0.0197, 0.2098 -0.0995 0.0197, 0.2117 -0.0996 0.0197, 0.2106 -0.1037 0.0197, 0.0881 -0.1051 0.0197, 0.0707 -0.1051 0.0197, 0.1318 -0.046 0.0197, 0.1293 -0.037 0.0197, 0.1107 -0.1006 0.0197, 0.1019 -0.103 0.0197, 0.1301 -0.0762 0.0197, 0.134 -0.0602 0.0197, 0.0707 -0.013 0.0197, 0.0874 -0.013 0.0197, 0.104 -0.017 0.0197, 0.1161 -0.0219 0.0197, 0.1223 -0.0263 0.0197, 0.1262 -0.0308 0.0197, 0.1166 -0.0976 0.0197, 0.1253 -0.0879 0.0197, 0.121 -0.0939 0.0197
            ]
        }
        coordIndex [
            0,1,2,-1,2,1,3,-1,2,3,4,-1,4,3,5,-1,4,5,6,-1,7,8,9,-1,9,8,10,-1,11,12,13,-1,7,9,12,-1,12,9,14,-1,12,14,13,-1,15,16,8,-1,8,16,17,-1,8,17,18,-1,18,19,8,-1,8,19,20,-1,8,20,10,-1,11,13,21,-1,21,13,22,-1,21,22,23,-1,
        ]
    }
}