#VRML V2.0 utf8
# 3D model generated by easyeda2kicad.py (https://github.com/uPesy/easyeda2kicad.py)

Shape{
    appearance Appearance {
        material  Material 	{
            diffuseColor 1.0 1.0 1.0
            specularColor 0.5019607843137255 0.5019607843137255 0.5019607843137255
            ambientIntensity 1.0
            transparency 0.0
            shininess 0.5
        }
    }
    geometry IndexedFaceSet {
        ccw TRUE
        solid FALSE
        coord DEF co Coordinate {
            point [
                2.6476 0.9843 0.4331, 2.6083 0.9843 0.4331, 2.6476 0.3937 0.4331, 2.6083 0.3937 0.4331, 1.8602 0.9843 0.0, 2.6476 0.9843 0.0, 1.8602 -0.9843 0.0, 2.6476 -0.9843 0.0, 1.8602 0.9843 0.0394, 1.8602 -0.9843 0.0394, 2.6083 0.9843 0.0394, 2.6083 -0.9843 0.0394, 2.6083 0.3937 0.2362, 2.6083 -0.3937 0.2362, 2.6083 -0.3937 0.4331, 2.6083 -0.9843 0.4331, 2.6476 -0.9843 0.4331, 2.6476 -0.3937 0.4331, 2.6476 -0.3937 0.2362, 2.6476 0.3937 0.2362, -2.6083 0.9843 0.4331, -2.6476 0.9843 0.4331, -2.6083 0.3937 0.4331, -2.6476 0.3937 0.4331, -2.6476 0.9843 0.0, -1.8602 0.9843 0.0, -2.6476 -0.9843 0.0, -1.8602 -0.9843 0.0, -1.8602 0.9843 0.0394, -1.8602 -0.9843 0.0394, -2.6083 0.9843 0.0394, -2.6083 -0.9843 0.0394, -2.6083 -0.3937 0.4331, -2.6083 -0.9843 0.4331, -2.6083 -0.3937 0.2362, -2.6083 0.3937 0.2362, -2.6476 -0.9843 0.4331, -2.6476 -0.3937 0.4331, -2.6476 0.3937 0.2362, -2.6476 -0.3937 0.2362
            ]
        }
        coordIndex [
            0,1,2,-1,2,1,3,-1,4,5,6,-1,6,5,7,-1,8,4,9,-1,9,4,6,-1,10,8,11,-1,11,8,9,-1,3,1,12,-1,12,1,10,-1,12,10,13,-1,13,10,11,-1,13,11,14,-1,14,11,15,-1,15,16,14,-1,14,16,17,-1,17,16,18,-1,18,16,7,-1,18,7,19,-1,19,7,5,-1,19,5,2,-1,2,5,0,-1,1,0,10,-1,10,0,5,-1,10,5,8,-1,8,5,4,-1,9,6,11,-1,11,6,7,-1,11,7,15,-1,15,7,16,-1,19,2,12,-1,12,2,3,-1,18,19,13,-1,13,19,12,-1,17,18,14,-1,14,18,13,-1,20,21,22,-1,22,21,23,-1,24,25,26,-1,26,25,27,-1,25,28,27,-1,27,28,29,-1,28,30,29,-1,29,30,31,-1,32,33,34,-1,34,33,31,-1,34,31,35,-1,35,31,30,-1,35,30,22,-1,22,30,20,-1,36,33,37,-1,37,33,32,-1,23,21,38,-1,38,21,24,-1,38,24,39,-1,39,24,26,-1,39,26,37,-1,37,26,36,-1,28,25,30,-1,30,25,24,-1,30,24,20,-1,20,24,21,-1,33,36,31,-1,31,36,26,-1,31,26,29,-1,29,26,27,-1,23,38,22,-1,22,38,35,-1,38,39,35,-1,35,39,34,-1,39,37,34,-1,34,37,32,-1,
        ]
    }
}
Shape{
    appearance Appearance {
        material  Material 	{
            diffuseColor 0.7529411764705882 0.7529411764705882 0.7529411764705882
            specularColor 0.3764705882352941 0.3764705882352941 0.3764705882352941
            ambientIntensity 0.7529
            transparency 0.0
            shininess 0.5
        }
    }
    geometry IndexedFaceSet {
        ccw TRUE
        solid FALSE
        coord DEF co Coordinate {
            point [
                -2.6083 2.0866 1.8937, -2.6083 1.3042 1.8937, -2.2146 2.4803 1.8937, -0.9267 1.2533 1.8937, -0.8569 1.3042 1.8937, -1.2728 1.3042 1.8937, 0.8289 0.1087 1.8937, 0.5061 0.1087 1.8937, 0.5061 -0.0397 1.8937, -0.2716 1.297 1.8937, 0.2108 1.297 1.8937, 0.2108 1.3042 1.8937, 0.0332 0.8295 1.8937, 0.1271 0.8066 1.8937, 0.2108 1.1673 1.8937, -0.0623 0.836 1.8937, -0.1467 1.1673 1.8937, -0.1717 0.8315 1.8937, 0.4196 0.1087 1.8937, 0.4196 1.3042 1.8937, 0.2893 1.1673 1.8937, 0.2893 1.297 1.8937, 0.3381 0.3937 1.8937, 0.3122 0.3156 1.8937, 0.2033 0.769 1.8937, 0.2108 0.7629 1.8937, 0.2603 0.7222 1.8937, 0.3021 0.6672 1.8937, 0.3314 0.599 1.8937, 0.3459 0.5105 1.8937, 0.3469 0.4836 1.8937, -0.2948 0.1313 1.8937, -0.3301 0.1476 1.8937, -0.3366 0.1087 1.8937, -0.3301 0.2923 1.8937, -0.3366 1.3042 1.8937, -0.1145 0.7064 1.8937, -0.2152 0.7042 1.8937, -0.2277 0.2513 1.8937, -0.0112 0.6971 1.8937, 0.1884 0.4739 1.8937, -0.3157 0.6965 1.8937, -0.1216 0.2323 1.8937, -0.0864 0.2311 1.8937, -0.0088 0.2385 1.8937, 0.1386 0.6178 1.8937, 0.1021 0.6504 1.8937, 0.1662 0.5768 1.8937, 0.1817 0.534 1.8937, 0.0632 0.6731 1.8937, 0.1436 0.3307 1.8937, 0.1693 0.3744 1.8937, 0.1845 0.426 1.8937, 0.0533 0.2589 1.8937, 0.1064 0.2923 1.8937, 0.0003 0.1087 1.8937, -0.0801 0.1015 1.8937, -0.3366 -0.0397 1.8937, -0.1889 0.1087 1.8937, -0.2081 0.1099 1.8937, 0.2646 0.2412 1.8937, 0.2108 0.1913 1.8937, 0.2108 0.1087 1.8937, 0.2009 0.1821 1.8937, 0.1234 0.1382 1.8937, 0.2108 -0.0397 1.8937, 0.0337 0.1117 1.8937, 1.0068 1.3028 1.8937, 1.0775 1.2786 1.8937, 2.6083 1.3042 1.8937, 1.1216 0.1787 1.8937, 1.0588 0.1372 1.8937, 2.6083 0.1087 1.8937, 1.1806 0.2422 1.8937, 1.1391 1.2381 1.8937, 1.1869 1.1865 1.8937, 1.2353 1.1009 1.8937, 1.2919 0.5818 1.8937, 1.2705 0.4472 1.8937, 1.2349 0.3379 1.8937, 1.2717 0.985 1.8937, 1.2935 0.8297 1.8937, 1.2975 0.7114 1.8937, 0.5061 1.3042 1.8937, 0.8611 1.3042 1.8937, 0.5061 2.4803 1.8937, 0.923 1.3114 1.8937, 0.9936 1.3042 1.8937, 2.3165 2.4669 1.8937, 2.2146 2.4803 1.8937, 2.6083 2.0866 1.8937, 2.5949 2.1885 1.8937, 2.5555 2.2835 1.8937, 2.493 2.365 1.8937, 2.4114 2.4276 1.8937, 0.6879 1.2283 1.8937, 0.7509 1.272 1.8937, 0.824 1.2998 1.8937, 0.8135 0.1103 1.8937, 0.7447 0.1347 1.8937, 0.6854 0.1739 1.8937, 0.5458 0.9566 1.8937, 0.5804 1.0693 1.8937, 0.6322 1.1656 1.8937, 0.6271 0.2374 1.8937, 0.5772 0.3281 1.8937, 0.5457 0.4278 1.8937, 0.5234 0.5773 1.8937, 0.5197 0.6835 1.8937, 0.5252 0.8176 1.8937, 2.6083 -0.0397 1.8937, 0.9852 0.1111 1.8937, 0.9627 0.1087 1.8937, 0.8965 0.1015 1.8937, -0.0693 -1.3764 1.8937, -0.3366 -1.3836 1.8937, 0.2108 -1.3836 1.8937, -0.343 -0.3682 1.8937, -0.3366 -0.3658 1.8937, -0.2014 -0.3153 1.8937, -0.061 -0.239 1.8937, 0.0187 -0.1809 1.8937, 0.0747 -0.1809 1.8937, 0.0747 -1.3764 1.8937, -0.0693 -0.3731 1.8937, -0.1514 -0.4315 1.8937, -0.282 -0.4933 1.8937, -0.3366 -0.5102 1.8937, -0.4582 -1.3836 1.8937, -0.343 -0.5122 1.8937, -0.4582 -0.0397 1.8937, 0.4196 -1.3836 1.8937, 0.5061 -1.3836 1.8937, 0.4924 -1.3764 1.8937, 0.5061 -1.3764 1.8937, 0.4924 -1.3179 1.8937, 0.4992 -1.2248 1.8937, 0.4196 -0.0397 1.8937, 0.5222 -1.1407 1.8937, 0.564 -1.0657 1.8937, 0.5356 -0.4541 1.8937, 0.6351 -0.9849 1.8937, 0.5356 -0.3097 1.8937, 0.5061 -1.1997 1.8937, 1.227 -1.3764 1.8937, 2.6083 -1.3836 1.8937, 1.227 -1.2468 1.8937, 1.1594 -0.6843 1.8937, 1.0781 -0.2489 1.8937, 1.1319 -0.2987 1.8937, 1.1663 -0.351 1.8937, 1.1886 -0.4118 1.8937, 1.1079 -0.7651 1.8937, 1.1003 -0.7743 1.8937, 1.0093 -0.8616 1.8937, 1.1982 -0.4974 1.8937, 1.1893 -0.5933 1.8937, 1.0295 -0.6293 1.8937, 1.0471 -0.5752 1.8937, 0.6574 -0.3582 1.8937, 0.6069 -0.2481 1.8937, 0.6955 -0.2032 1.8937, 0.789 -0.1833 1.8937, 0.9342 -0.9178 1.8937, 0.7684 -1.0378 1.8937, 0.6939 -1.1078 1.8937, 0.7597 -0.8837 1.8937, 0.8131 -0.8457 1.8937, 0.5777 -0.4139 1.8937, 0.9295 -0.7554 1.8937, 0.9952 -0.6866 1.8937, 1.0542 -0.5088 1.8937, 1.0489 -0.4577 1.8937, 1.0354 -0.4185 1.8937, 0.9506 -0.3356 1.8937, 0.8951 -0.317 1.8937, 0.8268 -0.3106 1.8937, 0.7383 -0.3236 1.8937, 0.8413 -0.1809 1.8937, 0.9305 -0.1883 1.8937, 1.0121 -0.2119 1.8937, 0.6669 -1.149 1.8937, 0.6526 -1.1912 1.8937, 0.6473 -1.2468 1.8937, 1.0145 -0.3854 1.8937, 0.9871 -0.3587 1.8937, -1.2728 2.4803 1.8937, -0.8471 1.3114 1.8937, -0.4582 2.4803 1.8937, -0.791 1.3114 1.8937, -0.4582 1.3042 1.8937, -0.791 1.3042 1.8937, -0.4582 0.1087 1.8937, -0.791 0.1159 1.8937, -1.0671 1.177 1.8937, -0.9351 1.1192 1.8937, -1.0171 1.0607 1.8937, -0.9351 0.1159 1.8937, -1.1477 0.999 1.8937, -1.2728 0.1087 1.8937, -1.2087 0.9801 1.8937, -1.2087 1.1241 1.8937, -2.4114 2.4276 1.8937, -2.493 2.365 1.8937, -2.5555 2.2835 1.8937, -2.3165 2.4669 1.8937, -2.5949 2.1885 1.8937, 0.5061 -2.4803 1.8937, 2.2146 -2.4803 1.8937, 2.6083 -2.0866 1.8937, 2.3165 -2.4669 1.8937, 2.4114 -2.4276 1.8937, 2.493 -2.365 1.8937, 2.5949 -2.1885 1.8937, 2.5555 -2.2835 1.8937, -2.2146 -2.4803 1.8937, -2.6083 -2.0866 1.8937, -2.5949 -2.1885 1.8937, -2.5555 -2.2835 1.8937, -2.493 -2.365 1.8937, -2.3165 -2.4669 1.8937, -2.4114 -2.4276 1.8937, -1.2728 -0.4325 1.8937, -1.2688 -0.4029 1.8937, -1.2728 -0.0397 1.8937, -1.243 -0.341 1.8937, -1.2013 -0.2846 1.8937, -0.6399 -0.6138 1.8937, -0.7017 -0.7775 1.8937, -0.6117 -0.5492 1.8937, -0.6457 -0.8344 1.8937, -0.8528 -0.19 1.8937, -0.7714 -0.2181 1.8937, -0.681 -0.668 1.8937, -0.741 -0.7185 1.8937, -0.7708 -0.7368 1.8937, -0.8709 -1.3836 1.8937, -0.7834 -1.3587 1.8937, -0.7131 -1.3211 1.8937, -0.9412 -0.1809 1.8937, -0.7062 -0.2594 1.8937, -0.6601 -0.3071 1.8937, -0.6251 -0.3668 1.8937, -0.5831 -1.1308 1.8937, -0.6087 -1.2011 1.8937, -0.6529 -1.2675 1.8937, -1.1462 -0.239 1.8937, -1.0794 -0.2052 1.8937, -0.9933 -0.1841 1.8937, -0.6023 -0.4805 1.8937, -0.6069 -0.4267 1.8937, -0.5994 -0.9141 1.8937, -0.578 -0.9884 1.8937, -0.5735 -1.0451 1.8937, -1.2763 -0.5188 1.8937, -1.2792 -0.4805 1.8937, -2.6083 -0.0397 1.8937, -1.3262 -0.9649 1.8937, -1.3369 -1.0451 1.8937, -2.6083 -1.3836 1.8937, -1.3285 -1.1244 1.8937, -1.2728 -0.532 1.8937, -1.2994 -0.8991 1.8937, -1.2728 -0.8618 1.8937, -1.2515 -0.832 1.8937, -1.2616 -0.5736 1.8937, -1.1863 -0.7756 1.8937, -1.1091 -0.7368 1.8937, -1.1805 -0.6867 1.8937, -1.2312 -0.6298 1.8937, -1.0329 -1.3836 1.8937, -1.048 -1.3822 1.8937, -1.2728 -1.3836 1.8937, -1.1379 -1.3538 1.8937, -1.2099 -1.311 1.8937, -1.2592 -1.2639 1.8937, -1.2728 -1.2432 1.8937, -1.3024 -1.1981 1.8937, -0.9556 -1.3908 1.8937, -1.2728 -2.4803 1.8937, -0.8727 -1.3842 1.8937, -0.4582 -2.4803 1.8937, 0.4196 2.4803 1.8937, 0.2108 2.4803 1.8937, -0.3366 2.4803 1.8937, -2.6083 0.1087 1.8937, -0.3366 -2.4803 1.8937, 0.2108 -2.4803 1.8937, 0.4196 -2.4803 1.8937, 0.0544 -0.0645 0.0039, 0.0591 -0.0651 0.0039, -0.0681 -2.4803 0.0039, 1.624 -1.1811 0.0039, 2.6083 -1.1811 0.0039, 2.6083 -2.0866 0.0039, 2.2146 -2.4803 0.0039, 0.0624 -0.0652 0.0039, 1.624 -0.0645 0.0039, 2.5555 -2.2835 0.0039, 2.493 -2.365 0.0039, 2.5949 -2.1885 0.0039, 2.4114 -2.4276 0.0039, 2.3165 -2.4669 0.0039, -0.0681 -0.0645 0.0039, -0.0565 -0.0637 0.0039, 0.0068 -0.0637 0.0039, -0.0537 0.0414 0.0039, -0.009 0.0414 0.0039, -0.009 0.0025 0.0039, 0.0299 -0.0576 0.0039, 0.0299 -0.0447 0.0039, 0.0068 0.0544 0.0039, 0.0425 -0.0628 0.0039, 1.624 1.1811 0.0039, -0.0681 2.4803 0.0039, 2.6083 1.1811 0.0039, 2.2146 2.4803 0.0039, 2.6083 2.0866 0.0039, -0.009 -0.0104 0.0039, -0.009 -0.0508 0.0039, -0.0508 -0.0104 0.0039, -0.0565 -0.0508 0.0039, -0.0508 0.0025 0.0039, 2.4114 2.4276 0.0039, 2.493 2.365 0.0039, 2.5555 2.2835 0.0039, 2.3165 2.4669 0.0039, 2.5949 2.1885 0.0039, 0.1883 -0.0637 0.0039, 0.0693 -0.0645 0.0039, 0.1278 -0.0637 0.0039, 0.0769 -0.0637 0.0039, 0.0884 -0.0597 0.0039, 0.1883 0.0544 0.0039, 0.1725 0.0544 0.0039, 0.0692 0.0415 0.0039, 0.078 0.0384 0.0039, 0.032 -0.0458 0.0039, 0.0862 0.0329 0.0039, 0.0933 0.025 0.0039, 0.1019 -0.0059 0.0039, 0.1007 -0.0187 0.0039, 0.0975 -0.0289 0.0039, 0.0712 -0.051 0.0039, 0.0602 -0.0522 0.0039, 0.0798 -0.0478 0.0039, 0.0871 -0.0429 0.0039, 0.0926 -0.0371 0.0039, 0.0445 -0.0505 0.0039, 0.0982 0.0159 0.0039, 0.1013 0.0032 0.0039, 0.0939 0.0446 0.0039, 0.1046 0.0343 0.0039, 0.1115 0.0233 0.0039, -0.0537 0.0544 0.0039, 0.0979 -0.0537 0.0039, 0.1067 -0.0443 0.0039, 0.1278 -0.0508 0.0039, 0.113 -0.0331 0.0039, 0.1725 -0.0508 0.0039, 0.0827 0.051 0.0039, 0.0695 0.0548 0.0039, 0.0577 0.0558 0.0039, 0.1166 -0.0206 0.0039, 0.1177 -0.0069 0.0039, 0.116 0.0099 0.0039, 0.0435 0.0548 0.0039, 0.0299 0.0511 0.0039, 0.0299 0.0353 0.0039, 0.0432 0.041 0.0039, 0.0575 0.0429 0.0039, -0.1117 -0.0637 0.0039, -0.0796 -0.0637 0.0039, -0.0796 0.0544 0.0039, -0.2899 -0.0637 0.0039, -0.2726 -0.0637 0.0039, -0.1833 -0.0637 0.0039, -0.1688 -0.0314 0.0039, -0.162 -0.0419 0.0039, -1.624 1.1811 0.0039, -2.2146 2.4803 0.0039, -2.6083 1.1811 0.0039, -0.1523 -0.0512 0.0039, -0.1399 -0.0584 0.0039, -0.1263 -0.0625 0.0039, -0.228 0.0544 0.0039, -0.2438 0.0544 0.0039, -1.624 -0.0645 0.0039, -2.6083 2.0866 0.0039, -2.5949 2.1885 0.0039, -2.5555 2.2835 0.0039, -0.2006 -0.0637 0.0039, -0.2119 -0.0306 0.0039, -0.2607 -0.0306 0.0039, -0.13 0.0526 0.0039, -0.1438 0.0477 0.0039, -0.1567 0.0391 0.0039, -0.1129 0.0544 0.0039, -2.493 2.365 0.0039, -2.4114 2.4276 0.0039, -2.3165 2.4669 0.0039, -0.1568 0.039 0.0039, -0.1651 0.0297 0.0039, -0.1706 0.0196 0.0039, -0.1738 0.0079 0.0039, -0.1747 -0.0032 0.0039, -0.173 -0.019 0.0039, -1.624 -1.1811 0.0039, -2.6083 -1.1811 0.0039, -2.2146 -2.4803 0.0039, -2.6083 -2.0866 0.0039, -2.5949 -2.1885 0.0039, -2.3165 -2.4669 0.0039, -2.4114 -2.4276 0.0039, -2.493 -2.365 0.0039, -2.5555 -2.2835 0.0039, -2.6083 1.1811 0.0394, -2.6083 -1.1811 0.0394, 2.6083 -1.1811 0.0394, 2.6083 1.1811 0.0394, 1.624 -1.1811 0.0394, 1.624 1.1811 0.0394, -1.624 -1.1811 0.0394, -1.624 1.1811 0.0394
            ]
        }
        coordIndex [
            0,1,2,-1,3,4,5,-1,6,7,8,-1,9,10,11,-1,12,13,14,-1,12,14,15,-1,15,14,16,-1,15,16,17,-1,18,19,20,-1,20,19,21,-1,22,23,18,-1,13,24,14,-1,14,24,25,-1,14,25,20,-1,20,25,26,-1,20,26,27,-1,27,28,20,-1,20,28,29,-1,20,29,18,-1,18,29,30,-1,18,30,22,-1,31,32,33,-1,33,32,34,-1,33,34,35,-1,36,37,38,-1,39,36,40,-1,38,37,34,-1,34,37,41,-1,34,41,35,-1,38,42,36,-1,36,42,43,-1,36,43,44,-1,45,46,47,-1,47,46,48,-1,48,46,40,-1,40,46,49,-1,40,49,39,-1,50,51,36,-1,36,51,52,-1,36,52,40,-1,44,53,36,-1,36,53,54,-1,36,54,50,-1,55,56,57,-1,57,56,58,-1,57,58,33,-1,33,58,59,-1,33,59,31,-1,60,61,62,-1,62,61,63,-1,62,63,64,-1,57,65,55,-1,55,65,62,-1,55,62,66,-1,66,62,64,-1,67,68,69,-1,70,71,72,-1,70,72,73,-1,68,74,69,-1,69,74,75,-1,69,75,76,-1,77,78,72,-1,72,78,79,-1,72,79,73,-1,76,80,69,-1,69,80,81,-1,69,81,72,-1,72,81,82,-1,72,82,77,-1,83,84,85,-1,85,84,86,-1,85,86,87,-1,88,89,90,-1,90,89,85,-1,90,85,69,-1,69,85,87,-1,69,87,67,-1,90,91,92,-1,92,93,90,-1,90,93,94,-1,90,94,88,-1,95,96,83,-1,83,96,97,-1,83,97,84,-1,6,98,7,-1,7,98,99,-1,7,99,100,-1,101,102,83,-1,83,102,103,-1,83,103,95,-1,100,104,7,-1,7,104,105,-1,7,105,106,-1,106,107,7,-1,7,107,108,-1,7,108,83,-1,83,108,109,-1,83,109,101,-1,8,110,72,-1,71,111,72,-1,72,111,112,-1,72,112,8,-1,8,112,113,-1,8,113,6,-1,114,115,116,-1,117,118,57,-1,57,118,119,-1,119,120,57,-1,57,120,121,-1,57,121,65,-1,65,121,122,-1,65,122,116,-1,116,122,123,-1,116,123,114,-1,124,125,114,-1,114,125,126,-1,114,126,115,-1,115,126,127,-1,115,127,128,-1,128,127,129,-1,128,129,130,-1,131,132,133,-1,133,132,134,-1,133,135,131,-1,131,135,136,-1,131,136,137,-1,138,139,140,-1,140,139,141,-1,142,8,140,-1,140,8,143,-1,140,143,138,-1,134,132,144,-1,144,132,145,-1,144,145,146,-1,146,145,110,-1,146,110,147,-1,148,149,110,-1,110,149,150,-1,110,150,151,-1,147,152,146,-1,146,152,153,-1,146,153,154,-1,151,155,110,-1,110,155,156,-1,110,156,147,-1,157,158,159,-1,142,160,8,-1,8,160,161,-1,8,161,162,-1,154,163,146,-1,146,163,164,-1,146,164,165,-1,141,166,140,-1,140,166,167,-1,140,167,168,-1,168,167,169,-1,168,169,159,-1,159,169,170,-1,159,170,157,-1,158,171,159,-1,159,171,172,-1,159,172,173,-1,174,175,159,-1,159,175,176,-1,159,176,177,-1,162,178,8,-1,8,178,179,-1,8,179,110,-1,110,179,180,-1,110,180,148,-1,165,181,146,-1,146,181,182,-1,146,182,183,-1,173,184,159,-1,159,184,185,-1,159,185,174,-1,186,187,188,-1,188,187,189,-1,188,189,190,-1,190,189,191,-1,190,191,192,-1,192,191,193,-1,3,5,194,-1,195,196,197,-1,197,196,198,-1,197,198,199,-1,199,198,200,-1,199,200,5,-1,5,200,201,-1,5,201,194,-1,2,1,186,-1,202,203,204,-1,2,205,0,-1,0,205,202,-1,0,202,206,-1,206,202,204,-1,207,208,209,-1,209,208,210,-1,210,211,209,-1,209,211,212,-1,209,212,213,-1,213,212,214,-1,215,216,217,-1,217,218,215,-1,215,218,219,-1,215,219,220,-1,220,219,221,-1,222,223,224,-1,224,223,225,-1,224,225,226,-1,227,228,229,-1,229,228,230,-1,231,232,130,-1,227,233,228,-1,228,233,234,-1,228,234,235,-1,236,128,237,-1,237,128,238,-1,231,130,239,-1,232,240,130,-1,130,240,241,-1,130,241,242,-1,243,244,128,-1,128,244,245,-1,128,245,238,-1,226,246,224,-1,224,246,247,-1,224,247,248,-1,229,128,249,-1,249,128,130,-1,249,130,250,-1,250,130,242,-1,230,251,229,-1,229,251,252,-1,229,252,128,-1,128,252,253,-1,128,253,243,-1,254,255,256,-1,257,256,258,-1,258,256,259,-1,258,259,260,-1,254,256,261,-1,257,262,256,-1,256,262,263,-1,256,263,261,-1,261,263,264,-1,261,264,265,-1,265,264,266,-1,267,268,266,-1,266,268,269,-1,266,269,265,-1,270,271,272,-1,272,271,273,-1,272,273,274,-1,274,275,272,-1,272,275,276,-1,272,276,259,-1,259,276,277,-1,259,277,260,-1,278,279,280,-1,280,279,281,-1,280,281,236,-1,278,270,279,-1,279,270,272,-1,279,272,215,-1,215,272,259,-1,215,259,216,-1,282,283,19,-1,19,283,11,-1,19,11,21,-1,21,11,10,-1,283,284,11,-1,11,284,35,-1,11,35,9,-1,9,35,41,-1,85,282,83,-1,83,282,19,-1,83,19,7,-1,7,19,18,-1,7,18,8,-1,8,18,137,-1,8,137,143,-1,143,137,136,-1,284,188,35,-1,35,188,190,-1,35,190,33,-1,33,190,192,-1,33,192,57,-1,57,192,130,-1,57,130,117,-1,117,130,129,-1,193,197,192,-1,192,197,199,-1,192,199,130,-1,130,199,224,-1,130,224,239,-1,239,224,248,-1,255,222,256,-1,256,222,224,-1,256,224,285,-1,285,224,199,-1,285,199,1,-1,1,199,5,-1,1,5,186,-1,186,5,4,-1,186,4,187,-1,23,60,18,-1,18,60,62,-1,18,62,137,-1,137,62,65,-1,137,65,131,-1,131,65,116,-1,236,281,128,-1,128,281,286,-1,128,286,115,-1,115,286,287,-1,115,287,116,-1,116,287,288,-1,116,288,131,-1,131,288,207,-1,131,207,132,-1,132,207,209,-1,132,209,145,-1,289,290,291,-1,292,293,291,-1,291,293,294,-1,291,294,295,-1,291,290,292,-1,292,290,296,-1,292,296,297,-1,298,299,300,-1,300,299,301,-1,300,301,294,-1,294,301,302,-1,294,302,295,-1,303,304,305,-1,306,307,308,-1,309,305,310,-1,310,305,311,-1,291,303,289,-1,289,303,305,-1,289,305,312,-1,312,305,309,-1,313,314,315,-1,315,314,316,-1,315,316,317,-1,318,319,320,-1,320,319,321,-1,320,321,322,-1,323,324,325,-1,316,326,317,-1,317,326,323,-1,317,323,327,-1,327,323,325,-1,328,329,330,-1,330,329,331,-1,330,331,332,-1,296,329,297,-1,297,329,328,-1,297,328,313,-1,313,328,333,-1,313,333,314,-1,314,333,334,-1,335,336,337,-1,337,336,338,-1,337,338,339,-1,340,341,337,-1,337,341,342,-1,343,344,345,-1,345,344,346,-1,342,347,337,-1,337,347,346,-1,337,346,348,-1,348,346,344,-1,339,349,337,-1,337,349,350,-1,337,350,340,-1,351,314,352,-1,352,314,334,-1,352,334,353,-1,308,322,306,-1,306,322,321,-1,306,321,354,-1,354,321,314,-1,354,314,311,-1,332,355,330,-1,330,355,356,-1,330,356,357,-1,357,356,358,-1,357,358,359,-1,351,360,314,-1,314,360,361,-1,314,361,362,-1,358,363,359,-1,359,363,364,-1,359,364,334,-1,334,364,365,-1,334,365,353,-1,362,366,314,-1,314,366,367,-1,314,367,311,-1,311,367,368,-1,311,368,310,-1,310,368,369,-1,310,369,337,-1,337,369,370,-1,337,370,335,-1,371,372,303,-1,303,372,373,-1,374,375,303,-1,376,377,378,-1,314,379,380,-1,380,379,381,-1,378,382,376,-1,376,382,383,-1,376,383,384,-1,385,386,379,-1,379,386,387,-1,381,388,380,-1,380,388,389,-1,380,389,390,-1,384,371,376,-1,376,371,303,-1,376,303,391,-1,391,303,375,-1,391,375,392,-1,392,375,393,-1,394,395,385,-1,385,395,396,-1,394,385,397,-1,397,385,379,-1,397,379,373,-1,373,379,314,-1,373,314,303,-1,303,314,321,-1,303,321,304,-1,390,398,380,-1,380,398,399,-1,380,399,400,-1,396,401,385,-1,385,401,402,-1,385,402,403,-1,403,404,385,-1,385,404,405,-1,385,405,376,-1,376,405,406,-1,376,406,377,-1,386,374,387,-1,387,374,303,-1,387,303,407,-1,407,303,291,-1,407,291,408,-1,408,291,409,-1,408,409,410,-1,410,409,411,-1,412,413,414,-1,412,414,409,-1,409,414,415,-1,409,415,411,-1,388,381,0,-1,0,381,416,-1,0,416,1,-1,408,410,417,-1,417,410,216,-1,216,259,417,-1,417,259,256,-1,417,256,416,-1,416,256,285,-1,416,285,1,-1,294,293,209,-1,209,293,418,-1,209,418,145,-1,315,317,419,-1,419,317,90,-1,90,69,419,-1,419,69,72,-1,419,72,418,-1,418,72,110,-1,418,110,145,-1,2,186,380,-1,380,186,188,-1,380,188,314,-1,314,188,284,-1,314,284,283,-1,89,316,85,-1,85,316,314,-1,85,314,282,-1,282,314,283,-1,295,208,291,-1,291,208,207,-1,207,288,291,-1,291,288,287,-1,291,287,286,-1,215,409,279,-1,279,409,291,-1,279,291,281,-1,281,291,286,-1,420,421,418,-1,418,421,419,-1,420,418,292,-1,292,418,293,-1,421,313,419,-1,419,313,315,-1,313,421,297,-1,297,421,420,-1,297,420,292,-1,417,422,408,-1,408,422,407,-1,407,422,387,-1,387,422,423,-1,387,423,379,-1,423,416,379,-1,379,416,381,-1,416,423,417,-1,417,423,422,-1,216,410,411,-1,216,411,217,-1,217,411,415,-1,217,415,218,-1,218,415,414,-1,218,414,219,-1,219,414,413,-1,219,413,221,-1,221,413,412,-1,221,412,220,-1,220,412,409,-1,220,409,215,-1,2,380,400,-1,2,400,205,-1,205,400,399,-1,205,399,202,-1,202,399,398,-1,202,398,203,-1,203,398,390,-1,203,390,204,-1,204,390,389,-1,204,389,206,-1,206,389,388,-1,206,388,0,-1,208,295,302,-1,208,302,210,-1,210,302,301,-1,210,301,211,-1,211,301,299,-1,211,299,212,-1,212,299,298,-1,212,298,214,-1,214,298,300,-1,214,300,213,-1,213,300,294,-1,213,294,209,-1,90,317,327,-1,90,327,91,-1,91,327,325,-1,91,325,92,-1,92,325,324,-1,92,324,93,-1,93,324,323,-1,93,323,94,-1,94,323,326,-1,94,326,88,-1,88,326,316,-1,88,316,89,-1,
        ]
    }
}
Shape{
    appearance Appearance {
        material  Material 	{
            diffuseColor 0.0 0.0 0.0
            specularColor 0.0 0.0 0.0
            ambientIntensity 0.0
            transparency 0.0
            shininess 0.5
        }
    }
    geometry IndexedFaceSet {
        ccw TRUE
        solid FALSE
        coord DEF co Coordinate {
            point [
                -0.2438 0.0544 0.0043, -0.2899 -0.0637 0.0043, -0.2438 0.0544 0.0039, -0.2899 -0.0637 0.0039, -0.2726 -0.0637 0.0043, -0.2726 -0.0637 0.0039, -0.2607 -0.0306 0.0043, -0.2607 -0.0306 0.0039, -0.2119 -0.0306 0.0043, -0.2119 -0.0306 0.0039, -0.2006 -0.0637 0.0043, -0.2006 -0.0637 0.0039, -0.1833 -0.0637 0.0043, -0.1833 -0.0637 0.0039, -0.228 0.0544 0.0043, -0.228 0.0544 0.0039, -0.2158 -0.0176 0.0043, -0.2553 -0.0176 0.0043, -0.2335 0.0317 0.0043, -0.2346 0.0358 0.0043, -0.2354 0.04 0.0043, -0.2357 0.04 0.0043, -0.2365 0.0358 0.0043, -0.2376 0.0317 0.0043, -0.2158 -0.0176 0.0039, -0.2553 -0.0176 0.0039, -0.2335 0.0317 0.0039, -0.2346 0.0358 0.0039, -0.2354 0.04 0.0039, -0.2357 0.04 0.0039, -0.2365 0.0358 0.0039, -0.2376 0.0317 0.0039, -0.1117 -0.0637 0.0043, -0.0796 -0.0637 0.0043, -0.1117 -0.0637 0.0039, -0.0796 -0.0637 0.0039, -0.0796 0.0544 0.0043, -0.0796 0.0544 0.0039, -0.1129 0.0544 0.0043, -0.1129 0.0544 0.0039, -0.1747 -0.0032 0.0043, -0.1747 -0.0032 0.0039, -0.1738 0.0079 0.0039, -0.1738 0.0079 0.0043, -0.1706 0.0196 0.0039, -0.1706 0.0196 0.0043, -0.1651 0.0297 0.0039, -0.1651 0.0297 0.0043, -0.1568 0.039 0.0039, -0.1568 0.039 0.0043, -0.1567 0.0391 0.0039, -0.1567 0.0391 0.0043, -0.1438 0.0477 0.0039, -0.1438 0.0477 0.0043, -0.13 0.0526 0.0039, -0.13 0.0526 0.0043, -0.1263 -0.0625 0.0039, -0.1263 -0.0625 0.0043, -0.1399 -0.0584 0.0039, -0.1399 -0.0584 0.0043, -0.1523 -0.0512 0.0039, -0.1523 -0.0512 0.0043, -0.162 -0.0419 0.0039, -0.162 -0.0419 0.0043, -0.1688 -0.0314 0.0039, -0.1688 -0.0314 0.0043, -0.173 -0.019 0.0039, -0.173 -0.019 0.0043, -0.151 0.0248 0.0043, -0.1452 0.0309 0.0043, -0.1366 0.0365 0.0043, -0.1268 0.0399 0.0043, -0.1129 0.0414 0.0043, -0.0954 0.0414 0.0043, -0.0954 -0.0508 0.0043, -0.1122 -0.0508 0.0043, -0.1247 -0.0496 0.0043, -0.1346 -0.0465 0.0043, -0.1427 -0.0417 0.0043, -0.1493 -0.0352 0.0043, -0.1543 -0.027 0.0043, -0.1577 -0.0159 0.0043, -0.1588 -0.0035 0.0043, -0.1578 0.0082 0.0043, -0.1551 0.0176 0.0043, -0.1129 0.0414 0.0039, -0.0954 0.0414 0.0039, -0.1268 0.0399 0.0039, -0.1366 0.0365 0.0039, -0.1452 0.0309 0.0039, -0.151 0.0248 0.0039, -0.1551 0.0176 0.0039, -0.1578 0.0082 0.0039, -0.1588 -0.0035 0.0039, -0.1577 -0.0159 0.0039, -0.1543 -0.027 0.0039, -0.1493 -0.0352 0.0039, -0.1427 -0.0417 0.0039, -0.1346 -0.0465 0.0039, -0.1247 -0.0496 0.0039, -0.1122 -0.0508 0.0039, -0.0954 -0.0508 0.0039, -0.0565 -0.0508 0.0043, -0.0565 -0.0637 0.0043, -0.0565 -0.0508 0.0039, -0.0565 -0.0637 0.0039, 0.0068 -0.0637 0.0043, 0.0068 -0.0637 0.0039, 0.0068 0.0544 0.0043, 0.0068 0.0544 0.0039, -0.0537 0.0544 0.0043, -0.0537 0.0544 0.0039, -0.0537 0.0414 0.0043, -0.0537 0.0414 0.0039, -0.009 0.0414 0.0043, -0.009 0.0414 0.0039, -0.009 0.0025 0.0043, -0.009 0.0025 0.0039, -0.0508 0.0025 0.0043, -0.0508 0.0025 0.0039, -0.0508 -0.0104 0.0043, -0.0508 -0.0104 0.0039, -0.009 -0.0104 0.0043, -0.009 -0.0104 0.0039, -0.009 -0.0508 0.0043, -0.009 -0.0508 0.0039, 0.0299 -0.0447 0.0043, 0.0299 -0.0576 0.0043, 0.0299 -0.0447 0.0039, 0.0299 -0.0576 0.0039, 0.0425 -0.0628 0.0043, 0.0624 -0.0652 0.0043, 0.0624 -0.0652 0.0039, 0.0591 -0.0651 0.0039, 0.0591 -0.0651 0.0043, 0.0544 -0.0645 0.0039, 0.0425 -0.0628 0.0039, 0.0693 -0.0645 0.0039, 0.0769 -0.0637 0.0043, 0.0769 -0.0637 0.0039, 0.0884 -0.0597 0.0043, 0.0884 -0.0597 0.0039, 0.0979 -0.0537 0.0043, 0.0979 -0.0537 0.0039, 0.1067 -0.0443 0.0043, 0.1067 -0.0443 0.0039, 0.113 -0.0331 0.0043, 0.113 -0.0331 0.0039, 0.1166 -0.0206 0.0043, 0.1166 -0.0206 0.0039, 0.1177 -0.0069 0.0043, 0.1177 -0.0069 0.0039, 0.0577 0.0558 0.0043, 0.0577 0.0558 0.0039, 0.0695 0.0548 0.0039, 0.0695 0.0548 0.0043, 0.0827 0.051 0.0039, 0.0827 0.051 0.0043, 0.0939 0.0446 0.0039, 0.0939 0.0446 0.0043, 0.1046 0.0343 0.0039, 0.1046 0.0343 0.0043, 0.1115 0.0233 0.0039, 0.1115 0.0233 0.0043, 0.116 0.0099 0.0039, 0.116 0.0099 0.0043, 0.0299 0.0511 0.0043, 0.0299 0.0511 0.0039, 0.0435 0.0548 0.0039, 0.0435 0.0548 0.0043, 0.0299 0.0353 0.0043, 0.0299 0.0353 0.0039, 0.0575 0.0429 0.0043, 0.0575 0.0429 0.0039, 0.0432 0.041 0.0039, 0.0432 0.041 0.0043, 0.1019 -0.0059 0.0043, 0.1019 -0.0059 0.0039, 0.1013 0.0032 0.0039, 0.1013 0.0032 0.0043, 0.0982 0.0159 0.0039, 0.0982 0.0159 0.0043, 0.0933 0.025 0.0039, 0.0933 0.025 0.0043, 0.0862 0.0329 0.0039, 0.0862 0.0329 0.0043, 0.078 0.0384 0.0039, 0.078 0.0384 0.0043, 0.0692 0.0415 0.0039, 0.0692 0.0415 0.0043, 0.0602 -0.0522 0.0043, 0.0602 -0.0522 0.0039, 0.0712 -0.051 0.0039, 0.0712 -0.051 0.0043, 0.0798 -0.0478 0.0039, 0.0798 -0.0478 0.0043, 0.0871 -0.0429 0.0039, 0.0871 -0.0429 0.0043, 0.0926 -0.0371 0.0039, 0.0926 -0.0371 0.0043, 0.0975 -0.0289 0.0039, 0.0975 -0.0289 0.0043, 0.1007 -0.0187 0.0039, 0.1007 -0.0187 0.0043, 0.032 -0.0458 0.0039, 0.032 -0.0458 0.0043, 0.0445 -0.0505 0.0039, 0.0445 -0.0505 0.0043, 0.1278 -0.0508 0.0043, 0.1278 -0.0637 0.0043, 0.1278 -0.0508 0.0039, 0.1278 -0.0637 0.0039, 0.1883 -0.0637 0.0043, 0.1883 -0.0637 0.0039, 0.1883 0.0544 0.0043, 0.1883 0.0544 0.0039, 0.1725 0.0544 0.0043, 0.1725 0.0544 0.0039, 0.1725 -0.0508 0.0043, 0.1725 -0.0508 0.0039
            ]
        }
        coordIndex [
            0,1,2,-1,2,1,3,-1,1,4,3,-1,3,4,5,-1,4,6,5,-1,5,6,7,-1,6,8,7,-1,7,8,9,-1,8,10,9,-1,9,10,11,-1,10,12,11,-1,11,12,13,-1,12,14,13,-1,13,14,15,-1,14,0,15,-1,15,0,2,-1,16,8,17,-1,17,8,6,-1,18,14,16,-1,16,14,12,-1,16,12,8,-1,8,12,10,-1,18,19,14,-1,14,19,20,-1,14,20,0,-1,0,20,21,-1,0,21,22,-1,22,23,0,-1,0,23,17,-1,0,17,1,-1,1,17,6,-1,1,6,4,-1,16,17,24,-1,24,17,25,-1,18,16,26,-1,26,16,24,-1,18,26,27,-1,18,27,19,-1,19,27,28,-1,19,28,20,-1,21,20,29,-1,29,20,28,-1,21,29,30,-1,21,30,22,-1,22,30,31,-1,22,31,23,-1,17,23,25,-1,25,23,31,-1,32,33,34,-1,34,33,35,-1,33,36,35,-1,35,36,37,-1,36,38,37,-1,37,38,39,-1,40,41,42,-1,40,42,43,-1,43,42,44,-1,43,44,45,-1,45,44,46,-1,45,46,47,-1,47,46,48,-1,47,48,49,-1,49,48,50,-1,49,50,51,-1,51,50,52,-1,51,52,53,-1,53,52,54,-1,53,54,55,-1,55,54,39,-1,55,39,38,-1,32,34,56,-1,32,56,57,-1,57,56,58,-1,57,58,59,-1,59,58,60,-1,59,60,61,-1,61,60,62,-1,61,62,63,-1,63,62,64,-1,63,64,65,-1,65,64,66,-1,65,66,67,-1,67,66,41,-1,67,41,40,-1,45,47,68,-1,68,47,49,-1,68,49,69,-1,69,49,51,-1,69,51,70,-1,70,51,53,-1,70,53,71,-1,71,53,55,-1,71,55,72,-1,72,55,38,-1,72,38,73,-1,73,38,36,-1,73,36,74,-1,74,36,33,-1,74,33,75,-1,75,33,32,-1,75,32,76,-1,76,32,57,-1,76,57,77,-1,77,57,59,-1,77,59,78,-1,78,59,61,-1,78,61,79,-1,79,61,63,-1,79,63,80,-1,80,63,65,-1,80,65,81,-1,81,65,67,-1,81,67,82,-1,82,67,40,-1,82,40,83,-1,83,40,43,-1,83,43,84,-1,84,43,45,-1,84,45,68,-1,72,73,85,-1,85,73,86,-1,72,85,87,-1,72,87,71,-1,71,87,88,-1,71,88,70,-1,70,88,89,-1,70,89,69,-1,69,89,90,-1,69,90,68,-1,68,90,91,-1,68,91,84,-1,84,91,92,-1,84,92,83,-1,83,92,93,-1,83,93,82,-1,82,93,94,-1,82,94,81,-1,81,94,95,-1,81,95,80,-1,80,95,96,-1,80,96,79,-1,79,96,97,-1,79,97,78,-1,78,97,98,-1,78,98,77,-1,77,98,99,-1,77,99,76,-1,76,99,100,-1,76,100,75,-1,74,75,101,-1,101,75,100,-1,73,74,86,-1,86,74,101,-1,102,103,104,-1,104,103,105,-1,103,106,105,-1,105,106,107,-1,106,108,107,-1,107,108,109,-1,108,110,109,-1,109,110,111,-1,110,112,111,-1,111,112,113,-1,112,114,113,-1,113,114,115,-1,114,116,115,-1,115,116,117,-1,116,118,117,-1,117,118,119,-1,118,120,119,-1,119,120,121,-1,120,122,121,-1,121,122,123,-1,122,124,123,-1,123,124,125,-1,124,102,125,-1,125,102,104,-1,106,103,102,-1,102,124,106,-1,106,124,122,-1,106,122,108,-1,112,110,114,-1,114,110,108,-1,114,108,116,-1,116,108,122,-1,116,122,118,-1,118,122,120,-1,126,127,128,-1,128,127,129,-1,129,127,130,-1,131,132,133,-1,131,133,134,-1,134,133,135,-1,134,135,130,-1,130,135,136,-1,130,136,129,-1,132,131,137,-1,137,131,138,-1,137,138,139,-1,139,138,140,-1,139,140,141,-1,141,140,142,-1,141,142,143,-1,143,142,144,-1,143,144,145,-1,145,144,146,-1,145,146,147,-1,147,146,148,-1,147,148,149,-1,149,148,150,-1,149,150,151,-1,152,153,154,-1,152,154,155,-1,155,154,156,-1,155,156,157,-1,157,156,158,-1,157,158,159,-1,159,158,160,-1,159,160,161,-1,161,160,162,-1,161,162,163,-1,163,162,164,-1,163,164,165,-1,165,164,151,-1,165,151,150,-1,166,167,168,-1,166,168,169,-1,169,168,153,-1,169,153,152,-1,166,170,167,-1,167,170,171,-1,172,173,174,-1,172,174,175,-1,175,174,171,-1,175,171,170,-1,176,177,178,-1,176,178,179,-1,179,178,180,-1,179,180,181,-1,181,180,182,-1,181,182,183,-1,183,182,184,-1,183,184,185,-1,185,184,186,-1,185,186,187,-1,187,186,188,-1,187,188,189,-1,189,188,173,-1,189,173,172,-1,190,191,192,-1,190,192,193,-1,193,192,194,-1,193,194,195,-1,195,194,196,-1,195,196,197,-1,197,196,198,-1,197,198,199,-1,199,198,200,-1,199,200,201,-1,201,200,202,-1,201,202,203,-1,203,202,177,-1,203,177,176,-1,126,128,204,-1,126,204,205,-1,205,204,206,-1,205,206,207,-1,207,206,191,-1,207,191,190,-1,193,131,190,-1,190,131,134,-1,190,134,207,-1,207,134,130,-1,207,130,205,-1,205,130,127,-1,205,127,126,-1,170,166,175,-1,175,166,169,-1,175,169,172,-1,172,169,152,-1,172,152,189,-1,189,152,155,-1,189,155,187,-1,187,155,157,-1,187,157,185,-1,185,157,159,-1,185,159,183,-1,183,159,161,-1,183,161,181,-1,181,161,163,-1,181,163,179,-1,179,163,165,-1,179,165,176,-1,176,165,150,-1,176,150,203,-1,203,150,148,-1,203,148,201,-1,201,148,146,-1,201,146,199,-1,199,146,144,-1,199,144,197,-1,197,144,142,-1,197,142,195,-1,195,142,140,-1,195,140,193,-1,193,140,138,-1,193,138,131,-1,208,209,210,-1,210,209,211,-1,209,212,211,-1,211,212,213,-1,212,214,213,-1,213,214,215,-1,214,216,215,-1,215,216,217,-1,216,218,217,-1,217,218,219,-1,218,208,219,-1,219,208,210,-1,216,214,218,-1,218,214,212,-1,218,212,208,-1,208,212,209,-1,
        ]
    }
}
Shape{
    appearance Appearance {
        material  Material 	{
            diffuseColor 0.7529411764705882 0.7529411764705882 0.7529411764705882
            specularColor 0.3764705882352941 0.3764705882352941 0.3764705882352941
            ambientIntensity 0.7529
            transparency 0.0
            shininess 0.5
        }
    }
    geometry IndexedFaceSet {
        ccw TRUE
        solid FALSE
        coord DEF co Coordinate {
            point [
                -0.2158 -0.0176 0.0039, -0.2553 -0.0176 0.0039, -0.2335 0.0317 0.0039, -0.2376 0.0317 0.0039, -0.2346 0.0358 0.0039, -0.2365 0.0358 0.0039, -0.2354 0.04 0.0039, -0.2357 0.04 0.0039, -0.0954 0.0414 0.0039, -0.0954 -0.0508 0.0039, -0.1129 0.0414 0.0039, -0.1122 -0.0508 0.0039, -0.1247 -0.0496 0.0039, -0.1588 -0.0035 0.0039, -0.1578 0.0082 0.0039, -0.1551 0.0176 0.0039, -0.1268 0.0399 0.0039, -0.1346 -0.0465 0.0039, -0.1427 -0.0417 0.0039, -0.1493 -0.0352 0.0039, -0.1543 -0.027 0.0039, -0.1577 -0.0159 0.0039, -0.151 0.0248 0.0039, -0.1452 0.0309 0.0039, -0.1366 0.0365 0.0039
            ]
        }
        coordIndex [
            0,1,2,-1,2,1,3,-1,2,3,4,-1,4,3,5,-1,4,5,6,-1,6,5,7,-1,8,9,10,-1,10,9,11,-1,10,11,12,-1,13,14,10,-1,10,14,15,-1,10,15,16,-1,12,17,10,-1,10,17,18,-1,10,18,19,-1,19,20,10,-1,10,20,21,-1,10,21,13,-1,22,23,15,-1,15,23,24,-1,15,24,16,-1,
        ]
    }
}
Shape{
    appearance Appearance {
        material  Material 	{
            diffuseColor 0.25098039215686274 0.25098039215686274 0.25098039215686274
            specularColor 0.12549019607843137 0.12549019607843137 0.12549019607843137
            ambientIntensity 0.251
            transparency 0.0
            shininess 0.5
        }
    }
    geometry IndexedFaceSet {
        ccw TRUE
        solid FALSE
        coord DEF co Coordinate {
            point [
                -0.791 0.1159 1.8933, -0.9351 0.1159 1.8933, -0.791 0.1159 1.8937, -0.9351 0.1159 1.8937, -0.9351 1.1192 1.8933, -0.9351 1.1192 1.8937, -1.2087 0.9801 1.8933, -1.2087 0.9801 1.8937, -1.1477 0.999 1.8937, -1.1477 0.999 1.8933, -1.0171 1.0607 1.8937, -1.0171 1.0607 1.8933, -1.2087 1.1241 1.8933, -1.2087 1.1241 1.8937, -0.8471 1.3114 1.8933, -0.8471 1.3114 1.8937, -0.8569 1.3042 1.8937, -0.9267 1.2533 1.8933, -0.9267 1.2533 1.8937, -1.0671 1.177 1.8937, -1.0671 1.177 1.8933, -0.791 1.3114 1.8933, -0.791 1.3114 1.8937, -0.791 1.3042 1.8937, 1.0542 -0.5088 1.8933, 1.0542 -0.5088 1.8937, 1.0471 -0.5752 1.8937, 1.0471 -0.5752 1.8933, 1.0295 -0.6293 1.8937, 1.0295 -0.6293 1.8933, 0.9952 -0.6866 1.8937, 0.9952 -0.6866 1.8933, 0.9295 -0.7554 1.8937, 0.9295 -0.7554 1.8933, 0.8131 -0.8457 1.8937, 0.8131 -0.8457 1.8933, 0.8268 -0.3106 1.8933, 0.8268 -0.3106 1.8937, 0.8951 -0.317 1.8937, 0.8951 -0.317 1.8933, 0.9506 -0.3356 1.8937, 0.9506 -0.3356 1.8933, 0.9871 -0.3587 1.8937, 0.9871 -0.3587 1.8933, 1.0145 -0.3854 1.8937, 1.0145 -0.3854 1.8933, 1.0354 -0.4185 1.8937, 1.0354 -0.4185 1.8933, 1.0489 -0.4577 1.8937, 1.0489 -0.4577 1.8933, 0.5356 -0.4541 1.8933, 0.5356 -0.4541 1.8937, 0.5777 -0.4139 1.8937, 0.5777 -0.4139 1.8933, 0.6574 -0.3582 1.8937, 0.6574 -0.3582 1.8933, 0.7383 -0.3236 1.8937, 0.7383 -0.3236 1.8933, 0.5356 -0.3097 1.8933, 0.5356 -0.3097 1.8937, 0.8413 -0.1809 1.8933, 0.8413 -0.1809 1.8937, 0.789 -0.1833 1.8937, 0.789 -0.1833 1.8933, 0.6955 -0.2032 1.8937, 0.6955 -0.2032 1.8933, 0.6069 -0.2481 1.8937, 0.6069 -0.2481 1.8933, 1.1982 -0.4974 1.8933, 1.1982 -0.4974 1.8937, 1.1886 -0.4118 1.8937, 1.1886 -0.4118 1.8933, 1.1663 -0.351 1.8937, 1.1663 -0.351 1.8933, 1.1319 -0.2987 1.8937, 1.1319 -0.2987 1.8933, 1.0781 -0.2489 1.8937, 1.0781 -0.2489 1.8933, 1.0121 -0.2119 1.8937, 1.0121 -0.2119 1.8933, 0.9305 -0.1883 1.8937, 0.9305 -0.1883 1.8933, 0.9342 -0.9178 1.8933, 0.9342 -0.9178 1.8937, 1.0093 -0.8616 1.8937, 1.0093 -0.8616 1.8933, 1.1003 -0.7743 1.8937, 1.1003 -0.7743 1.8933, 1.1079 -0.7651 1.8937, 1.1079 -0.7651 1.8933, 1.1594 -0.6843 1.8937, 1.1594 -0.6843 1.8933, 1.1893 -0.5933 1.8937, 1.1893 -0.5933 1.8933, 0.6473 -1.2468 1.8933, 0.6473 -1.2468 1.8937, 0.6526 -1.1912 1.8937, 0.6526 -1.1912 1.8933, 0.6669 -1.149 1.8937, 0.6669 -1.149 1.8933, 0.6939 -1.1078 1.8937, 0.6939 -1.1078 1.8933, 0.7684 -1.0378 1.8937, 0.7684 -1.0378 1.8933, 1.227 -1.2468 1.8933, 1.227 -1.2468 1.8937, 1.227 -1.3764 1.8933, 1.227 -1.3764 1.8937, 0.5061 -1.3764 1.8937, 0.4924 -1.3764 1.8933, 0.4924 -1.3764 1.8937, 0.4924 -1.3179 1.8933, 0.4924 -1.3179 1.8937, 0.4992 -1.2248 1.8933, 0.7597 -0.8837 1.8937, 0.7597 -0.8837 1.8933, 0.6351 -0.9849 1.8937, 0.6351 -0.9849 1.8933, 0.564 -1.0657 1.8937, 0.564 -1.0657 1.8933, 0.5222 -1.1407 1.8937, 0.5222 -1.1407 1.8933, 0.5061 -1.1997 1.8937, 0.4992 -1.2248 1.8937, 0.0747 -1.3764 1.8933, -0.0693 -1.3764 1.8933, 0.0747 -1.3764 1.8937, -0.0693 -1.3764 1.8937, -0.0693 -0.3731 1.8933, -0.0693 -0.3731 1.8937, -0.343 -0.5122 1.8933, -0.343 -0.5122 1.8937, -0.3366 -0.5102 1.8937, -0.282 -0.4933 1.8933, -0.282 -0.4933 1.8937, -0.1514 -0.4315 1.8937, -0.1514 -0.4315 1.8933, -0.343 -0.3682 1.8933, -0.343 -0.3682 1.8937, -0.3366 -0.3658 1.8937, -0.2014 -0.3153 1.8933, -0.2014 -0.3153 1.8937, -0.061 -0.239 1.8933, -0.061 -0.239 1.8937, 0.0187 -0.1809 1.8933, 0.0187 -0.1809 1.8937, 0.0747 -0.1809 1.8933, 0.0747 -0.1809 1.8937, -1.3369 -1.0451 1.8933, -1.3369 -1.0451 1.8937, -1.3285 -1.1244 1.8937, -1.3285 -1.1244 1.8933, -1.3024 -1.1981 1.8937, -1.3024 -1.1981 1.8933, -1.2728 -1.2432 1.8937, -1.2592 -1.2639 1.8933, -0.9556 -1.3908 1.8937, -0.9556 -1.3908 1.8933, -1.0329 -1.3836 1.8937, -1.048 -1.3822 1.8933, -1.048 -1.3822 1.8937, -1.1379 -1.3538 1.8933, -1.1379 -1.3538 1.8937, -1.2099 -1.311 1.8933, -1.2099 -1.311 1.8937, -1.2592 -1.2639 1.8937, -1.1091 -0.7368 1.8933, -1.1091 -0.7368 1.8937, -1.1863 -0.7756 1.8937, -1.1863 -0.7756 1.8933, -1.2515 -0.832 1.8937, -1.2515 -0.832 1.8933, -1.2728 -0.8618 1.8937, -1.2994 -0.8991 1.8933, -1.2994 -0.8991 1.8937, -1.3262 -0.9649 1.8937, -1.3262 -0.9649 1.8933, -1.2792 -0.4805 1.8933, -1.2792 -0.4805 1.8937, -1.2763 -0.5188 1.8937, -1.2763 -0.5188 1.8933, -1.2728 -0.532 1.8937, -1.2616 -0.5736 1.8933, -1.2616 -0.5736 1.8937, -1.2312 -0.6298 1.8937, -1.2312 -0.6298 1.8933, -1.1805 -0.6867 1.8937, -1.1805 -0.6867 1.8933, -1.2728 -0.4325 1.8937, -1.2688 -0.4029 1.8933, -1.2688 -0.4029 1.8937, -1.243 -0.341 1.8933, -1.243 -0.341 1.8937, -1.2013 -0.2846 1.8933, -1.2013 -0.2846 1.8937, -1.1462 -0.239 1.8933, -1.1462 -0.239 1.8937, -1.0794 -0.2052 1.8933, -1.0794 -0.2052 1.8937, -0.9933 -0.1841 1.8933, -0.9933 -0.1841 1.8937, -0.9412 -0.1809 1.8933, -0.9412 -0.1809 1.8937, -0.6023 -0.4805 1.8933, -0.6023 -0.4805 1.8937, -0.6069 -0.4267 1.8937, -0.6069 -0.4267 1.8933, -0.6251 -0.3668 1.8937, -0.6251 -0.3668 1.8933, -0.6601 -0.3071 1.8937, -0.6601 -0.3071 1.8933, -0.7062 -0.2594 1.8937, -0.7062 -0.2594 1.8933, -0.7714 -0.2181 1.8937, -0.7714 -0.2181 1.8933, -0.8528 -0.19 1.8937, -0.8528 -0.19 1.8933, -0.7708 -0.7368 1.8933, -0.7708 -0.7368 1.8937, -0.741 -0.7185 1.8937, -0.741 -0.7185 1.8933, -0.681 -0.668 1.8937, -0.681 -0.668 1.8933, -0.6399 -0.6138 1.8937, -0.6399 -0.6138 1.8933, -0.6117 -0.5492 1.8937, -0.6117 -0.5492 1.8933, -0.5735 -1.0451 1.8933, -0.5735 -1.0451 1.8937, -0.578 -0.9884 1.8937, -0.578 -0.9884 1.8933, -0.5994 -0.9141 1.8937, -0.5994 -0.9141 1.8933, -0.6457 -0.8344 1.8937, -0.6457 -0.8344 1.8933, -0.7017 -0.7775 1.8937, -0.7017 -0.7775 1.8933, -0.8727 -1.3842 1.8937, -0.8727 -1.3842 1.8933, -0.8709 -1.3836 1.8937, -0.7834 -1.3587 1.8933, -0.7834 -1.3587 1.8937, -0.7131 -1.3211 1.8937, -0.7131 -1.3211 1.8933, -0.6529 -1.2675 1.8937, -0.6529 -1.2675 1.8933, -0.6087 -1.2011 1.8937, -0.6087 -1.2011 1.8933, -0.5831 -1.1308 1.8937, -0.5831 -1.1308 1.8933, -0.8944 -0.6787 1.8933, -0.9419 -0.6851 1.8933, -0.9145 -0.8174 1.8933, -0.9896 -0.6788 1.8933, -0.8585 -0.664 1.8933, -0.771 -0.5598 1.8933, -0.7617 -0.5168 1.8933, -0.7607 -0.4971 1.8933, -1.0713 -0.8397 1.8933, -1.0196 -0.8214 1.8933, -0.7894 -0.598 1.8933, -0.8244 -0.6391 1.8933, -0.8589 -0.8316 1.8933, -0.8087 -0.8592 1.8933, -0.7666 -0.4468 1.8933, -0.7819 -0.4066 1.8933, -0.8071 -0.3704 1.8933, -0.8274 -0.3506 1.8933, -0.9558 -0.8147 1.8933, -0.7706 -0.8942 1.8933, -0.742 -0.9349 1.8933, -0.7248 -0.9786 1.8933, -0.7175 -1.0375 1.8933, -1.1147 -0.8679 1.8933, -1.1461 -0.8993 1.8933, -1.1718 -0.9398 1.8933, -1.1877 -0.9869 1.8933, -1.1928 -1.0375 1.8933, -1.1867 -1.0961 1.8933, -1.1712 -1.1414 1.8933, -1.1475 -1.1793 1.8933, -1.1078 -1.2172 1.8933, -1.0614 -1.2426 1.8933, -1.0108 -1.2567 1.8933, -0.9558 -1.2612 1.8933, -0.8915 -1.2546 1.8933, -0.8387 -1.2365 1.8933, -0.7952 -1.2088 1.8933, -0.7635 -1.177 1.8933, -0.7396 -1.1395 1.8933, -0.7239 -1.0958 1.8933, -0.8605 -0.3286 1.8933, -0.9011 -0.3146 1.8933, -0.9419 -0.3106 1.8933, -0.989 -0.3161 1.8933, -1.0244 -0.3293 1.8933, -1.0572 -0.3516 1.8933, -1.0838 -0.3799 1.8933, -1.1043 -0.4145 1.8933, -1.1169 -0.4548 1.8933, -1.1208 -0.4971 1.8933, -1.028 -0.6626 1.8933, -1.0594 -0.6392 1.8933, -1.0733 -0.6247 1.8933, -1.0991 -0.5879 1.8933, -1.1147 -0.5482 1.8933, -1.1928 -1.0375 1.8937, -1.1877 -0.9869 1.8937, -1.1718 -0.9398 1.8937, -1.1461 -0.8993 1.8937, -1.1147 -0.8679 1.8937, -1.0713 -0.8397 1.8937, -1.0196 -0.8214 1.8937, -0.9558 -0.8147 1.8937, -0.9145 -0.8174 1.8937, -0.8589 -0.8316 1.8937, -0.8087 -0.8592 1.8937, -0.7706 -0.8942 1.8937, -0.742 -0.9349 1.8937, -0.7248 -0.9786 1.8937, -0.7175 -1.0375 1.8937, -0.7239 -1.0958 1.8937, -0.7396 -1.1395 1.8937, -0.7635 -1.177 1.8937, -0.7952 -1.2088 1.8937, -0.8387 -1.2365 1.8937, -0.8915 -1.2546 1.8937, -0.9558 -1.2612 1.8937, -1.0108 -1.2567 1.8937, -1.0614 -1.2426 1.8937, -1.1078 -1.2172 1.8937, -1.1475 -1.1793 1.8937, -1.1712 -1.1414 1.8937, -1.1867 -1.0961 1.8937, -1.1208 -0.4971 1.8937, -1.1169 -0.4548 1.8937, -1.1043 -0.4145 1.8937, -1.0838 -0.3799 1.8937, -1.0572 -0.3516 1.8937, -1.0244 -0.3293 1.8937, -0.989 -0.3161 1.8937, -0.9419 -0.3106 1.8937, -0.9011 -0.3146 1.8937, -0.8605 -0.3286 1.8937, -0.8274 -0.3506 1.8937, -0.8071 -0.3704 1.8937, -0.7819 -0.4066 1.8937, -0.7666 -0.4468 1.8937, -0.7607 -0.4971 1.8937, -0.7617 -0.5168 1.8937, -0.771 -0.5598 1.8937, -0.7894 -0.598 1.8937, -0.8244 -0.6391 1.8937, -0.8585 -0.664 1.8937, -0.8944 -0.6787 1.8937, -0.9419 -0.6851 1.8937, -0.9896 -0.6788 1.8937, -1.028 -0.6626 1.8937, -1.0594 -0.6392 1.8937, -1.0733 -0.6247 1.8937, -1.0991 -0.5879 1.8937, -1.1147 -0.5482 1.8937
            ]
        }
        coordIndex [
            0,1,2,-1,2,1,3,-1,1,4,3,-1,3,4,5,-1,6,7,8,-1,6,8,9,-1,9,8,10,-1,9,10,11,-1,11,10,5,-1,11,5,4,-1,6,12,7,-1,7,12,13,-1,14,15,16,-1,14,16,17,-1,16,18,17,-1,17,18,19,-1,17,19,20,-1,20,19,13,-1,20,13,12,-1,14,21,15,-1,15,21,22,-1,22,21,23,-1,23,21,0,-1,23,0,2,-1,1,0,4,-1,4,0,21,-1,21,14,4,-1,4,14,17,-1,4,17,11,-1,11,17,20,-1,11,20,9,-1,9,20,12,-1,9,12,6,-1,24,25,26,-1,24,26,27,-1,27,26,28,-1,27,28,29,-1,29,28,30,-1,29,30,31,-1,31,30,32,-1,31,32,33,-1,33,32,34,-1,33,34,35,-1,36,37,38,-1,36,38,39,-1,39,38,40,-1,39,40,41,-1,41,40,42,-1,41,42,43,-1,43,42,44,-1,43,44,45,-1,45,44,46,-1,45,46,47,-1,47,46,48,-1,47,48,49,-1,49,48,25,-1,49,25,24,-1,50,51,52,-1,50,52,53,-1,53,52,54,-1,53,54,55,-1,55,54,56,-1,55,56,57,-1,57,56,37,-1,57,37,36,-1,50,58,51,-1,51,58,59,-1,60,61,62,-1,60,62,63,-1,63,62,64,-1,63,64,65,-1,65,64,66,-1,65,66,67,-1,67,66,59,-1,67,59,58,-1,68,69,70,-1,68,70,71,-1,71,70,72,-1,71,72,73,-1,73,72,74,-1,73,74,75,-1,75,74,76,-1,75,76,77,-1,77,76,78,-1,77,78,79,-1,79,78,80,-1,79,80,81,-1,81,80,61,-1,81,61,60,-1,82,83,84,-1,82,84,85,-1,85,84,86,-1,85,86,87,-1,87,86,88,-1,87,88,89,-1,89,88,90,-1,89,90,91,-1,91,90,92,-1,91,92,93,-1,93,92,69,-1,93,69,68,-1,94,95,96,-1,94,96,97,-1,97,96,98,-1,97,98,99,-1,99,98,100,-1,99,100,101,-1,101,100,102,-1,101,102,103,-1,103,102,83,-1,103,83,82,-1,94,104,95,-1,95,104,105,-1,104,106,105,-1,105,106,107,-1,107,106,108,-1,108,106,109,-1,108,109,110,-1,109,111,110,-1,110,111,112,-1,112,111,113,-1,35,34,114,-1,35,114,115,-1,115,114,116,-1,115,116,117,-1,117,116,118,-1,117,118,119,-1,119,118,120,-1,119,120,121,-1,121,120,122,-1,121,122,113,-1,113,122,123,-1,113,123,112,-1,106,104,109,-1,109,104,94,-1,119,121,97,-1,97,121,113,-1,97,113,94,-1,94,113,111,-1,94,111,109,-1,36,63,57,-1,57,63,65,-1,57,65,55,-1,55,65,67,-1,55,67,53,-1,53,67,58,-1,53,58,50,-1,33,85,87,-1,97,99,119,-1,119,99,101,-1,119,101,117,-1,117,101,103,-1,33,87,31,-1,31,87,89,-1,31,89,29,-1,29,89,91,-1,29,91,27,-1,27,91,93,-1,27,93,24,-1,24,93,68,-1,24,68,49,-1,49,68,71,-1,49,71,47,-1,47,71,73,-1,47,73,45,-1,45,73,75,-1,45,75,43,-1,43,75,77,-1,43,77,41,-1,41,77,79,-1,41,79,39,-1,39,79,81,-1,39,81,36,-1,36,81,60,-1,36,60,63,-1,85,33,82,-1,82,33,35,-1,82,35,103,-1,103,35,115,-1,103,115,117,-1,124,125,126,-1,126,125,127,-1,125,128,127,-1,127,128,129,-1,130,131,132,-1,130,132,133,-1,132,134,133,-1,133,134,135,-1,133,135,136,-1,136,135,129,-1,136,129,128,-1,130,137,131,-1,131,137,138,-1,138,137,139,-1,139,137,140,-1,139,140,141,-1,141,140,142,-1,141,142,143,-1,143,142,144,-1,143,144,145,-1,144,146,145,-1,145,146,147,-1,146,124,147,-1,147,124,126,-1,125,124,128,-1,128,124,146,-1,146,144,128,-1,128,144,142,-1,128,142,136,-1,136,142,140,-1,136,140,133,-1,133,140,137,-1,133,137,130,-1,148,149,150,-1,148,150,151,-1,151,150,152,-1,151,152,153,-1,153,152,154,-1,153,154,155,-1,156,157,158,-1,158,157,159,-1,158,159,160,-1,160,159,161,-1,160,161,162,-1,162,161,163,-1,162,163,164,-1,164,163,155,-1,164,155,165,-1,165,155,154,-1,166,167,168,-1,166,168,169,-1,169,168,170,-1,169,170,171,-1,171,170,172,-1,171,172,173,-1,172,174,173,-1,173,174,175,-1,173,175,176,-1,176,175,149,-1,176,149,148,-1,177,178,179,-1,177,179,180,-1,180,179,181,-1,180,181,182,-1,181,183,182,-1,182,183,184,-1,182,184,185,-1,185,184,186,-1,185,186,187,-1,187,186,167,-1,187,167,166,-1,178,177,188,-1,188,177,189,-1,188,189,190,-1,190,189,191,-1,190,191,192,-1,192,191,193,-1,192,193,194,-1,194,193,195,-1,194,195,196,-1,196,195,197,-1,196,197,198,-1,198,197,199,-1,198,199,200,-1,200,199,201,-1,200,201,202,-1,203,204,205,-1,203,205,206,-1,206,205,207,-1,206,207,208,-1,208,207,209,-1,208,209,210,-1,210,209,211,-1,210,211,212,-1,212,211,213,-1,212,213,214,-1,214,213,215,-1,214,215,216,-1,216,215,202,-1,216,202,201,-1,217,218,219,-1,217,219,220,-1,220,219,221,-1,220,221,222,-1,222,221,223,-1,222,223,224,-1,224,223,225,-1,224,225,226,-1,226,225,204,-1,226,204,203,-1,227,228,229,-1,227,229,230,-1,230,229,231,-1,230,231,232,-1,232,231,233,-1,232,233,234,-1,234,233,235,-1,234,235,236,-1,236,235,218,-1,236,218,217,-1,157,156,237,-1,157,237,238,-1,238,237,239,-1,238,239,240,-1,239,241,240,-1,240,241,242,-1,240,242,243,-1,243,242,244,-1,243,244,245,-1,245,244,246,-1,245,246,247,-1,247,246,248,-1,247,248,249,-1,249,248,228,-1,249,228,227,-1,250,251,252,-1,166,251,253,-1,250,252,254,-1,255,217,256,-1,256,217,257,-1,166,258,259,-1,255,260,217,-1,217,260,261,-1,217,261,254,-1,254,252,217,-1,217,252,262,-1,217,262,236,-1,236,262,263,-1,236,263,234,-1,264,208,265,-1,265,208,210,-1,265,210,266,-1,266,210,212,-1,266,212,267,-1,166,259,251,-1,251,259,268,-1,251,268,252,-1,217,220,257,-1,257,220,222,-1,257,222,224,-1,263,269,234,-1,234,269,270,-1,234,270,232,-1,232,270,271,-1,232,271,230,-1,230,271,272,-1,224,226,257,-1,257,226,203,-1,257,203,264,-1,264,203,206,-1,264,206,208,-1,258,166,273,-1,273,166,169,-1,273,169,274,-1,274,169,171,-1,274,171,275,-1,275,171,173,-1,275,173,276,-1,276,173,176,-1,276,176,277,-1,277,176,148,-1,277,148,278,-1,278,148,151,-1,278,151,279,-1,279,151,153,-1,279,153,280,-1,280,153,155,-1,280,155,281,-1,281,155,163,-1,281,163,282,-1,282,163,161,-1,282,161,283,-1,283,161,159,-1,283,159,284,-1,284,159,157,-1,284,157,285,-1,285,157,238,-1,285,238,286,-1,286,238,240,-1,286,240,287,-1,287,240,243,-1,287,243,288,-1,288,243,245,-1,288,245,289,-1,289,245,247,-1,289,247,290,-1,290,247,249,-1,290,249,272,-1,272,249,227,-1,272,227,230,-1,267,212,291,-1,291,212,214,-1,291,214,292,-1,292,214,216,-1,292,216,293,-1,293,216,201,-1,293,201,294,-1,294,201,199,-1,294,199,295,-1,295,199,197,-1,295,197,296,-1,296,197,195,-1,296,195,297,-1,297,195,193,-1,297,193,298,-1,298,193,191,-1,298,191,299,-1,299,191,189,-1,299,189,300,-1,253,301,166,-1,166,301,302,-1,166,302,187,-1,187,302,303,-1,187,303,185,-1,185,303,304,-1,185,304,182,-1,182,304,305,-1,182,305,180,-1,180,305,300,-1,180,300,177,-1,177,300,189,-1,277,306,307,-1,277,307,276,-1,276,307,308,-1,276,308,275,-1,275,308,309,-1,275,309,274,-1,274,309,310,-1,274,310,273,-1,273,310,311,-1,273,311,258,-1,258,311,312,-1,258,312,259,-1,259,312,313,-1,259,313,268,-1,268,313,314,-1,268,314,252,-1,252,314,315,-1,252,315,262,-1,262,315,316,-1,262,316,263,-1,263,316,317,-1,263,317,269,-1,269,317,318,-1,269,318,270,-1,270,318,319,-1,270,319,271,-1,271,319,320,-1,271,320,272,-1,272,320,321,-1,272,321,290,-1,290,321,322,-1,290,322,289,-1,289,322,323,-1,289,323,288,-1,288,323,324,-1,288,324,287,-1,287,324,325,-1,287,325,286,-1,286,325,326,-1,286,326,285,-1,285,326,327,-1,285,327,284,-1,284,327,328,-1,284,328,283,-1,283,328,329,-1,283,329,282,-1,282,329,330,-1,282,330,281,-1,281,330,331,-1,281,331,280,-1,280,331,332,-1,280,332,279,-1,279,332,333,-1,279,333,278,-1,278,333,306,-1,278,306,277,-1,300,334,335,-1,300,335,299,-1,299,335,336,-1,299,336,298,-1,298,336,337,-1,298,337,297,-1,297,337,338,-1,297,338,296,-1,296,338,339,-1,296,339,295,-1,295,339,340,-1,295,340,294,-1,294,340,341,-1,294,341,293,-1,293,341,342,-1,293,342,292,-1,292,342,343,-1,292,343,291,-1,291,343,344,-1,291,344,267,-1,267,344,345,-1,267,345,266,-1,266,345,346,-1,266,346,265,-1,265,346,347,-1,265,347,264,-1,264,347,348,-1,264,348,257,-1,257,348,349,-1,257,349,256,-1,256,349,350,-1,256,350,255,-1,255,350,351,-1,255,351,260,-1,260,351,352,-1,260,352,261,-1,261,352,353,-1,261,353,254,-1,254,353,354,-1,254,354,250,-1,250,354,355,-1,250,355,251,-1,251,355,356,-1,251,356,253,-1,253,356,357,-1,253,357,301,-1,301,357,358,-1,301,358,302,-1,302,358,359,-1,302,359,303,-1,303,359,360,-1,303,360,304,-1,304,360,361,-1,304,361,305,-1,305,361,334,-1,305,334,300,-1,
        ]
    }
}
Shape{
    appearance Appearance {
        material  Material 	{
            diffuseColor 0.7529411764705882 0.7529411764705882 0.7529411764705882
            specularColor 0.3764705882352941 0.3764705882352941 0.3764705882352941
            ambientIntensity 0.7529
            transparency 0.0
            shininess 0.5
        }
    }
    geometry IndexedFaceSet {
        ccw TRUE
        solid FALSE
        coord DEF co Coordinate {
            point [
                -1.0108 -1.2567 1.8937, -0.9558 -1.2612 1.8937, -0.9558 -0.8147 1.8937, -0.7396 -1.1395 1.8937, -0.7706 -0.8942 1.8937, -0.7635 -1.177 1.8937, -0.8087 -0.8592 1.8937, -0.9145 -0.8174 1.8937, -0.8915 -1.2546 1.8937, -0.8387 -1.2365 1.8937, -0.7952 -1.2088 1.8937, -0.8589 -0.8316 1.8937, -1.0196 -0.8214 1.8937, -1.1928 -1.0375 1.8937, -1.0713 -0.8397 1.8937, -1.1147 -0.8679 1.8937, -1.1461 -0.8993 1.8937, -1.1877 -0.9869 1.8937, -1.1718 -0.9398 1.8937, -0.7239 -1.0958 1.8937, -0.7175 -1.0375 1.8937, -0.742 -0.9349 1.8937, -0.7248 -0.9786 1.8937, -1.1867 -1.0961 1.8937, -1.1712 -1.1414 1.8937, -1.1475 -1.1793 1.8937, -1.1078 -1.2172 1.8937, -1.0614 -1.2426 1.8937
            ]
        }
        coordIndex [
            0,1,2,-1,3,4,5,-1,5,4,6,-1,2,1,7,-1,7,1,8,-1,7,8,9,-1,9,10,7,-1,7,10,5,-1,7,5,11,-1,11,5,6,-1,2,12,13,-1,13,12,14,-1,14,15,13,-1,13,15,16,-1,13,16,17,-1,17,16,18,-1,3,19,4,-1,4,19,20,-1,4,20,21,-1,21,20,22,-1,13,23,2,-1,2,23,24,-1,2,24,25,-1,25,26,2,-1,2,26,27,-1,2,27,0,-1,
        ]
    }
}
Shape{
    appearance Appearance {
        material  Material 	{
            diffuseColor 0.25098039215686274 0.25098039215686274 0.25098039215686274
            specularColor 0.12549019607843137 0.12549019607843137 0.12549019607843137
            ambientIntensity 0.251
            transparency 0.0
            shininess 0.5
        }
    }
    geometry IndexedFaceSet {
        ccw TRUE
        solid FALSE
        coord DEF co Coordinate {
            point [
                0.8965 0.1015 1.8937, 0.8965 0.1015 1.8933, 0.8289 0.1087 1.8937, 0.8135 0.1103 1.8933, 0.8135 0.1103 1.8937, 0.7447 0.1347 1.8933, 0.7447 0.1347 1.8937, 0.6854 0.1739 1.8933, 0.6854 0.1739 1.8937, 0.6271 0.2374 1.8933, 0.6271 0.2374 1.8937, 0.5772 0.3281 1.8933, 0.5772 0.3281 1.8937, 0.5457 0.4278 1.8933, 0.5457 0.4278 1.8937, 0.5234 0.5773 1.8933, 0.5234 0.5773 1.8937, 0.5197 0.6835 1.8933, 0.5197 0.6835 1.8937, 0.824 1.2998 1.8933, 0.923 1.3114 1.8933, 0.8611 1.3042 1.8937, 0.923 1.3114 1.8937, 0.824 1.2998 1.8937, 0.7509 1.272 1.8937, 0.7509 1.272 1.8933, 0.6879 1.2283 1.8937, 0.6879 1.2283 1.8933, 0.6322 1.1656 1.8937, 0.6322 1.1656 1.8933, 0.5804 1.0693 1.8937, 0.5804 1.0693 1.8933, 0.5458 0.9566 1.8937, 0.5458 0.9566 1.8933, 0.5252 0.8176 1.8937, 0.5252 0.8176 1.8933, 0.9936 1.3042 1.8937, 1.0068 1.3028 1.8933, 1.0068 1.3028 1.8937, 1.0775 1.2786 1.8933, 1.0775 1.2786 1.8937, 1.1391 1.2381 1.8933, 1.1391 1.2381 1.8937, 1.1869 1.1865 1.8933, 1.1869 1.1865 1.8937, 1.2353 1.1009 1.8933, 1.2353 1.1009 1.8937, 1.2717 0.985 1.8933, 1.2717 0.985 1.8937, 1.2935 0.8297 1.8933, 1.2935 0.8297 1.8937, 1.2975 0.7114 1.8933, 1.2975 0.7114 1.8937, 0.9852 0.1111 1.8933, 0.9627 0.1087 1.8937, 0.9852 0.1111 1.8937, 1.0588 0.1372 1.8937, 1.0588 0.1372 1.8933, 1.1216 0.1787 1.8937, 1.1216 0.1787 1.8933, 1.1806 0.2422 1.8937, 1.1806 0.2422 1.8933, 1.2349 0.3379 1.8937, 1.2349 0.3379 1.8933, 1.2705 0.4472 1.8937, 1.2705 0.4472 1.8933, 1.2919 0.5818 1.8937, 1.2919 0.5818 1.8933, 1.1391 0.6983 1.8933, 1.1334 0.8397 1.8933, 1.1145 0.9658 1.8933, 1.0822 1.0627 1.8933, 1.0513 1.1141 1.8933, 1.022 1.1446 1.8933, 0.991 1.1646 1.8933, 0.9558 1.1773 1.8933, 0.9149 1.1817 1.8933, 0.8656 1.1758 1.8933, 0.8281 1.1613 1.8933, 0.7939 1.1374 1.8933, 0.7606 1.0991 1.8933, 0.7253 1.0313 1.8933, 0.6962 0.924 1.8933, 0.6797 0.7684 1.8933, 0.6782 0.6907 1.8933, 0.6837 0.5593 1.8933, 0.7026 0.4411 1.8933, 0.7323 0.3541 1.8933, 0.7626 0.3035 1.8933, 0.7966 0.2687 1.8933, 0.8317 0.2471 1.8933, 0.8738 0.2342 1.8933, 0.9104 0.2311 1.8933, 0.9579 0.2366 1.8933, 0.9948 0.2509 1.8933, 1.0288 0.2747 1.8933, 1.062 0.3131 1.8933, 1.095 0.378 1.8933, 1.1229 0.4824 1.8933, 1.1379 0.6335 1.8933, 0.6782 0.6907 1.8937, 0.6797 0.7684 1.8937, 0.6962 0.924 1.8937, 0.7253 1.0313 1.8937, 0.7606 1.0991 1.8937, 0.7939 1.1374 1.8937, 0.8281 1.1613 1.8937, 0.8656 1.1758 1.8937, 0.9149 1.1817 1.8937, 0.9558 1.1773 1.8937, 0.991 1.1646 1.8937, 1.022 1.1446 1.8937, 1.0513 1.1141 1.8937, 1.0822 1.0627 1.8937, 1.1145 0.9658 1.8937, 1.1334 0.8397 1.8937, 1.1391 0.6983 1.8937, 1.1379 0.6335 1.8937, 1.1229 0.4824 1.8937, 1.095 0.378 1.8937, 1.062 0.3131 1.8937, 1.0288 0.2747 1.8937, 0.9948 0.2509 1.8937, 0.9579 0.2366 1.8937, 0.9104 0.2311 1.8937, 0.8738 0.2342 1.8937, 0.8317 0.2471 1.8937, 0.7966 0.2687 1.8937, 0.7626 0.3035 1.8937, 0.7323 0.3541 1.8937, 0.7026 0.4411 1.8937, 0.6837 0.5593 1.8937, 0.3469 0.4836 1.8933, 0.3469 0.4836 1.8937, 0.3459 0.5105 1.8937, 0.3459 0.5105 1.8933, 0.3314 0.599 1.8937, 0.3314 0.599 1.8933, 0.3021 0.6672 1.8937, 0.3021 0.6672 1.8933, 0.2603 0.7222 1.8937, 0.2603 0.7222 1.8933, 0.2108 0.7629 1.8937, 0.2033 0.769 1.8933, 0.2033 0.769 1.8937, 0.1271 0.8066 1.8937, 0.1271 0.8066 1.8933, 0.0332 0.8295 1.8937, 0.0332 0.8295 1.8933, -0.0623 0.836 1.8937, -0.0623 0.836 1.8933, 0.0337 0.1117 1.8933, -0.0801 0.1015 1.8933, 0.0003 0.1087 1.8937, -0.0801 0.1015 1.8937, 0.0337 0.1117 1.8937, 0.1234 0.1382 1.8937, 0.1234 0.1382 1.8933, 0.2009 0.1821 1.8937, 0.2009 0.1821 1.8933, 0.2108 0.1913 1.8937, 0.2646 0.2412 1.8933, 0.2646 0.2412 1.8937, 0.3122 0.3156 1.8937, 0.3122 0.3156 1.8933, 0.3381 0.3937 1.8937, 0.3381 0.3937 1.8933, -0.1889 0.1087 1.8937, -0.2081 0.1099 1.8933, -0.2081 0.1099 1.8937, -0.2948 0.1313 1.8933, -0.2948 0.1313 1.8937, -0.3301 0.1476 1.8933, -0.3301 0.1476 1.8937, -0.3301 0.2923 1.8933, -0.3301 0.2923 1.8937, -0.0864 0.2311 1.8933, -0.0864 0.2311 1.8937, -0.1216 0.2323 1.8937, -0.1216 0.2323 1.8933, -0.2277 0.2513 1.8937, -0.2277 0.2513 1.8933, 0.1884 0.4739 1.8933, 0.1884 0.4739 1.8937, 0.1845 0.426 1.8937, 0.1845 0.426 1.8933, 0.1693 0.3744 1.8937, 0.1693 0.3744 1.8933, 0.1436 0.3307 1.8937, 0.1436 0.3307 1.8933, 0.1064 0.2923 1.8937, 0.1064 0.2923 1.8933, 0.0533 0.2589 1.8937, 0.0533 0.2589 1.8933, -0.0088 0.2385 1.8937, -0.0088 0.2385 1.8933, -0.1145 0.7064 1.8933, -0.1145 0.7064 1.8937, -0.0112 0.6971 1.8937, -0.0112 0.6971 1.8933, 0.0632 0.6731 1.8937, 0.0632 0.6731 1.8933, 0.1021 0.6504 1.8937, 0.1021 0.6504 1.8933, 0.1386 0.6178 1.8937, 0.1386 0.6178 1.8933, 0.1662 0.5768 1.8937, 0.1662 0.5768 1.8933, 0.1817 0.534 1.8937, 0.1817 0.534 1.8933, -0.3157 0.6965 1.8933, -0.3157 0.6965 1.8937, -0.2152 0.7042 1.8937, -0.2152 0.7042 1.8933, -0.2716 1.297 1.8933, -0.2716 1.297 1.8937, 0.2108 1.297 1.8937, 0.2893 1.297 1.8933, 0.2893 1.297 1.8937, 0.2893 1.1673 1.8933, 0.2893 1.1673 1.8937, 0.2108 1.1673 1.8937, -0.1467 1.1673 1.8933, -0.1467 1.1673 1.8937, -0.1717 0.8315 1.8933, -0.1717 0.8315 1.8937
            ]
        }
        coordIndex [
            0,1,2,-1,2,1,3,-1,2,3,4,-1,4,3,5,-1,4,5,6,-1,6,5,7,-1,6,7,8,-1,8,7,9,-1,8,9,10,-1,10,9,11,-1,10,11,12,-1,12,11,13,-1,12,13,14,-1,14,13,15,-1,14,15,16,-1,16,15,17,-1,16,17,18,-1,19,20,21,-1,21,20,22,-1,21,23,19,-1,19,23,24,-1,19,24,25,-1,25,24,26,-1,25,26,27,-1,27,26,28,-1,27,28,29,-1,29,28,30,-1,29,30,31,-1,31,30,32,-1,31,32,33,-1,33,32,34,-1,33,34,35,-1,35,34,18,-1,35,18,17,-1,22,20,36,-1,36,20,37,-1,36,37,38,-1,38,37,39,-1,38,39,40,-1,40,39,41,-1,40,41,42,-1,42,41,43,-1,42,43,44,-1,44,43,45,-1,44,45,46,-1,46,45,47,-1,46,47,48,-1,48,47,49,-1,48,49,50,-1,50,49,51,-1,50,51,52,-1,53,1,54,-1,54,1,0,-1,54,55,53,-1,53,55,56,-1,53,56,57,-1,57,56,58,-1,57,58,59,-1,59,58,60,-1,59,60,61,-1,61,60,62,-1,61,62,63,-1,63,62,64,-1,63,64,65,-1,65,64,66,-1,65,66,67,-1,67,66,52,-1,67,52,51,-1,68,51,69,-1,69,51,49,-1,69,49,70,-1,70,49,47,-1,70,47,71,-1,71,47,45,-1,71,45,72,-1,72,45,43,-1,72,43,73,-1,73,43,41,-1,73,41,74,-1,74,41,39,-1,74,39,75,-1,75,39,37,-1,75,37,76,-1,76,37,20,-1,76,20,77,-1,77,20,19,-1,77,19,78,-1,78,19,25,-1,78,25,79,-1,79,25,27,-1,79,27,80,-1,80,27,29,-1,80,29,81,-1,81,29,31,-1,81,31,82,-1,82,31,33,-1,82,33,83,-1,83,33,35,-1,83,35,84,-1,84,35,17,-1,84,17,85,-1,85,17,15,-1,85,15,86,-1,86,15,13,-1,86,13,87,-1,87,13,11,-1,87,11,88,-1,88,11,9,-1,88,9,89,-1,89,9,7,-1,89,7,90,-1,90,7,5,-1,90,5,91,-1,91,5,3,-1,91,3,92,-1,92,3,1,-1,92,1,93,-1,93,1,53,-1,93,53,94,-1,94,53,57,-1,94,57,95,-1,95,57,59,-1,95,59,96,-1,96,59,61,-1,96,61,97,-1,97,61,63,-1,97,63,98,-1,98,63,65,-1,98,65,99,-1,99,65,67,-1,99,67,68,-1,68,67,51,-1,84,100,101,-1,84,101,83,-1,83,101,102,-1,83,102,82,-1,82,102,103,-1,82,103,81,-1,81,103,104,-1,81,104,80,-1,80,104,105,-1,80,105,79,-1,79,105,106,-1,79,106,78,-1,78,106,107,-1,78,107,77,-1,77,107,108,-1,77,108,76,-1,76,108,109,-1,76,109,75,-1,75,109,110,-1,75,110,74,-1,74,110,111,-1,74,111,73,-1,73,111,112,-1,73,112,72,-1,72,112,113,-1,72,113,71,-1,71,113,114,-1,71,114,70,-1,70,114,115,-1,70,115,69,-1,69,115,116,-1,69,116,68,-1,68,116,117,-1,68,117,99,-1,99,117,118,-1,99,118,98,-1,98,118,119,-1,98,119,97,-1,97,119,120,-1,97,120,96,-1,96,120,121,-1,96,121,95,-1,95,121,122,-1,95,122,94,-1,94,122,123,-1,94,123,93,-1,93,123,124,-1,93,124,92,-1,92,124,125,-1,92,125,91,-1,91,125,126,-1,91,126,90,-1,90,126,127,-1,90,127,89,-1,89,127,128,-1,89,128,88,-1,88,128,129,-1,88,129,87,-1,87,129,130,-1,87,130,86,-1,86,130,131,-1,86,131,85,-1,85,131,100,-1,85,100,84,-1,132,133,134,-1,132,134,135,-1,135,134,136,-1,135,136,137,-1,137,136,138,-1,137,138,139,-1,139,138,140,-1,139,140,141,-1,141,140,142,-1,141,142,143,-1,142,144,143,-1,143,144,145,-1,143,145,146,-1,146,145,147,-1,146,147,148,-1,148,147,149,-1,148,149,150,-1,151,152,153,-1,153,152,154,-1,153,155,151,-1,151,155,156,-1,151,156,157,-1,157,156,158,-1,157,158,159,-1,159,158,160,-1,159,160,161,-1,160,162,161,-1,161,162,163,-1,161,163,164,-1,164,163,165,-1,164,165,166,-1,166,165,133,-1,166,133,132,-1,154,152,167,-1,167,152,168,-1,167,168,169,-1,169,168,170,-1,169,170,171,-1,171,170,172,-1,171,172,173,-1,172,174,173,-1,173,174,175,-1,176,177,178,-1,176,178,179,-1,179,178,180,-1,179,180,181,-1,181,180,175,-1,181,175,174,-1,182,183,184,-1,182,184,185,-1,185,184,186,-1,185,186,187,-1,187,186,188,-1,187,188,189,-1,189,188,190,-1,189,190,191,-1,191,190,192,-1,191,192,193,-1,193,192,194,-1,193,194,195,-1,195,194,177,-1,195,177,176,-1,196,197,198,-1,196,198,199,-1,199,198,200,-1,199,200,201,-1,201,200,202,-1,201,202,203,-1,203,202,204,-1,203,204,205,-1,205,204,206,-1,205,206,207,-1,207,206,208,-1,207,208,209,-1,209,208,183,-1,209,183,182,-1,210,211,212,-1,210,212,213,-1,213,212,197,-1,213,197,196,-1,210,214,211,-1,211,214,215,-1,215,214,216,-1,216,214,217,-1,216,217,218,-1,217,219,218,-1,218,219,220,-1,220,219,221,-1,221,219,222,-1,221,222,223,-1,222,224,223,-1,223,224,225,-1,224,150,225,-1,225,150,149,-1,181,174,172,-1,219,217,222,-1,222,217,214,-1,222,214,224,-1,214,210,224,-1,224,210,213,-1,224,213,150,-1,150,213,196,-1,150,196,148,-1,148,196,199,-1,148,199,146,-1,146,199,201,-1,146,201,143,-1,143,201,203,-1,143,203,141,-1,141,203,205,-1,141,205,139,-1,139,205,207,-1,139,207,137,-1,137,207,209,-1,137,209,135,-1,135,209,182,-1,135,182,132,-1,132,182,166,-1,166,182,185,-1,166,185,164,-1,164,185,187,-1,164,187,161,-1,161,187,189,-1,161,189,159,-1,159,189,191,-1,159,191,157,-1,157,191,193,-1,157,193,151,-1,151,193,195,-1,151,195,152,-1,195,176,152,-1,152,176,179,-1,152,179,168,-1,168,179,181,-1,168,181,170,-1,170,181,172,-1,
        ]
    }
}
Shape{
    appearance Appearance {
        material  Material 	{
            diffuseColor 0.7529411764705882 0.7529411764705882 0.7529411764705882
            specularColor 0.3764705882352941 0.3764705882352941 0.3764705882352941
            ambientIntensity 0.7529
            transparency 0.0
            shininess 0.5
        }
    }
    geometry IndexedFaceSet {
        ccw TRUE
        solid FALSE
        coord DEF co Coordinate {
            point [
                -0.7666 -0.4468 1.8937, -0.7819 -0.4066 1.8937, -1.0733 -0.6247 1.8937, -0.771 -0.5598 1.8937, -0.7617 -0.5168 1.8937, -1.0594 -0.6392 1.8937, -0.8071 -0.3704 1.8937, -0.8274 -0.3506 1.8937, -1.0991 -0.5879 1.8937, -1.1147 -0.5482 1.8937, -0.8585 -0.664 1.8937, -0.8244 -0.6391 1.8937, -1.028 -0.6626 1.8937, -0.7607 -0.4971 1.8937, -0.7894 -0.598 1.8937, -0.8605 -0.3286 1.8937, -1.1169 -0.4548 1.8937, -1.1208 -0.4971 1.8937, -0.9011 -0.3146 1.8937, -0.9419 -0.3106 1.8937, -1.1043 -0.4145 1.8937, -1.0838 -0.3799 1.8937, -0.989 -0.3161 1.8937, -1.0244 -0.3293 1.8937, -1.0572 -0.3516 1.8937, -0.9896 -0.6788 1.8937, -0.9419 -0.6851 1.8937, -0.8944 -0.6787 1.8937, 1.095 0.378 1.8937, 1.1229 0.4824 1.8937, 0.9104 0.2311 1.8937, 0.7026 0.4411 1.8937, 0.6837 0.5593 1.8937, 1.1379 0.6335 1.8937, 0.6782 0.6907 1.8937, 1.1391 0.6983 1.8937, 0.6797 0.7684 1.8937, 1.1334 0.8397 1.8937, 0.6962 0.924 1.8937, 1.1145 0.9658 1.8937, 0.7253 1.0313 1.8937, 0.9579 0.2366 1.8937, 0.9948 0.2509 1.8937, 0.7323 0.3541 1.8937, 0.7626 0.3035 1.8937, 0.7966 0.2687 1.8937, 1.0288 0.2747 1.8937, 1.062 0.3131 1.8937, 0.8317 0.2471 1.8937, 0.8738 0.2342 1.8937, 1.0822 1.0627 1.8937, 1.0513 1.1141 1.8937, 1.022 1.1446 1.8937, 0.991 1.1646 1.8937, 0.9558 1.1773 1.8937, 0.9149 1.1817 1.8937, 0.8656 1.1758 1.8937, 0.8281 1.1613 1.8937, 0.7939 1.1374 1.8937, 0.7606 1.0991 1.8937
            ]
        }
        coordIndex [
            0,1,2,-1,3,4,5,-1,1,6,2,-1,2,6,7,-1,2,7,8,-1,8,7,9,-1,10,11,12,-1,5,4,2,-1,2,4,13,-1,2,13,0,-1,12,11,5,-1,5,11,14,-1,5,14,3,-1,15,16,7,-1,7,16,17,-1,7,17,9,-1,15,18,16,-1,16,18,19,-1,16,19,20,-1,20,19,21,-1,22,23,19,-1,19,23,24,-1,19,24,21,-1,25,26,12,-1,12,26,27,-1,12,27,10,-1,28,29,30,-1,31,29,32,-1,32,29,33,-1,32,33,34,-1,34,33,35,-1,34,35,36,-1,36,35,37,-1,36,37,38,-1,38,37,39,-1,38,39,40,-1,30,41,42,-1,31,43,29,-1,29,43,44,-1,29,44,45,-1,42,46,30,-1,30,46,47,-1,30,47,28,-1,45,48,29,-1,29,48,49,-1,29,49,30,-1,39,50,40,-1,40,50,51,-1,40,51,52,-1,52,53,40,-1,40,53,54,-1,40,54,55,-1,55,56,57,-1,57,58,55,-1,55,58,59,-1,55,59,40,-1,
        ]
    }
}