#VRML V2.0 utf8
# 3D model generated by easyeda2kicad.py (https://github.com/uPesy/easyeda2kicad.py)

Shape{
    appearance Appearance {
        material  Material 	{
            diffuseColor 0.20784313725490197 0.20784313725490197 0.20784313725490197
            specularColor 0.01568627450980392 0.01568627450980392 0.01568627450980392
            ambientIntensity 0.298
            transparency 0.0
            shininess 0.5
        }
    }
    geometry IndexedFaceSet {
        ccw TRUE
        solid FALSE
        coord DEF co Coordinate {
            point [
                -0.0163 0.3591 0.0197, -0.0086 -0.0411 0.0197, -0.0163 -0.0502 0.0197, -0.0086 -0.0497 0.0197, 0.0336 -0.0497 0.0197, -0.0067 0.0204 0.0197, 0.023 0.0204 0.0197, 0.023 -0.0056 0.0197, 0.049 -0.0456 0.0197, 0.049 -0.037 0.0197, 0.0336 0.029 0.0197, 0.023 -0.0142 0.0197, 0.023 -0.0411 0.0197, -0.0048 -0.0142 0.0197, -0.0048 -0.0056 0.0197, 0.1546 0.029 0.0197, 0.2115 -0.0502 0.0197, 0.1546 -0.0497 0.0197, 0.0753 -0.0502 0.0197, 0.1143 -0.0497 0.0197, 0.0803 -0.0497 0.0197, 0.088 -0.0471 0.0197, -0.0067 0.029 0.0197, 0.1034 0.0083 0.0197, 0.0988 0.0157 0.0197, 0.144 0.029 0.0197, 0.0752 0.0205 0.0197, 0.0811 0.0183 0.0197, 0.0504 -0.0378 0.0197, 0.0865 0.0147 0.0197, 0.0913 0.0094 0.0197, 0.097 -0.0112 0.0197, 0.0962 -0.0197 0.0197, 0.094 -0.0265 0.0197, 0.0765 -0.0412 0.0197, 0.0692 -0.042 0.0197, 0.0823 -0.0391 0.0197, 0.0871 -0.0359 0.0197, 0.0908 -0.032 0.0197, 0.0587 -0.0409 0.0197, 0.0945 0.0034 0.0197, 0.0966 -0.0051 0.0197, 0.0916 0.0225 0.0197, 0.2115 0.3591 0.0197, 0.0943 -0.043 0.0197, 0.1002 -0.0368 0.0197, 0.1143 -0.0411 0.0197, 0.1044 -0.0293 0.0197, 0.144 -0.0411 0.0197, 0.1068 -0.021 0.0197, 0.1075 -0.0118 0.0197, 0.1064 -0.0006 0.0197, 0.0842 0.0268 0.0197, 0.0754 0.0293 0.0197, 0.0675 0.03 0.0197, 0.0581 0.0293 0.0197, 0.049 0.0269 0.0197, 0.049 0.0163 0.0197, 0.0578 0.0201 0.0197, 0.0674 0.0213 0.0197, 0.0653 -0.0502 0.0197, 0.0685 -0.0507 0.0197, -0.0163 -0.3591 0.0197, 0.2115 -0.3591 0.0197, 0.0706 -0.0507 0.0197, -0.1447 -0.0276 0.0197, -0.1122 -0.0276 0.0197, -0.1527 -0.0497 0.0197, -0.1047 -0.0497 0.0197, -0.0931 -0.0497 0.0197, -0.0835 -0.0281 0.0197, -0.0789 -0.0352 0.0197, -0.1642 -0.0497 0.0197, -0.2115 -0.0502 0.0197, -0.1335 0.029 0.0197, -0.2115 0.3591 0.0197, -0.1229 0.029 0.0197, -0.0725 -0.0414 0.0197, -0.0642 -0.0462 0.0197, -0.0552 -0.0489 0.0197, -0.0454 -0.0497 0.0197, -0.024 -0.0497 0.0197, -0.024 0.029 0.0197, -0.0462 0.029 0.0197, -0.0755 0.0187 0.0197, -0.081 0.0126 0.0197, -0.0847 0.0058 0.0197, -0.0576 0.0278 0.0197, -0.0668 0.0246 0.0197, -0.0754 0.0188 0.0197, -0.0868 -0.002 0.0197, -0.0874 -0.0094 0.0197, -0.0863 -0.0199 0.0197, 0.0574 -0.0491 0.0197, -0.2115 -0.3591 0.0197, -0.2115 -0.3787 0.0377, 0.2115 -0.3787 0.0377, -0.2265 -0.3937 0.2087, 0.2265 -0.3937 0.2087, -0.2311 -0.3591 0.0377, -0.2461 -0.3741 0.2087, -0.2461 -0.315 0.2087, -0.2424 -0.315 0.1673, -0.2424 -0.1969 0.1673, -0.2311 0.3591 0.0377, -0.2461 0.315 0.2087, -0.2461 0.3741 0.2087, -0.2424 0.315 0.1673, -0.2424 0.1969 0.1673, -0.2461 0.1969 0.2087, -0.2461 -0.1969 0.2087, 0.2115 0.3787 0.0377, -0.2115 0.3787 0.0377, 0.2265 0.3937 0.2087, -0.2265 0.3937 0.2087, 0.2311 0.3591 0.0377, 0.2461 0.3741 0.2087, 0.2461 0.315 0.2087, 0.2461 0.1969 0.2087, 0.2461 0.0591 0.2087, 0.2424 0.1969 0.1673, 0.2424 0.0591 0.1673, 0.2424 0.315 0.1673, 0.2311 -0.3591 0.0377, 0.2424 -0.0591 0.1673, 0.2461 -0.315 0.2087, 0.2461 -0.3741 0.2087, 0.2424 -0.315 0.1673, 0.2424 -0.1969 0.1673, 0.2461 -0.1969 0.2087, 0.2461 -0.0591 0.2087, -0.2187 -0.386 0.297, 0.2187 -0.386 0.297, 0.2383 -0.3664 0.297, 0.2445 -0.1969 0.2264, 0.2445 -0.0591 0.2264, 0.2445 -0.315 0.2264, 0.2383 0.3664 0.297, 0.2445 0.0591 0.2264, 0.2445 0.315 0.2264, 0.2445 0.1969 0.2264, 0.2187 0.386 0.297, -0.2187 0.386 0.297, -0.2383 0.3664 0.297, -0.2445 0.315 0.2264, -0.2445 0.1969 0.2264, -0.2383 -0.3664 0.297, -0.2445 -0.315 0.2264, -0.2445 -0.1969 0.2264, 0.2187 -0.3664 0.315, 0.1597 -0.3217 0.315, 0.1502 -0.3257 0.315, 0.14 -0.327 0.315, 0.1298 -0.3257 0.315, -0.2187 -0.3664 0.315, 0.1203 -0.3217 0.315, 0.178 -0.2978 0.315, 0.1741 -0.3073 0.315, 0.1678 -0.3155 0.315, 0.1121 -0.3155 0.315, 0.1059 -0.3073 0.315, 0.102 -0.2978 0.315, 0.2187 0.3664 0.315, 0.178 -0.2774 0.315, 0.1794 -0.2876 0.315, 0.1502 -0.2496 0.315, 0.1597 -0.2535 0.315, 0.1678 -0.2598 0.315, 0.1741 -0.2679 0.315, 0.1006 -0.2876 0.315, 0.102 -0.2774 0.315, -0.2187 0.3664 0.315, 0.1059 -0.2679 0.315, 0.1121 -0.2598 0.315, 0.1203 -0.2535 0.315, 0.1298 -0.2496 0.315, 0.14 -0.2483 0.315
            ]
        }
        coordIndex [
            0,1,2,-1,2,1,3,-1,2,3,4,-1,5,6,7,-1,8,4,9,-1,9,4,10,-1,11,12,13,-1,13,12,1,-1,13,1,14,-1,15,16,17,-1,17,16,18,-1,17,18,19,-1,19,18,20,-1,19,20,21,-1,7,14,5,-1,5,14,1,-1,5,1,22,-1,22,1,0,-1,22,0,10,-1,23,24,25,-1,26,27,28,-1,28,27,29,-1,28,29,30,-1,31,32,28,-1,28,32,33,-1,34,35,36,-1,36,35,37,-1,33,38,28,-1,28,38,37,-1,28,37,39,-1,39,37,35,-1,30,40,28,-1,28,40,41,-1,28,41,31,-1,24,42,25,-1,25,42,0,-1,25,0,15,-1,15,0,43,-1,15,43,16,-1,21,44,19,-1,19,44,45,-1,19,45,46,-1,46,45,47,-1,46,47,48,-1,47,49,48,-1,48,49,50,-1,48,50,25,-1,25,50,51,-1,25,51,23,-1,42,52,0,-1,0,52,53,-1,0,53,54,-1,54,55,0,-1,0,55,56,-1,0,56,10,-1,10,56,57,-1,10,57,9,-1,9,57,58,-1,9,58,28,-1,28,58,59,-1,28,59,26,-1,60,61,62,-1,16,63,18,-1,18,63,62,-1,18,62,64,-1,64,62,61,-1,65,66,67,-1,67,66,68,-1,69,70,71,-1,72,73,74,-1,74,73,75,-1,74,75,76,-1,76,75,0,-1,71,77,69,-1,69,77,78,-1,69,78,79,-1,80,81,2,-1,2,81,82,-1,2,82,0,-1,0,82,83,-1,84,85,76,-1,76,85,86,-1,83,87,0,-1,0,87,88,-1,0,88,76,-1,76,88,89,-1,76,89,84,-1,79,80,69,-1,69,80,2,-1,69,2,68,-1,68,2,73,-1,68,73,67,-1,67,73,72,-1,86,90,76,-1,76,90,91,-1,76,91,69,-1,69,91,92,-1,69,92,70,-1,8,93,4,-1,4,93,60,-1,4,60,2,-1,2,60,62,-1,2,62,73,-1,73,62,94,-1,95,96,97,-1,97,96,98,-1,99,100,101,-1,101,102,99,-1,99,102,103,-1,99,103,104,-1,105,106,107,-1,107,106,104,-1,107,104,108,-1,108,104,103,-1,108,103,109,-1,109,103,110,-1,111,112,113,-1,113,112,114,-1,115,116,117,-1,118,119,120,-1,120,119,121,-1,117,122,115,-1,115,122,120,-1,115,120,123,-1,123,120,121,-1,123,121,124,-1,125,126,127,-1,127,126,123,-1,127,123,128,-1,128,123,124,-1,128,124,129,-1,129,124,130,-1,97,98,131,-1,131,98,132,-1,133,126,125,-1,129,130,134,-1,134,130,135,-1,125,136,133,-1,133,136,134,-1,133,134,137,-1,137,134,135,-1,137,135,138,-1,117,116,139,-1,139,116,137,-1,139,137,140,-1,140,137,138,-1,140,138,118,-1,118,138,119,-1,113,114,141,-1,141,114,142,-1,143,106,105,-1,105,144,143,-1,143,144,145,-1,143,145,146,-1,101,100,147,-1,147,100,146,-1,147,146,148,-1,148,146,145,-1,148,145,110,-1,110,145,109,-1,149,150,151,-1,151,152,149,-1,149,152,153,-1,149,153,154,-1,154,153,155,-1,156,157,149,-1,149,157,158,-1,149,158,150,-1,155,159,154,-1,154,159,160,-1,154,160,161,-1,162,163,149,-1,149,163,164,-1,149,164,156,-1,162,165,166,-1,166,167,162,-1,162,167,168,-1,162,168,163,-1,161,169,154,-1,154,169,170,-1,154,170,171,-1,171,170,172,-1,171,172,173,-1,173,174,171,-1,171,174,175,-1,171,175,162,-1,162,175,176,-1,162,176,165,-1,
        ]
    }
}
Shape{
    appearance Appearance {
        material  Material 	{
            diffuseColor 0.6666666666666666 0.6666666666666666 0.6666666666666666
            specularColor 0.4666666666666667 0.4666666666666667 0.4666666666666667
            ambientIntensity 0.6667
            transparency 0.0
            shininess 0.5
        }
    }
    geometry IndexedFaceSet {
        ccw TRUE
        solid FALSE
        coord DEF co Coordinate {
            point [
                0.2445 -0.315 0.2264, 0.2618 -0.315 0.2264, 0.2445 -0.1969 0.2264, 0.2618 -0.1969 0.2264, 0.2424 -0.1969 0.1673, 0.2618 -0.1969 0.1673, 0.2424 -0.315 0.1673, 0.2618 -0.315 0.1673, 0.2644 -0.315 0.167, 0.2644 -0.1969 0.167, 0.2667 -0.315 0.166, 0.2667 -0.1969 0.166, 0.2688 -0.315 0.1644, 0.2688 -0.1969 0.1644, 0.2703 -0.315 0.1624, 0.2703 -0.1969 0.1624, 0.2713 -0.315 0.16, 0.2713 -0.1969 0.16, 0.2717 -0.315 0.1575, 0.2717 -0.1969 0.1575, 0.2717 -0.315 0.0787, 0.2717 -0.1969 0.0787, 0.2743 -0.1969 0.0584, 0.2743 -0.315 0.0584, 0.2822 -0.1969 0.0394, 0.2822 -0.315 0.0394, 0.2947 -0.1969 0.0231, 0.2947 -0.315 0.0231, 0.311 -0.1969 0.0105, 0.311 -0.315 0.0105, 0.33 -0.1969 0.0027, 0.33 -0.315 0.0027, 0.3504 -0.1969 0.0, 0.3504 -0.315 0.0, 0.4134 -0.315 0.0, 0.4134 -0.1969 0.0, 0.4134 -0.315 0.0591, 0.4134 -0.1969 0.0591, 0.3504 -0.315 0.0591, 0.3504 -0.1969 0.0591, 0.3453 -0.315 0.0597, 0.3453 -0.1969 0.0597, 0.3406 -0.315 0.0617, 0.3406 -0.1969 0.0617, 0.3365 -0.315 0.0648, 0.3365 -0.1969 0.0648, 0.3333 -0.315 0.0689, 0.3333 -0.1969 0.0689, 0.3314 -0.315 0.0736, 0.3314 -0.1969 0.0736, 0.3307 -0.315 0.0787, 0.3307 -0.1969 0.0787, 0.3307 -0.315 0.1575, 0.3307 -0.1969 0.1575, 0.3284 -0.1969 0.1753, 0.3284 -0.315 0.1753, 0.3215 -0.1969 0.1919, 0.3215 -0.315 0.1919, 0.3105 -0.1969 0.2062, 0.3105 -0.315 0.2062, 0.2963 -0.1969 0.2171, 0.2963 -0.315 0.2171, 0.2796 -0.1969 0.224, 0.2796 -0.315 0.224, 0.2461 -0.315 0.2087, 0.2461 -0.1969 0.2087, 0.2445 -0.0591 0.2264, 0.2618 -0.0591 0.2264, 0.2445 0.0591 0.2264, 0.2618 0.0591 0.2264, 0.2424 0.0591 0.1673, 0.2618 0.0591 0.1673, 0.2424 -0.0591 0.1673, 0.2618 -0.0591 0.1673, 0.2644 -0.0591 0.167, 0.2644 0.0591 0.167, 0.2667 -0.0591 0.166, 0.2667 0.0591 0.166, 0.2688 -0.0591 0.1644, 0.2688 0.0591 0.1644, 0.2703 -0.0591 0.1624, 0.2703 0.0591 0.1624, 0.2713 -0.0591 0.16, 0.2713 0.0591 0.16, 0.2717 -0.0591 0.1575, 0.2717 0.0591 0.1575, 0.2717 -0.0591 0.0787, 0.2717 0.0591 0.0787, 0.2743 0.0591 0.0584, 0.2743 -0.0591 0.0584, 0.2822 0.0591 0.0394, 0.2822 -0.0591 0.0394, 0.2947 0.0591 0.0231, 0.2947 -0.0591 0.0231, 0.311 0.0591 0.0105, 0.311 -0.0591 0.0105, 0.33 0.0591 0.0027, 0.33 -0.0591 0.0027, 0.3504 0.0591 0.0, 0.3504 -0.0591 0.0, 0.4134 -0.0591 0.0, 0.4134 0.0591 0.0, 0.4134 -0.0591 0.0591, 0.4134 0.0591 0.0591, 0.3504 -0.0591 0.0591, 0.3504 0.0591 0.0591, 0.3453 -0.0591 0.0597, 0.3453 0.0591 0.0597, 0.3406 -0.0591 0.0617, 0.3406 0.0591 0.0617, 0.3365 -0.0591 0.0648, 0.3365 0.0591 0.0648, 0.3333 -0.0591 0.0689, 0.3333 0.0591 0.0689, 0.3314 -0.0591 0.0736, 0.3314 0.0591 0.0736, 0.3307 -0.0591 0.0787, 0.3307 0.0591 0.0787, 0.3307 -0.0591 0.1575, 0.3307 0.0591 0.1575, 0.3284 0.0591 0.1753, 0.3284 -0.0591 0.1753, 0.3215 0.0591 0.1919, 0.3215 -0.0591 0.1919, 0.3105 0.0591 0.2062, 0.3105 -0.0591 0.2062, 0.2963 0.0591 0.2171, 0.2963 -0.0591 0.2171, 0.2796 0.0591 0.224, 0.2796 -0.0591 0.224, 0.2461 -0.0591 0.2087, 0.2461 0.0591 0.2087, 0.2445 0.1969 0.2264, 0.2618 0.1969 0.2264, 0.2445 0.315 0.2264, 0.2618 0.315 0.2264, 0.2424 0.315 0.1673, 0.2618 0.315 0.1673, 0.2424 0.1969 0.1673, 0.2618 0.1969 0.1673, 0.2644 0.1969 0.167, 0.2644 0.315 0.167, 0.2667 0.1969 0.166, 0.2667 0.315 0.166, 0.2688 0.1969 0.1644, 0.2688 0.315 0.1644, 0.2703 0.1969 0.1624, 0.2703 0.315 0.1624, 0.2713 0.1969 0.16, 0.2713 0.315 0.16, 0.2717 0.1969 0.1575, 0.2717 0.315 0.1575, 0.2717 0.1969 0.0787, 0.2717 0.315 0.0787, 0.2743 0.315 0.0584, 0.2743 0.1969 0.0584, 0.2822 0.315 0.0394, 0.2822 0.1969 0.0394, 0.2947 0.315 0.0231, 0.2947 0.1969 0.0231, 0.311 0.315 0.0105, 0.311 0.1969 0.0105, 0.33 0.315 0.0027, 0.33 0.1969 0.0027, 0.3504 0.315 0.0, 0.3504 0.1969 0.0, 0.4134 0.1969 0.0, 0.4134 0.315 0.0, 0.4134 0.1969 0.0591, 0.4134 0.315 0.0591, 0.3504 0.1969 0.0591, 0.3504 0.315 0.0591, 0.3453 0.1969 0.0597, 0.3453 0.315 0.0597, 0.3406 0.1969 0.0617, 0.3406 0.315 0.0617, 0.3365 0.1969 0.0648, 0.3365 0.315 0.0648, 0.3333 0.1969 0.0689, 0.3333 0.315 0.0689, 0.3314 0.1969 0.0736, 0.3314 0.315 0.0736, 0.3307 0.1969 0.0787, 0.3307 0.315 0.0787, 0.3307 0.1969 0.1575, 0.3307 0.315 0.1575, 0.3284 0.315 0.1753, 0.3284 0.1969 0.1753, 0.3215 0.315 0.1919, 0.3215 0.1969 0.1919, 0.3105 0.315 0.2062, 0.3105 0.1969 0.2062, 0.2963 0.315 0.2171, 0.2963 0.1969 0.2171, 0.2796 0.315 0.224, 0.2796 0.1969 0.224, 0.2461 0.1969 0.2087, 0.2461 0.315 0.2087, -0.2618 -0.1969 0.2264, -0.2618 -0.315 0.2264, -0.2445 -0.1969 0.2264, -0.2445 -0.315 0.2264, -0.2796 -0.1969 0.224, -0.2796 -0.315 0.224, -0.2963 -0.1969 0.2171, -0.2963 -0.315 0.2171, -0.3105 -0.1969 0.2062, -0.3105 -0.315 0.2062, -0.3215 -0.1969 0.1919, -0.3215 -0.315 0.1919, -0.3284 -0.1969 0.1753, -0.3284 -0.315 0.1753, -0.3307 -0.1969 0.1575, -0.3307 -0.315 0.1575, -0.3307 -0.315 0.0787, -0.3307 -0.1969 0.0787, -0.3314 -0.315 0.0736, -0.3314 -0.1969 0.0736, -0.3333 -0.315 0.0689, -0.3333 -0.1969 0.0689, -0.3365 -0.315 0.0648, -0.3365 -0.1969 0.0648, -0.3406 -0.315 0.0617, -0.3406 -0.1969 0.0617, -0.3453 -0.315 0.0597, -0.3453 -0.1969 0.0597, -0.3504 -0.315 0.0591, -0.3504 -0.1969 0.0591, -0.4134 -0.315 0.0591, -0.4134 -0.1969 0.0591, -0.4134 -0.315 0.0, -0.4134 -0.1969 0.0, -0.3504 -0.315 0.0, -0.3504 -0.1969 0.0, -0.33 -0.1969 0.0027, -0.33 -0.315 0.0027, -0.311 -0.1969 0.0105, -0.311 -0.315 0.0105, -0.2947 -0.1969 0.0231, -0.2947 -0.315 0.0231, -0.2822 -0.1969 0.0394, -0.2822 -0.315 0.0394, -0.2743 -0.1969 0.0584, -0.2743 -0.315 0.0584, -0.2717 -0.1969 0.0787, -0.2717 -0.315 0.0787, -0.2717 -0.315 0.1575, -0.2717 -0.1969 0.1575, -0.2713 -0.315 0.16, -0.2713 -0.1969 0.16, -0.2703 -0.315 0.1624, -0.2703 -0.1969 0.1624, -0.2688 -0.315 0.1644, -0.2688 -0.1969 0.1644, -0.2667 -0.315 0.166, -0.2667 -0.1969 0.166, -0.2644 -0.315 0.167, -0.2644 -0.1969 0.167, -0.2618 -0.315 0.1673, -0.2618 -0.1969 0.1673, -0.2424 -0.315 0.1673, -0.2424 -0.1969 0.1673, -0.2461 -0.315 0.2087, -0.2461 -0.1969 0.2087, -0.2618 0.315 0.2264, -0.2618 0.1969 0.2264, -0.2445 0.315 0.2264, -0.2445 0.1969 0.2264, -0.2796 0.315 0.224, -0.2796 0.1969 0.224, -0.2963 0.315 0.2171, -0.2963 0.1969 0.2171, -0.3105 0.315 0.2062, -0.3105 0.1969 0.2062, -0.3215 0.315 0.1919, -0.3215 0.1969 0.1919, -0.3284 0.315 0.1753, -0.3284 0.1969 0.1753, -0.3307 0.315 0.1575, -0.3307 0.1969 0.1575, -0.3307 0.1969 0.0787, -0.3307 0.315 0.0787, -0.3314 0.1969 0.0736, -0.3314 0.315 0.0736, -0.3333 0.1969 0.0689, -0.3333 0.315 0.0689, -0.3365 0.1969 0.0648, -0.3365 0.315 0.0648, -0.3406 0.1969 0.0617, -0.3406 0.315 0.0617, -0.3453 0.1969 0.0597, -0.3453 0.315 0.0597, -0.3504 0.1969 0.0591, -0.3504 0.315 0.0591, -0.4134 0.1969 0.0591, -0.4134 0.315 0.0591, -0.4134 0.1969 0.0, -0.4134 0.315 0.0, -0.3504 0.1969 0.0, -0.3504 0.315 0.0, -0.33 0.315 0.0027, -0.33 0.1969 0.0027, -0.311 0.315 0.0105, -0.311 0.1969 0.0105, -0.2947 0.315 0.0231, -0.2947 0.1969 0.0231, -0.2822 0.315 0.0394, -0.2822 0.1969 0.0394, -0.2743 0.315 0.0584, -0.2743 0.1969 0.0584, -0.2717 0.315 0.0787, -0.2717 0.1969 0.0787, -0.2717 0.1969 0.1575, -0.2717 0.315 0.1575, -0.2713 0.1969 0.16, -0.2713 0.315 0.16, -0.2703 0.1969 0.1624, -0.2703 0.315 0.1624, -0.2688 0.1969 0.1644, -0.2688 0.315 0.1644, -0.2667 0.1969 0.166, -0.2667 0.315 0.166, -0.2644 0.1969 0.167, -0.2644 0.315 0.167, -0.2618 0.1969 0.1673, -0.2618 0.315 0.1673, -0.2424 0.1969 0.1673, -0.2424 0.315 0.1673, -0.2461 0.1969 0.2087, -0.2461 0.315 0.2087
            ]
        }
        coordIndex [
            0,1,2,-1,2,1,3,-1,4,5,6,-1,6,5,7,-1,7,5,8,-1,8,5,9,-1,8,9,10,-1,10,9,11,-1,10,11,12,-1,12,11,13,-1,12,13,14,-1,14,13,15,-1,14,15,16,-1,16,15,17,-1,16,17,18,-1,18,17,19,-1,20,18,21,-1,21,18,19,-1,20,21,22,-1,20,22,23,-1,23,22,24,-1,23,24,25,-1,25,24,26,-1,25,26,27,-1,27,26,28,-1,27,28,29,-1,29,28,30,-1,29,30,31,-1,31,30,32,-1,31,32,33,-1,34,33,35,-1,35,33,32,-1,36,34,37,-1,37,34,35,-1,38,36,39,-1,39,36,37,-1,38,39,40,-1,40,39,41,-1,40,41,42,-1,42,41,43,-1,42,43,44,-1,44,43,45,-1,44,45,46,-1,46,45,47,-1,46,47,48,-1,48,47,49,-1,48,49,50,-1,50,49,51,-1,52,50,53,-1,53,50,51,-1,52,53,54,-1,52,54,55,-1,55,54,56,-1,55,56,57,-1,57,56,58,-1,57,58,59,-1,59,58,60,-1,59,60,61,-1,61,60,62,-1,61,62,63,-1,63,62,3,-1,63,3,1,-1,6,63,64,-1,64,63,1,-1,64,1,0,-1,34,36,33,-1,33,36,38,-1,33,38,31,-1,31,38,40,-1,31,40,29,-1,29,40,42,-1,29,42,27,-1,27,42,44,-1,27,44,25,-1,25,44,46,-1,25,46,23,-1,23,46,48,-1,23,48,20,-1,20,48,50,-1,20,50,18,-1,18,50,52,-1,18,52,16,-1,16,52,55,-1,16,55,14,-1,14,55,57,-1,14,57,12,-1,12,57,59,-1,12,59,10,-1,10,59,61,-1,10,61,8,-1,8,61,63,-1,8,63,7,-1,7,63,6,-1,62,65,3,-1,3,65,2,-1,37,35,39,-1,39,35,32,-1,39,32,41,-1,41,32,30,-1,41,30,43,-1,43,30,28,-1,43,28,45,-1,45,28,26,-1,45,26,47,-1,47,26,24,-1,47,24,49,-1,49,24,22,-1,49,22,51,-1,51,22,21,-1,51,21,53,-1,53,21,19,-1,53,19,54,-1,54,19,17,-1,54,17,56,-1,56,17,15,-1,56,15,58,-1,58,15,13,-1,58,13,60,-1,60,13,11,-1,60,11,62,-1,4,65,5,-1,5,65,62,-1,5,62,9,-1,9,62,11,-1,66,67,68,-1,68,67,69,-1,70,71,72,-1,72,71,73,-1,73,71,74,-1,74,71,75,-1,74,75,76,-1,76,75,77,-1,76,77,78,-1,78,77,79,-1,78,79,80,-1,80,79,81,-1,80,81,82,-1,82,81,83,-1,82,83,84,-1,84,83,85,-1,86,84,87,-1,87,84,85,-1,86,87,88,-1,86,88,89,-1,89,88,90,-1,89,90,91,-1,91,90,92,-1,91,92,93,-1,93,92,94,-1,93,94,95,-1,95,94,96,-1,95,96,97,-1,97,96,98,-1,97,98,99,-1,100,99,101,-1,101,99,98,-1,102,100,103,-1,103,100,101,-1,104,102,105,-1,105,102,103,-1,104,105,106,-1,106,105,107,-1,106,107,108,-1,108,107,109,-1,108,109,110,-1,110,109,111,-1,110,111,112,-1,112,111,113,-1,112,113,114,-1,114,113,115,-1,114,115,116,-1,116,115,117,-1,118,116,119,-1,119,116,117,-1,118,119,120,-1,118,120,121,-1,121,120,122,-1,121,122,123,-1,123,122,124,-1,123,124,125,-1,125,124,126,-1,125,126,127,-1,127,126,128,-1,127,128,129,-1,129,128,69,-1,129,69,67,-1,72,129,130,-1,130,129,67,-1,130,67,66,-1,100,102,99,-1,99,102,104,-1,99,104,97,-1,97,104,106,-1,97,106,95,-1,95,106,108,-1,95,108,93,-1,93,108,110,-1,93,110,91,-1,91,110,112,-1,91,112,89,-1,89,112,114,-1,89,114,86,-1,86,114,116,-1,86,116,84,-1,84,116,118,-1,84,118,82,-1,82,118,121,-1,82,121,80,-1,80,121,123,-1,80,123,78,-1,78,123,125,-1,78,125,76,-1,76,125,127,-1,76,127,74,-1,74,127,129,-1,74,129,73,-1,73,129,72,-1,128,131,69,-1,69,131,68,-1,103,101,105,-1,105,101,98,-1,105,98,107,-1,107,98,96,-1,107,96,109,-1,109,96,94,-1,109,94,111,-1,111,94,92,-1,111,92,113,-1,113,92,90,-1,113,90,115,-1,115,90,88,-1,115,88,117,-1,117,88,87,-1,117,87,119,-1,119,87,85,-1,119,85,120,-1,120,85,83,-1,120,83,122,-1,122,83,81,-1,122,81,124,-1,124,81,79,-1,124,79,126,-1,126,79,77,-1,126,77,128,-1,70,131,71,-1,71,131,128,-1,71,128,75,-1,75,128,77,-1,132,133,134,-1,134,133,135,-1,136,137,138,-1,138,137,139,-1,139,137,140,-1,140,137,141,-1,140,141,142,-1,142,141,143,-1,142,143,144,-1,144,143,145,-1,144,145,146,-1,146,145,147,-1,146,147,148,-1,148,147,149,-1,148,149,150,-1,150,149,151,-1,152,150,153,-1,153,150,151,-1,152,153,154,-1,152,154,155,-1,155,154,156,-1,155,156,157,-1,157,156,158,-1,157,158,159,-1,159,158,160,-1,159,160,161,-1,161,160,162,-1,161,162,163,-1,163,162,164,-1,163,164,165,-1,166,165,167,-1,167,165,164,-1,168,166,169,-1,169,166,167,-1,170,168,171,-1,171,168,169,-1,170,171,172,-1,172,171,173,-1,172,173,174,-1,174,173,175,-1,174,175,176,-1,176,175,177,-1,176,177,178,-1,178,177,179,-1,178,179,180,-1,180,179,181,-1,180,181,182,-1,182,181,183,-1,184,182,185,-1,185,182,183,-1,184,185,186,-1,184,186,187,-1,187,186,188,-1,187,188,189,-1,189,188,190,-1,189,190,191,-1,191,190,192,-1,191,192,193,-1,193,192,194,-1,193,194,195,-1,195,194,135,-1,195,135,133,-1,138,195,196,-1,196,195,133,-1,196,133,132,-1,166,168,165,-1,165,168,170,-1,165,170,163,-1,163,170,172,-1,163,172,161,-1,161,172,174,-1,161,174,159,-1,159,174,176,-1,159,176,157,-1,157,176,178,-1,157,178,155,-1,155,178,180,-1,155,180,152,-1,152,180,182,-1,152,182,150,-1,150,182,184,-1,150,184,148,-1,148,184,187,-1,148,187,146,-1,146,187,189,-1,146,189,144,-1,144,189,191,-1,144,191,142,-1,142,191,193,-1,142,193,140,-1,140,193,195,-1,140,195,139,-1,139,195,138,-1,194,197,135,-1,135,197,134,-1,169,167,171,-1,171,167,164,-1,171,164,173,-1,173,164,162,-1,173,162,175,-1,175,162,160,-1,175,160,177,-1,177,160,158,-1,177,158,179,-1,179,158,156,-1,179,156,181,-1,181,156,154,-1,181,154,183,-1,183,154,153,-1,183,153,185,-1,185,153,151,-1,185,151,186,-1,186,151,149,-1,186,149,188,-1,188,149,147,-1,188,147,190,-1,190,147,145,-1,190,145,192,-1,192,145,143,-1,192,143,194,-1,136,197,137,-1,137,197,194,-1,137,194,141,-1,141,194,143,-1,198,199,200,-1,200,199,201,-1,199,198,202,-1,199,202,203,-1,203,202,204,-1,203,204,205,-1,205,204,206,-1,205,206,207,-1,207,206,208,-1,207,208,209,-1,209,208,210,-1,209,210,211,-1,211,210,212,-1,211,212,213,-1,214,213,215,-1,215,213,212,-1,214,215,216,-1,216,215,217,-1,216,217,218,-1,218,217,219,-1,218,219,220,-1,220,219,221,-1,220,221,222,-1,222,221,223,-1,222,223,224,-1,224,223,225,-1,224,225,226,-1,226,225,227,-1,228,226,229,-1,229,226,227,-1,230,228,231,-1,231,228,229,-1,232,230,233,-1,233,230,231,-1,232,233,234,-1,232,234,235,-1,235,234,236,-1,235,236,237,-1,237,236,238,-1,237,238,239,-1,239,238,240,-1,239,240,241,-1,241,240,242,-1,241,242,243,-1,243,242,244,-1,243,244,245,-1,246,245,247,-1,247,245,244,-1,246,247,248,-1,248,247,249,-1,248,249,250,-1,250,249,251,-1,250,251,252,-1,252,251,253,-1,252,253,254,-1,254,253,255,-1,254,255,256,-1,256,255,257,-1,256,257,258,-1,258,257,259,-1,258,259,260,-1,260,259,261,-1,228,230,226,-1,226,230,232,-1,226,232,224,-1,224,232,235,-1,224,235,222,-1,222,235,237,-1,222,237,220,-1,220,237,239,-1,220,239,218,-1,218,239,241,-1,218,241,216,-1,216,241,243,-1,216,243,214,-1,214,243,245,-1,214,245,213,-1,213,245,246,-1,213,246,211,-1,211,246,248,-1,211,248,209,-1,209,248,250,-1,209,250,207,-1,207,250,252,-1,207,252,205,-1,205,252,254,-1,205,254,203,-1,203,262,199,-1,199,262,201,-1,260,262,258,-1,258,262,203,-1,258,203,256,-1,256,203,254,-1,261,202,263,-1,263,202,198,-1,263,198,200,-1,231,229,233,-1,233,229,227,-1,233,227,234,-1,234,227,225,-1,234,225,236,-1,236,225,223,-1,236,223,238,-1,238,223,221,-1,238,221,240,-1,240,221,219,-1,240,219,242,-1,242,219,217,-1,242,217,244,-1,244,217,215,-1,244,215,247,-1,247,215,212,-1,247,212,249,-1,249,212,210,-1,249,210,251,-1,251,210,208,-1,251,208,253,-1,253,208,206,-1,253,206,255,-1,255,206,204,-1,255,204,257,-1,257,204,202,-1,257,202,259,-1,259,202,261,-1,264,265,266,-1,266,265,267,-1,265,264,268,-1,265,268,269,-1,269,268,270,-1,269,270,271,-1,271,270,272,-1,271,272,273,-1,273,272,274,-1,273,274,275,-1,275,274,276,-1,275,276,277,-1,277,276,278,-1,277,278,279,-1,280,279,281,-1,281,279,278,-1,280,281,282,-1,282,281,283,-1,282,283,284,-1,284,283,285,-1,284,285,286,-1,286,285,287,-1,286,287,288,-1,288,287,289,-1,288,289,290,-1,290,289,291,-1,290,291,292,-1,292,291,293,-1,294,292,295,-1,295,292,293,-1,296,294,297,-1,297,294,295,-1,298,296,299,-1,299,296,297,-1,298,299,300,-1,298,300,301,-1,301,300,302,-1,301,302,303,-1,303,302,304,-1,303,304,305,-1,305,304,306,-1,305,306,307,-1,307,306,308,-1,307,308,309,-1,309,308,310,-1,309,310,311,-1,312,311,313,-1,313,311,310,-1,312,313,314,-1,314,313,315,-1,314,315,316,-1,316,315,317,-1,316,317,318,-1,318,317,319,-1,318,319,320,-1,320,319,321,-1,320,321,322,-1,322,321,323,-1,322,323,324,-1,324,323,325,-1,324,325,326,-1,326,325,327,-1,294,296,292,-1,292,296,298,-1,292,298,290,-1,290,298,301,-1,290,301,288,-1,288,301,303,-1,288,303,286,-1,286,303,305,-1,286,305,284,-1,284,305,307,-1,284,307,282,-1,282,307,309,-1,282,309,280,-1,280,309,311,-1,280,311,279,-1,279,311,312,-1,279,312,277,-1,277,312,314,-1,277,314,275,-1,275,314,316,-1,275,316,273,-1,273,316,318,-1,273,318,271,-1,271,318,320,-1,271,320,269,-1,269,328,265,-1,265,328,267,-1,326,328,324,-1,324,328,269,-1,324,269,322,-1,322,269,320,-1,327,268,329,-1,329,268,264,-1,329,264,266,-1,297,295,299,-1,299,295,293,-1,299,293,300,-1,300,293,291,-1,300,291,302,-1,302,291,289,-1,302,289,304,-1,304,289,287,-1,304,287,306,-1,306,287,285,-1,306,285,308,-1,308,285,283,-1,308,283,310,-1,310,283,281,-1,310,281,313,-1,313,281,278,-1,313,278,315,-1,315,278,276,-1,315,276,317,-1,317,276,274,-1,317,274,319,-1,319,274,272,-1,319,272,321,-1,321,272,270,-1,321,270,323,-1,323,270,268,-1,323,268,325,-1,325,268,327,-1,
        ]
    }
}
Shape{
    appearance Appearance {
        material  Material 	{
            diffuseColor 0.20784313725490197 0.20784313725490197 0.20784313725490197
            specularColor 0.01568627450980392 0.01568627450980392 0.01568627450980392
            ambientIntensity 0.298
            transparency 0.0
            shininess 0.5
        }
    }
    geometry IndexedFaceSet {
        ccw TRUE
        solid FALSE
        coord DEF co Coordinate {
            point [
                -0.2187 -0.3664 0.315, -0.2187 0.3664 0.315, -0.2235 0.3664 0.3144, -0.2383 0.3664 0.297, -0.2383 -0.3664 0.297, -0.2374 0.3664 0.3016, -0.2374 -0.3664 0.3016, -0.2373 0.3664 0.3017, -0.2373 -0.3664 0.3017, -0.2352 0.3664 0.306, -0.2352 -0.3664 0.306, -0.2352 0.3664 0.3061, -0.2352 -0.3664 0.3061, -0.2321 0.3664 0.3097, -0.2321 -0.3664 0.3097, -0.232 0.3664 0.3098, -0.232 -0.3664 0.3098, -0.2281 0.3664 0.3126, -0.2281 -0.3664 0.3126, -0.2281 0.3664 0.3126, -0.2281 -0.3664 0.3126, -0.2236 0.3664 0.3144, -0.2236 -0.3664 0.3144, -0.2235 -0.3664 0.3144, -0.2187 -0.3828 0.3061, -0.2187 -0.3797 0.3097, -0.2222 -0.3793 0.3097, -0.2212 -0.3754 0.3126, -0.22 -0.371 0.3144, -0.2211 -0.3706 0.3144, -0.2229 -0.3688 0.3144, -0.2222 -0.3698 0.3144, -0.2234 -0.3676 0.3144, -0.2187 -0.3712 0.3144, -0.2235 -0.3844 0.3016, -0.2238 -0.3853 0.2974, -0.2238 -0.3853 0.2974, -0.2285 -0.3833 0.2976, -0.228 -0.3825 0.3016, -0.2285 -0.3833 0.2976, -0.2319 -0.3795 0.3016, -0.2325 -0.3802 0.2977, -0.2349 -0.3757 0.3016, -0.2357 -0.3761 0.2976, -0.2357 -0.3761 0.2976, -0.2367 -0.3712 0.3016, -0.2376 -0.3714 0.2974, -0.2376 -0.3714 0.2974, -0.2187 -0.3797 0.3098, -0.2187 -0.3758 0.3126, -0.2187 -0.3757 0.3126, -0.2187 -0.3712 0.3144, -0.2234 -0.3745 0.3126, -0.2254 -0.373 0.3126, -0.2269 -0.3711 0.3126, -0.2278 -0.3688 0.3126, -0.2254 -0.3779 0.3097, -0.2282 -0.3758 0.3097, -0.2303 -0.373 0.3097, -0.2316 -0.3698 0.3097, -0.2187 -0.3849 0.3017, -0.2187 -0.3829 0.306, -0.223 -0.3823 0.306, -0.227 -0.3807 0.306, -0.2304 -0.378 0.306, -0.233 -0.3746 0.306, -0.2347 -0.3706 0.306, -0.2187 -0.385 0.3016, -0.2187 -0.386 0.297, -0.2316 0.3698 0.3097, -0.2278 0.3688 0.3126, -0.2234 0.3676 0.3144, -0.2229 0.3688 0.3144, -0.2211 0.3706 0.3144, -0.2222 0.3698 0.3144, -0.22 0.371 0.3144, -0.2367 0.3712 0.3016, -0.2376 0.3714 0.2974, -0.2376 0.3714 0.2974, -0.2357 0.3761 0.2976, -0.2349 0.3757 0.3016, -0.2357 0.3761 0.2976, -0.2319 0.3795 0.3016, -0.2325 0.3802 0.2977, -0.228 0.3825 0.3016, -0.2285 0.3833 0.2976, -0.2285 0.3833 0.2976, -0.2235 0.3844 0.3016, -0.2238 0.3853 0.2974, -0.2238 0.3853 0.2974, -0.2187 0.385 0.3016, -0.2187 0.386 0.297, -0.2187 0.3712 0.3144, -0.2269 0.3711 0.3126, -0.2254 0.373 0.3126, -0.2234 0.3745 0.3126, -0.2212 0.3754 0.3126, -0.2187 0.3712 0.3144, -0.2187 0.3757 0.3126, -0.2187 0.3758 0.3126, -0.2187 0.3797 0.3098, -0.2303 0.373 0.3097, -0.2282 0.3758 0.3097, -0.2254 0.3779 0.3097, -0.2222 0.3793 0.3097, -0.2347 0.3706 0.306, -0.233 0.3746 0.306, -0.2304 0.378 0.306, -0.227 0.3807 0.306, -0.223 0.3823 0.306, -0.2187 0.3797 0.3097, -0.2187 0.3828 0.3061, -0.2187 0.3829 0.306, -0.2187 0.3849 0.3017, -0.2265 -0.3937 0.2087, -0.2315 -0.393 0.2087, -0.234 -0.3922 0.2087, -0.2363 -0.3911 0.2087, -0.2384 -0.3897 0.2087, -0.2403 -0.388 0.2087, -0.242 -0.386 0.2087, -0.2434 -0.3839 0.2087, -0.2446 -0.3816 0.2087, -0.2454 -0.3792 0.2087, -0.2461 -0.3741 0.2087, 0.2187 -0.3664 0.315, 0.2187 -0.386 0.297, 0.2187 -0.385 0.3016, 0.2187 -0.3849 0.3017, 0.2187 -0.3829 0.306, 0.2187 -0.3828 0.3061, 0.2187 -0.3797 0.3097, 0.2187 -0.3797 0.3098, 0.2187 -0.3758 0.3126, 0.2187 -0.3757 0.3126, 0.2187 -0.3712 0.3144, 0.2187 -0.3712 0.3144, 0.2187 0.3664 0.315, 0.2235 -0.3664 0.3144, 0.2383 -0.3664 0.297, 0.2383 0.3664 0.297, 0.2374 -0.3664 0.3016, 0.2374 0.3664 0.3016, 0.2373 -0.3664 0.3017, 0.2373 0.3664 0.3017, 0.2352 -0.3664 0.306, 0.2352 0.3664 0.306, 0.2352 -0.3664 0.3061, 0.2352 0.3664 0.3061, 0.2321 -0.3664 0.3097, 0.2321 0.3664 0.3097, 0.232 -0.3664 0.3098, 0.232 0.3664 0.3098, 0.2281 -0.3664 0.3126, 0.2281 0.3664 0.3126, 0.2281 -0.3664 0.3126, 0.2281 0.3664 0.3126, 0.2236 -0.3664 0.3144, 0.2236 0.3664 0.3144, 0.2235 0.3664 0.3144, 0.2187 0.3712 0.3144, 0.2187 0.386 0.297, 0.2187 0.385 0.3016, 0.2187 0.3849 0.3017, 0.2187 0.3829 0.306, 0.2187 0.3828 0.3061, 0.2187 0.3797 0.3097, 0.2187 0.3797 0.3098, 0.2187 0.3758 0.3126, 0.2187 0.3757 0.3126, 0.2187 0.3712 0.3144, -0.2461 0.3741 0.2087, -0.2454 0.3792 0.2087, -0.2446 0.3816 0.2087, -0.2434 0.3839 0.2087, -0.242 0.386 0.2087, -0.2403 0.388 0.2087, -0.2384 0.3897 0.2087, -0.2363 0.3911 0.2087, -0.234 0.3922 0.2087, -0.2315 0.393 0.2087, -0.2265 0.3937 0.2087, -0.2311 -0.3591 0.0377, -0.2304 -0.3642 0.0373, -0.2304 -0.3642 0.0373, -0.2284 -0.3689 0.037, -0.2284 -0.3689 0.037, -0.2253 -0.3729 0.037, -0.2213 -0.3761 0.037, -0.2213 -0.3761 0.037, -0.2166 -0.378 0.0373, -0.2165 -0.378 0.0373, -0.2115 -0.3787 0.0377, 0.2316 -0.3698 0.3097, 0.2278 -0.3688 0.3126, 0.2234 -0.3676 0.3144, 0.2229 -0.3688 0.3144, 0.2211 -0.3706 0.3144, 0.2222 -0.3698 0.3144, 0.22 -0.371 0.3144, 0.2367 -0.3712 0.3016, 0.2376 -0.3714 0.2974, 0.2376 -0.3714 0.2974, 0.2357 -0.3761 0.2976, 0.2349 -0.3757 0.3016, 0.2357 -0.3761 0.2976, 0.2319 -0.3795 0.3016, 0.2325 -0.3802 0.2977, 0.228 -0.3825 0.3016, 0.2285 -0.3833 0.2976, 0.2285 -0.3833 0.2976, 0.2235 -0.3844 0.3016, 0.2238 -0.3853 0.2974, 0.2238 -0.3853 0.2974, 0.2269 -0.3711 0.3126, 0.2254 -0.373 0.3126, 0.2234 -0.3745 0.3126, 0.2212 -0.3754 0.3126, 0.2303 -0.373 0.3097, 0.2282 -0.3758 0.3097, 0.2254 -0.3779 0.3097, 0.2222 -0.3793 0.3097, 0.2347 -0.3706 0.306, 0.233 -0.3746 0.306, 0.2304 -0.378 0.306, 0.227 -0.3807 0.306, 0.223 -0.3823 0.306, 0.2222 0.3793 0.3097, 0.2212 0.3754 0.3126, 0.22 0.371 0.3144, 0.2211 0.3706 0.3144, 0.2229 0.3688 0.3144, 0.2222 0.3698 0.3144, 0.2234 0.3676 0.3144, 0.2235 0.3844 0.3016, 0.2238 0.3853 0.2974, 0.2238 0.3853 0.2974, 0.2285 0.3833 0.2976, 0.228 0.3825 0.3016, 0.2285 0.3833 0.2976, 0.2319 0.3795 0.3016, 0.2325 0.3802 0.2977, 0.2349 0.3757 0.3016, 0.2357 0.3761 0.2976, 0.2357 0.3761 0.2976, 0.2367 0.3712 0.3016, 0.2376 0.3714 0.2974, 0.2376 0.3714 0.2974, 0.2234 0.3745 0.3126, 0.2254 0.373 0.3126, 0.2269 0.3711 0.3126, 0.2278 0.3688 0.3126, 0.2254 0.3779 0.3097, 0.2282 0.3758 0.3097, 0.2303 0.373 0.3097, 0.2316 0.3698 0.3097, 0.223 0.3823 0.306, 0.227 0.3807 0.306, 0.2304 0.378 0.306, 0.233 0.3746 0.306, 0.2347 0.3706 0.306, -0.2115 0.3787 0.0377, -0.2165 0.378 0.0373, -0.2166 0.378 0.0373, -0.2213 0.3761 0.037, -0.2213 0.3761 0.037, -0.2253 0.3729 0.037, -0.2284 0.3689 0.037, -0.2284 0.3689 0.037, -0.2304 0.3642 0.0373, -0.2304 0.3642 0.0373, -0.2311 0.3591 0.0377, -0.2115 -0.0502 0.0197, -0.2115 -0.3591 0.0197, -0.2163 -0.3591 0.0203, -0.2115 0.3591 0.0197, -0.2163 0.3591 0.0203, -0.2163 0.3591 0.0203, -0.2163 -0.3591 0.0203, -0.2208 0.3591 0.0221, -0.2208 -0.3591 0.0221, -0.2209 0.3591 0.0221, -0.2209 -0.3591 0.0221, -0.2248 0.3591 0.0249, -0.2248 -0.3591 0.0249, -0.2249 0.3591 0.0249, -0.2249 -0.3591 0.0249, -0.2279 0.3591 0.0286, -0.2279 -0.3591 0.0286, -0.228 0.3591 0.0287, -0.228 -0.3591 0.0287, -0.2301 0.3591 0.0329, -0.2301 -0.3591 0.0329, -0.2301 0.3591 0.033, -0.2301 -0.3591 0.033, -0.2162 -0.3604 0.0203, -0.2115 -0.3685 0.0221, -0.2115 -0.3685 0.0221, -0.2139 -0.3682 0.0221, -0.2115 -0.3724 0.0249, -0.2115 -0.3725 0.0249, -0.215 -0.372 0.0249, -0.2158 -0.3751 0.0287, -0.2163 -0.3771 0.033, -0.2208 -0.3753 0.033, -0.2295 -0.364 0.033, -0.2115 -0.3778 0.033, -0.2115 -0.3777 0.0329, -0.2115 -0.3756 0.0287, -0.2115 -0.3756 0.0286, -0.2274 -0.3634 0.0287, -0.2197 -0.3734 0.0287, -0.2247 -0.3723 0.033, -0.2244 -0.3626 0.0249, -0.2182 -0.3707 0.0249, -0.2232 -0.3708 0.0287, -0.2206 -0.3616 0.0221, -0.2209 -0.3686 0.0249, -0.2162 -0.3673 0.0221, -0.2127 -0.3638 0.0203, -0.2276 -0.3684 0.033, -0.2258 -0.3674 0.0287, -0.2231 -0.3658 0.0249, -0.2196 -0.3638 0.0221, -0.2157 -0.3616 0.0203, -0.2115 -0.3639 0.0203, -0.2115 -0.364 0.0203, -0.2181 -0.3658 0.0221, -0.2139 -0.3633 0.0203, -0.2149 -0.3626 0.0203, 0.2461 -0.3741 0.2087, 0.2454 -0.3792 0.2087, 0.2446 -0.3816 0.2087, 0.2434 -0.3839 0.2087, 0.242 -0.386 0.2087, 0.2403 -0.388 0.2087, 0.2384 -0.3897 0.2087, 0.2363 -0.3911 0.2087, 0.234 -0.3922 0.2087, 0.2315 -0.393 0.2087, 0.2265 -0.3937 0.2087, 0.2265 0.3937 0.2087, 0.2315 0.393 0.2087, 0.234 0.3922 0.2087, 0.2363 0.3911 0.2087, 0.2384 0.3897 0.2087, 0.2403 0.388 0.2087, 0.242 0.386 0.2087, 0.2434 0.3839 0.2087, 0.2446 0.3816 0.2087, 0.2454 0.3792 0.2087, 0.2461 0.3741 0.2087, -0.2115 0.3639 0.0203, -0.2127 0.3638 0.0203, -0.2206 0.3616 0.0221, -0.2244 0.3626 0.0249, -0.2274 0.3634 0.0287, -0.2295 0.364 0.033, -0.2276 0.3684 0.033, -0.2115 0.3778 0.033, -0.2163 0.3771 0.033, -0.2115 0.3777 0.0329, -0.2158 0.3751 0.0287, -0.2258 0.3674 0.0287, -0.2247 0.3723 0.033, -0.2115 0.3756 0.0287, -0.2115 0.3756 0.0286, -0.215 0.372 0.0249, -0.2231 0.3658 0.0249, -0.2232 0.3708 0.0287, -0.2115 0.3725 0.0249, -0.2115 0.3724 0.0249, -0.2139 0.3682 0.0221, -0.2209 0.3686 0.0249, -0.2196 0.3638 0.0221, -0.2162 0.3604 0.0203, -0.2208 0.3753 0.033, -0.2197 0.3734 0.0287, -0.2182 0.3707 0.0249, -0.2162 0.3673 0.0221, -0.2139 0.3633 0.0203, -0.2181 0.3658 0.0221, -0.2157 0.3616 0.0203, -0.2149 0.3626 0.0203, -0.2115 0.3685 0.0221, -0.2115 0.3685 0.0221, -0.2115 0.364 0.0203, -0.0163 -0.3591 0.0197, 0.2115 -0.3591 0.0197, 0.2115 -0.3639 0.0203, 0.2115 -0.3787 0.0377, 0.2115 -0.3778 0.033, 0.2115 -0.3777 0.0329, 0.2115 -0.3756 0.0287, 0.2115 -0.3756 0.0286, 0.2115 -0.3725 0.0249, 0.2115 -0.3724 0.0249, 0.2115 -0.3685 0.0221, 0.2115 -0.3685 0.0221, 0.2115 -0.364 0.0203, 0.2165 -0.378 0.0373, 0.2166 -0.378 0.0373, 0.2213 -0.3761 0.037, 0.2213 -0.3761 0.037, 0.2253 -0.3729 0.037, 0.2284 -0.3689 0.037, 0.2284 -0.3689 0.037, 0.2304 -0.3642 0.0373, 0.2304 -0.3642 0.0373, 0.2311 -0.3591 0.0377, 0.2311 0.3591 0.0377, 0.2304 0.3642 0.0373, 0.2304 0.3642 0.0373, 0.2284 0.3689 0.037, 0.2284 0.3689 0.037, 0.2253 0.3729 0.037, 0.2213 0.3761 0.037, 0.2213 0.3761 0.037, 0.2166 0.378 0.0373, 0.2165 0.378 0.0373, 0.2115 0.3787 0.0377, -0.0163 0.3591 0.0197, 0.2115 0.3591 0.0197, 0.2115 0.3639 0.0203, 0.2115 0.364 0.0203, 0.2115 0.3685 0.0221, 0.2115 0.3685 0.0221, 0.2115 0.3724 0.0249, 0.2115 0.3725 0.0249, 0.2115 0.3756 0.0286, 0.2115 0.3756 0.0287, 0.2115 0.3777 0.0329, 0.2115 0.3778 0.033, 0.2127 -0.3638 0.0203, 0.2208 -0.3591 0.0221, 0.2209 -0.3591 0.0221, 0.2206 -0.3616 0.0221, 0.2248 -0.3591 0.0249, 0.2249 -0.3591 0.0249, 0.2244 -0.3626 0.0249, 0.2274 -0.3634 0.0287, 0.2295 -0.364 0.033, 0.2276 -0.3684 0.033, 0.2163 -0.3771 0.033, 0.2301 -0.3591 0.033, 0.2301 -0.3591 0.0329, 0.228 -0.3591 0.0287, 0.2279 -0.3591 0.0286, 0.2158 -0.3751 0.0287, 0.2258 -0.3674 0.0287, 0.2247 -0.3723 0.033, 0.215 -0.372 0.0249, 0.2231 -0.3658 0.0249, 0.2232 -0.3708 0.0287, 0.2139 -0.3682 0.0221, 0.2209 -0.3686 0.0249, 0.2196 -0.3638 0.0221, 0.2162 -0.3604 0.0203, 0.2208 -0.3753 0.033, 0.2197 -0.3734 0.0287, 0.2182 -0.3707 0.0249, 0.2162 -0.3673 0.0221, 0.2139 -0.3633 0.0203, 0.2163 -0.3591 0.0203, 0.2163 -0.3591 0.0203, 0.2181 -0.3658 0.0221, 0.2157 -0.3616 0.0203, 0.2149 -0.3626 0.0203, 0.2163 0.3591 0.0203, 0.2162 0.3604 0.0203, 0.2139 0.3682 0.0221, 0.215 0.372 0.0249, 0.2158 0.3751 0.0287, 0.2163 0.3771 0.033, 0.2208 0.3753 0.033, 0.2301 0.3591 0.033, 0.2295 0.364 0.033, 0.2301 0.3591 0.0329, 0.2274 0.3634 0.0287, 0.2197 0.3734 0.0287, 0.2247 0.3723 0.033, 0.228 0.3591 0.0287, 0.2279 0.3591 0.0286, 0.2244 0.3626 0.0249, 0.2182 0.3707 0.0249, 0.2232 0.3708 0.0287, 0.2249 0.3591 0.0249, 0.2248 0.3591 0.0249, 0.2206 0.3616 0.0221, 0.2209 0.3686 0.0249, 0.2162 0.3673 0.0221, 0.2127 0.3638 0.0203, 0.2276 0.3684 0.033, 0.2258 0.3674 0.0287, 0.2231 0.3658 0.0249, 0.2196 0.3638 0.0221, 0.2157 0.3616 0.0203, 0.2181 0.3658 0.0221, 0.2139 0.3633 0.0203, 0.2149 0.3626 0.0203, 0.2209 0.3591 0.0221, 0.2208 0.3591 0.0221, 0.2163 0.3591 0.0203, 0.2115 -0.0502 0.0197
            ]
        }
        coordIndex [
            0,1,2,-1,3,4,5,-1,5,4,6,-1,5,6,7,-1,7,6,8,-1,7,8,9,-1,9,8,10,-1,9,10,11,-1,11,10,12,-1,11,12,13,-1,13,12,14,-1,13,14,15,-1,15,14,16,-1,15,16,17,-1,17,16,18,-1,17,18,19,-1,19,18,20,-1,19,20,21,-1,21,20,22,-1,21,22,2,-1,2,22,23,-1,2,23,0,-1,24,25,26,-1,27,28,29,-1,0,30,31,-1,32,30,0,-1,29,28,0,-1,33,0,28,-1,34,35,36,-1,35,34,37,-1,37,34,38,-1,37,38,39,-1,39,38,40,-1,39,40,41,-1,41,40,42,-1,41,42,43,-1,43,42,44,-1,44,42,45,-1,44,45,46,-1,46,45,47,-1,47,45,6,-1,47,6,4,-1,23,32,0,-1,48,49,27,-1,27,49,50,-1,27,50,28,-1,28,50,51,-1,28,51,33,-1,52,31,53,-1,53,31,30,-1,53,30,54,-1,54,30,32,-1,54,32,55,-1,23,22,32,-1,32,22,20,-1,32,20,55,-1,55,20,18,-1,55,18,16,-1,26,52,56,-1,56,52,53,-1,56,53,57,-1,57,53,54,-1,57,54,58,-1,58,54,55,-1,58,55,59,-1,59,55,16,-1,60,61,62,-1,62,61,24,-1,24,26,62,-1,62,26,56,-1,62,56,63,-1,63,56,57,-1,63,57,64,-1,64,57,58,-1,64,58,65,-1,65,58,59,-1,65,59,66,-1,25,48,26,-1,26,48,27,-1,26,27,52,-1,52,27,29,-1,52,29,31,-1,31,29,0,-1,60,34,67,-1,67,34,36,-1,67,36,68,-1,16,14,59,-1,59,14,12,-1,59,12,66,-1,66,12,10,-1,66,10,8,-1,60,62,34,-1,34,62,63,-1,34,63,38,-1,38,63,64,-1,38,64,40,-1,40,64,65,-1,40,65,42,-1,42,65,66,-1,42,66,45,-1,45,66,8,-1,45,8,6,-1,11,13,69,-1,70,71,72,-1,1,73,74,-1,75,73,1,-1,72,71,1,-1,2,1,71,-1,76,77,78,-1,77,76,79,-1,79,76,80,-1,79,80,81,-1,81,80,82,-1,81,82,83,-1,83,82,84,-1,83,84,85,-1,85,84,86,-1,86,84,87,-1,86,87,88,-1,88,87,89,-1,89,87,90,-1,89,90,91,-1,92,75,1,-1,15,17,70,-1,70,17,19,-1,70,19,71,-1,71,19,21,-1,71,21,2,-1,93,74,94,-1,94,74,73,-1,94,73,95,-1,95,73,75,-1,95,75,96,-1,92,97,75,-1,75,97,98,-1,75,98,96,-1,96,98,99,-1,96,99,100,-1,69,93,101,-1,101,93,94,-1,101,94,102,-1,102,94,95,-1,102,95,103,-1,103,95,96,-1,103,96,104,-1,104,96,100,-1,7,9,105,-1,105,9,11,-1,11,69,105,-1,105,69,101,-1,105,101,106,-1,106,101,102,-1,106,102,107,-1,107,102,103,-1,107,103,108,-1,108,103,104,-1,108,104,109,-1,13,15,69,-1,69,15,70,-1,69,70,93,-1,93,70,72,-1,93,72,74,-1,74,72,1,-1,7,76,5,-1,5,76,78,-1,5,78,3,-1,100,110,104,-1,104,110,111,-1,104,111,109,-1,109,111,112,-1,109,112,113,-1,7,105,76,-1,76,105,106,-1,76,106,80,-1,80,106,107,-1,80,107,82,-1,82,107,108,-1,82,108,84,-1,84,108,109,-1,84,109,87,-1,87,109,113,-1,87,113,90,-1,68,36,114,-1,114,36,115,-1,115,36,116,-1,116,36,35,-1,116,35,117,-1,117,35,37,-1,117,37,118,-1,118,37,39,-1,118,39,119,-1,119,39,41,-1,119,41,120,-1,120,41,43,-1,120,43,121,-1,121,43,44,-1,121,44,122,-1,122,44,46,-1,122,46,123,-1,46,47,123,-1,123,47,4,-1,123,4,124,-1,125,0,33,-1,68,126,67,-1,67,126,127,-1,67,127,60,-1,60,127,128,-1,60,128,61,-1,61,128,129,-1,61,129,24,-1,24,129,130,-1,24,130,25,-1,25,130,131,-1,25,131,48,-1,48,131,132,-1,48,132,49,-1,49,132,133,-1,49,133,50,-1,50,133,134,-1,50,134,51,-1,51,134,135,-1,51,135,33,-1,33,135,136,-1,33,136,125,-1,137,125,138,-1,139,140,141,-1,141,140,142,-1,141,142,143,-1,143,142,144,-1,143,144,145,-1,145,144,146,-1,145,146,147,-1,147,146,148,-1,147,148,149,-1,149,148,150,-1,149,150,151,-1,151,150,152,-1,151,152,153,-1,153,152,154,-1,153,154,155,-1,155,154,156,-1,155,156,157,-1,157,156,158,-1,157,158,138,-1,138,158,159,-1,138,159,137,-1,1,137,160,-1,161,91,162,-1,162,91,90,-1,162,90,163,-1,163,90,113,-1,163,113,164,-1,164,113,112,-1,164,112,165,-1,165,112,111,-1,165,111,166,-1,166,111,110,-1,166,110,167,-1,167,110,100,-1,167,100,168,-1,168,100,99,-1,168,99,169,-1,169,99,98,-1,169,98,170,-1,170,98,97,-1,170,97,160,-1,160,97,92,-1,160,92,1,-1,3,78,171,-1,171,78,172,-1,172,78,173,-1,173,78,77,-1,173,77,174,-1,174,77,79,-1,174,79,175,-1,175,79,81,-1,175,81,176,-1,176,81,83,-1,176,83,177,-1,177,83,85,-1,177,85,178,-1,178,85,86,-1,178,86,179,-1,179,86,88,-1,179,88,180,-1,88,89,180,-1,180,89,91,-1,180,91,181,-1,182,183,124,-1,124,183,123,-1,123,183,122,-1,122,183,184,-1,122,184,121,-1,121,184,185,-1,121,185,120,-1,120,185,186,-1,120,186,119,-1,119,186,187,-1,119,187,118,-1,118,187,188,-1,118,188,117,-1,117,188,189,-1,117,189,116,-1,116,189,190,-1,116,190,115,-1,190,191,115,-1,115,191,192,-1,115,192,114,-1,147,149,193,-1,194,195,196,-1,125,197,198,-1,199,197,125,-1,196,195,125,-1,138,125,195,-1,200,201,202,-1,201,200,203,-1,203,200,204,-1,203,204,205,-1,205,204,206,-1,205,206,207,-1,207,206,208,-1,207,208,209,-1,209,208,210,-1,210,208,211,-1,210,211,212,-1,212,211,213,-1,213,211,127,-1,213,127,126,-1,136,199,125,-1,151,153,194,-1,194,153,155,-1,194,155,195,-1,195,155,157,-1,195,157,138,-1,214,198,215,-1,215,198,197,-1,215,197,216,-1,216,197,199,-1,216,199,217,-1,136,135,199,-1,199,135,134,-1,199,134,217,-1,217,134,133,-1,217,133,132,-1,193,214,218,-1,218,214,215,-1,218,215,219,-1,219,215,216,-1,219,216,220,-1,220,216,217,-1,220,217,221,-1,221,217,132,-1,143,145,222,-1,222,145,147,-1,147,193,222,-1,222,193,218,-1,222,218,223,-1,223,218,219,-1,223,219,224,-1,224,219,220,-1,224,220,225,-1,225,220,221,-1,225,221,226,-1,149,151,193,-1,193,151,194,-1,193,194,214,-1,214,194,196,-1,214,196,198,-1,198,196,125,-1,143,200,141,-1,141,200,202,-1,141,202,139,-1,132,131,221,-1,221,131,130,-1,221,130,226,-1,226,130,129,-1,226,129,128,-1,143,222,200,-1,200,222,223,-1,200,223,204,-1,204,223,224,-1,204,224,206,-1,206,224,225,-1,206,225,208,-1,208,225,226,-1,208,226,211,-1,211,226,128,-1,211,128,127,-1,165,166,227,-1,228,229,230,-1,137,231,232,-1,233,231,137,-1,230,229,137,-1,160,137,229,-1,234,235,236,-1,235,234,237,-1,237,234,238,-1,237,238,239,-1,239,238,240,-1,239,240,241,-1,241,240,242,-1,241,242,243,-1,243,242,244,-1,244,242,245,-1,244,245,246,-1,246,245,247,-1,247,245,142,-1,247,142,140,-1,159,233,137,-1,167,168,228,-1,228,168,169,-1,228,169,229,-1,229,169,170,-1,229,170,160,-1,248,232,249,-1,249,232,231,-1,249,231,250,-1,250,231,233,-1,250,233,251,-1,159,158,233,-1,233,158,156,-1,233,156,251,-1,251,156,154,-1,251,154,152,-1,227,248,252,-1,252,248,249,-1,252,249,253,-1,253,249,250,-1,253,250,254,-1,254,250,251,-1,254,251,255,-1,255,251,152,-1,163,164,256,-1,256,164,165,-1,165,227,256,-1,256,227,252,-1,256,252,257,-1,257,252,253,-1,257,253,258,-1,258,253,254,-1,258,254,259,-1,259,254,255,-1,259,255,260,-1,166,167,227,-1,227,167,228,-1,227,228,248,-1,248,228,230,-1,248,230,232,-1,232,230,137,-1,163,234,162,-1,162,234,236,-1,162,236,161,-1,152,150,255,-1,255,150,148,-1,255,148,260,-1,260,148,146,-1,260,146,144,-1,163,256,234,-1,234,256,257,-1,234,257,238,-1,238,257,258,-1,238,258,240,-1,240,258,259,-1,240,259,242,-1,242,259,260,-1,242,260,245,-1,245,260,144,-1,245,144,142,-1,261,262,181,-1,181,262,180,-1,180,262,179,-1,179,262,263,-1,179,263,178,-1,178,263,264,-1,178,264,177,-1,177,264,265,-1,177,265,176,-1,176,265,266,-1,176,266,175,-1,175,266,267,-1,175,267,174,-1,174,267,268,-1,174,268,173,-1,173,268,269,-1,173,269,172,-1,269,270,172,-1,172,270,271,-1,172,271,171,-1,272,273,274,-1,275,272,276,-1,276,272,274,-1,276,274,277,-1,277,274,278,-1,277,278,279,-1,279,278,280,-1,279,280,281,-1,281,280,282,-1,281,282,283,-1,283,282,284,-1,283,284,285,-1,285,284,286,-1,285,286,287,-1,287,286,288,-1,287,288,289,-1,289,288,290,-1,289,290,291,-1,291,290,292,-1,291,292,293,-1,293,292,294,-1,293,294,271,-1,271,294,182,-1,274,273,295,-1,296,297,298,-1,299,300,301,-1,302,303,304,-1,183,182,294,-1,185,184,305,-1,305,184,183,-1,191,190,303,-1,303,190,189,-1,303,189,304,-1,304,189,188,-1,304,188,187,-1,192,191,306,-1,306,191,303,-1,306,303,307,-1,307,303,302,-1,307,302,308,-1,308,302,309,-1,183,294,305,-1,305,294,292,-1,305,292,310,-1,300,309,301,-1,301,309,302,-1,301,302,311,-1,311,302,304,-1,311,304,312,-1,312,304,187,-1,292,290,310,-1,310,290,288,-1,310,288,313,-1,297,299,298,-1,298,299,301,-1,298,301,314,-1,314,301,311,-1,314,311,315,-1,315,311,312,-1,288,286,313,-1,313,286,284,-1,313,284,316,-1,315,317,314,-1,314,317,318,-1,314,318,298,-1,298,318,319,-1,298,319,296,-1,186,185,320,-1,320,185,305,-1,320,305,321,-1,321,305,310,-1,321,310,322,-1,322,310,313,-1,322,313,323,-1,323,313,316,-1,323,316,324,-1,324,316,295,-1,324,295,273,-1,273,325,319,-1,319,325,326,-1,319,326,296,-1,317,327,318,-1,318,327,328,-1,318,328,319,-1,319,328,273,-1,327,329,328,-1,328,329,273,-1,284,282,316,-1,316,282,280,-1,316,280,295,-1,295,280,278,-1,295,278,274,-1,187,186,312,-1,312,186,320,-1,312,320,315,-1,315,320,321,-1,315,321,317,-1,317,321,322,-1,317,322,327,-1,327,322,323,-1,327,323,329,-1,329,323,324,-1,329,324,273,-1,139,202,330,-1,330,202,331,-1,331,202,332,-1,332,202,201,-1,332,201,333,-1,333,201,203,-1,333,203,334,-1,334,203,205,-1,334,205,335,-1,335,205,207,-1,335,207,336,-1,336,207,209,-1,336,209,337,-1,337,209,210,-1,337,210,338,-1,338,210,212,-1,338,212,339,-1,212,213,339,-1,339,213,126,-1,339,126,340,-1,161,236,341,-1,341,236,342,-1,342,236,343,-1,343,236,235,-1,343,235,344,-1,344,235,237,-1,344,237,345,-1,345,237,239,-1,345,239,346,-1,346,239,241,-1,346,241,347,-1,347,241,243,-1,347,243,348,-1,348,243,244,-1,348,244,349,-1,349,244,246,-1,349,246,350,-1,246,247,350,-1,350,247,140,-1,350,140,351,-1,352,275,353,-1,279,281,354,-1,283,285,355,-1,356,357,358,-1,262,261,359,-1,264,263,360,-1,360,263,262,-1,270,269,357,-1,357,269,268,-1,357,268,358,-1,358,268,267,-1,358,267,266,-1,271,270,293,-1,293,270,357,-1,293,357,291,-1,291,357,356,-1,291,356,289,-1,289,356,287,-1,262,359,360,-1,360,359,361,-1,360,361,362,-1,285,287,355,-1,355,287,356,-1,355,356,363,-1,363,356,358,-1,363,358,364,-1,364,358,266,-1,361,365,362,-1,362,365,366,-1,362,366,367,-1,281,283,354,-1,354,283,355,-1,354,355,368,-1,368,355,363,-1,368,363,369,-1,369,363,364,-1,366,370,367,-1,367,370,371,-1,367,371,372,-1,369,373,368,-1,368,373,374,-1,368,374,354,-1,354,374,375,-1,354,375,279,-1,265,264,376,-1,376,264,360,-1,376,360,377,-1,377,360,362,-1,377,362,378,-1,378,362,367,-1,378,367,379,-1,379,367,372,-1,379,372,380,-1,380,372,353,-1,380,353,275,-1,275,276,375,-1,375,276,277,-1,375,277,279,-1,373,381,374,-1,374,381,382,-1,374,382,375,-1,375,382,275,-1,381,383,382,-1,382,383,275,-1,371,384,372,-1,372,384,385,-1,372,385,353,-1,353,385,386,-1,353,386,352,-1,266,265,364,-1,364,265,376,-1,364,376,369,-1,369,376,377,-1,369,377,373,-1,373,377,378,-1,373,378,381,-1,381,378,379,-1,381,379,383,-1,383,379,380,-1,383,380,275,-1,387,388,389,-1,390,192,391,-1,391,192,306,-1,391,306,392,-1,392,306,307,-1,392,307,393,-1,393,307,308,-1,393,308,394,-1,394,308,309,-1,394,309,395,-1,395,309,300,-1,395,300,396,-1,396,300,299,-1,396,299,397,-1,397,299,297,-1,397,297,398,-1,398,297,296,-1,398,296,399,-1,399,296,326,-1,399,326,389,-1,389,326,325,-1,389,325,387,-1,387,325,273,-1,390,400,340,-1,340,400,339,-1,339,400,338,-1,338,400,401,-1,338,401,337,-1,337,401,402,-1,337,402,336,-1,336,402,403,-1,336,403,335,-1,335,403,404,-1,335,404,334,-1,334,404,405,-1,334,405,333,-1,333,405,406,-1,333,406,332,-1,332,406,407,-1,332,407,331,-1,407,408,331,-1,331,408,409,-1,331,409,330,-1,410,411,351,-1,351,411,350,-1,350,411,349,-1,349,411,412,-1,349,412,348,-1,348,412,413,-1,348,413,347,-1,347,413,414,-1,347,414,346,-1,346,414,415,-1,346,415,345,-1,345,415,416,-1,345,416,344,-1,344,416,417,-1,344,417,343,-1,343,417,418,-1,343,418,342,-1,418,419,342,-1,342,419,420,-1,342,420,341,-1,421,275,352,-1,422,421,423,-1,423,421,352,-1,423,352,424,-1,424,352,386,-1,424,386,425,-1,425,386,385,-1,425,385,426,-1,426,385,384,-1,426,384,427,-1,427,384,371,-1,427,371,428,-1,428,371,370,-1,428,370,429,-1,429,370,366,-1,429,366,430,-1,430,366,365,-1,430,365,431,-1,431,365,361,-1,431,361,432,-1,432,361,359,-1,432,359,420,-1,420,359,261,-1,389,388,433,-1,434,435,436,-1,437,438,439,-1,440,441,442,-1,400,390,391,-1,402,401,443,-1,443,401,400,-1,408,407,441,-1,441,407,406,-1,441,406,442,-1,442,406,405,-1,442,405,404,-1,409,408,444,-1,444,408,441,-1,444,441,445,-1,445,441,440,-1,445,440,446,-1,446,440,447,-1,400,391,443,-1,443,391,392,-1,443,392,448,-1,438,447,439,-1,439,447,440,-1,439,440,449,-1,449,440,442,-1,449,442,450,-1,450,442,404,-1,392,393,448,-1,448,393,394,-1,448,394,451,-1,435,437,436,-1,436,437,439,-1,436,439,452,-1,452,439,449,-1,452,449,453,-1,453,449,450,-1,394,395,451,-1,451,395,396,-1,451,396,454,-1,453,455,452,-1,452,455,456,-1,452,456,436,-1,436,456,457,-1,436,457,434,-1,403,402,458,-1,458,402,443,-1,458,443,459,-1,459,443,448,-1,459,448,460,-1,460,448,451,-1,460,451,461,-1,461,451,454,-1,461,454,462,-1,462,454,433,-1,462,433,388,-1,388,463,457,-1,457,463,464,-1,457,464,434,-1,455,465,456,-1,456,465,466,-1,456,466,457,-1,457,466,388,-1,465,467,466,-1,466,467,388,-1,396,397,454,-1,454,397,398,-1,454,398,433,-1,433,398,399,-1,433,399,389,-1,404,403,450,-1,450,403,458,-1,450,458,453,-1,453,458,459,-1,453,459,455,-1,455,459,460,-1,455,460,465,-1,465,460,461,-1,465,461,467,-1,467,461,462,-1,467,462,388,-1,468,422,469,-1,425,426,470,-1,427,428,471,-1,472,473,474,-1,411,410,475,-1,413,412,476,-1,476,412,411,-1,419,418,473,-1,473,418,417,-1,473,417,474,-1,474,417,416,-1,474,416,415,-1,420,419,432,-1,432,419,473,-1,432,473,431,-1,431,473,472,-1,431,472,430,-1,430,472,429,-1,411,475,476,-1,476,475,477,-1,476,477,478,-1,428,429,471,-1,471,429,472,-1,471,472,479,-1,479,472,474,-1,479,474,480,-1,480,474,415,-1,477,481,478,-1,478,481,482,-1,478,482,483,-1,426,427,470,-1,470,427,471,-1,470,471,484,-1,484,471,479,-1,484,479,485,-1,485,479,480,-1,482,486,483,-1,483,486,487,-1,483,487,488,-1,485,489,484,-1,484,489,490,-1,484,490,470,-1,470,490,491,-1,470,491,425,-1,414,413,492,-1,492,413,476,-1,492,476,493,-1,493,476,478,-1,493,478,494,-1,494,478,483,-1,494,483,495,-1,495,483,488,-1,495,488,496,-1,496,488,469,-1,496,469,422,-1,422,423,491,-1,491,423,424,-1,491,424,425,-1,489,497,490,-1,490,497,498,-1,490,498,491,-1,491,498,422,-1,497,499,498,-1,498,499,422,-1,487,500,488,-1,488,500,501,-1,488,501,469,-1,469,501,502,-1,469,502,468,-1,415,414,480,-1,480,414,492,-1,480,492,485,-1,485,492,493,-1,485,493,489,-1,489,493,494,-1,489,494,497,-1,497,494,495,-1,497,495,499,-1,499,495,496,-1,499,496,422,-1,503,422,468,-1,388,503,463,-1,463,503,468,-1,463,468,464,-1,464,468,502,-1,464,502,434,-1,434,502,501,-1,434,501,435,-1,435,501,500,-1,435,500,437,-1,437,500,487,-1,437,487,438,-1,438,487,486,-1,438,486,447,-1,447,486,482,-1,447,482,446,-1,446,482,481,-1,446,481,445,-1,445,481,477,-1,445,477,444,-1,444,477,475,-1,444,475,409,-1,409,475,410,-1,
        ]
    }
}
Shape{
    appearance Appearance {
        material  Material 	{
            diffuseColor 0.34901960784313724 0.34901960784313724 0.34901960784313724
            specularColor 0.023529411764705882 0.023529411764705882 0.023529411764705882
            ambientIntensity 0.498
            transparency 0.0
            shininess 0.5
        }
    }
    geometry IndexedFaceSet {
        ccw TRUE
        solid FALSE
        coord DEF co Coordinate {
            point [
                0.14 -0.327 0.3071, 0.14 -0.327 0.315, 0.1502 -0.3257 0.3071, 0.1502 -0.3257 0.315, 0.1597 -0.3217 0.3071, 0.1597 -0.3217 0.315, 0.1678 -0.3155 0.3071, 0.1678 -0.3155 0.315, 0.1741 -0.3073 0.3071, 0.1741 -0.3073 0.315, 0.178 -0.2978 0.3071, 0.178 -0.2978 0.315, 0.1794 -0.2876 0.3071, 0.1794 -0.2876 0.315, 0.178 -0.2774 0.3071, 0.178 -0.2774 0.315, 0.1741 -0.2679 0.3071, 0.1741 -0.2679 0.315, 0.1678 -0.2598 0.3071, 0.1678 -0.2598 0.315, 0.1597 -0.2535 0.3071, 0.1597 -0.2535 0.315, 0.1502 -0.2496 0.3071, 0.1502 -0.2496 0.315, 0.14 -0.2483 0.3071, 0.14 -0.2483 0.315, 0.1298 -0.2496 0.3071, 0.1298 -0.2496 0.315, 0.1203 -0.2535 0.3071, 0.1203 -0.2535 0.315, 0.1121 -0.2598 0.3071, 0.1121 -0.2598 0.315, 0.1059 -0.2679 0.3071, 0.1059 -0.2679 0.315, 0.102 -0.2774 0.3071, 0.102 -0.2774 0.315, 0.1006 -0.2876 0.3071, 0.1006 -0.2876 0.315, 0.102 -0.2978 0.3071, 0.102 -0.2978 0.315, 0.1059 -0.3073 0.3071, 0.1059 -0.3073 0.315, 0.1121 -0.3155 0.3071, 0.1121 -0.3155 0.315, 0.1203 -0.3217 0.3071, 0.1203 -0.3217 0.315, 0.1298 -0.3257 0.3071, 0.1298 -0.3257 0.315, 0.14 -0.2876 0.3071
            ]
        }
        coordIndex [
            0,1,2,-1,2,1,3,-1,2,3,4,-1,4,3,5,-1,4,5,6,-1,6,5,7,-1,6,7,8,-1,8,7,9,-1,8,9,10,-1,10,9,11,-1,10,11,12,-1,12,11,13,-1,12,13,14,-1,14,13,15,-1,14,15,16,-1,16,15,17,-1,16,17,18,-1,18,17,19,-1,18,19,20,-1,20,19,21,-1,20,21,22,-1,22,21,23,-1,22,23,24,-1,24,23,25,-1,24,25,26,-1,26,25,27,-1,26,27,28,-1,28,27,29,-1,28,29,30,-1,30,29,31,-1,30,31,32,-1,32,31,33,-1,32,33,34,-1,34,33,35,-1,34,35,36,-1,36,35,37,-1,36,37,38,-1,38,37,39,-1,38,39,40,-1,40,39,41,-1,40,41,42,-1,42,41,43,-1,42,43,44,-1,44,43,45,-1,44,45,46,-1,46,45,47,-1,46,47,0,-1,0,47,1,-1,44,46,48,-1,48,46,0,-1,48,0,2,-1,38,40,48,-1,48,40,42,-1,48,42,44,-1,32,34,48,-1,48,34,36,-1,48,36,38,-1,26,28,48,-1,48,28,30,-1,48,30,32,-1,20,22,48,-1,48,22,24,-1,48,24,26,-1,14,16,48,-1,48,16,18,-1,48,18,20,-1,8,10,48,-1,48,10,12,-1,48,12,14,-1,2,4,48,-1,48,4,6,-1,48,6,8,-1,
        ]
    }
}
Shape{
    appearance Appearance {
        material  Material 	{
            diffuseColor 1.0 1.0 1.0
            specularColor 0.8784313725490196 0.8784313725490196 0.8784313725490196
            ambientIntensity 1.0
            transparency 0.0
            shininess 0.5
        }
    }
    geometry IndexedFaceSet {
        ccw TRUE
        solid FALSE
        coord DEF co Coordinate {
            point [
                -0.1335 0.029 0.0276, -0.1642 -0.0497 0.0276, -0.1335 0.029 0.0197, -0.1642 -0.0497 0.0197, -0.1527 -0.0497 0.0276, -0.1527 -0.0497 0.0197, -0.1447 -0.0276 0.0276, -0.1447 -0.0276 0.0197, -0.1122 -0.0276 0.0276, -0.1122 -0.0276 0.0197, -0.1047 -0.0497 0.0276, -0.1047 -0.0497 0.0197, -0.0931 -0.0497 0.0276, -0.0931 -0.0497 0.0197, -0.1229 0.029 0.0276, -0.1229 0.029 0.0197, -0.1148 -0.019 0.0276, -0.1412 -0.019 0.0276, -0.1266 0.0139 0.0276, -0.1273 0.0166 0.0276, -0.1278 0.0194 0.0276, -0.1281 0.0194 0.0276, -0.1286 0.0166 0.0276, -0.1293 0.0139 0.0276, -0.1148 -0.019 0.0197, -0.1412 -0.019 0.0197, -0.1266 0.0139 0.0197, -0.1273 0.0166 0.0197, -0.1278 0.0194 0.0197, -0.1281 0.0194 0.0197, -0.1286 0.0166 0.0197, -0.1293 0.0139 0.0197, -0.0454 -0.0497 0.0276, -0.024 -0.0497 0.0276, -0.0454 -0.0497 0.0197, -0.024 -0.0497 0.0197, -0.024 0.029 0.0276, -0.024 0.029 0.0197, -0.0462 0.029 0.0276, -0.0462 0.029 0.0197, -0.0874 -0.0094 0.0276, -0.0874 -0.0094 0.0197, -0.0868 -0.002 0.0197, -0.0868 -0.002 0.0276, -0.0847 0.0058 0.0197, -0.0847 0.0058 0.0276, -0.081 0.0126 0.0197, -0.081 0.0126 0.0276, -0.0755 0.0187 0.0197, -0.0755 0.0187 0.0276, -0.0754 0.0188 0.0197, -0.0754 0.0188 0.0276, -0.0668 0.0246 0.0197, -0.0668 0.0246 0.0276, -0.0576 0.0278 0.0197, -0.0576 0.0278 0.0276, -0.0552 -0.0489 0.0197, -0.0552 -0.0489 0.0276, -0.0642 -0.0462 0.0197, -0.0642 -0.0462 0.0276, -0.0725 -0.0414 0.0197, -0.0725 -0.0414 0.0276, -0.0789 -0.0352 0.0197, -0.0789 -0.0352 0.0276, -0.0835 -0.0281 0.0197, -0.0835 -0.0281 0.0276, -0.0863 -0.0199 0.0197, -0.0863 -0.0199 0.0276, -0.0716 0.0093 0.0276, -0.0678 0.0134 0.0276, -0.062 0.0171 0.0276, -0.0555 0.0194 0.0276, -0.0462 0.0204 0.0276, -0.0346 0.0204 0.0276, -0.0346 -0.0411 0.0276, -0.0457 -0.0411 0.0276, -0.0541 -0.0403 0.0276, -0.0607 -0.0382 0.0276, -0.066 -0.0351 0.0276, -0.0705 -0.0307 0.0276, -0.0738 -0.0253 0.0276, -0.0761 -0.0179 0.0276, -0.0768 -0.0096 0.0276, -0.0762 -0.0018 0.0276, -0.0743 0.0045 0.0276, -0.0462 0.0204 0.0197, -0.0346 0.0204 0.0197, -0.0555 0.0194 0.0197, -0.062 0.0171 0.0197, -0.0678 0.0134 0.0197, -0.0716 0.0093 0.0197, -0.0743 0.0045 0.0197, -0.0762 -0.0018 0.0197, -0.0768 -0.0096 0.0197, -0.0761 -0.0179 0.0197, -0.0738 -0.0253 0.0197, -0.0705 -0.0307 0.0197, -0.066 -0.0351 0.0197, -0.0607 -0.0382 0.0197, -0.0541 -0.0403 0.0197, -0.0457 -0.0411 0.0197, -0.0346 -0.0411 0.0197, -0.0086 -0.0411 0.0276, -0.0086 -0.0497 0.0276, -0.0086 -0.0411 0.0197, -0.0086 -0.0497 0.0197, 0.0336 -0.0497 0.0276, 0.0336 -0.0497 0.0197, 0.0336 0.029 0.0276, 0.0336 0.029 0.0197, -0.0067 0.029 0.0276, -0.0067 0.029 0.0197, -0.0067 0.0204 0.0276, -0.0067 0.0204 0.0197, 0.023 0.0204 0.0276, 0.023 0.0204 0.0197, 0.023 -0.0056 0.0276, 0.023 -0.0056 0.0197, -0.0048 -0.0056 0.0276, -0.0048 -0.0056 0.0197, -0.0048 -0.0142 0.0276, -0.0048 -0.0142 0.0197, 0.023 -0.0142 0.0276, 0.023 -0.0142 0.0197, 0.023 -0.0411 0.0276, 0.023 -0.0411 0.0197, 0.049 -0.037 0.0276, 0.049 -0.0456 0.0276, 0.049 -0.037 0.0197, 0.049 -0.0456 0.0197, 0.0574 -0.0491 0.0276, 0.0706 -0.0507 0.0276, 0.0706 -0.0507 0.0197, 0.0685 -0.0507 0.0197, 0.0685 -0.0507 0.0276, 0.0653 -0.0502 0.0197, 0.0574 -0.0491 0.0197, 0.1075 -0.0118 0.0276, 0.1075 -0.0118 0.0197, 0.1068 -0.021 0.0197, 0.1068 -0.021 0.0276, 0.1044 -0.0293 0.0197, 0.1044 -0.0293 0.0276, 0.1002 -0.0368 0.0197, 0.1002 -0.0368 0.0276, 0.0943 -0.043 0.0197, 0.0943 -0.043 0.0276, 0.088 -0.0471 0.0197, 0.088 -0.0471 0.0276, 0.0803 -0.0497 0.0197, 0.0803 -0.0497 0.0276, 0.0753 -0.0502 0.0197, 0.0675 0.03 0.0276, 0.0675 0.03 0.0197, 0.0754 0.0293 0.0197, 0.0754 0.0293 0.0276, 0.0842 0.0268 0.0197, 0.0842 0.0268 0.0276, 0.0916 0.0225 0.0197, 0.0916 0.0225 0.0276, 0.0988 0.0157 0.0197, 0.0988 0.0157 0.0276, 0.1034 0.0083 0.0197, 0.1034 0.0083 0.0276, 0.1064 -0.0006 0.0197, 0.1064 -0.0006 0.0276, 0.049 0.0269 0.0276, 0.049 0.0269 0.0197, 0.0581 0.0293 0.0197, 0.0581 0.0293 0.0276, 0.049 0.0163 0.0276, 0.049 0.0163 0.0197, 0.0674 0.0213 0.0276, 0.0674 0.0213 0.0197, 0.0578 0.0201 0.0197, 0.0578 0.0201 0.0276, 0.097 -0.0112 0.0276, 0.097 -0.0112 0.0197, 0.0966 -0.0051 0.0197, 0.0966 -0.0051 0.0276, 0.0945 0.0034 0.0197, 0.0945 0.0034 0.0276, 0.0913 0.0094 0.0197, 0.0913 0.0094 0.0276, 0.0865 0.0147 0.0197, 0.0865 0.0147 0.0276, 0.0811 0.0183 0.0197, 0.0811 0.0183 0.0276, 0.0752 0.0205 0.0197, 0.0752 0.0205 0.0276, 0.0692 -0.042 0.0276, 0.0692 -0.042 0.0197, 0.0765 -0.0412 0.0197, 0.0765 -0.0412 0.0276, 0.0823 -0.0391 0.0197, 0.0823 -0.0391 0.0276, 0.0871 -0.0359 0.0197, 0.0871 -0.0359 0.0276, 0.0908 -0.032 0.0197, 0.0908 -0.032 0.0276, 0.094 -0.0265 0.0197, 0.094 -0.0265 0.0276, 0.0962 -0.0197 0.0197, 0.0962 -0.0197 0.0276, 0.0504 -0.0378 0.0197, 0.0504 -0.0378 0.0276, 0.0587 -0.0409 0.0197, 0.0587 -0.0409 0.0276, 0.1143 -0.0411 0.0276, 0.1143 -0.0497 0.0276, 0.1143 -0.0411 0.0197, 0.1143 -0.0497 0.0197, 0.1546 -0.0497 0.0276, 0.1546 -0.0497 0.0197, 0.1546 0.029 0.0276, 0.1546 0.029 0.0197, 0.144 0.029 0.0276, 0.144 0.029 0.0197, 0.144 -0.0411 0.0276, 0.144 -0.0411 0.0197
            ]
        }
        coordIndex [
            0,1,2,-1,2,1,3,-1,1,4,3,-1,3,4,5,-1,4,6,5,-1,5,6,7,-1,6,8,7,-1,7,8,9,-1,8,10,9,-1,9,10,11,-1,10,12,11,-1,11,12,13,-1,12,14,13,-1,13,14,15,-1,14,0,15,-1,15,0,2,-1,16,8,17,-1,17,8,6,-1,18,14,16,-1,16,14,12,-1,16,12,8,-1,8,12,10,-1,18,19,14,-1,14,19,20,-1,14,20,0,-1,0,20,21,-1,0,21,22,-1,22,23,0,-1,0,23,17,-1,0,17,1,-1,1,17,6,-1,1,6,4,-1,16,17,24,-1,24,17,25,-1,18,16,26,-1,26,16,24,-1,18,26,27,-1,18,27,19,-1,19,27,28,-1,19,28,20,-1,21,20,29,-1,29,20,28,-1,21,29,30,-1,21,30,22,-1,22,30,31,-1,22,31,23,-1,17,23,25,-1,25,23,31,-1,32,33,34,-1,34,33,35,-1,33,36,35,-1,35,36,37,-1,36,38,37,-1,37,38,39,-1,40,41,42,-1,40,42,43,-1,43,42,44,-1,43,44,45,-1,45,44,46,-1,45,46,47,-1,47,46,48,-1,47,48,49,-1,49,48,50,-1,49,50,51,-1,51,50,52,-1,51,52,53,-1,53,52,54,-1,53,54,55,-1,55,54,39,-1,55,39,38,-1,32,34,56,-1,32,56,57,-1,57,56,58,-1,57,58,59,-1,59,58,60,-1,59,60,61,-1,61,60,62,-1,61,62,63,-1,63,62,64,-1,63,64,65,-1,65,64,66,-1,65,66,67,-1,67,66,41,-1,67,41,40,-1,45,47,68,-1,68,47,49,-1,68,49,69,-1,69,49,51,-1,69,51,70,-1,70,51,53,-1,70,53,71,-1,71,53,55,-1,71,55,72,-1,72,55,38,-1,72,38,73,-1,73,38,36,-1,73,36,74,-1,74,36,33,-1,74,33,75,-1,75,33,32,-1,75,32,76,-1,76,32,57,-1,76,57,77,-1,77,57,59,-1,77,59,78,-1,78,59,61,-1,78,61,79,-1,79,61,63,-1,79,63,80,-1,80,63,65,-1,80,65,81,-1,81,65,67,-1,81,67,82,-1,82,67,40,-1,82,40,83,-1,83,40,43,-1,83,43,84,-1,84,43,45,-1,84,45,68,-1,72,73,85,-1,85,73,86,-1,72,85,87,-1,72,87,71,-1,71,87,88,-1,71,88,70,-1,70,88,89,-1,70,89,69,-1,69,89,90,-1,69,90,68,-1,68,90,91,-1,68,91,84,-1,84,91,92,-1,84,92,83,-1,83,92,93,-1,83,93,82,-1,82,93,94,-1,82,94,81,-1,81,94,95,-1,81,95,80,-1,80,95,96,-1,80,96,79,-1,79,96,97,-1,79,97,78,-1,78,97,98,-1,78,98,77,-1,77,98,99,-1,77,99,76,-1,76,99,100,-1,76,100,75,-1,74,75,101,-1,101,75,100,-1,73,74,86,-1,86,74,101,-1,102,103,104,-1,104,103,105,-1,103,106,105,-1,105,106,107,-1,106,108,107,-1,107,108,109,-1,108,110,109,-1,109,110,111,-1,110,112,111,-1,111,112,113,-1,112,114,113,-1,113,114,115,-1,114,116,115,-1,115,116,117,-1,116,118,117,-1,117,118,119,-1,118,120,119,-1,119,120,121,-1,120,122,121,-1,121,122,123,-1,122,124,123,-1,123,124,125,-1,124,102,125,-1,125,102,104,-1,106,103,102,-1,102,124,106,-1,106,124,122,-1,106,122,108,-1,112,110,114,-1,114,110,108,-1,114,108,116,-1,116,108,122,-1,116,122,118,-1,118,122,120,-1,126,127,128,-1,128,127,129,-1,129,127,130,-1,131,132,133,-1,131,133,134,-1,134,133,135,-1,134,135,130,-1,130,135,136,-1,130,136,129,-1,137,138,139,-1,137,139,140,-1,140,139,141,-1,140,141,142,-1,142,141,143,-1,142,143,144,-1,144,143,145,-1,144,145,146,-1,146,145,147,-1,146,147,148,-1,148,147,149,-1,148,149,150,-1,150,149,131,-1,131,149,151,-1,131,151,132,-1,152,153,154,-1,152,154,155,-1,155,154,156,-1,155,156,157,-1,157,156,158,-1,157,158,159,-1,159,158,160,-1,159,160,161,-1,161,160,162,-1,161,162,163,-1,163,162,164,-1,163,164,165,-1,165,164,138,-1,165,138,137,-1,166,167,168,-1,166,168,169,-1,169,168,153,-1,169,153,152,-1,166,170,167,-1,167,170,171,-1,172,173,174,-1,172,174,175,-1,175,174,171,-1,175,171,170,-1,176,177,178,-1,176,178,179,-1,179,178,180,-1,179,180,181,-1,181,180,182,-1,181,182,183,-1,183,182,184,-1,183,184,185,-1,185,184,186,-1,185,186,187,-1,187,186,188,-1,187,188,189,-1,189,188,173,-1,189,173,172,-1,190,191,192,-1,190,192,193,-1,193,192,194,-1,193,194,195,-1,195,194,196,-1,195,196,197,-1,197,196,198,-1,197,198,199,-1,199,198,200,-1,199,200,201,-1,201,200,202,-1,201,202,203,-1,203,202,177,-1,203,177,176,-1,126,128,204,-1,126,204,205,-1,205,204,206,-1,205,206,207,-1,207,206,191,-1,207,191,190,-1,193,131,190,-1,190,131,134,-1,190,134,207,-1,207,134,130,-1,207,130,205,-1,205,130,127,-1,205,127,126,-1,170,166,175,-1,175,166,169,-1,175,169,172,-1,172,169,152,-1,172,152,189,-1,189,152,155,-1,189,155,187,-1,187,155,157,-1,187,157,185,-1,185,157,159,-1,185,159,183,-1,183,159,161,-1,183,161,181,-1,181,161,163,-1,181,163,179,-1,179,163,165,-1,179,165,176,-1,176,165,137,-1,176,137,203,-1,203,137,140,-1,203,140,201,-1,201,140,142,-1,201,142,199,-1,199,142,144,-1,199,144,197,-1,197,144,146,-1,197,146,195,-1,195,146,148,-1,195,148,193,-1,193,148,150,-1,193,150,131,-1,208,209,210,-1,210,209,211,-1,209,212,211,-1,211,212,213,-1,212,214,213,-1,213,214,215,-1,214,216,215,-1,215,216,217,-1,216,218,217,-1,217,218,219,-1,218,208,219,-1,219,208,210,-1,216,214,218,-1,218,214,212,-1,218,212,208,-1,208,212,209,-1,
        ]
    }
}
Shape{
    appearance Appearance {
        material  Material 	{
            diffuseColor 0.20784313725490197 0.20784313725490197 0.20784313725490197
            specularColor 0.01568627450980392 0.01568627450980392 0.01568627450980392
            ambientIntensity 0.298
            transparency 0.0
            shininess 0.5
        }
    }
    geometry IndexedFaceSet {
        ccw TRUE
        solid FALSE
        coord DEF co Coordinate {
            point [
                -0.1148 -0.019 0.0197, -0.1412 -0.019 0.0197, -0.1266 0.0139 0.0197, -0.1293 0.0139 0.0197, -0.1273 0.0166 0.0197, -0.1286 0.0166 0.0197, -0.1278 0.0194 0.0197, -0.1281 0.0194 0.0197, -0.0346 0.0204 0.0197, -0.0346 -0.0411 0.0197, -0.0462 0.0204 0.0197, -0.0457 -0.0411 0.0197, -0.0541 -0.0403 0.0197, -0.0768 -0.0096 0.0197, -0.0762 -0.0018 0.0197, -0.0743 0.0045 0.0197, -0.0555 0.0194 0.0197, -0.0607 -0.0382 0.0197, -0.066 -0.0351 0.0197, -0.0705 -0.0307 0.0197, -0.0738 -0.0253 0.0197, -0.0761 -0.0179 0.0197, -0.0716 0.0093 0.0197, -0.0678 0.0134 0.0197, -0.062 0.0171 0.0197
            ]
        }
        coordIndex [
            0,1,2,-1,2,1,3,-1,2,3,4,-1,4,3,5,-1,4,5,6,-1,6,5,7,-1,8,9,10,-1,10,9,11,-1,10,11,12,-1,13,14,10,-1,10,14,15,-1,10,15,16,-1,12,17,10,-1,10,17,18,-1,10,18,19,-1,19,20,10,-1,10,20,21,-1,10,21,13,-1,22,23,15,-1,15,23,24,-1,15,24,16,-1,
        ]
    }
}